G04 ================== begin FILE IDENTIFICATION RECORD ==================*
G04 Layout Name:  e:/ORCAD_sch/P400/KVP_03v1/pcb/kvp_03v1.brd*
G04 Film Name:    BOTTOM*
G04 File Format:  Gerber RS274X*
G04 File Origin:  Cadence Allegro 16.6-S003*
G04 Origin Date:  Fri Mar 15 11:53:02 2013*
G04 *
G04 Layer:  ETCH/BOTTOM*
G04 Layer:  PIN/BOTTOM*
G04 Layer:  VIA CLASS/BOTTOM*
G04 *
G04 Offset:    (0.000 0.000)*
G04 Mirror:    No*
G04 Mode:      Positive*
G04 Rotation:  0*
G04 FullContactRelief:  No*
G04 UndefLineWidth:     0.250*
G04 ================== end FILE IDENTIFICATION RECORD ====================*
%FSLAX34Y34*MOMM*%
%IR0*IPPOS*OFA0.00000B0.00000*MIA0B0*SFA1.00000B1.00000*%
%ADD25R,.6X1.*%
%ADD16R,.6X1.1*%
%ADD24R,2.X.6*%
%ADD22R,2.2X.6*%
%ADD11C,1.*%
%ADD14C,3.1*%
%ADD10C,4.2*%
%ADD38C,5.2*%
%ADD37C,2.5*%
%ADD18C,1.6*%
%ADD31R,.95X1.4*%
%ADD30R,1.4X.95*%
%ADD13C,1.55*%
%ADD34R,2.05X2.05*%
%ADD23R,1.55X.65*%
%ADD32C,1.95*%
%ADD12R,1.55X1.55*%
%ADD33R,1.95X1.95*%
%ADD21R,1.1X1.4*%
%ADD17R,1.4X1.1*%
%ADD29R,1.1X2.8*%
%ADD28O,1.X1.95*%
%ADD26R,2.8X1.1*%
%ADD35O,1.95X1.*%
%ADD20R,1.X1.75*%
%ADD36R,2.5X2.5*%
%ADD15R,1.75X1.*%
%ADD19R,1.8X1.25*%
%ADD27R,.5X.9*%
%ADD39C,.4*%
%ADD40C,.25*%
%ADD41C,.8*%
%ADD42C,.35*%
%ADD44C,2.008*%
%ADD47C,2.208*%
%ADD43C,2.254*%
%ADD45C,2.058*%
%ADD46C,2.258*%
G75*
%LPD*%
G75*
G36*
G01X60410Y480000D02*
G02X59710Y480290I4J1000D01*
G01X50290Y489710D01*
G02X50000Y490410I710J704D01*
G01Y490420D01*
X52000Y1237580D01*
G03X51710Y1238290I-1000J6D01*
G01X-3270Y1293270D01*
X-3360Y1293360D01*
X-3470Y1293540D01*
X-3510Y1293610D01*
X-3520Y1293630D01*
G03X-14390Y1304460I-21874J-11085D01*
G01X-14530Y1304530D01*
X-34710Y1324710D01*
G02X-35000Y1325410I710J704D01*
G01Y1659590D01*
G02X-34710Y1660290I1000J-4D01*
G01X-25290Y1669710D01*
G02X-24590Y1670000I704J-710D01*
G01X-12230D01*
X-11780Y1669740D01*
X-11640Y1669500D01*
G03X-11600Y1669440I854J526D01*
G01X-10760Y1668260D01*
G02X-10570Y1667580I-807J-592D01*
G01X-10590Y1667410D01*
X-10630Y1667300D01*
G03X10700Y1667070I10626J-3751D01*
G01X10690Y1667090D01*
X10570Y1667510D01*
Y1667680D01*
G02X10610Y1667960I1001J0D01*
G02X10760Y1668270I960J-273D01*
G01X11600Y1669440D01*
G03X11640Y1669500I-814J586D01*
G01X11780Y1669740D01*
X12230Y1670000D01*
X38570D01*
X39020Y1669740D01*
X39160Y1669500D01*
G03X39200Y1669440I854J526D01*
G01X40040Y1668260D01*
G02X40230Y1667580I-807J-592D01*
G01X40210Y1667410D01*
X40170Y1667300D01*
G03X61500Y1667070I10626J-3751D01*
G01X61490Y1667090D01*
X61370Y1667510D01*
Y1667680D01*
G02X61410Y1667960I1001J0D01*
G02X61560Y1668270I960J-273D01*
G01X62400Y1669440D01*
G03X62440Y1669500I-814J586D01*
G01X62580Y1669740D01*
X63030Y1670000D01*
X99590D01*
G02X100290Y1669710I-4J-1000D01*
G01X110870Y1659130D01*
X111020Y1658810D01*
X111030Y1658630D01*
G03X128630Y1641030I18970J1370D01*
G01X128810Y1641020D01*
X129130Y1640870D01*
X144710Y1625290D01*
G02X145000Y1624590I-710J-704D01*
G01Y825410D01*
G03X145290Y824710I1000J4D01*
G01X149710Y820290D01*
G03X150410Y820000I704J710D01*
G01X309600D01*
X309700Y819980D01*
X309930Y819940D01*
X310090Y819850D01*
G02X310320Y819680I-473J-881D01*
G01X319700Y810300D01*
G02X319920Y809980I-699J-716D01*
G01X320000Y809780D01*
Y490410D01*
G02X319710Y489710I-1000J4D01*
G01X310290Y480290D01*
G02X309590Y480000I-704J710D01*
G01X279290D01*
G02X278290Y481000I0J1000D01*
G01Y492290D01*
G03X277290Y493290I-1000J0D01*
G01X262710D01*
G03X261710Y492290I0J-1000D01*
G01Y481000D01*
G02X260710Y480000I-1000J0D01*
G01X254290D01*
G02X253290Y481000I0J1000D01*
G01Y492290D01*
G03X252290Y493290I-1000J0D01*
G01X237710D01*
G03X236710Y492290I0J-1000D01*
G01Y481000D01*
G02X235710Y480000I-1000J0D01*
G01X60410D01*
G37*
G36*
G01X185000Y911000D02*
Y1709590D01*
G03X184710Y1710290I-1000J-4D01*
G01X120290Y1774710D01*
G03X119590Y1775000I-704J-710D01*
G01X58440D01*
G02X57970Y1775110I-13J1002D01*
G02X57860Y1775180I481J878D01*
G03X56390Y1776070I-7073J-10023D01*
G02X56280Y1776130I424J908D01*
G02X55850Y1776960I573J823D01*
G01Y1778740D01*
G02X56250Y1779540I1001J0D01*
G02X56390Y1779630I609J-793D01*
G03X61960Y1785450I-5588J10923D01*
G02X62870Y1786030I908J-420D01*
G01X132360D01*
X132540Y1785960D01*
G02X132870Y1785740I-379J-926D01*
G01X210190Y1708420D01*
G02X210410Y1708090I-706J-709D01*
G01X210480Y1707910D01*
Y988540D01*
G03X210770Y987830I1002J-5D01*
G01X250190Y948420D01*
G02X250410Y948090I-706J-709D01*
G01X250480Y947910D01*
Y942270D01*
G02X249480Y941270I-1000J0D01*
G01X248480D01*
G03X247480Y940270I0J-1000D01*
G01Y919730D01*
G03X248480Y918730I1000J0D01*
G01X261520D01*
G03X262520Y919730I0J1000D01*
G01Y940270D01*
G03X261520Y941270I-1000J0D01*
G01X260520D01*
G02X259520Y942270I0J1000D01*
G01Y951460D01*
G03X259230Y952170I-1002J5D01*
G01X219810Y991580D01*
G02X219520Y992290I710J704D01*
G01Y1711460D01*
G03X219230Y1712170I-1002J5D01*
G01X136620Y1794780D01*
G03X135920Y1795070I-705J-712D01*
G01X62870D01*
G02X61960Y1795650I-2J1000D01*
G03X58480Y1800120I-11161J-5099D01*
G01X58230Y1800320D01*
X58060Y1800920D01*
X58790Y1803010D01*
G02X59730Y1803680I944J-330D01*
G01X62070D01*
G03X63070Y1804680I0J1000D01*
G01Y1810430D01*
G02X63360Y1811140I1001J5D01*
G02X64070Y1811430I705J-711D01*
G01X131960D01*
X132140Y1811360D01*
G02X132470Y1811140I-379J-926D01*
G01X230190Y1713420D01*
G02X230410Y1713090I-706J-709D01*
G01X230480Y1712910D01*
Y1278540D01*
G03X230770Y1277830I1002J-5D01*
G01X250190Y1258420D01*
G02X250410Y1258090I-706J-709D01*
G01X250480Y1257910D01*
Y1252270D01*
G02X249480Y1251270I-1000J0D01*
G01X248480D01*
G03X247480Y1250270I0J-1000D01*
G01Y1229730D01*
G03X248480Y1228730I1000J0D01*
G01X261520D01*
G03X262520Y1229730I0J1000D01*
G01Y1250270D01*
G03X261520Y1251270I-1000J0D01*
G01X260520D01*
G02X259520Y1252270I0J1000D01*
G01Y1261460D01*
G03X259230Y1262170I-1002J5D01*
G01X239810Y1281580D01*
G02X239520Y1282290I710J704D01*
G01Y1716460D01*
G03X239230Y1717170I-1002J5D01*
G01X136220Y1820180D01*
G03X135520Y1820470I-705J-712D01*
G01X64070D01*
G02X63070Y1821470I0J1000D01*
G01Y1827220D01*
G03X62070Y1828220I-1000J0D01*
G01X59730D01*
G02X58790Y1828890I4J1000D01*
G01X58060Y1830980D01*
X58230Y1831580D01*
X58480Y1831780D01*
G03X61960Y1836250I-7681J9569D01*
G02X62870Y1836830I908J-420D01*
G01X131560D01*
X131740Y1836760D01*
G02X132070Y1836540I-379J-926D01*
G01X250190Y1718420D01*
G02X250410Y1718090I-706J-709D01*
G01X250480Y1717910D01*
Y1402270D01*
G02X249480Y1401270I-1000J0D01*
G01X248480D01*
G03X247480Y1400270I0J-1000D01*
G01Y1379730D01*
G03X248480Y1378730I1000J0D01*
G01X261520D01*
G03X262520Y1379730I0J1000D01*
G01Y1400270D01*
G03X261520Y1401270I-1000J0D01*
G01X260520D01*
G02X259520Y1402270I0J1000D01*
G01Y1721460D01*
G03X259230Y1722170I-1002J5D01*
G01X135820Y1845580D01*
G03X135120Y1845870I-705J-712D01*
G01X62870D01*
G02X61960Y1846450I-2J1000D01*
G03X56390Y1852270I-11158J-5103D01*
G02X56250Y1852360I469J883D01*
G02X55850Y1853160I601J800D01*
G01Y1854940D01*
G02X56250Y1855740I1001J0D01*
G02X56390Y1855830I609J-793D01*
G03X61960Y1861650I-5588J10923D01*
G02X62870Y1862230I908J-420D01*
G01X224910D01*
X225090Y1862160D01*
G02X225420Y1861940I-379J-926D01*
G01X232190Y1855170D01*
G02X232410Y1854840I-706J-709D01*
G01X232480Y1854660D01*
Y1839730D01*
G03X233480Y1838730I1000J0D01*
G01X246520D01*
G03X247520Y1839730I0J1000D01*
G01Y1860270D01*
G03X246520Y1861270I-1000J0D01*
G01X239290D01*
X239080D01*
X238720Y1861420D01*
X233120Y1867030D01*
G02X232910Y1868120I712J702D01*
G01X233030Y1868400D01*
X233520Y1868730D01*
X246520D01*
G03X247520Y1869730I0J1000D01*
G01Y1890270D01*
G03X246520Y1891270I-1000J0D01*
G01X239290D01*
X239080D01*
X238720Y1891420D01*
X234510Y1895640D01*
G03X233810Y1895930I-705J-712D01*
G01X230880D01*
X230660D01*
X230290Y1896090D01*
X230020Y1896380D01*
G03X229320Y1896670I-705J-712D01*
G01X62870D01*
G02X61960Y1897250I-2J1000D01*
G03X56390Y1903070I-11158J-5103D01*
G02X56250Y1903160I469J883D01*
G02X55850Y1903960I601J800D01*
G01Y1905740D01*
G02X56250Y1906540I1001J0D01*
G02X56390Y1906630I609J-793D01*
G03X61960Y1912450I-5588J10923D01*
G02X62870Y1913030I908J-420D01*
G01X221600D01*
X221780Y1912960D01*
G02X222110Y1912740I-379J-926D01*
G01X229070Y1905770D01*
G03X229770Y1905480I705J712D01*
G01X231480D01*
G02X232190Y1905190I5J-1001D01*
G02X232480Y1904480I-711J-705D01*
G01Y1899730D01*
G03X233480Y1898730I1000J0D01*
G01X246520D01*
G03X247520Y1899730I0J1000D01*
G01Y1920270D01*
G03X246520Y1921270I-1000J0D01*
G01X233480D01*
G03X232480Y1920270I0J-1000D01*
G01Y1917570D01*
G02X231860Y1916640I-1001J-4D01*
G01X231580Y1916530D01*
X231000Y1916640D01*
X225860Y1921780D01*
G03X225160Y1922070I-705J-712D01*
G01X62870D01*
G02X61960Y1922650I-2J1000D01*
G03X56390Y1928470I-11158J-5103D01*
G02X56250Y1928560I469J883D01*
G02X55850Y1929360I601J800D01*
G01Y1931140D01*
G02X56250Y1931940I1001J0D01*
G02X56390Y1932030I609J-793D01*
G03X61960Y1937850I-5588J10923D01*
G02X62870Y1938430I908J-420D01*
G01X226200D01*
X226380Y1938360D01*
G02X226710Y1938140I-379J-926D01*
G01X229070Y1935770D01*
G03X229770Y1935480I705J712D01*
G01X231480D01*
G02X232190Y1935190I5J-1001D01*
G02X232480Y1934480I-711J-705D01*
G01Y1929730D01*
G03X233480Y1928730I1000J0D01*
G01X246520D01*
G03X247520Y1929730I0J1000D01*
G01Y1950270D01*
G03X246520Y1951270I-1000J0D01*
G01X233480D01*
G03X232480Y1950270I0J-1000D01*
G01Y1947570D01*
G02X231860Y1946640I-1001J-4D01*
G01X231580Y1946530D01*
X231000Y1946640D01*
X230460Y1947180D01*
G03X229760Y1947470I-705J-712D01*
G01X62870D01*
G02X61960Y1948050I-2J1000D01*
G03X39640I-11160J-5100D01*
G02X38730Y1947470I-908J420D01*
G01X12070D01*
G02X11160Y1948050I-2J1000D01*
G03X-5590Y1932030I-11160J-5098D01*
G02X-5450Y1931940I-469J-883D01*
G02X-5050Y1931140I-601J-800D01*
G01Y1929360D01*
G02X-5450Y1928550I-1003J-8D01*
G02X-5590Y1928470I-566J828D01*
G03Y1906630I5590J-10920D01*
G02X-5450Y1906550I-426J-908D01*
G02X-5050Y1905740I-603J-802D01*
G01Y1903960D01*
G02X-5450Y1903150I-1003J-8D01*
G02X-5590Y1903070I-566J828D01*
G03Y1881230I5590J-10920D01*
G02X-5450Y1881150I-426J-908D01*
G02X-5050Y1880340I-603J-802D01*
G01Y1878560D01*
G02X-5450Y1877750I-1003J-8D01*
G02X-5590Y1877670I-566J828D01*
G03Y1855830I5590J-10920D01*
G02X-5450Y1855750I-426J-908D01*
G02X-5050Y1854940I-603J-802D01*
G01Y1853160D01*
G02X-5450Y1852360I-1001J0D01*
G02X-5590Y1852270I-609J793D01*
G03X-7680Y1831780I5590J-10922D01*
G01X-7430Y1831580D01*
X-7260Y1830980D01*
X-7990Y1828890D01*
G02X-8930Y1828220I-944J330D01*
G01X-11270D01*
G03X-12270Y1827220I0J-1000D01*
G01Y1804680D01*
G03X-11270Y1803680I1000J0D01*
G01X-8930D01*
G02X-7990Y1803010I-4J-1000D01*
G01X-7260Y1800920D01*
X-7430Y1800320D01*
X-7680Y1800120D01*
G03X-5590Y1779630I7680J-9568D01*
G02X-5450Y1779540I-469J-883D01*
G02X-5050Y1778740I-601J-800D01*
G01Y1776960D01*
G02X-5480Y1776130I-1003J-7D01*
G02X-5590Y1776070I-534J848D01*
G03X-7060Y1775180I5603J-10913D01*
G02X-7170Y1775110I-591J808D01*
G02X-7640Y1775000I-457J892D01*
G01X-24000D01*
G02X-25000Y1776000I0J1000D01*
G01Y2029000D01*
G02X-24710Y2029710I1001J5D01*
G02X-24000Y2030000I705J-711D01*
G01X-11190D01*
G02X-11170I10J-1000D01*
G02X-10390Y2029600I-21J-1001D01*
G02X-10290Y2029430I-805J-588D01*
G01X-9380Y2027550D01*
X-9440Y2026990D01*
X-9620Y2026760D01*
G03X-5590Y2008230I9622J-7611D01*
G02X-5460Y2008150I-458J-889D01*
G02X-5050Y2007340I-591J-808D01*
G01Y2005560D01*
G02X-5450Y2004750I-1003J-8D01*
G02X-5590Y2004670I-566J828D01*
G03X5590I5590J-10920D01*
G02X5450Y2004750I426J908D01*
G02X5050Y2005560I603J802D01*
G01Y2007340D01*
G02X5460Y2008150I1001J2D01*
G02X5590Y2008230I588J-809D01*
G03X9620Y2026760I-5592J10919D01*
G01X9440Y2026990D01*
X9380Y2027550D01*
X10290Y2029430D01*
G02X10390Y2029600I906J-419D01*
G02X11170Y2030000I801J-601D01*
G02X11190I10J-1000D01*
G01X39610D01*
G02X39630I10J-1000D01*
G02X40410Y2029600I-21J-1001D01*
G02X40510Y2029430I-805J-588D01*
G01X41420Y2027550D01*
X41360Y2026990D01*
X41180Y2026760D01*
G03X45210Y2008230I9622J-7611D01*
G02X45340Y2008150I-458J-889D01*
G02X45750Y2007340I-591J-808D01*
G01Y2005560D01*
G02X45350Y2004750I-1003J-8D01*
G02X45210Y2004670I-566J828D01*
G03X56390I5590J-10920D01*
G02X56250Y2004750I426J908D01*
G02X55850Y2005560I603J802D01*
G01Y2007340D01*
G02X56260Y2008150I1001J2D01*
G02X56390Y2008230I588J-809D01*
G03X60420Y2026760I-5592J10919D01*
G01X60240Y2026990D01*
X60180Y2027550D01*
X61090Y2029430D01*
G02X61190Y2029600I905J-418D01*
G02X61970Y2030000I801J-601D01*
G02X61990I10J-1000D01*
G01X487320D01*
G02X488270Y2029300I-4J-1000D01*
G01X488850Y2027490D01*
G02X488470Y2026370I-954J-301D01*
G03X511530I11530J-16370D01*
G02X511150Y2027490I574J819D01*
G01X511730Y2029300D01*
G02X512680Y2030000I954J-300D01*
G01X619000D01*
G02X619710Y2029710I5J-1001D01*
G02X620000Y2029000I-711J-705D01*
G01Y1995330D01*
G02X619660Y1994580I-1000J1D01*
G01X618510Y1993580D01*
G02X617720Y1993340I-659J750D01*
G01X617710D01*
G03X604790Y1986300I-1762J-12142D01*
G02X603880Y1985720I-908J420D01*
G01X597730D01*
G03X597030Y1985430I5J-1002D01*
G01X541820Y1930210D01*
G02X541110Y1929920I-704J710D01*
G01X425020D01*
G02X424020Y1930920I0J1000D01*
G01Y1942810D01*
G02X424540Y1943690I1000J3D01*
G01X426330Y1944660D01*
X426880Y1944640D01*
X427110Y1944490D01*
G03X425750Y1955980I4090J6310D01*
G02X425020Y1955660I-733J680D01*
G01X425010D01*
G02X424310Y1955950I4J1000D01*
G01X424230Y1956030D01*
G03X423530Y1956320I-704J-710D01*
G01X399980D01*
G03X398980Y1955320I0J-1000D01*
G01Y1844680D01*
G03X399980Y1843680I1000J0D01*
G01X423020D01*
G03X423890Y1844180I0J1007D01*
G01X424020Y1844420D01*
X424470Y1844680D01*
X488710D01*
X488890Y1844610D01*
G02X489220Y1844390I-379J-926D01*
G01X565190Y1768420D01*
G02X565410Y1768090I-706J-709D01*
G01X565480Y1767910D01*
Y1720890D01*
G03X565770Y1720180I1002J-5D01*
G01X604430Y1681520D01*
X604550Y1680960D01*
X604450Y1680680D01*
G03X617700Y1664260I11499J-4277D01*
G01X617720D01*
G02X618510Y1664020I131J-990D01*
G01X619660Y1663020D01*
G02X620000Y1662270I-660J-751D01*
G01Y1638870D01*
G02X619000Y1637870I-1000J0D01*
G01X604680D01*
G03X603680Y1636870I0J-1000D01*
G01Y1614330D01*
G03X604680Y1613330I1000J0D01*
G01X619000D01*
G02X619710Y1613040I5J-1001D01*
G02X620000Y1612330I-711J-705D01*
G01Y1601000D01*
G02X619000Y1600000I-1000J0D01*
G01X316000D01*
G03X315000Y1599000I0J-1000D01*
G01Y1434890D01*
G02X314510Y1434030I-1000J0D01*
G01X313040Y1433150D01*
G02X312050Y1433130I-513J858D01*
G03X302770Y1431370I-3550J-6630D01*
G02X302010Y1431020I-760J650D01*
G01X295520D01*
G02X294520Y1432020I0J1000D01*
G01Y1433520D01*
G03X293520Y1434520I-1000J0D01*
G01X276480D01*
G03X275480Y1433520I0J-1000D01*
G01Y1419480D01*
G03X276480Y1418480I1000J0D01*
G01X293520D01*
G03X294520Y1419480I0J1000D01*
G01Y1420980D01*
G02X294810Y1421690I1001J5D01*
G02X295520Y1421980I705J-711D01*
G01X301900D01*
G02X302120Y1421960I20J-1002D01*
G01X302430Y1421890D01*
X302630Y1421800D01*
X302770Y1421630D01*
G03X303630Y1420770I5730J4870D01*
G01X303710Y1420700D01*
X303840Y1420530D01*
X303890Y1420430D01*
G02X303980Y1420010I-911J-415D01*
G01Y1409470D01*
G02X302980Y1408470I-1000J0D01*
G01X302730D01*
G03X301730Y1407470I0J-1000D01*
G01Y1395520D01*
G02X300730Y1394520I-1000J0D01*
G01X293520D01*
G02X292520Y1395520I0J1000D01*
G01Y1400270D01*
G03X291520Y1401270I-1000J0D01*
G01X278480D01*
G03X277480Y1400270I0J-1000D01*
G01Y1379730D01*
G03X278480Y1378730I1000J0D01*
G01X291520D01*
G03X292520Y1379730I0J1000D01*
G01Y1384480D01*
G02X292810Y1385190I1001J5D01*
G02X293520Y1385480I705J-711D01*
G01X300730D01*
G02X301440Y1385190I5J-1001D01*
G02X301730Y1384480I-711J-705D01*
G01Y1384230D01*
X314000D01*
G02X314710Y1383940I5J-1001D01*
G02X315000Y1383230I-711J-705D01*
G01Y1382840D01*
G02X314000Y1381840I-1000J0D01*
G01X303960D01*
G03X302960Y1380840I0J-1000D01*
G01Y1373760D01*
G03X303960Y1372760I1000J0D01*
G01X314000D01*
G02X314710Y1372470I5J-1001D01*
G02X315000Y1371760I-711J-705D01*
G01Y1284890D01*
G02X314510Y1284030I-1000J0D01*
G01X313040Y1283150D01*
G02X312050Y1283130I-513J858D01*
G03X302770Y1281370I-3550J-6630D01*
G02X302010Y1281020I-760J650D01*
G01X295520D01*
G02X294520Y1282020I0J1000D01*
G01Y1283520D01*
G03X293520Y1284520I-1000J0D01*
G01X276480D01*
G03X275480Y1283520I0J-1000D01*
G01Y1269480D01*
G03X276480Y1268480I1000J0D01*
G01X293520D01*
G03X294520Y1269480I0J1000D01*
G01Y1270980D01*
G02X294810Y1271690I1001J5D01*
G02X295520Y1271980I705J-711D01*
G01X301900D01*
G02X302120Y1271960I20J-1002D01*
G01X302430Y1271890D01*
X302630Y1271800D01*
X302770Y1271630D01*
G03X303630Y1270770I5730J4870D01*
G01X303710Y1270700D01*
X303840Y1270530D01*
X303890Y1270430D01*
G02X303980Y1270010I-911J-415D01*
G01Y1259470D01*
G02X302980Y1258470I-1000J0D01*
G01X302730D01*
G03X301730Y1257470I0J-1000D01*
G01Y1245520D01*
G02X300730Y1244520I-1000J0D01*
G01X293520D01*
G02X292520Y1245520I0J1000D01*
G01Y1250270D01*
G03X291520Y1251270I-1000J0D01*
G01X278480D01*
G03X277480Y1250270I0J-1000D01*
G01Y1229730D01*
G03X278480Y1228730I1000J0D01*
G01X291520D01*
G03X292520Y1229730I0J1000D01*
G01Y1234480D01*
G02X292810Y1235190I1001J5D01*
G02X293520Y1235480I705J-711D01*
G01X300730D01*
G02X301440Y1235190I5J-1001D01*
G02X301730Y1234480I-711J-705D01*
G01Y1234230D01*
X314000D01*
G02X314710Y1233940I5J-1001D01*
G02X315000Y1233230I-711J-705D01*
G01Y1232840D01*
G02X314000Y1231840I-1000J0D01*
G01X303960D01*
G03X302960Y1230840I0J-1000D01*
G01Y1223760D01*
G03X303960Y1222760I1000J0D01*
G01X314000D01*
G02X314710Y1222470I5J-1001D01*
G02X315000Y1221760I-711J-705D01*
G01Y974890D01*
G02X314510Y974030I-1000J0D01*
G01X313040Y973150D01*
G02X312050Y973130I-513J858D01*
G03X302770Y971370I-3550J-6630D01*
G02X302010Y971020I-760J650D01*
G01X295520D01*
G02X294520Y972020I0J1000D01*
G01Y973520D01*
G03X293520Y974520I-1000J0D01*
G01X276480D01*
G03X275480Y973520I0J-1000D01*
G01Y959480D01*
G03X276480Y958480I1000J0D01*
G01X293520D01*
G03X294520Y959480I0J1000D01*
G01Y960980D01*
G02X294810Y961690I1001J5D01*
G02X295520Y961980I705J-711D01*
G01X301900D01*
G02X302120Y961960I20J-1002D01*
G01X302430Y961890D01*
X302630Y961800D01*
X302770Y961630D01*
G03X303630Y960770I5730J4870D01*
G01X303710Y960700D01*
X303840Y960530D01*
X303890Y960430D01*
G02X303980Y960010I-911J-415D01*
G01Y949470D01*
G02X302980Y948470I-1000J0D01*
G01X302730D01*
G03X301730Y947470I0J-1000D01*
G01Y935520D01*
G02X300730Y934520I-1000J0D01*
G01X293520D01*
G02X292520Y935520I0J1000D01*
G01Y940270D01*
G03X291520Y941270I-1000J0D01*
G01X278480D01*
G03X277480Y940270I0J-1000D01*
G01Y919730D01*
G03X278480Y918730I1000J0D01*
G01X291520D01*
G03X292520Y919730I0J1000D01*
G01Y924480D01*
G02X292810Y925190I1001J5D01*
G02X293520Y925480I705J-711D01*
G01X300730D01*
G02X301440Y925190I5J-1001D01*
G02X301730Y924480I-711J-705D01*
G01Y924230D01*
X314000D01*
G02X314710Y923940I5J-1001D01*
G02X315000Y923230I-711J-705D01*
G01Y922840D01*
G02X314000Y921840I-1000J0D01*
G01X303960D01*
G03X302960Y920840I0J-1000D01*
G01Y913760D01*
G03X303960Y912760I1000J0D01*
G01X314000D01*
G02X314710Y912470I5J-1001D01*
G02X315000Y911760I-711J-705D01*
G01Y911000D01*
G02X314000Y910000I-1000J0D01*
G01X186000D01*
G02X185000Y911000I0J1000D01*
G37*
G36*
G01X231000Y1869150D02*
X229170Y1870980D01*
G03X228460Y1871270I-705J-712D01*
G01X62870D01*
G02X61960Y1871850I-2J1000D01*
G03X56390Y1877670I-11158J-5103D01*
G02X55850Y1878560I461J889D01*
G01Y1880340D01*
G02X56390Y1881230I1001J1D01*
G03X61960Y1887050I-5588J10923D01*
G02X62870Y1887630I908J-420D01*
G01X225560D01*
G02X226270Y1887340I6J-1001D01*
G01X226420Y1887180D01*
G03X227130Y1886890I705J712D01*
G01X230050D01*
G02X230760Y1886600I6J-1001D01*
G01X232190Y1885170D01*
G02X232480Y1884460I-711J-704D01*
G01Y1870070D01*
G02X231860Y1869150I-999J4D01*
G01X231580Y1869030D01*
X231000Y1869150D01*
G37*
G36*
G01X830410Y540000D02*
G03X829710Y539710I4J-1000D01*
G01X760290Y470290D01*
G02X759590Y470000I-704J710D01*
G01X381000D01*
G02X380000Y471000I0J1000D01*
G01Y487710D01*
G02X380290Y488420I1001J5D01*
G02X381000Y488710I705J-711D01*
G01X405290D01*
G03X406290Y489710I0J1000D01*
G01Y499180D01*
G02X406580Y499890I1001J5D01*
G02X407290Y500180I705J-711D01*
G01X407520D01*
X407960Y500360D01*
G02X409050Y500140I381J-925D01*
G01X410920Y498270D01*
G03X411620Y497980I705J711D01*
G01X412480D01*
G02X413190Y497690I5J-1001D01*
G02X413480Y496980I-711J-705D01*
G01Y494480D01*
G03X414100Y493560I993J0D01*
G01X414380Y493440D01*
X414710Y492940D01*
Y478710D01*
G03X415710Y477710I1000J0D01*
G01X434290D01*
G03X435290Y478710I0J1000D01*
G01Y492480D01*
G02X435580Y493190I1001J5D01*
G02X436290Y493480I705J-711D01*
G01X438710D01*
G02X439420Y493190I5J-1001D01*
G02X439710Y492480I-711J-705D01*
G01Y478710D01*
G03X440710Y477710I1000J0D01*
G01X459290D01*
G03X460290Y478710I0J1000D01*
G01Y492480D01*
G02X460580Y493190I1001J5D01*
G02X461290Y493480I705J-711D01*
G01X461520D01*
Y496980D01*
G02X461810Y497690I1001J5D01*
G02X462520Y497980I705J-711D01*
G01X463020D01*
G02X463370Y497920I9J-1001D01*
G01X463520Y497860D01*
X463660Y497750D01*
G03Y509250I4840J5750D01*
G01X463520Y509140D01*
X463370Y509080D01*
G02X463020Y509020I-341J941D01*
G01X462520D01*
G02X461520Y510020I0J1000D01*
G01Y513880D01*
G02X461810Y514590I1001J5D01*
G02X462520Y514880I705J-711D01*
G01X542280D01*
G03X542980Y515170I-5J1001D01*
G01X567280Y539470D01*
G02X568370Y539680I702J-711D01*
G01X568650Y539570D01*
X568980Y539070D01*
Y524770D01*
G02X567980Y523770I-1000J0D01*
G01X564480D01*
G03X563480Y522770I0J-1000D01*
G01Y487230D01*
G03X564480Y486230I1000J0D01*
G01X585520D01*
G03X586520Y487230I0J1000D01*
G01Y488980D01*
G02X586810Y489690I1001J5D01*
G02X587520Y489980I705J-711D01*
G01X599840D01*
G02X600200Y489910I-8J-1000D01*
G02X600560Y489680I-345J-937D01*
G01X600960Y489270D01*
G03X601660Y488980I705J711D01*
G01X601930D01*
G02X602920Y488170I7J-1001D01*
G01Y488140D01*
G03X621820Y489750I9381J1610D01*
G01Y499250D01*
G03X603120Y501760I-9518J0D01*
G02X602760Y501220I-968J255D01*
G02X602150Y501020I-601J801D01*
G01X587520D01*
G02X586520Y502020I0J1000D01*
G01Y522770D01*
G03X585520Y523770I-1000J0D01*
G01X581520D01*
G02X580520Y524770I0J1000D01*
G01Y524880D01*
G03X580270Y525550I-1001J8D01*
G01X580150Y525690D01*
X580020Y526020D01*
Y547480D01*
G02X580310Y548190I1001J5D01*
G02X581020Y548480I705J-711D01*
G01X582770D01*
G03X583770Y549480I0J1000D01*
G01Y553480D01*
G02X584060Y554190I1001J5D01*
G02X584770Y554480I705J-711D01*
G01X585300D01*
G02X585910Y554270I-3J-1000D01*
G02X586010Y554190I-572J-818D01*
G01X595420Y544770D01*
G03X596120Y544480I705J711D01*
G01X669260D01*
G02X670190Y543860I4J-1001D01*
G01X670300Y543580D01*
X670190Y543000D01*
X669770Y542580D01*
G03X669480Y541870I711J-705D01*
G01Y524770D01*
G02X668480Y523770I-1000J0D01*
G01X664480D01*
G03X663480Y522770I0J-1000D01*
G01Y502020D01*
G02X662480Y501020I-1000J0D01*
G01X647850D01*
G02X647240Y501220I-9J1001D01*
G02X646880Y501760I608J795D01*
G03X628180Y499250I-9182J-2510D01*
G01Y489750D01*
G03X647080Y488140I9519J0D01*
G01Y488170D01*
G02X648070Y488980I983J-191D01*
G01X648340D01*
G03X649040Y489270I-5J1001D01*
G01X649440Y489680D01*
G02X649800Y489910I705J-707D01*
G02X650160Y489980I368J-930D01*
G01X662480D01*
G02X663190Y489690I5J-1001D01*
G02X663480Y488980I-711J-705D01*
G01Y487230D01*
G03X664480Y486230I1000J0D01*
G01X685520D01*
G03X686520Y487230I0J1000D01*
G01Y522770D01*
G03X685520Y523770I-1000J0D01*
G01X681520D01*
G02X680520Y524770I0J1000D01*
G01Y537300D01*
G02X680730Y537920I1002J6D01*
G02X680810Y538010I786J-618D01*
G01X686990Y544190D01*
G02X687080Y544270I708J-706D01*
G02X687700Y544480I614J-792D01*
G01X693960D01*
G02X694670Y544190I5J-1001D01*
G02X694960Y543480I-711J-705D01*
G01Y517460D01*
G03X695960Y516460I1000J0D01*
G01X721040D01*
G03X722040Y517460I0J1000D01*
G01Y543480D01*
G02X722330Y544190I1001J5D01*
G02X723040Y544480I705J-711D01*
G01X735730D01*
G02X736440Y544190I5J-1001D01*
G02X736730Y543480I-711J-705D01*
G01Y516230D01*
G03X737730Y515230I1000J0D01*
G01X765270D01*
G03X766270Y516230I0J1000D01*
G01Y523480D01*
G02X766560Y524190I1001J5D01*
G02X767270Y524480I705J-711D01*
G01X796880D01*
G03X797580Y524770I-5J1001D01*
G01X805230Y532420D01*
G03X805500Y532930I-712J703D01*
G01X805570Y533280D01*
X806120Y533730D01*
X813770D01*
G03X814770Y534730I0J1000D01*
G01Y541980D01*
G02X815060Y542690I1001J5D01*
G02X815770Y542980I705J-711D01*
G01X839660D01*
G02X840230Y542800I-2J-1000D01*
G01X840770Y542430D01*
X840950Y542200D01*
X841010Y542060D01*
G03X841040Y541980I16416J6110D01*
G01X841080Y541890D01*
X841120Y541680D01*
G02X840980Y540930I-978J-206D01*
G01X840660Y540450D01*
G02X839830Y540000I-835J549D01*
G01X830410D01*
G37*
G36*
G01X421210Y527400D02*
X431230Y537420D01*
G03X431520Y538130I-711J705D01*
G01X431870Y538480D01*
X533870D01*
G03X534580Y538770I5J1001D01*
G01X544530Y548720D01*
G02X545620Y548940I710J-705D01*
G01X546230Y548680D01*
Y548480D01*
X558270D01*
G02X559190Y547860I-5J-1000D01*
G01X559310Y547580D01*
X559190Y547000D01*
X538410Y526210D01*
G02X537700Y525920I-705J712D01*
G01X422130D01*
G02X421210Y526540I5J1000D01*
G01X421090Y526820D01*
X421210Y527400D01*
G37*
G36*
G01X407520Y539620D02*
G03X406520Y540620I-1000J0D01*
G01X406290D01*
Y549980D01*
G02X407290Y550980I1000J0D01*
G01X407520D01*
Y551980D01*
G02X408520Y552980I1000J0D01*
G01X412800D01*
G02X413510Y552690I5J-1002D01*
G01X420190Y546010D01*
G02X420480Y545300I-712J-705D01*
G01Y542700D01*
G02X420190Y541990I-1002J-5D01*
G01X417110Y538910D01*
G02X416400Y538620I-705J712D01*
G01X408520D01*
G02X407520Y539620I0J1000D01*
G37*
G36*
G01X431870Y549520D02*
X431520Y549870D01*
G03X431230Y550580I-1001J5D01*
G01X418080Y563730D01*
G03X417370Y564020I-705J-711D01*
G01X408520D01*
G02X407520Y565020I0J1000D01*
G03X406520Y566020I-1000J0D01*
G01X406290D01*
Y575380D01*
G02X407290Y576380I1000J0D01*
G01X407520D01*
Y577380D01*
G02X408520Y578380I1000J0D01*
G01X413400D01*
G02X414110Y578090I5J-1002D01*
G01X431420Y560770D01*
G03X432130Y560480I705J711D01*
G01X527870D01*
G03X528580Y560770I5J1001D01*
G01X544530Y576720D01*
G02X545620Y576940I710J-705D01*
G01X545900Y576820D01*
X546230Y576320D01*
Y566450D01*
G02X545940Y565740I-1002J-5D01*
G01X530010Y549810D01*
G02X529300Y549520I-705J712D01*
G01X431870D01*
G37*
G36*
G01X459520Y572520D02*
Y574480D01*
G02X460520Y575480I1000J0D01*
G01X467870D01*
G03X468580Y575770I5J1001D01*
G01X470160Y577350D01*
X470460Y577490D01*
X470650Y577510D01*
G03X462820Y587220I-647J7490D01*
G01X462720Y586900D01*
X462200Y586520D01*
X460520D01*
G02X459520Y587520I0J1000D01*
G01Y590770D01*
G03X458520Y591770I-1000J0D01*
G01X452040D01*
X444050Y599760D01*
G02X443830Y600850I705J710D01*
G01X443950Y601130D01*
X444450Y601460D01*
X457290D01*
G03X458290Y602460I0J1000D01*
G01Y619540D01*
G03X457290Y620540I-1000J0D01*
G01X434710D01*
G03X433710Y619540I0J-1000D01*
G01Y603020D01*
G02X432710Y602020I-1000J0D01*
G01X432520D01*
G02X431520Y603020I0J1000D01*
G01Y605520D01*
G03X430520Y606520I-1000J0D01*
G01X430290D01*
Y621290D01*
G03X429290Y622290I-1000J0D01*
G01X410710D01*
G03X409710Y621290I0J-1000D01*
G01Y607520D01*
G02X408710Y606520I-1000J0D01*
G01X408480D01*
Y605120D01*
G02X407480Y604120I-1000J0D01*
G01X407290D01*
G02X406290Y605120I0J1000D01*
G01Y614590D01*
G03X405290Y615590I-1000J0D01*
G01X381000D01*
G02X380000Y616590I0J1000D01*
G01Y624000D01*
G02X381000Y625000I1000J0D01*
G01X464590D01*
G02X465290Y624710I-4J-1000D01*
G01X489710Y600290D01*
G03X490410Y600000I704J710D01*
G01X603780D01*
G02X604690Y599400I-6J-999D01*
G01X605550Y597460D01*
X605460Y596880D01*
X605260Y596650D01*
G03X602920Y591850I7041J-6403D01*
G01X602850Y591480D01*
X602300Y591020D01*
X601670D01*
G03X600960Y590730I-5J-1001D01*
G01X600900Y590670D01*
X600540Y590520D01*
X584770D01*
G02X583770Y591520I0J1000D01*
G01Y595520D01*
G03X582770Y596520I-1000J0D01*
G01X547230D01*
G03X546230Y595520I0J-1000D01*
G01Y591520D01*
G02X545230Y590520I-1000J0D01*
G01X543130D01*
G03X542420Y590230I-5J-1001D01*
G01X524010Y571810D01*
G02X523300Y571520I-705J712D01*
G01X460520D01*
G02X459520Y572520I0J1000D01*
G37*
G36*
G01X509710Y630290D02*
X485290Y654710D01*
G03X484590Y655000I-704J-710D01*
G01X381000D01*
G02X380000Y656000I0J1000D01*
G01Y672710D01*
G02X381000Y673710I1000J0D01*
G01X405290D01*
G03X406290Y674710I0J1000D01*
G01Y683500D01*
G02X406910Y684420I1000J-5D01*
G01X407190Y684540D01*
X407770Y684420D01*
X408190Y684010D01*
G02X408480Y683300I-712J-705D01*
G01Y679480D01*
G03X409480Y678480I1000J0D01*
G01X409710D01*
Y663710D01*
G03X410710Y662710I1000J0D01*
G01X429290D01*
G03X430290Y663710I0J1000D01*
G01Y677480D01*
G02X431290Y678480I1000J0D01*
G01X433710D01*
G02X434710Y677480I0J-1000D01*
G01Y663710D01*
G03X435710Y662710I1000J0D01*
G01X454290D01*
G03X455290Y663710I0J1000D01*
G01Y677480D01*
G02X456290Y678480I1000J0D01*
G01X456850D01*
G02X457850Y677480I0J-1000D01*
G01Y677330D01*
X457810Y677190D01*
G03X470750Y679840I7190J-2193D01*
G02X470520Y680480I771J639D01*
G01Y685630D01*
G03X470230Y686340I-1001J5D01*
G01X461340Y695230D01*
G03X460630Y695520I-705J-711D01*
G01X457520D01*
G02X456520Y696520I0J1000D01*
G01Y698880D01*
G02X457520Y699880I1000J0D01*
G01X477300D01*
G02X478010Y699590I5J-1002D01*
G01X486490Y691110D01*
G02X486780Y690400I-712J-705D01*
G01Y687510D01*
G02X486400Y686720I-1000J-5D01*
G03X482780Y679250I5897J-7470D01*
G01Y669750D01*
G03X501820I9520J0D01*
G01Y679250D01*
G03X498200Y686720I-9517J0D01*
G02X497820Y687510I620J785D01*
G01Y694970D01*
G03X497530Y695680I-1001J5D01*
G01X495030Y698180D01*
G02X494810Y699270I705J710D01*
G01X494930Y699550D01*
X495430Y699880D01*
X520320D01*
G03X521030Y700170I5J1001D01*
G01X530040Y709190D01*
G02X530750Y709480I705J-712D01*
G01X545230D01*
G02X546230Y708480I0J-1000D01*
G01Y696520D01*
G02X545230Y695520I-1000J0D01*
G01X526580D01*
G03X525870Y695230I-5J-1001D01*
G01X519470Y688830D01*
X519040Y688680D01*
X518810Y688700D01*
G03X508180Y679250I-1115J-9450D01*
G01Y669750D01*
G03X527220I9520J0D01*
G01Y679250D01*
G03X527150Y680360I-9517J-43D01*
G01X527130Y680590D01*
X527280Y681020D01*
X530440Y684190D01*
G02X531150Y684480I705J-712D01*
G01X545230D01*
G02X546230Y683480I0J-1000D01*
G01Y679480D01*
G03X547230Y678480I1000J0D01*
G01X567980D01*
G02X568980Y677480I0J-1000D01*
G01Y677370D01*
G03X569270Y676660I1001J-5D01*
G01X569330Y676600D01*
X569480Y676240D01*
Y674770D01*
G02X568480Y673770I-1000J0D01*
G01X564480D01*
G03X563480Y672770I0J-1000D01*
G01Y637230D01*
G03X564480Y636230I1000J0D01*
G01X585520D01*
G03X586520Y637230I0J1000D01*
G01Y638980D01*
G02X587520Y639980I1000J0D01*
G01X599840D01*
G02X600550Y639690I5J-1002D01*
G01X600960Y639270D01*
G03X601670Y638980I705J711D01*
G01X602300D01*
X602850Y638520D01*
X602920Y638150D01*
G03X605260Y633350I9381J1603D01*
G01X605460Y633120D01*
X605550Y632540D01*
X604690Y630600D01*
G02X603780Y630000I-916J399D01*
G01X510410D01*
G02X509710Y630290I4J1000D01*
G37*
G36*
G01X676990Y680810D02*
X643510Y714290D01*
G02X643220Y715000I712J705D01*
G01Y722490D01*
G02X643600Y723280I1000J5D01*
G03X647220Y730750I-5897J7470D01*
G01Y740250D01*
G03X628320Y741850I-9518J0D01*
G01X628250Y741480D01*
X627700Y741020D01*
X622300D01*
X621750Y741480D01*
X621680Y741850D01*
G03X602920I-9380J-1600D01*
G01X602850Y741480D01*
X602300Y741020D01*
X601670D01*
G03X600960Y740730I-5J-1001D01*
G01X585470Y725240D01*
G02X584380Y725020I-710J705D01*
G01X584100Y725140D01*
X583770Y725640D01*
Y725940D01*
X583190Y726520D01*
X571100D01*
X570520Y727100D01*
Y727290D01*
X560080Y737730D01*
G03X559370Y738020I-705J-711D01*
G01X525630D01*
G03X524920Y737730I-5J-1001D01*
G01X511110Y723910D01*
G02X510400Y723620I-705J712D01*
G01X408520D01*
G02X407520Y724620I0J1000D01*
G03X406520Y725620I-1000J0D01*
G01X406290D01*
Y734980D01*
G02X407290Y735980I1000J0D01*
G01X407520D01*
Y736980D01*
G02X408520Y737980I1000J0D01*
G01X511080D01*
G03X511790Y738270I5J1001D01*
G01X522930Y749410D01*
G03X523220Y750120I-711J705D01*
G01Y752490D01*
G02X523600Y753280I1000J5D01*
G03X527080Y759150I-5903J7466D01*
G01X527150Y759520D01*
X527700Y759980D01*
X528330D01*
G03X529040Y760270I5J1001D01*
G01X532950Y764190D01*
G02X533660Y764480I705J-712D01*
G01X545230D01*
G02X546230Y763480I0J-1000D01*
G01Y759480D01*
G03X547230Y758480I1000J0D01*
G01X582770D01*
G03X583770Y759480I0J1000D01*
G01Y763480D01*
G02X584770Y764480I1000J0D01*
G01X642300D01*
G02X643010Y764190I5J-1002D01*
G01X647420Y759770D01*
G03X648130Y759480I705J711D01*
G01X693960D01*
G02X694960Y758480I0J-1000D01*
G01Y732460D01*
G03X695960Y731460I1000J0D01*
G01X721040D01*
G03X722040Y732460I0J1000D01*
G01Y758480D01*
G02X723040Y759480I1000J0D01*
G01X735730D01*
G02X736730Y758480I0J-1000D01*
G01Y731230D01*
G03X737730Y730230I1000J0D01*
G01X765270D01*
G03X766270Y731230I0J1000D01*
G01Y738480D01*
G02X767270Y739480I1000J0D01*
G01X779360D01*
G03X780070Y739770I5J1001D01*
G01X783530Y743230D01*
G02X784620Y743450I710J-705D01*
G01X784900Y743330D01*
X785230Y742830D01*
Y739730D01*
G03X786230Y738730I1000J0D01*
G01X813770D01*
G03X814770Y739730I0J1000D01*
G01Y746980D01*
G02X815770Y747980I1000J0D01*
G01X836630D01*
G02X837340Y747690I5J-1002D01*
G01X838410Y746610D01*
G03X839120Y746320I705J711D01*
G01X839920D01*
G02X840850Y745670I-6J-999D01*
G03X866900Y737220I16397J6171D01*
G01X867130Y737370D01*
X867680Y737390D01*
X869470Y736430D01*
G02X870000Y735550I-470J-883D01*
G01Y717330D01*
G02X869470Y716450I-1000J3D01*
G01X867680Y715490D01*
X867130Y715510D01*
X866900Y715660D01*
G03X840850Y707210I-9653J-14621D01*
G02X839920Y706560I-936J349D01*
G01X839120D01*
G03X838410Y706270I-5J-1001D01*
G01X834460Y702310D01*
G02X833750Y702020I-705J712D01*
G01X815770D01*
G02X814770Y703020I0J1000D01*
G01Y710270D01*
G03X813770Y711270I-1000J0D01*
G01X786230D01*
G03X785230Y710270I0J-1000D01*
G01Y703020D01*
G02X784230Y702020I-1000J0D01*
G01X784120D01*
G03X783410Y701730I-5J-1001D01*
G01X782500Y700810D01*
G02X781790Y700520I-705J712D01*
G01X767270D01*
G02X766270Y701520I0J1000D01*
G01Y708770D01*
G03X765270Y709770I-1000J0D01*
G01X737730D01*
G03X736730Y708770I0J-1000D01*
G01Y681520D01*
G02X735730Y680520I-1000J0D01*
G01X723040D01*
G02X722040Y681520I0J1000D01*
G01Y707540D01*
G03X721040Y708540I-1000J0D01*
G01X695960D01*
G03X694960Y707540I0J-1000D01*
G01Y681520D01*
G02X693960Y680520I-1000J0D01*
G01X677700D01*
G02X676990Y680810I-5J1002D01*
G37*
G36*
G01X407520Y750020D02*
G03X406520Y751020I-1000J0D01*
G01X406290D01*
Y760380D01*
G02X407290Y761380I1000J0D01*
G01X407520D01*
Y762380D01*
G02X408520Y763380I1000J0D01*
G01X416400D01*
G02X417110Y763090I5J-1002D01*
G01X429470Y750720D01*
G02X429690Y749630I-705J-710D01*
G01X429570Y749350D01*
X429070Y749020D01*
X408520D01*
G02X407520Y750020I0J1000D01*
G37*
G36*
G01X459520Y758520D02*
Y760480D01*
G02X460520Y761480I1000J0D01*
G01X468870D01*
G03X469580Y761770I5J1001D01*
G01X470160Y762350D01*
X470460Y762490D01*
X470650Y762510D01*
G03X463150Y773110I-652J7492D01*
G01X463030Y772840D01*
X462540Y772520D01*
X460520D01*
G02X459520Y773520I0J1000D01*
G01Y776770D01*
G03X458520Y777770I-1000J0D01*
G01X452040D01*
X444050Y785760D01*
G02X443830Y786850I705J710D01*
G01X443950Y787130D01*
X444450Y787460D01*
X457290D01*
G03X458290Y788460I0J1000D01*
G01Y805540D01*
G03X457290Y806540I-1000J0D01*
G01X434710D01*
G03X433710Y805540I0J-1000D01*
G01Y788020D01*
G02X432710Y787020I-1000J0D01*
G01X432520D01*
G02X431520Y788020I0J1000D01*
G01Y790520D01*
G03X430520Y791520I-1000J0D01*
G01X430290D01*
Y806290D01*
G03X429290Y807290I-1000J0D01*
G01X410710D01*
G03X409710Y806290I0J-1000D01*
G01Y792520D01*
G02X408710Y791520I-1000J0D01*
G01X408480D01*
Y790120D01*
G02X407480Y789120I-1000J0D01*
G01X407290D01*
G02X406290Y790120I0J1000D01*
G01Y799590D01*
G03X405290Y800590I-1000J0D01*
G01X381000D01*
G02X380000Y801590I0J1000D01*
G01Y809000D01*
G02X381000Y810000I1000J0D01*
G01X693960D01*
G02X694960Y809000I0J-1000D01*
G01Y781520D01*
G02X693960Y780520I-1000J0D01*
G01X657700D01*
G02X656990Y780810I-5J1002D01*
G01X637580Y800230D01*
G03X636870Y800520I-705J-711D01*
G01X584770D01*
G02X583770Y801520I0J1000D01*
G01Y805520D01*
G03X582770Y806520I-1000J0D01*
G01X547230D01*
G03X546230Y805520I0J-1000D01*
G01Y801520D01*
G02X545230Y800520I-1000J0D01*
G01X508130D01*
G03X507420Y800230I-5J-1001D01*
G01X487070Y779880D01*
G03X486780Y779170I711J-705D01*
G01Y778510D01*
G02X486400Y777720I-1000J-5D01*
G03X482780Y770250I5897J-7470D01*
G01Y760750D01*
G03X482830Y759730I9522J-44D01*
G01X482860Y759520D01*
X482730Y759120D01*
X481590Y757850D01*
G02X480850Y757520I-743J670D01*
G01X460520D01*
G02X459520Y758520I0J1000D01*
G37*
G36*
G01X617940Y1688510D02*
X617710Y1688540D01*
G03X611670Y1687900I-1767J-12141D01*
G01X611390Y1687790D01*
X610830Y1687920D01*
X574810Y1723930D01*
G02X574520Y1724640I711J704D01*
G01Y1771460D01*
G03X574230Y1772170I-1002J5D01*
G01X492970Y1853430D01*
G03X492260Y1853720I-705J-712D01*
G01X425020D01*
G02X424020Y1854720I0J1000D01*
G01Y1869080D01*
G02X425020Y1870080I1000J0D01*
G01X517060D01*
G02X517770Y1869790I6J-1001D01*
G01X604430Y1783120D01*
X604560Y1782560D01*
X604450Y1782280D01*
G03X617710Y1765860I11499J-4278D01*
G01X617940Y1765890D01*
X618340Y1765770D01*
X619650Y1764630D01*
G02X620000Y1763880I-648J-759D01*
G01Y1740470D01*
G02X619000Y1739470I-1000J0D01*
G01X604680D01*
G03X603680Y1738470I0J-1000D01*
G01Y1715930D01*
G03X604680Y1714930I1000J0D01*
G01X619000D01*
G02X620000Y1713930I0J-1000D01*
G01Y1690520D01*
G02X619650Y1689770I-998J9D01*
G01X618340Y1688630D01*
X617940Y1688510D01*
G37*
G36*
G01Y1790110D02*
X617710Y1790140D01*
G03X611670Y1789500I-1767J-12141D01*
G01X611390Y1789390D01*
X610830Y1789520D01*
X521520Y1878830D01*
G03X520810Y1879120I-705J-712D01*
G01X425020D01*
G02X424020Y1880120I0J1000D01*
G01Y1894480D01*
G02X425020Y1895480I1000J0D01*
G01X427130D01*
X427150Y1895500D01*
X561710D01*
G02X562420Y1895210I6J-1001D01*
G01X580020Y1877610D01*
G03X580180Y1877480I706J706D01*
G01X581540Y1876590D01*
G03X581710Y1876500I550J834D01*
G01X583210Y1875880D01*
G03X583400Y1875820I394J918D01*
G01X585000Y1875510D01*
G03X585190Y1875490I199J979D01*
G01X601750D01*
G02X602460Y1875200I6J-1001D01*
G01X602580Y1875080D01*
X603880D01*
G02X604790Y1874500I2J-1000D01*
G03X617710Y1867460I11158J5102D01*
G01X617940Y1867490D01*
X618340Y1867370D01*
X619650Y1866230D01*
G02X620000Y1865480I-648J-759D01*
G01Y1842070D01*
G02X619000Y1841070I-1000J0D01*
G01X604680D01*
G03X603680Y1840070I0J-1000D01*
G01Y1817530D01*
G03X604680Y1816530I1000J0D01*
G01X619000D01*
G02X620000Y1815530I0J-1000D01*
G01Y1792120D01*
G02X619650Y1791370I-998J9D01*
G01X618340Y1790230D01*
X617940Y1790110D01*
G37*
G36*
G01X618510Y1968830D02*
X619650Y1967840D01*
G02X620000Y1967080I-649J-760D01*
G01Y1943670D01*
G02X619000Y1942670I-1000J0D01*
G01X604680D01*
G03X603680Y1941670I0J-1000D01*
G01Y1919130D01*
G03X604680Y1918130I1000J0D01*
G01X619000D01*
G02X620000Y1917130I0J-1000D01*
G01Y1893720D01*
G02X619650Y1892960I-999J0D01*
G01X618510Y1891970D01*
G02X617730Y1891740I-648J761D01*
G01X617710D01*
G03X604970Y1885090I-1767J-12143D01*
G02X604080Y1884540I-893J450D01*
G01X585970D01*
X585920Y1884550D01*
X585860Y1884570D01*
X585830Y1884590D01*
X566170Y1904260D01*
G03X565470Y1904550I-704J-710D01*
G01X425020D01*
G02X424020Y1905550I0J1000D01*
G01Y1919880D01*
G02X425020Y1920880I1000J0D01*
G01X544860D01*
G03X545560Y1921170I-4J1000D01*
G01X600780Y1976390D01*
G02X601480Y1976680I704J-710D01*
G01X603880D01*
G02X604790Y1976100I2J-1001D01*
G03X617700Y1969060I11157J5103D01*
G01X617730D01*
G02X618510Y1968830I132J-991D01*
G37*
G36*
G01X496310Y750500D02*
X497230Y751420D01*
G03X497520Y752130I-711J705D01*
G01Y752510D01*
X497730Y752930D01*
X497930Y753070D01*
G03X501820Y760750I-5636J7680D01*
G01Y770250D01*
G03X499940Y775930I-9520J0D01*
G01X499720Y776230D01*
X499770Y776970D01*
X511990Y789190D01*
G02X512700Y789480I705J-712D01*
G01X545230D01*
G02X546230Y788480I0J-1000D01*
G01Y776520D01*
G02X545230Y775520I-1000J0D01*
G01X529090D01*
G03X528380Y775230I-5J-1001D01*
G01X528240Y775090D01*
X526020Y775280D01*
X525640Y775500D01*
X525510Y775690D01*
G03X508180Y770250I-7811J-5440D01*
G01Y760750D01*
G03X510510Y754510I9521J0D01*
G02X510760Y753840I-751J-662D01*
G01X510750Y753240D01*
G02X510460Y752550I-1002J15D01*
G01X507220Y749310D01*
G02X506510Y749020I-705J712D01*
G01X497230D01*
G02X496310Y749640I5J1000D01*
G01X496190Y749920D01*
X496310Y750500D01*
G37*
G36*
G01X599990Y555810D02*
X590580Y565230D01*
G03X589870Y565520I-705J-711D01*
G01X584770D01*
G02X583770Y566520I0J1000D01*
G01Y578480D01*
G02X584770Y579480I1000J0D01*
G01X602380D01*
X602930Y579040D01*
X603000Y578700D01*
G03X621680Y579150I9296J2051D01*
G01X621750Y579520D01*
X622300Y579980D01*
X627700D01*
X628250Y579520D01*
X628320Y579150D01*
G03X644160Y573760I9382J1602D01*
G01X644310Y573900D01*
X644660Y574030D01*
X646250Y574000D01*
G02X646940Y573710I-15J-1001D01*
G01X663420Y557220D01*
G02X663640Y556130I-705J-710D01*
G01X663520Y555850D01*
X663020Y555520D01*
X600700D01*
G02X599990Y555810I-5J1002D01*
G37*
G36*
G01X586520Y671020D02*
Y672770D01*
G03X585520Y673770I-1000J0D01*
G01X581520D01*
G02X580520Y674770I0J1000D01*
G01Y677480D01*
G02X581520Y678480I1000J0D01*
G01X582770D01*
G03X583770Y679480I0J1000D01*
G01Y708480D01*
G02X584770Y709480I1000J0D01*
G01X584910D01*
G03X585620Y709770I5J1001D01*
G01X601430Y725580D01*
G02X602230Y725870I708J-704D01*
G01X603980Y725720D01*
X604360Y725500D01*
X604490Y725310D01*
G03X621680Y729150I7808J5443D01*
G01X621750Y729520D01*
X622300Y729980D01*
X627700D01*
X628250Y729520D01*
X628320Y729150D01*
G03X631800Y723280I9383J1596D01*
G02X632180Y722490I-620J-785D01*
G01Y710430D01*
G03X632470Y709720I1001J-5D01*
G01X666720Y675470D01*
G02X666940Y674380I-705J-710D01*
G01X666820Y674100D01*
X666320Y673770D01*
X664480D01*
G03X663480Y672770I0J-1000D01*
G01Y671020D01*
G02X662480Y670020I-1000J0D01*
G01X587520D01*
G02X586520Y671020I0J1000D01*
G37*
G36*
G01X583770Y776520D02*
Y788480D01*
G02X584770Y789480I1000J0D01*
G01X632300D01*
G02X633010Y789190I5J-1002D01*
G01X644970Y777220D01*
G02X645190Y776130I-705J-710D01*
G01X645070Y775850D01*
X644570Y775520D01*
X584770D01*
G02X583770Y776520I0J1000D01*
G37*
G36*
G01X670440Y565810D02*
X647510Y588740D01*
G02X647220Y589450I712J705D01*
G01Y590250D01*
G03X644740Y596650I-9517J-7D01*
G01X644540Y596880D01*
X644450Y597460D01*
X645310Y599400D01*
G02X646220Y600000I916J-399D01*
G01X774590D01*
G03X775290Y600290I-4J1000D01*
G01X779710Y604710D01*
G02X780410Y605000I704J-710D01*
G01X784230D01*
G02X785230Y604000I0J-1000D01*
G01Y598020D01*
G02X784230Y597020I-1000J0D01*
G01X784120D01*
G03X783410Y596730I-5J-1001D01*
G01X772500Y585810D01*
G02X771790Y585520I-705J712D01*
G01X767270D01*
G02X766270Y586520I0J1000D01*
G01Y593770D01*
G03X765270Y594770I-1000J0D01*
G01X737730D01*
G03X736730Y593770I0J-1000D01*
G01Y566520D01*
G02X735730Y565520I-1000J0D01*
G01X723040D01*
G02X722040Y566520I0J1000D01*
G01Y592540D01*
G03X721040Y593540I-1000J0D01*
G01X695960D01*
G03X694960Y592540I0J-1000D01*
G01Y566520D01*
G02X693960Y565520I-1000J0D01*
G01X671150D01*
G02X670440Y565810I-5J1002D01*
G37*
G36*
G01X693960Y630000D02*
X646230D01*
G02X645310Y630590I-7J1001D01*
G01X644570Y632270D01*
G02X644500Y632830I915J399D01*
G02X644730Y633340I989J-139D01*
G01X644740Y633350D01*
X644750Y633360D01*
G03X647080Y638140I-7050J6394D01*
G01Y638170D01*
G02X648070Y638980I983J-191D01*
G01X648340D01*
G03X649040Y639270I-5J1001D01*
G01X649440Y639680D01*
G02X649800Y639910I705J-707D01*
G02X650160Y639980I368J-930D01*
G01X662480D01*
G02X663190Y639690I5J-1001D01*
G02X663480Y638980I-711J-705D01*
G01Y637230D01*
G03X664480Y636230I1000J0D01*
G01X685520D01*
G03X686520Y637230I0J1000D01*
G01Y657980D01*
G02X686810Y658690I1001J5D01*
G02X687520Y658980I705J-711D01*
G01X693960D01*
G02X694670Y658690I5J-1001D01*
G02X694960Y657980I-711J-705D01*
G01Y631000D01*
G02X693960Y630000I-1000J0D01*
G37*
G36*
G01X722040Y631000D02*
Y657980D01*
G02X723040Y658980I1000J0D01*
G01X735730D01*
G02X736730Y657980I0J-1000D01*
G01Y631000D01*
G02X735730Y630000I-1000J0D01*
G01X723040D01*
G02X722040Y631000I0J1000D01*
G37*
G36*
G01Y781520D02*
Y809000D01*
G02X723040Y810000I1000J0D01*
G01X735730D01*
G02X736730Y809000I0J-1000D01*
G01Y781520D01*
G02X735730Y780520I-1000J0D01*
G01X723040D01*
G02X722040Y781520I0J1000D01*
G37*
G36*
G01X766270Y536520D02*
Y543770D01*
G03X765270Y544770I-1000J0D01*
G01X758020D01*
G02X757020Y545770I0J1000D01*
G01Y545880D01*
G03X756730Y546590I-1001J5D01*
G01X749020Y554290D01*
G02Y555710I711J710D01*
G01X756730Y563410D01*
G03X757020Y564120I-711J705D01*
G01Y564230D01*
G02X758020Y565230I1000J0D01*
G01X765270D01*
G03X766270Y566230I0J1000D01*
G01Y573480D01*
G02X767270Y574480I1000J0D01*
G01X776360D01*
G03X777070Y574770I5J1001D01*
G01X783530Y581230D01*
G02X784620Y581450I710J-705D01*
G01X784900Y581330D01*
X785230Y580830D01*
Y577730D01*
G03X786230Y576730I1000J0D01*
G01X813770D01*
G03X814770Y577730I0J1000D01*
G01Y584980D01*
G02X815770Y585980I1000J0D01*
G01X834920D01*
G03X835630Y586270I5J1001D01*
G01X839510Y590150D01*
G02X840320Y590440I709J-704D01*
G01X842100Y590260D01*
X842470Y590030D01*
X842600Y589840D01*
G03X866900Y584820I14652J9601D01*
G01X867130Y584970D01*
X867680Y584990D01*
X869470Y584030D01*
G02X870000Y583150I-470J-883D01*
G01Y564930D01*
G02X869470Y564050I-1000J3D01*
G01X867680Y563090D01*
X867130Y563110D01*
X866900Y563260D01*
G03X840850Y554810I-9653J-14621D01*
G02X839920Y554160I-936J349D01*
G01X838700D01*
X838560Y554020D01*
X815770D01*
G02X814770Y555020I0J1000D01*
G01Y562270D01*
G03X813770Y563270I-1000J0D01*
G01X786230D01*
G03X785230Y562270I0J-1000D01*
G01Y536520D01*
G02X784230Y535520I-1000J0D01*
G01X767270D01*
G02X766270Y536520I0J1000D01*
G37*
G36*
G01Y651520D02*
Y658770D01*
G03X765270Y659770I-1000J0D01*
G01X756520D01*
G02X755520Y660770I0J1000D01*
G01Y661870D01*
G03X755230Y662580I-1001J5D01*
G01X748510Y669290D01*
G02Y670710I711J710D01*
G01X755230Y677420D01*
G03X755520Y678130I-711J705D01*
G01Y679230D01*
G02X756520Y680230I1000J0D01*
G01X765270D01*
G03X766270Y681230I0J1000D01*
G01Y688480D01*
G02X767270Y689480I1000J0D01*
G01X784230D01*
G02X785230Y688480I0J-1000D01*
G01Y682730D01*
G03X786230Y681730I1000J0D01*
G01X813770D01*
G03X814770Y682730I0J1000D01*
G01Y689980D01*
G02X815770Y690980I1000J0D01*
G01X838320D01*
G03X839030Y691270I5J1001D01*
G01X839510Y691750D01*
G02X840320Y692040I709J-704D01*
G01X842100Y691860D01*
X842470Y691630D01*
X842600Y691440D01*
G03X866900Y686420I14652J9601D01*
G01X867130Y686570D01*
X867680Y686590D01*
X869470Y685630D01*
G02X870000Y684750I-470J-883D01*
G01Y666530D01*
G02X869470Y665650I-1000J3D01*
G01X867680Y664690D01*
X867130Y664710D01*
X866900Y664860D01*
G03X841990Y658840I-9649J-14621D01*
G01X841920Y658720D01*
X841820Y658630D01*
G02X840410I-705J706D01*
G01X840310Y658730D01*
G03X839600Y659020I-705J-711D01*
G01X815770D01*
G02X814770Y660020I0J1000D01*
G01Y667270D01*
G03X813770Y668270I-1000J0D01*
G01X786230D01*
G03X785230Y667270I0J-1000D01*
G01Y660020D01*
G02X784230Y659020I-1000J0D01*
G01X784120D01*
G03X783410Y658730I-5J-1001D01*
G01X775500Y650810D01*
G02X774790Y650520I-705J712D01*
G01X767270D01*
G02X766270Y651520I0J1000D01*
G37*
G36*
G01Y751520D02*
Y758770D01*
G03X765270Y759770I-1000J0D01*
G01X756520D01*
G02X755520Y760770I0J1000D01*
G01Y761870D01*
G03X755230Y762580I-1001J5D01*
G01X748510Y769290D01*
G02Y770710I711J710D01*
G01X755230Y777420D01*
G03X755520Y778130I-711J705D01*
G01Y779230D01*
G02X756520Y780230I1000J0D01*
G01X765270D01*
G03X766270Y781230I0J1000D01*
G01Y788480D01*
G02X767270Y789480I1000J0D01*
G01X784230D01*
G02X785230Y788480I0J-1000D01*
G01Y782730D01*
G03X786230Y781730I1000J0D01*
G01X813770D01*
G03X814770Y782730I0J1000D01*
G01Y789980D01*
G02X815770Y790980I1000J0D01*
G01X836720D01*
G03X837430Y791270I5J1001D01*
G01X839510Y793350D01*
G02X840320Y793640I709J-704D01*
G01X842100Y793460D01*
X842470Y793230D01*
X842600Y793040D01*
G03X866900Y788020I14652J9601D01*
G01X867130Y788170D01*
X867680Y788190D01*
X869470Y787230D01*
G02X870000Y786350I-470J-883D01*
G01Y768130D01*
G02X869470Y767250I-1000J3D01*
G01X867680Y766290D01*
X867130Y766310D01*
X866900Y766460D01*
G03X841530Y759580I-9653J-14621D01*
G02X840630Y759020I-898J439D01*
G01X815770D01*
G02X814770Y760020I0J1000D01*
G01Y767270D01*
G03X813770Y768270I-1000J0D01*
G01X786230D01*
G03X785230Y767270I0J-1000D01*
G01Y760020D01*
G02X784230Y759020I-1000J0D01*
G01X784120D01*
G03X783410Y758730I-5J-1001D01*
G01X775500Y750810D01*
G02X774790Y750520I-705J712D01*
G01X767270D01*
G02X766270Y751520I0J1000D01*
G37*
%LPC*%
G75*
G36*
G01X242420Y696810D02*
X247830Y702230D01*
G02X248540Y702520I705J-712D01*
G01X254490D01*
G03X255180Y702790I6J1000D01*
G01X256320Y703880D01*
X256480Y704210D01*
X256490Y704410D01*
G02X270150Y699670I7510J-412D01*
G01X269980Y699440D01*
X269950Y698890D01*
X270900Y697060D01*
G03X271780Y696520I887J459D01*
G01X278520D01*
G02X279520Y695520I0J-1000D01*
G01Y695390D01*
X280130Y695140D01*
G03X281220Y695360I381J922D01*
G01X282790Y696930D01*
G02X283500Y697220I705J-712D01*
G01X285480D01*
G03X286480Y698220I0J1000D01*
G01X312520D01*
G02X313520Y697220I0J-1000D01*
G01Y688180D01*
G02X312520Y687180I-1000J0D01*
G01X286250D01*
G03X285540Y686890I-6J-1001D01*
G01X282930Y684270D01*
G02X282220Y683980I-705J712D01*
G01X280520D01*
G03X279520Y682980I0J-1000D01*
G01Y681480D01*
G02X278520Y680480I-1000J0D01*
G01X261480D01*
G02X260480Y681480I0J1000D01*
G01Y682980D01*
G03X259480Y683980I-1000J0D01*
G01X255520D01*
G03X254520Y682980I0J-1000D01*
G01Y681480D01*
G02X253520Y680480I-1000J0D01*
G01X236480D01*
G02X235480Y681480I0J1000D01*
G01Y695520D01*
G02X236480Y696520I1000J0D01*
G01X241710D01*
G03X242420Y696810I6J1001D01*
G37*
G36*
G01X254520Y497980D02*
Y496480D01*
G02X253520Y495480I-1000J0D01*
G01X236480D01*
G02X235480Y496480I0J1000D01*
G01Y510520D01*
G02X236480Y511520I1000J0D01*
G01X240710D01*
G03X241420Y511810I6J1001D01*
G01X247830Y518230D01*
G02X248540Y518520I705J-712D01*
G01X255980D01*
X256540Y518980D01*
X256600Y519340D01*
G02X270640Y514460I7400J-1346D01*
G01X270510Y514230D01*
X270520Y513700D01*
X271540Y512010D01*
G03X272400Y511520I860J510D01*
G01X278520D01*
G02X279520Y510520I0J-1000D01*
G01Y510390D01*
X280130Y510140D01*
G03X281220Y510360I381J922D01*
G01X282790Y511930D01*
G02X283500Y512220I705J-712D01*
G01X285480D01*
G03X286480Y513220I0J1000D01*
G01X312520D01*
G02X313520Y512220I0J-1000D01*
G01Y503180D01*
G02X312520Y502180I-1000J0D01*
G01X286250D01*
G03X285540Y501890I-6J-1001D01*
G01X282930Y499270D01*
G02X282220Y498980I-705J712D01*
G01X280520D01*
G03X279520Y497980I0J-1000D01*
G01Y496480D01*
G02X278520Y495480I-1000J0D01*
G01X261480D01*
G02X260480Y496480I0J1000D01*
G01Y497980D01*
G03X259480Y498980I-1000J0D01*
G01X255520D01*
G03X254520Y497980I0J-1000D01*
G37*
G36*
G01X40530Y1344620D02*
X61070D01*
G02X62070Y1343620I0J-1000D01*
G01Y1323080D01*
G02X61070Y1322080I-1000J0D01*
G01X40530D01*
G02X39530Y1323080I0J1000D01*
G01Y1343620D01*
G02X40530Y1344620I1000J0D01*
G37*
G36*
G01X-10270D02*
X10270D01*
G02X11270Y1343620I0J-1000D01*
G01Y1323080D01*
G02X10270Y1322080I-1000J0D01*
G01X-10270D01*
G02X-11270Y1323080I0J1000D01*
G01Y1343620D01*
G02X-10270Y1344620I1000J0D01*
G37*
G36*
G01X197710Y790290D02*
X212290D01*
G02X213290Y789290I0J-1000D01*
G01Y777710D01*
G02X212290Y776710I-1000J0D01*
G01X197710D01*
G02X196710Y777710I0J1000D01*
G01Y789290D01*
G02X197710Y790290I1000J0D01*
G37*
G36*
G01X230710Y622540D02*
X249290D01*
G02X250290Y621540I0J-1000D01*
G01Y608460D01*
G02X249290Y607460I-1000J0D01*
G01X230710D01*
G02X229710Y608460I0J1000D01*
G01Y621540D01*
G02X230710Y622540I1000J0D01*
G37*
G36*
G01X262710Y610290D02*
X277290D01*
G02X278290Y609290I0J-1000D01*
G01Y597710D01*
G02X277290Y596710I-1000J0D01*
G01X262710D01*
G02X261710Y597710I0J1000D01*
G01Y609290D01*
G02X262710Y610290I1000J0D01*
G37*
G36*
G01X237710Y678290D02*
X252290D01*
G02X253290Y677290I0J-1000D01*
G01Y665710D01*
G02X252290Y664710I-1000J0D01*
G01X237710D01*
G02X236710Y665710I0J1000D01*
G01Y677290D01*
G02X237710Y678290I1000J0D01*
G37*
G36*
G01X262710D02*
X277290D01*
G02X278290Y677290I0J-1000D01*
G01Y665710D01*
G02X277290Y664710I-1000J0D01*
G01X262710D01*
G02X261710Y665710I0J1000D01*
G01Y677290D01*
G02X262710Y678290I1000J0D01*
G37*
G36*
G01X230710Y807540D02*
X249290D01*
G02X250290Y806540I0J-1000D01*
G01Y793460D01*
G02X249290Y792460I-1000J0D01*
G01X230710D01*
G02X229710Y793460I0J1000D01*
G01Y806540D01*
G02X230710Y807540I1000J0D01*
G37*
G36*
G01X262710Y795290D02*
X277290D01*
G02X278290Y794290I0J-1000D01*
G01Y782710D01*
G02X277290Y781710I-1000J0D01*
G01X262710D01*
G02X261710Y782710I0J1000D01*
G01Y794290D01*
G02X262710Y795290I1000J0D01*
G37*
G36*
G01X288710Y499290D02*
X311290D01*
G02X312290Y498290I0J-1000D01*
G01Y491710D01*
G02X311290Y490710I-1000J0D01*
G01X288710D01*
G02X287710Y491710I0J1000D01*
G01Y498290D01*
G02X288710Y499290I1000J0D01*
G37*
G36*
G01Y575490D02*
X311290D01*
G02X312290Y574490I0J-1000D01*
G01Y567910D01*
G02X311290Y566910I-1000J0D01*
G01X288710D01*
G02X287710Y567910I0J1000D01*
G01Y574490D01*
G02X288710Y575490I1000J0D01*
G37*
G36*
G01Y524690D02*
X311290D01*
G02X312290Y523690I0J-1000D01*
G01Y517110D01*
G02X311290Y516110I-1000J0D01*
G01X288710D01*
G02X287710Y517110I0J1000D01*
G01Y523690D01*
G02X288710Y524690I1000J0D01*
G37*
G36*
G01Y613590D02*
X311290D01*
G02X312290Y612590I0J-1000D01*
G01Y606010D01*
G02X311290Y605010I-1000J0D01*
G01X288710D01*
G02X287710Y606010I0J1000D01*
G01Y612590D01*
G02X288710Y613590I1000J0D01*
G37*
G36*
G01Y600890D02*
X311290D01*
G02X312290Y599890I0J-1000D01*
G01Y593310D01*
G02X311290Y592310I-1000J0D01*
G01X288710D01*
G02X287710Y593310I0J1000D01*
G01Y599890D01*
G02X288710Y600890I1000J0D01*
G37*
G36*
G01Y709690D02*
X311290D01*
G02X312290Y708690I0J-1000D01*
G01Y702110D01*
G02X311290Y701110I-1000J0D01*
G01X288710D01*
G02X287710Y702110I0J1000D01*
G01Y708690D01*
G02X288710Y709690I1000J0D01*
G37*
G36*
G01Y684290D02*
X311290D01*
G02X312290Y683290I0J-1000D01*
G01Y676710D01*
G02X311290Y675710I-1000J0D01*
G01X288710D01*
G02X287710Y676710I0J1000D01*
G01Y683290D01*
G02X288710Y684290I1000J0D01*
G37*
G36*
G01Y798590D02*
X311290D01*
G02X312290Y797590I0J-1000D01*
G01Y791010D01*
G02X311290Y790010I-1000J0D01*
G01X288710D01*
G02X287710Y791010I0J1000D01*
G01Y797590D01*
G02X288710Y798590I1000J0D01*
G37*
G36*
G01Y785890D02*
X311290D01*
G02X312290Y784890I0J-1000D01*
G01Y778310D01*
G02X311290Y777310I-1000J0D01*
G01X288710D01*
G02X287710Y778310I0J1000D01*
G01Y784890D01*
G02X288710Y785890I1000J0D01*
G37*
G36*
G01Y760490D02*
X311290D01*
G02X312290Y759490I0J-1000D01*
G01Y752910D01*
G02X311290Y751910I-1000J0D01*
G01X288710D01*
G02X287710Y752910I0J1000D01*
G01Y759490D01*
G02X288710Y760490I1000J0D01*
G37*
G36*
G01X220150Y690230D02*
X111850D01*
G02X111150Y690520I4J1000D01*
G01X99520Y702150D01*
G02X99230Y702850I710J704D01*
G01Y1559260D01*
G03X99220Y1559430I-1002J26D01*
G01X99190Y1559570D01*
G03X98910Y1560110I-985J-168D01*
G01X75730Y1583290D01*
G03X75030Y1583580I-704J-710D01*
G01X62100D01*
G03X61550Y1583410I7J-999D01*
G01X61420Y1583330D01*
X61240Y1583110D01*
X61180Y1582970D01*
G02X40420I-10380J4380D01*
G01X40360Y1583110D01*
X40180Y1583330D01*
X40050Y1583410D01*
G03X39500Y1583580I-557J-829D01*
G01X11300D01*
G03X10750Y1583410I7J-999D01*
G01X10620Y1583330D01*
X10440Y1583110D01*
X10380Y1582970D01*
G02Y1591730I-10380J4380D01*
G01X10440Y1591590D01*
X10620Y1591370D01*
X10750Y1591290D01*
G03X11300Y1591120I557J829D01*
G01X39500D01*
G03X40050Y1591290I-7J999D01*
G01X40180Y1591370D01*
X40360Y1591590D01*
X40420Y1591730D01*
G02X61180I10380J-4380D01*
G01X61240Y1591590D01*
X61420Y1591370D01*
X61550Y1591290D01*
G03X62100Y1591120I557J829D01*
G01X78150D01*
G02X78850Y1590830I-4J-1000D01*
G01X106480Y1563200D01*
G02X106770Y1562500I-710J-704D01*
G01Y706090D01*
G03X106780Y705920I1002J-26D01*
G01X106810Y705780D01*
G03X107090Y705240I985J168D01*
G01X114270Y698060D01*
G03X114970Y697770I704J710D01*
G01X217030D01*
G03X217730Y698060I-4J1000D01*
G01X220940Y701270D01*
G03X221230Y701970I-710J704D01*
G01Y704900D01*
G02X221520Y705600I1000J-4D01*
G01X228440Y712520D01*
G03X228730Y713220I-710J704D01*
G01Y721520D01*
G02X229730Y722520I1000J0D01*
G01X250270D01*
G02X251270Y721520I0J-1000D01*
G03X251880Y720600I998J0D01*
G03X252980Y720800I402J916D01*
G01X253760Y721580D01*
G02X254460Y721870I704J-710D01*
G01X285480D01*
G03X286480Y722870I0J1000D01*
G01Y726030D01*
G03X285480Y727030I-1000J0D01*
G01X272770D01*
G03X272070Y726740I4J-1000D01*
G01X271850Y726520D01*
G02X271150Y726230I-704J710D01*
G01X216020D01*
G03X215020Y725230I0J-1000D01*
G01Y709980D01*
G02X214020Y708980I-1000J0D01*
G01X204720D01*
G03X204020Y708690I4J-1000D01*
G01X196850Y701520D01*
G02X196150Y701230I-704J710D01*
G01X133850D01*
G02X133150Y701520I4J1000D01*
G01X112520Y722150D01*
G02X112230Y722850I710J704D01*
G01Y1573920D01*
G03X112220Y1574090I-1002J26D01*
G01X112190Y1574230D01*
G03X111910Y1574770I-985J-168D01*
G01X77990Y1608690D01*
G03X77290Y1608980I-704J-710D01*
G01X62100D01*
G03X61550Y1608810I7J-999D01*
G01X61420Y1608730D01*
X61240Y1608510D01*
X61180Y1608370D01*
G02X40420I-10380J4380D01*
G01X40360Y1608510D01*
X40180Y1608730D01*
X40050Y1608810D01*
G03X39500Y1608980I-557J-829D01*
G01X11300D01*
G03X10750Y1608810I7J-999D01*
G01X10620Y1608730D01*
X10440Y1608510D01*
X10380Y1608370D01*
G02Y1617130I-10380J4380D01*
G01X10440Y1616990D01*
X10620Y1616770D01*
X10750Y1616690D01*
G03X11300Y1616520I557J829D01*
G01X39500D01*
G03X40050Y1616690I-7J999D01*
G01X40180Y1616770D01*
X40360Y1616990D01*
X40420Y1617130D01*
G02X61180I10380J-4380D01*
G01X61240Y1616990D01*
X61420Y1616770D01*
X61550Y1616690D01*
G03X62100Y1616520I557J829D01*
G01X80410D01*
G02X81110Y1616230I-4J-1000D01*
G01X119480Y1577860D01*
G02X119770Y1577160I-710J-704D01*
G01Y726090D01*
G03X119780Y725920I1002J-26D01*
G01X119810Y725780D01*
G03X120090Y725240I985J168D01*
G01X136270Y709060D01*
G03X136970Y708770I704J710D01*
G01X163490D01*
G03X164410Y709390I-5J1000D01*
G01X164520Y709660D01*
X164410Y710250D01*
X162480Y712190D01*
G03X161780Y712480I-704J-710D01*
G01X154730D01*
G02X153730Y713480I0J1000D01*
G01Y726520D01*
G02X154730Y727520I1000J0D01*
G01X175270D01*
G02X176270Y726520I0J-1000D01*
G01Y713480D01*
G02X175870Y712680I-1000J0D01*
G01X175690Y712540D01*
X175490Y712180D01*
X175370Y710450D01*
G03X175430Y710030I997J-72D01*
G01X175510Y709820D01*
X176270Y709060D01*
G03X176970Y708770I704J710D01*
G01X185210D01*
G03X186210Y709770I0J1000D01*
G01Y722790D01*
G02X187210Y723790I1000J0D01*
G01X193480D01*
G03X194480Y724790I0J1000D01*
G01Y725020D01*
X201220D01*
G03X202140Y725630I0J998D01*
G03X201930Y726730I-917J395D01*
G01X193980Y734690D01*
G03X193280Y734980I-704J-710D01*
G01X185980D01*
G02X184980Y735980I0J1000D01*
G01Y750020D01*
G02X185980Y751020I1000J0D01*
G01X195020D01*
G02X196020Y750020I0J-1000D01*
G01Y747720D01*
G03X196310Y747020I1000J4D01*
G01X201480Y741850D01*
G02X201770Y741150I-710J-704D01*
G01Y738090D01*
G03X201780Y737920I1002J-26D01*
G01X201810Y737780D01*
G03X202090Y737240I985J168D01*
G01X202280Y737050D01*
G03X203370Y736840I702J711D01*
G01X203650Y736950D01*
X203980Y737450D01*
Y751340D01*
G03X203970Y751510I-1002J26D01*
G01X203940Y751650D01*
G03X203660Y752190I-986J-168D01*
G01X200770Y755070D01*
G02X200480Y755780I712J705D01*
G01Y757480D01*
G03X199480Y758480I-1000J0D01*
G01X196480D01*
G02X195480Y759480I0J1000D01*
G01Y760480D01*
G03X194480Y761480I-1000J0D01*
G01X172280D01*
G03X171580Y761190I4J-1000D01*
G01X169810Y759420D01*
G03X169520Y758720I710J-704D01*
G01Y758520D01*
G03X170520Y757520I1000J0D01*
G01X175270D01*
G02X176270Y756520I0J-1000D01*
G01Y743480D01*
G02X175270Y742480I-1000J0D01*
G01X154730D01*
G02X153730Y743480I0J1000D01*
G01Y756520D01*
G02X154730Y757520I1000J0D01*
G01X159480D01*
G03X160480Y758520I0J1000D01*
G01Y762460D01*
G02X160770Y763170I1002J5D01*
G01X167830Y770230D01*
G02X168530Y770520I705J-712D01*
G01X191460D01*
G03X192160Y770810I-4J1000D01*
G01X192220Y770870D01*
X192400Y770940D01*
X192410D01*
G02X192780Y771020I392J-916D01*
G01X194480D01*
G03X195480Y772020I0J1000D01*
G01Y773520D01*
G02X196480Y774520I1000J0D01*
G01X213520D01*
G02X214510Y773660I0J-1000D01*
G01X214540Y773410D01*
X214820Y773020D01*
X216640Y772080D01*
G03X217670Y772150I457J889D01*
G02X225560Y772640I4342J-6146D01*
G01X225790Y772510D01*
X226320Y772520D01*
X228000Y773540D01*
G03X228090Y773600I-509J861D01*
G03X228480Y774400I-612J794D01*
G01Y777770D01*
G02X229480Y778770I1000J0D01*
G01X250520D01*
G02X251520Y777770I0J-1000D01*
G01Y777020D01*
G03X252520Y776020I1000J0D01*
G01X259480D01*
G03X260480Y777020I0J1000D01*
G01Y778520D01*
G02X261480Y779520I1000J0D01*
G01X278520D01*
G02X279520Y778520I0J-1000D01*
G01Y777020D01*
G03X280520Y776020I1000J0D01*
G01X282230D01*
G02X282930Y775730I-5J-1002D01*
G01X284780Y773880D01*
G03X285600Y773590I710J703D01*
G01X285830Y773610D01*
X286210Y773850D01*
X286280Y773960D01*
G02X286660Y774320I854J-521D01*
G01X286750Y774360D01*
X286980Y774420D01*
X312520D01*
G02X313520Y773420I0J-1000D01*
G01Y764380D01*
G02X312520Y763380I-1000J0D01*
G01X287480D01*
G02X286610Y763880I0J1007D01*
G01X286470Y764120D01*
X286020Y764380D01*
X281890D01*
G02X281210Y764650I4J1002D01*
G01X281200Y764660D01*
G03X280120Y764850I-685J-730D01*
G01X279840Y764730D01*
X279520Y764240D01*
Y764060D01*
X278940Y763480D01*
X261480D01*
G02X260480Y764480I0J1000D01*
G01Y765980D01*
G03X259480Y766980I-1000J0D01*
G01X256540D01*
G03X255830Y766680I4J-1000D01*
G01X254930Y765770D01*
G02X254230Y765480I-705J712D01*
G01X252520D01*
G03X251520Y764480I0J-1000D01*
G01Y762230D01*
G02X250520Y761230I-1000J0D01*
G01X228270D01*
G03X227890Y761160I-12J-1002D01*
G03X227520Y760900I375J-928D01*
G02X226870Y760270I-5548J5074D01*
G01X226790Y760200D01*
X226730Y760120D01*
G03X226520Y759510I790J-613D01*
G01Y754400D01*
G03X226530Y754230I1002J-26D01*
G01X226560Y754090D01*
G03X226840Y753550I985J168D01*
G01X227580Y752810D01*
G03X228280Y752520I704J710D01*
G01X250270D01*
G02X251270Y751520I0J-1000D01*
G01Y738480D01*
G02X250270Y737480I-1000J0D01*
G01X229730D01*
G02X228730Y738480I0J1000D01*
G01Y740480D01*
G03X227730Y741480I-1000J0D01*
G01X226530D01*
G02X225830Y741770I5J1002D01*
G01X217770Y749830D01*
G02X217480Y750540I712J705D01*
G01Y759520D01*
X217390Y759920D01*
X217240Y760180D01*
X217110Y760290D01*
G02X216280Y761120I4885J5715D01*
G01X216140Y761290D01*
X215740Y761470D01*
X215520D01*
G03X214810Y761180I-5J-1001D01*
G03X214520Y760470I711J-705D01*
G01Y759480D01*
G02X213520Y758480I-1000J0D01*
G01X212570D01*
G03X211640Y757860I-4J-1001D01*
G01X211530Y757580D01*
X211640Y757000D01*
X213730Y754910D01*
G02X214020Y754200I-712J-705D01*
G01Y752020D01*
G03X214640Y751100I993J0D01*
G01X214820Y751020D01*
X215020D01*
Y734770D01*
G03X216020Y733770I1000J0D01*
G01X268030D01*
G03X268730Y734060I-4J1000D01*
G01X281650Y746980D01*
G02X282350Y747270I704J-710D01*
G01X285480D01*
G03X286480Y748270I0J1000D01*
G01Y748440D01*
X286770Y748730D01*
G02X287470Y749020I704J-710D01*
G01X312520D01*
G02X313520Y748020I0J-1000D01*
G01Y713580D01*
G02X312520Y712580I-1000J0D01*
G01X287480D01*
G02X286490Y713450I0J998D01*
G01X286440Y713830D01*
X285880Y714330D01*
X257580D01*
G03X256880Y714040I4J-1000D01*
G01X254360Y711520D01*
G02X253660Y711230I-704J710D01*
G01X252270D01*
G03X251270Y710230I0J-1000D01*
G01Y708480D01*
G02X250270Y707480I-1000J0D01*
G01X234470D01*
G03X233770Y707190I4J-1000D01*
G01X229060Y702480D01*
G03X228770Y701780I710J-704D01*
G01Y698850D01*
G02X228480Y698150I-1000J4D01*
G01X220850Y690520D01*
G02X220150Y690230I-704J710D01*
G37*
G36*
G01X146340Y629960D02*
X128260D01*
G02X127260Y630960I0J1000D01*
G01Y649040D01*
G02X128260Y650040I1000J0D01*
G01X146340D01*
G02X147340Y649040I0J-1000D01*
G01Y630960D01*
G02X146340Y629960I-1000J0D01*
G37*
G36*
G01X212290Y596710D02*
X197710D01*
G02X196710Y597710I0J1000D01*
G01Y609290D01*
G02X197710Y610290I1000J0D01*
G01X212290D01*
G02X213290Y609290I0J-1000D01*
G01Y597710D01*
G02X212290Y596710I-1000J0D01*
G37*
G36*
G01X216150Y501230D02*
X87850D01*
G02X87150Y501520I4J1000D01*
G01X68520Y520150D01*
G02X68230Y520850I710J704D01*
G01Y1529920D01*
G03X68210Y1530110I-999J-9D01*
G01X68160Y1530400D01*
X68080Y1530590D01*
X66180Y1532490D01*
G03X65850Y1532710I-709J-706D01*
G01X65670Y1532780D01*
X62100D01*
G03X61180Y1532170I1J-1000D01*
G02X40420I-10380J4380D01*
G03X39500Y1532780I-921J-390D01*
G01X11300D01*
G03X10380Y1532170I1J-1000D01*
G02Y1540930I-10380J4380D01*
G03X11300Y1540320I921J390D01*
G01X39500D01*
G03X40420Y1540930I-1J1000D01*
G02X61180I10380J-4380D01*
G03X62100Y1540320I921J390D01*
G01X68600D01*
G02X69300Y1540030I-4J-1000D01*
G01X75480Y1533850D01*
G02X75770Y1533150I-710J-704D01*
G01Y523780D01*
X75840Y523600D01*
G03X76060Y523270I926J379D01*
G01X90270Y509060D01*
G03X90600Y508840I709J706D01*
G01X90780Y508770D01*
X213220D01*
X213400Y508840D01*
G03X213730Y509060I-379J926D01*
G01X220940Y516270D01*
G03X221160Y516600I-706J709D01*
G01X221230Y516780D01*
Y519900D01*
G02X221520Y520600I1000J-4D01*
G01X228440Y527520D01*
G03X228660Y527850I-706J709D01*
G01X228730Y528030D01*
Y536520D01*
G02X229730Y537520I1000J0D01*
G01X250270D01*
G02X251270Y536520I0J-1000D01*
G01Y536510D01*
G03X251890Y535590I999J4D01*
G01X252170Y535470D01*
X252760Y535590D01*
X253760Y536580D01*
G02X254460Y536870I704J-710D01*
G01X285480D01*
G03X286190Y537160I5J1001D01*
G03X286480Y537870I-711J705D01*
G01Y541030D01*
G03X286190Y541740I-1001J5D01*
G03X285480Y542030I-705J-711D01*
G01X267580D01*
X267400Y541960D01*
G03X267070Y541740I379J-926D01*
G01X266850Y541520D01*
G02X266150Y541230I-704J710D01*
G01X216020D01*
G03X215310Y540940I-5J-1001D01*
G03X215020Y540230I711J-705D01*
G01Y524980D01*
G02X214020Y523980I-1000J0D01*
G01X204770D01*
G03X204060Y523690I-5J-1001D01*
G03X203770Y522980I711J-705D01*
G01Y521590D01*
G02X203480Y520890I-1000J4D01*
G01X199110Y516520D01*
G02X198410Y516230I-704J710D01*
G01X107850D01*
G02X107150Y516520I4J1000D01*
G01X81520Y542150D01*
G02X81230Y542850I710J704D01*
G01Y1546870D01*
G03X81210Y1547060I-999J-9D01*
G01X81160Y1547350D01*
X81080Y1547540D01*
X70730Y1557890D01*
G03X70400Y1558110I-709J-706D01*
G01X70220Y1558180D01*
X63070D01*
G03X62360Y1557890I-5J-1001D01*
G03X62070Y1557180I711J-705D01*
G01Y1551680D01*
G02X61070Y1550680I-1000J0D01*
G01X40530D01*
G02X39530Y1551680I0J1000D01*
G01Y1557180D01*
G03X39240Y1557890I-1001J5D01*
G03X38530Y1558180I-705J-711D01*
G01X12270D01*
G03X11560Y1557890I-5J-1001D01*
G03X11270Y1557180I711J-705D01*
G01Y1551680D01*
G02X10270Y1550680I-1000J0D01*
G01X-10270D01*
G02X-11270Y1551680I0J1000D01*
G01Y1572220D01*
G02X-10270Y1573220I1000J0D01*
G01X10270D01*
G02X11270Y1572220I0J-1000D01*
G01Y1566720D01*
G03X11560Y1566010I1001J-5D01*
G03X12270Y1565720I705J711D01*
G01X38530D01*
G03X39240Y1566010I5J1001D01*
G03X39530Y1566720I-711J705D01*
G01Y1572220D01*
G02X40530Y1573220I1000J0D01*
G01X61070D01*
G02X62070Y1572220I0J-1000D01*
G01Y1566720D01*
G03X62360Y1566010I1001J-5D01*
G03X63070Y1565720I705J711D01*
G01X73150D01*
G02X73850Y1565430I-4J-1000D01*
G01X88480Y1550800D01*
G02X88770Y1550100I-710J-704D01*
G01Y545780D01*
X88840Y545600D01*
G03X89060Y545270I926J379D01*
G01X110270Y524060D01*
G03X110600Y523840I709J706D01*
G01X110780Y523770D01*
X163480D01*
G03X164400Y524390I-5J999D01*
G01X164520Y524670D01*
X164400Y525260D01*
X161520Y528150D01*
G02X161230Y528850I710J704D01*
G01Y531480D01*
G03X160940Y532190I-1001J5D01*
G03X160230Y532480I-705J-711D01*
G01X154730D01*
G02X153730Y533480I0J1000D01*
G01Y546520D01*
G02X154730Y547520I1000J0D01*
G01X175270D01*
G02X176270Y546520I0J-1000D01*
G01Y533480D01*
G02X175270Y532480I-1000J0D01*
G01X170270D01*
G03X169350Y531860I4J-998D01*
G01X169230Y531580D01*
X169350Y530990D01*
X176270Y524060D01*
G03X176600Y523840I709J706D01*
G01X176780Y523770D01*
X185210D01*
G03X185920Y524060I5J1001D01*
G03X186210Y524770I-711J705D01*
G01Y537790D01*
G02X187210Y538790I1000J0D01*
G01X193480D01*
G03X194190Y539080I5J1001D01*
G03X194480Y539790I-711J705D01*
G01Y540020D01*
X203230D01*
G03X204150Y540640I-4J998D01*
G01X204270Y540920D01*
X204150Y541510D01*
X195980Y549690D01*
G03X195650Y549910I-709J-706D01*
G01X195470Y549980D01*
X185980D01*
G02X184980Y550980I0J1000D01*
G01Y565020D01*
G02X185980Y566020I1000J0D01*
G01X195020D01*
G02X196020Y565020I0J-1000D01*
G01Y562770D01*
G03X196310Y562060I1001J-5D01*
G03X197020Y561770I705J711D01*
G01X199150D01*
G02X199850Y561480I-4J-1000D01*
G01X202280Y559050D01*
G03X203370Y558840I702J711D01*
G01X203650Y558950D01*
X203980Y559450D01*
Y565870D01*
G03X203960Y566060I-999J-9D01*
G01X203910Y566350D01*
X203830Y566540D01*
X200770Y569590D01*
G02X200480Y570300I712J705D01*
G01Y577480D01*
G03X200190Y578190I-1001J5D01*
G03X199480Y578480I-705J-711D01*
G01X196480D01*
G02X195480Y579480I0J1000D01*
G01Y580980D01*
G03X195190Y581690I-1001J5D01*
G03X194480Y581980I-705J-711D01*
G01X174590D01*
X174410Y581910D01*
G03X174080Y581690I379J-926D01*
G01X171620Y579220D01*
G03X171400Y578130I706J-710D01*
G01X171520Y577850D01*
X172020Y577520D01*
X175270D01*
G02X176270Y576520I0J-1000D01*
G01Y563480D01*
G02X175270Y562480I-1000J0D01*
G01X154730D01*
G02X153730Y563480I0J1000D01*
G01Y576520D01*
G02X154730Y577520I1000J0D01*
G01X159480D01*
G03X160190Y577810I5J1001D01*
G03X160480Y578520I-711J705D01*
G01Y580220D01*
G02X160770Y580930I1002J5D01*
G01X161480Y581630D01*
Y581870D01*
X170330Y590730D01*
G02X171030Y591020I705J-712D01*
G01X194480D01*
G03X195190Y591310I5J1001D01*
G03X195480Y592020I-711J705D01*
G01Y593520D01*
G02X196480Y594520I1000J0D01*
G01X213520D01*
G02X214510Y593660I0J-1000D01*
G01X214540Y593410D01*
X214820Y593020D01*
X216890Y591950D01*
X217440Y591990D01*
X217670Y592150D01*
G02X225550Y592640I4337J-6147D01*
G01X225780Y592510D01*
X226310Y592520D01*
X228140Y593630D01*
G02X228650Y593770I510J-860D01*
G01X250520D01*
G02X251520Y592770I0J-1000D01*
G01Y590520D01*
G03X251810Y589810I1001J-5D01*
G03X252520Y589520I705J711D01*
G01X255650D01*
X255830Y589590D01*
G03X256170Y589820I-379J926D01*
G01X257070Y590730D01*
G02X257770Y591020I705J-712D01*
G01X259480D01*
G03X260190Y591310I5J1001D01*
G03X260480Y592020I-711J705D01*
G01Y593520D01*
G02X261480Y594520I1000J0D01*
G01X278520D01*
G02X279520Y593520I0J-1000D01*
G01Y592020D01*
G03X279810Y591310I1001J-5D01*
G03X280520Y591020I705J711D01*
G01X284110D01*
G02X284810Y590730I-5J-1002D01*
G01X285810Y589720D01*
G03X286150Y589490I719J696D01*
G01X286330Y589420D01*
X312520D01*
G02X313520Y588420I0J-1000D01*
G01Y579380D01*
G02X312520Y578380I-1000J0D01*
G01X287480D01*
G02X286610Y578880I0J1007D01*
G01X286480Y579120D01*
X286030Y579380D01*
X283770D01*
G02X283070Y579670I5J1002D01*
G01X281220Y581520D01*
G03X280130Y581730I-702J-711D01*
G01X279850Y581620D01*
X279520Y581120D01*
Y579480D01*
G02X278520Y578480I-1000J0D01*
G01X261480D01*
G02X260480Y579480I0J1000D01*
G01Y579680D01*
X260330Y580040D01*
X260190Y580190D01*
G03X259480Y580480I-705J-711D01*
G01X252520D01*
G03X251810Y580190I-5J-1001D01*
G03X251520Y579480I711J-705D01*
G01Y577230D01*
G02X250520Y576230I-1000J0D01*
G01X227520D01*
G03X226810Y575940I-5J-1001D01*
G03X226520Y575230I711J-705D01*
G01Y570090D01*
X226590Y569910D01*
G03X226810Y569580I926J379D01*
G01X228580Y567810D01*
G03X228910Y567590I709J706D01*
G01X229090Y567520D01*
X250270D01*
G02X251270Y566520I0J-1000D01*
G01Y553480D01*
G02X250270Y552480I-1000J0D01*
G01X229730D01*
G02X228730Y553480I0J1000D01*
G01Y555480D01*
G03X228440Y556190I-1001J5D01*
G03X227730Y556480I-705J-711D01*
G01X227530D01*
G02X226830Y556770I5J1002D01*
G01X217770Y565830D01*
G02X217480Y566540I712J705D01*
G01Y579400D01*
G03X217460Y579620I-1002J20D01*
G01X217390Y579930D01*
X217300Y580130D01*
X217130Y580270D01*
G02X216280Y581120I4875J5725D01*
G01X216140Y581290D01*
X215740Y581470D01*
X215520D01*
G03X214520Y580470I0J-1000D01*
G01Y579480D01*
G02X213520Y578480I-1000J0D01*
G01X210520D01*
G03X209810Y578190I-5J-1001D01*
G03X209520Y577480I711J-705D01*
G01Y574150D01*
G03X209540Y573960I999J9D01*
G01X209590Y573670D01*
X209670Y573480D01*
X213730Y569430D01*
G02X214020Y568720I-712J-705D01*
G01Y567020D01*
G03X214310Y566310I1001J-5D01*
G01X214460Y566170D01*
X214820Y566020D01*
X215020D01*
Y549770D01*
G03X215310Y549060I1001J-5D01*
G03X216020Y548770I705J711D01*
G01X263220D01*
X263400Y548840D01*
G03X263730Y549060I-379J926D01*
G01X276650Y561980D01*
G02X277350Y562270I704J-710D01*
G01X285480D01*
G03X286190Y562560I5J1001D01*
G03X286480Y563270I-711J705D01*
G01Y563440D01*
X286770Y563730D01*
G02X287470Y564020I704J-710D01*
G01X312520D01*
G02X313520Y563020I0J-1000D01*
G01Y528580D01*
G02X312520Y527580I-1000J0D01*
G01X287480D01*
G02X286490Y528460I0J997D01*
G01X286440Y528830D01*
X285880Y529330D01*
X257390D01*
X257210Y529260D01*
G03X256880Y529040I379J-926D01*
G01X254360Y526520D01*
G02X253660Y526230I-704J710D01*
G01X252270D01*
G03X251560Y525940I-5J-1001D01*
G03X251270Y525230I711J-705D01*
G01Y523480D01*
G02X250270Y522480I-1000J0D01*
G01X234280D01*
X234100Y522410D01*
G03X233770Y522190I379J-926D01*
G01X229060Y517480D01*
G03X228840Y517150I706J-709D01*
G01X228770Y516970D01*
Y513850D01*
G02X228480Y513150I-1000J4D01*
G01X216850Y501520D01*
G02X216150Y501230I-704J710D01*
G37*
G36*
G01X436710Y1988290D02*
X448290D01*
G02X449290Y1987290I0J-1000D01*
G01Y1972710D01*
G02X448290Y1971710I-1000J0D01*
G01X436710D01*
G02X435710Y1972710I0J1000D01*
G01Y1987290D01*
G02X436710Y1988290I1000J0D01*
G37*
G36*
G01X272260Y1801040D02*
X292340D01*
G02X293340Y1800040I0J-1000D01*
G01Y1779960D01*
G02X292340Y1778960I-1000J0D01*
G01X272260D01*
G02X271260Y1779960I0J1000D01*
G01Y1800040D01*
G02X272260Y1801040I1000J0D01*
G37*
G36*
G01X269710Y1630290D02*
X281290D01*
G02X282290Y1629290I0J-1000D01*
G01Y1614710D01*
G02X281290Y1613710I-1000J0D01*
G01X269710D01*
G02X268710Y1614710I0J1000D01*
G01Y1629290D01*
G02X269710Y1630290I1000J0D01*
G37*
G36*
G01X277710Y1450290D02*
X292290D01*
G02X293290Y1449290I0J-1000D01*
G01Y1437710D01*
G02X292290Y1436710I-1000J0D01*
G01X277710D01*
G02X276710Y1437710I0J1000D01*
G01Y1449290D01*
G02X277710Y1450290I1000J0D01*
G37*
G36*
G01Y1300290D02*
X292290D01*
G02X293290Y1299290I0J-1000D01*
G01Y1287710D01*
G02X292290Y1286710I-1000J0D01*
G01X277710D01*
G02X276710Y1287710I0J1000D01*
G01Y1299290D01*
G02X277710Y1300290I1000J0D01*
G37*
G36*
G01Y990290D02*
X292290D01*
G02X293290Y989290I0J-1000D01*
G01Y977710D01*
G02X292290Y976710I-1000J0D01*
G01X277710D01*
G02X276710Y977710I0J1000D01*
G01Y989290D01*
G02X277710Y990290I1000J0D01*
G37*
G36*
G01X300520Y1630900D02*
X302580Y1629540D01*
X303070Y1629500D01*
X303310Y1629600D01*
G02Y1615780I2960J-6910D01*
G01X303070Y1615880D01*
X302580Y1615840D01*
X300970Y1614770D01*
G03X300520Y1613940I549J-834D01*
G01Y1613480D01*
G02X299520Y1612480I-1000J0D01*
G01X285480D01*
G02X284480Y1613480I0J1000D01*
G01Y1630520D01*
G02X285480Y1631520I1000J0D01*
G01X299940D01*
X300520Y1630940D01*
Y1630900D01*
G37*
G36*
G01X433520Y1988520D02*
Y1971480D01*
G02X432520Y1970480I-1000J0D01*
G01X418480D01*
G02X417480Y1971480I0J1000D01*
G01Y1974480D01*
G03X416480Y1975480I-1000J0D01*
G01X411490D01*
G03X410730Y1975130I0J-1000D01*
G02Y1984870I-5730J4870D01*
G03X411490Y1984520I760J650D01*
G01X416480D01*
G03X417480Y1985520I0J1000D01*
G01Y1988520D01*
G02X418480Y1989520I1000J0D01*
G01X432520D01*
G02X433520Y1988520I0J-1000D01*
G37*
G36*
G01X328790Y1946510D02*
X308210D01*
G02X307210Y1947510I0J1000D01*
G01Y1954090D01*
G02X308210Y1955090I1000J0D01*
G01X328790D01*
G02X329790Y1954090I0J-1000D01*
G01Y1947510D01*
G02X328790Y1946510I-1000J0D01*
G37*
G36*
G01X276520Y1838730D02*
X263480D01*
G02X262480Y1839730I0J1000D01*
G01Y1860270D01*
G02X263480Y1861270I1000J0D01*
G01X276520D01*
G02X277520Y1860270I0J-1000D01*
G01Y1855520D01*
G03X277810Y1854810I1001J-5D01*
G03X278520Y1854520I705J711D01*
G01X304980D01*
G03X305690Y1854810I5J1001D01*
G03X305980Y1855520I-711J705D01*
G01Y1869080D01*
G03X305690Y1869790I-1001J5D01*
G03X304980Y1870080I-705J-711D01*
G01X303270D01*
G02X302570Y1870370I5J1002D01*
G01X297760Y1875190D01*
G03X297430Y1875410I-709J-706D01*
G01X297250Y1875480D01*
X278520D01*
G03X277810Y1875190I-5J-1001D01*
G03X277520Y1874480I711J-705D01*
G01Y1869730D01*
G02X276520Y1868730I-1000J0D01*
G01X263480D01*
G02X262480Y1869730I0J1000D01*
G01Y1890270D01*
G02X263480Y1891270I1000J0D01*
G01X276520D01*
G02X277520Y1890270I0J-1000D01*
G01Y1885520D01*
G03X277810Y1884810I1001J-5D01*
G03X278520Y1884520I705J711D01*
G01X300810D01*
G02X301510Y1884230I-5J-1002D01*
G01X304280Y1881460D01*
G03X305370Y1881250I702J711D01*
G01X305360Y1881240D01*
G03X305980Y1882170I-381J926D01*
G01Y1898610D01*
G03X305960Y1898800I-999J-9D01*
G01X305910Y1899090D01*
X305830Y1899280D01*
X299920Y1905190D01*
G03X299590Y1905410I-709J-706D01*
G01X299410Y1905480D01*
X278520D01*
G03X277810Y1905190I-5J-1001D01*
G03X277520Y1904480I711J-705D01*
G01Y1899730D01*
G02X276520Y1898730I-1000J0D01*
G01X263480D01*
G02X262480Y1899730I0J1000D01*
G01Y1920270D01*
G02X263480Y1921270I1000J0D01*
G01X276520D01*
G02X277520Y1920270I0J-1000D01*
G01Y1915520D01*
G03X277810Y1914810I1001J-5D01*
G03X278520Y1914520I705J711D01*
G01X302970D01*
G02X303670Y1914230I-5J-1002D01*
G01X304280Y1913620D01*
G03X305370Y1913410I702J711D01*
G01X305360Y1913400D01*
G03X305980Y1914330I-381J926D01*
G01Y1924010D01*
G03X305960Y1924200I-999J-9D01*
G01X305910Y1924490D01*
X305830Y1924680D01*
X295320Y1935190D01*
G03X294990Y1935410I-709J-706D01*
G01X294810Y1935480D01*
X278520D01*
G03X277810Y1935190I-5J-1001D01*
G03X277520Y1934480I711J-705D01*
G01Y1929730D01*
G02X276520Y1928730I-1000J0D01*
G01X263480D01*
G02X262480Y1929730I0J1000D01*
G01Y1950270D01*
G02X263480Y1951270I1000J0D01*
G01X276520D01*
G02X277520Y1950270I0J-1000D01*
G01Y1945520D01*
G03X277810Y1944810I1001J-5D01*
G03X278520Y1944520I705J711D01*
G01X298370D01*
G02X299070Y1944230I-5J-1002D01*
G01X304280Y1939020D01*
G03X305370Y1938810I702J711D01*
G01X305360Y1938800D01*
G03X305980Y1939730I-381J926D01*
G01Y1942620D01*
G02X306980Y1943620I1000J0D01*
G01X330020D01*
G02X331020Y1942620I0J-1000D01*
G01Y1844680D01*
G02X330020Y1843680I-1000J0D01*
G01X306980D01*
G02X306110Y1844180I0J1007D01*
G01X305980Y1844420D01*
X305530Y1844680D01*
X303270D01*
G02X302570Y1844970I5J1002D01*
G01X302230Y1845320D01*
X301860Y1845480D01*
X278520D01*
G03X277810Y1845190I-5J-1001D01*
G03X277520Y1844480I711J-705D01*
G01Y1839730D01*
G02X276520Y1838730I-1000J0D01*
G37*
G54D44*
X50800Y1638150D03*
X0D03*
G54D47*
Y1968350D03*
X50800D03*
G54D43*
Y1409550D03*
Y1384150D03*
Y1358750D03*
X0Y1409550D03*
Y1384150D03*
Y1358750D03*
X50800Y1485750D03*
Y1460350D03*
Y1434950D03*
X0Y1485750D03*
Y1460350D03*
Y1434950D03*
X50800Y1511150D03*
X0D03*
G54D45*
X162700Y640000D03*
G54D46*
X307700Y1790000D03*
%LPD*%
G75*
G54D10*
X-25400Y1282550D03*
Y2171550D03*
G54D20*
X285000Y930000D03*
X255000D03*
X285000Y1240000D03*
X255000D03*
X285000Y1390000D03*
X255000D03*
X270000Y1850000D03*
X240000D03*
X270000Y1880000D03*
X240000D03*
X270000Y1910000D03*
X240000D03*
X270000Y1940000D03*
X240000D03*
G54D11*
G01X790000Y1981500D02*
Y1995000D01*
X780000Y2005000D01*
X675000D01*
X666750Y1996750D01*
Y1981200D01*
G01X717550Y1676400D02*
X765400D01*
X768500Y1673300D01*
X790000D01*
G01Y1630300D02*
X760000D01*
X738500Y1651800D01*
X700000D01*
X692150Y1659650D01*
Y1676400D01*
G01X717550Y1778000D02*
X765400D01*
X768500Y1774900D01*
X790000D01*
G01Y1731900D02*
X760000D01*
X738500Y1753400D01*
X700000D01*
X692150Y1761250D01*
Y1778000D01*
G01X790000Y1833500D02*
X760000D01*
X738500Y1855000D01*
X700000D01*
X692150Y1862850D01*
Y1879600D01*
G01X717550D02*
X765400D01*
G01X790000Y1938500D02*
X765000D01*
X748500Y1955000D01*
X700000D01*
X692150Y1962850D01*
Y1981200D01*
G01X790000Y1630300D02*
X828740D01*
X837250Y1621790D01*
X857250D01*
G01Y1672590D02*
X808460D01*
X807750Y1673300D01*
X790000D01*
G01X857250Y1774190D02*
X808460D01*
X807750Y1774900D01*
X790000D01*
G01Y1731900D02*
X828740D01*
X837250Y1723390D01*
X857250D01*
G01X790000Y1876500D02*
X768500D01*
X765400Y1879600D01*
G01X857250Y1875790D02*
X808460D01*
X807750Y1876500D01*
X790000D01*
G01Y1833500D02*
X828740D01*
X837250Y1824990D01*
X857250D01*
G01X790000Y1938500D02*
X825340D01*
X837250Y1926590D01*
X857250D01*
G01Y1977390D02*
X811860D01*
X807750Y1981500D01*
X790000D01*
X-25000Y1355850D03*
Y1430850D03*
Y1505850D03*
Y1580850D03*
Y1655850D03*
X54580Y1249550D03*
X14420Y1312890D03*
X29740Y1387140D03*
X29610Y1462140D03*
X134360Y490000D03*
X60020Y499900D03*
X115400Y533260D03*
X60220Y574900D03*
X100000Y600000D03*
X60420Y649900D03*
X135000Y725000D03*
X100000Y685000D03*
X60620Y724900D03*
X130000Y800000D03*
X60820Y799900D03*
X61020Y874900D03*
X61220Y949900D03*
X61420Y1024900D03*
X61620Y1099900D03*
X61820Y1174900D03*
X121480Y1606470D03*
X120000Y1804000D03*
X74000Y1880000D03*
X120000Y1854000D03*
X72000Y1828000D03*
X74000Y1930000D03*
X120000Y1906000D03*
X209360Y490000D03*
X210000Y515000D03*
X205400Y628260D03*
X155000Y595000D03*
X200000Y680000D03*
X190000Y800000D03*
X150000Y775000D03*
X198000Y920000D03*
X196000Y956220D03*
Y1031220D03*
Y1106220D03*
Y1181220D03*
Y1256220D03*
Y1331220D03*
Y1406220D03*
Y1481220D03*
Y1556220D03*
Y1631220D03*
Y1706220D03*
X147070Y1763060D03*
X184000Y1816000D03*
X172000Y1880000D03*
X182000Y1906000D03*
X168000Y1930000D03*
X139980Y1964980D03*
X265000Y565000D03*
X264000Y518000D03*
X240400Y638260D03*
X270400Y623260D03*
X222000Y586000D03*
X264000Y704000D03*
X265000Y750000D03*
X260000Y800000D03*
X222000Y766000D03*
X238000Y920000D03*
X268000Y1004000D03*
X234000Y1002000D03*
Y1106000D03*
X279980Y1067730D03*
X236000Y1180000D03*
X279980Y1142730D03*
X230000Y1262000D03*
X279980Y1217730D03*
X252000Y1294000D03*
X225000Y1365000D03*
X250000Y1366000D03*
X279980Y1367730D03*
X245000Y1480000D03*
X225000Y1445000D03*
Y1525000D03*
X279980Y1517730D03*
X245000Y1630000D03*
X225000Y1600000D03*
X279980Y1592730D03*
X245000Y1700000D03*
X225000Y1675000D03*
X279980Y1667730D03*
X242000Y1758000D03*
X290000Y1864000D03*
Y1830000D03*
Y1894000D03*
X288000Y1926000D03*
X214980Y1964980D03*
X300400Y628260D03*
X308500Y966500D03*
Y1276500D03*
Y1426500D03*
X306270Y1622690D03*
X335020Y1623040D03*
X327470Y1725780D03*
X364000Y1920000D03*
X289980Y1964980D03*
X338000Y1968000D03*
X386000Y476000D03*
X434000Y532000D03*
X414000Y570000D03*
Y546000D03*
X385000Y620000D03*
X386000Y662000D03*
X420000Y730000D03*
X385000Y805000D03*
X414000Y756000D03*
X408880Y1610000D03*
X434000Y1658000D03*
X368480Y1690160D03*
X364980Y1790730D03*
X419910Y1744740D03*
X364980Y1865730D03*
X431260Y1861240D03*
X420020Y1819740D03*
X431200Y1950800D03*
X433260Y1911240D03*
Y1887240D03*
X405000Y1980000D03*
X484000Y478000D03*
X468500Y503500D03*
X502000Y578000D03*
X514000Y510000D03*
X504000Y532000D03*
X514000Y554000D03*
X446000Y554040D03*
X484000Y594000D03*
X470000Y585000D03*
X514000Y638000D03*
X465000Y675000D03*
X506000Y730000D03*
X462000D03*
X476000Y662000D03*
Y692000D03*
X470000Y770000D03*
X490000Y800000D03*
X483880Y1610000D03*
X460220Y1713110D03*
X514980Y1697500D03*
X470020Y1787470D03*
X514980Y1772500D03*
Y1847500D03*
X500000Y1888000D03*
X496000Y1912000D03*
X554000Y478000D03*
X588000Y572000D03*
X586000Y544000D03*
X564000Y528000D03*
X546000Y542000D03*
X542000Y568000D03*
X538000Y594000D03*
X554000Y638000D03*
X576000Y734000D03*
X554000Y668000D03*
X536000Y782000D03*
X592000D03*
X538000Y756000D03*
X564980Y1610000D03*
Y1685000D03*
X563260Y1801240D03*
X567260Y1847240D03*
X555260Y1885240D03*
X566000Y1920000D03*
X654000Y506000D03*
X594000D03*
X624000Y478000D03*
X648000Y562000D03*
X660000Y538000D03*
Y594000D03*
X646000Y680000D03*
X594000Y678000D03*
X622000Y712000D03*
X652000Y716000D03*
X648000Y802000D03*
X628000Y782000D03*
X596000Y758000D03*
X738000Y478000D03*
X682000D03*
X694000Y508000D03*
X678000Y572000D03*
X690000Y636000D03*
X728000Y720000D03*
X684000Y688000D03*
X686000Y788000D03*
Y752000D03*
X770000Y494000D03*
X756000Y554000D03*
X818000Y538000D03*
X772000Y594000D03*
X760000Y670000D03*
X778000Y722000D03*
X762000Y770000D03*
X830000Y560000D03*
Y580000D03*
Y676000D03*
Y710000D03*
X832000Y776000D03*
X830000Y740000D03*
G54D21*
X275500Y1622000D03*
X292500D03*
X425500Y1980000D03*
X442500D03*
G54D12*
X50800Y1333350D03*
X0D03*
X50800Y1561950D03*
X0D03*
X50800Y1815950D03*
X0D03*
X50800Y2069950D03*
X0D03*
X137300Y640000D03*
X282300Y1790000D03*
X615950Y1625600D03*
Y1727200D03*
Y1828800D03*
Y1930400D03*
G54D30*
X575000Y495500D03*
Y514500D03*
Y645500D03*
Y664500D03*
X675000Y495500D03*
Y514500D03*
Y645500D03*
Y664500D03*
G54D40*
G01X50800Y1536550D02*
X67450D01*
X72000Y1532000D01*
Y522000D01*
X89000Y505000D01*
X215000D01*
X225000Y515000D01*
Y518750D01*
X236250Y530000D01*
X240000D01*
G01X0Y1536550D02*
X50800D01*
G01X0Y1561950D02*
X50800D01*
G01X175000Y520000D02*
X109000D01*
X85000Y544000D01*
Y1548950D01*
X72000Y1561950D01*
X50800D01*
G01Y1587350D02*
X77000D01*
X103000Y1561350D01*
Y704000D01*
X113000Y694000D01*
X219000D01*
X225000Y700000D01*
Y703750D01*
X236250Y715000D01*
X240000D01*
G01X0Y1587350D02*
X50800D01*
G01X0Y1612750D02*
X50800D01*
G01X175000Y705000D02*
X135000D01*
X116000Y724000D01*
Y1576010D01*
X79260Y1612750D01*
X50800D01*
G01X165000Y540000D02*
Y530000D01*
X175000Y520000D01*
G01D02*
X197260D01*
X200000Y522740D01*
Y532000D01*
G01X190500Y558000D02*
X198000D01*
X200000Y556000D01*
Y551000D01*
X206000Y545000D01*
X265000D01*
X265800Y545800D01*
G01X200000Y717000D02*
Y710000D01*
X195000Y705000D01*
X175000D01*
G01D02*
X165000Y715000D01*
Y720000D01*
G01X190500Y743000D02*
X195000D01*
X198000Y740000D01*
Y736000D01*
X204000Y730000D01*
X270000D01*
X271000Y731000D01*
G01X300000Y533100D02*
X255610D01*
X252510Y530000D01*
X240000D01*
G01X265800Y545800D02*
X278500Y558500D01*
X300000D01*
G01Y545800D02*
X265800D01*
G01X242750Y615000D02*
X240000D01*
G01X300000Y718100D02*
X255610D01*
X252510Y715000D01*
X240000D01*
G01X271000Y731000D02*
X283500Y743500D01*
X300000D01*
G01Y730800D02*
X271200D01*
X271000Y731000D01*
G01X411500Y1950800D02*
X431200D01*
G54D13*
X50800Y1409550D03*
Y1384150D03*
Y1358750D03*
X0Y1409550D03*
Y1384150D03*
Y1358750D03*
X50800Y1485750D03*
Y1460350D03*
Y1434950D03*
X0Y1485750D03*
Y1460350D03*
Y1434950D03*
X50800Y1536550D03*
Y1511150D03*
X0Y1536550D03*
Y1511150D03*
X50800Y1638150D03*
Y1612750D03*
Y1587350D03*
X0Y1638150D03*
Y1612750D03*
Y1587350D03*
X50800Y1714350D03*
Y1688950D03*
Y1663550D03*
X0Y1714350D03*
Y1688950D03*
Y1663550D03*
X50800Y1790550D03*
Y1765150D03*
Y1739750D03*
X0Y1790550D03*
Y1765150D03*
Y1739750D03*
X50800Y1866750D03*
Y1841350D03*
X0Y1866750D03*
Y1841350D03*
X50800Y1942950D03*
Y1917550D03*
Y1892150D03*
X0Y1942950D03*
Y1917550D03*
Y1892150D03*
X50800Y2019150D03*
Y1993750D03*
Y1968350D03*
X0Y2019150D03*
Y1993750D03*
Y1968350D03*
X50800Y2095350D03*
Y2044550D03*
X0Y2095350D03*
Y2044550D03*
X50800Y2120750D03*
X0D03*
X666750Y1625600D03*
Y1727200D03*
X615950Y1676400D03*
X666750D03*
X615950Y1778000D03*
X666750D03*
X615950Y1879600D03*
X666750D03*
Y1828800D03*
Y1930400D03*
X615950Y1981200D03*
X666750D03*
X717550Y1625600D03*
X692150D03*
X717550Y1727200D03*
X692150D03*
Y1676400D03*
X717550D03*
X692150Y1778000D03*
X717550D03*
X692150Y1879600D03*
X717550D03*
Y1828800D03*
X692150D03*
X717550Y1930400D03*
X692150D03*
Y1981200D03*
X717550D03*
G54D31*
X574500Y560000D03*
X555500D03*
X574500Y585000D03*
X555500D03*
X574500Y690000D03*
X555500D03*
X574500Y715000D03*
X555500D03*
X574500Y770000D03*
X555500D03*
X574500Y795000D03*
X555500D03*
G54D22*
X300000Y495000D03*
Y571200D03*
Y558500D03*
Y545800D03*
Y533100D03*
Y520400D03*
Y507700D03*
Y609300D03*
Y596600D03*
Y583900D03*
Y730800D03*
Y718100D03*
Y705400D03*
Y692700D03*
Y680000D03*
Y794300D03*
Y781600D03*
Y768900D03*
Y756200D03*
Y743500D03*
X392000Y495000D03*
Y571200D03*
Y558500D03*
Y545800D03*
Y533100D03*
Y520400D03*
Y507700D03*
Y609300D03*
Y596600D03*
Y583900D03*
Y730800D03*
Y718100D03*
Y705400D03*
Y692700D03*
Y680000D03*
Y794300D03*
Y781600D03*
Y768900D03*
Y756200D03*
Y743500D03*
G54D41*
G01X470500Y878000D02*
X484000D01*
X484500Y878500D01*
X655000D01*
G01X441500Y878000D02*
Y909000D01*
X440000Y910500D01*
G01X495000Y939500D02*
X440000D01*
G01X655000Y921500D02*
X623500D01*
X605500Y939500D01*
X495000D01*
G01Y910500D02*
X495160Y910660D01*
X514340D01*
X520000Y905000D01*
X530000D01*
G01X470500Y1188000D02*
X484000D01*
X484500Y1188500D01*
X655000D01*
G01X441500Y1188000D02*
Y1219000D01*
X440000Y1220500D01*
G01X495000Y1249500D02*
X440000D01*
G01X655000Y1231500D02*
X623500D01*
X605500Y1249500D01*
X495000D01*
G01Y1220500D02*
X495160Y1220660D01*
X514340D01*
X520000Y1215000D01*
X530000D01*
G01X470500Y1338000D02*
X484000D01*
X484500Y1338500D01*
X655000D01*
G01X441500Y1338000D02*
Y1369000D01*
X440000Y1370500D01*
G01X495000Y1399500D02*
X440000D01*
G01X655000Y1381500D02*
X623500D01*
X605500Y1399500D01*
X495000D01*
G01Y1370500D02*
X495160Y1370660D01*
X514340D01*
X520000Y1365000D01*
X530000D01*
G01X655000Y878500D02*
X832190D01*
X857250Y853440D01*
G01X696500Y964700D02*
X670700D01*
X655000Y949000D01*
Y921500D01*
G01Y1188500D02*
X800500D01*
X827390Y1215390D01*
X857250D01*
G01X696500Y1274700D02*
X670700D01*
X655000Y1259000D01*
Y1231500D01*
G01Y1338500D02*
X835740D01*
X857250Y1316990D01*
G01X696500Y1424700D02*
X670700D01*
X655000Y1409000D01*
Y1381500D01*
G01X700000Y905000D02*
Y924300D01*
X696500Y927800D01*
Y939300D01*
G01X787500Y964700D02*
X751350D01*
X725950Y939300D01*
X696500D01*
G01X700000Y1215000D02*
Y1234300D01*
X696500Y1237800D01*
Y1249300D01*
G01X787500Y1274700D02*
X751350D01*
X725950Y1249300D01*
X696500D01*
G01X700000Y1365000D02*
Y1384300D01*
X696500Y1387800D01*
Y1399300D01*
G01X787500Y1424700D02*
X751350D01*
X725950Y1399300D01*
X696500D01*
G01X750000Y905000D02*
X808980D01*
G01D02*
X835010D01*
X835250Y904760D01*
G01X787500Y939300D02*
Y926480D01*
X808980Y905000D01*
G01X787060Y1215000D02*
X750000D01*
G01X787060D02*
X821360Y1249300D01*
G01X787500D02*
X821360D01*
G01X750000Y1365000D02*
X795210D01*
X798000Y1367790D01*
G01D02*
X857250D01*
G01X787500Y1399300D02*
Y1378290D01*
X798000Y1367790D01*
G01X835250Y904760D02*
X835770Y904240D01*
X857250D01*
G01X821360Y1249300D02*
X838250Y1266190D01*
X857250D01*
G54D32*
X580000Y905000D03*
Y1215000D03*
Y1365000D03*
X750000Y905000D03*
Y1215000D03*
Y1365000D03*
G54D23*
X312000Y917300D03*
Y930000D03*
Y942700D03*
Y1227300D03*
Y1240000D03*
Y1252700D03*
Y1377300D03*
Y1390000D03*
Y1402700D03*
X378000Y917300D03*
Y942700D03*
Y1227300D03*
Y1252700D03*
Y1377300D03*
Y1402700D03*
G54D14*
X130000Y1660000D03*
X500000Y2010000D03*
G54D42*
G01X0Y1627110D02*
Y1638150D01*
G01D02*
Y1649190D01*
G01X-11040Y1638150D02*
X0D01*
G01D02*
X11040D01*
G01X50800Y1627110D02*
Y1638150D01*
G01D02*
Y1649190D01*
G01X39760Y1638150D02*
X50800D01*
G01D02*
X61840D01*
G01X0Y1956310D02*
Y1968350D01*
G01D02*
Y1980390D01*
G01X-12040Y1968350D02*
X0D01*
G01D02*
X12040D01*
G01X50800Y1956310D02*
Y1968350D01*
G01D02*
Y1980390D01*
G01X38760Y1968350D02*
X50800D01*
G01D02*
X62840D01*
G01X126260Y640000D02*
X137300D01*
G01X190500Y532000D02*
Y539790D01*
G01X185210Y532000D02*
X190500D01*
G01X205000Y603500D02*
Y611290D01*
G01X195710Y603500D02*
X205000D01*
G01D02*
X214290D01*
G01X162700Y628710D02*
Y640000D01*
G01D02*
Y651290D01*
G01X151410Y640000D02*
X162700D01*
G01D02*
X173990D01*
G01X137300Y628960D02*
Y640000D01*
G01D02*
Y651040D01*
G01Y640000D02*
X148340D01*
G01X190500Y717000D02*
Y724790D01*
G01X185210Y717000D02*
X190500D01*
G01X205000Y783500D02*
Y791290D01*
G01X195710Y783500D02*
X205000D01*
G01D02*
X214290D01*
G01X235710Y486500D02*
X245000D01*
G01D02*
X254290D01*
G01X260710D02*
X270000D01*
G01D02*
X279290D01*
G01X270000Y603500D02*
Y611290D01*
G01X260710Y603500D02*
X270000D01*
G01D02*
X279290D01*
G01X240000Y606460D02*
Y615000D01*
G01D02*
Y623540D01*
G01X228710Y615000D02*
X240000D01*
G01X270000Y663710D02*
Y671500D01*
G01X260710D02*
X270000D01*
G01D02*
X279290D01*
G01X245000Y663710D02*
Y671500D01*
G01X235710D02*
X245000D01*
G01D02*
X254290D01*
G01X270000Y788500D02*
Y796290D01*
G01X260710Y788500D02*
X270000D01*
G01D02*
X279290D01*
G01X240000Y791460D02*
Y800000D01*
G01D02*
Y808540D01*
G01X228710Y800000D02*
X240000D01*
G01D02*
X251290D01*
G01X275710Y983500D02*
X285000D01*
G01X275710Y1293500D02*
X285000D01*
G01X275710Y1443500D02*
X285000D01*
G01X275500Y1612710D02*
Y1622000D01*
G01D02*
Y1631290D01*
G01X267710Y1622000D02*
X275500D01*
G01X282300Y1777960D02*
Y1790000D01*
G01D02*
Y1802040D01*
G01X270260Y1790000D02*
X282300D01*
G01D02*
X294340D01*
G01X300000Y489710D02*
Y495000D01*
G01D02*
Y500290D01*
G01X286710Y495000D02*
X300000D01*
G01D02*
X313290D01*
G01X300000Y515110D02*
Y520400D01*
G01D02*
Y525690D01*
G01X286710Y520400D02*
X300000D01*
G01D02*
X313290D01*
G01X300000Y565910D02*
Y571200D01*
G01D02*
Y576490D01*
G01X286710Y571200D02*
X300000D01*
G01D02*
X313290D01*
G01X300000Y591310D02*
Y596600D01*
G01D02*
Y601890D01*
G01X286710Y596600D02*
X300000D01*
G01D02*
X313290D01*
G01X300000Y604010D02*
Y609300D01*
G01D02*
Y614590D01*
G01X286710Y609300D02*
X300000D01*
G01D02*
X313290D01*
G01X300000Y674710D02*
Y680000D01*
G01D02*
Y685290D01*
G01X286710Y680000D02*
X300000D01*
G01D02*
X313290D01*
G01X300000Y700110D02*
Y705400D01*
G01D02*
Y710690D01*
G01X286710Y705400D02*
X300000D01*
G01D02*
X313290D01*
G01X300000Y750910D02*
Y756200D01*
G01D02*
Y761490D01*
G01X286710Y756200D02*
X300000D01*
G01D02*
X313290D01*
G01X300000Y776310D02*
Y781600D01*
G01D02*
Y786890D01*
G01X286710Y781600D02*
X300000D01*
G01D02*
X313290D01*
G01X300000Y789010D02*
Y794300D01*
G01D02*
Y799590D01*
G01X286710Y794300D02*
X300000D01*
G01D02*
X313290D01*
G01X312000Y911760D02*
Y917300D01*
G01X301960D02*
X312000D01*
G01X285000Y983500D02*
Y991290D01*
G01Y983500D02*
X294290D01*
G01X312000Y1221760D02*
Y1227300D01*
G01X301960D02*
X312000D01*
G01X285000Y1293500D02*
Y1301290D01*
G01Y1293500D02*
X294290D01*
G01X312000Y1371760D02*
Y1377300D01*
G01X301960D02*
X312000D01*
G01X285000Y1443500D02*
Y1451290D01*
G01Y1443500D02*
X294290D01*
G01X307700Y1777710D02*
Y1790000D01*
G01D02*
Y1802290D01*
G01X295410Y1790000D02*
X307700D01*
G01D02*
X319990D01*
G01X318500Y1945510D02*
Y1950800D01*
G01D02*
Y1956090D01*
G01X306210Y1950800D02*
X318500D01*
G01D02*
X330790D01*
G01X392000Y487710D02*
Y495000D01*
G01D02*
X407290D01*
G01X425000Y476710D02*
Y486500D01*
G01X413710D02*
X425000D01*
G01D02*
X436290D01*
G01X392000Y545800D02*
X407290D01*
G01X392000D02*
X407290Y549970D01*
G01X392000Y571200D02*
X407290D01*
G01X392000D02*
X407290Y575370D01*
G01X432710Y611000D02*
X446000D01*
G01X392000Y609300D02*
Y616590D01*
G01Y609300D02*
X407290D01*
G01X420000Y613500D02*
Y623290D01*
G01X408710Y613500D02*
X420000D01*
G01D02*
X431290D01*
G01X433710Y671500D02*
X445000D01*
G01X392000Y672710D02*
Y680000D01*
G01D02*
X407290D01*
G01X420000Y661710D02*
Y671500D01*
G01X408710D02*
X420000D01*
G01D02*
X431290D01*
G01X432710Y797000D02*
X446000D01*
G01X392000Y756200D02*
X407290D01*
G01X392000D02*
X407290Y760370D01*
G01X392000Y794300D02*
Y801590D01*
G01Y794300D02*
X407290D01*
G01X420000Y798500D02*
Y808290D01*
G01X408710Y798500D02*
X420000D01*
G01D02*
X431290D01*
G01X392000Y730800D02*
X407290D01*
G01X392000D02*
X407290Y734970D01*
G01X450000Y476710D02*
Y486500D01*
G01X438710D02*
X450000D01*
G01D02*
X461290D01*
G01X446000Y600460D02*
Y611000D01*
G01D02*
Y621540D01*
G01Y611000D02*
X459290D01*
G01X445000Y661710D02*
Y671500D01*
G01D02*
X456290D01*
G01X446000Y786460D02*
Y797000D01*
G01D02*
Y807540D01*
G01Y797000D02*
X459290D01*
G01X442500Y1970710D02*
Y1980000D01*
G01D02*
Y1989290D01*
G01Y1980000D02*
X450290D01*
G01X708500Y515460D02*
Y530000D01*
G01X693960D02*
X708500D01*
G01D02*
X723040D01*
G01X708500Y580000D02*
Y594540D01*
G01X693960Y580000D02*
X708500D01*
G01D02*
X723040D01*
G01X708500Y645000D02*
X723040D01*
G01X693960D02*
X708500D01*
G01X693960Y630460D02*
X708500Y645000D01*
G01Y695000D02*
Y709540D01*
G01X693960Y695000D02*
X708500D01*
G01D02*
X723040D01*
G01X708500Y730460D02*
Y745000D01*
G01X693960D02*
X708500D01*
G01D02*
X723040D01*
G01X693960Y795000D02*
X708500D01*
G01D02*
X723040D01*
G54D15*
X165000Y540000D03*
Y570000D03*
Y720000D03*
Y750000D03*
X240000Y530000D03*
Y560000D03*
Y715000D03*
Y745000D03*
G54D33*
X530000Y905000D03*
Y1215000D03*
Y1365000D03*
X700000Y905000D03*
Y1215000D03*
Y1365000D03*
G54D24*
X318500Y1861900D03*
Y1849200D03*
Y1938100D03*
Y1925400D03*
Y1912700D03*
Y1900000D03*
Y1887300D03*
Y1874600D03*
Y1950800D03*
X411500Y1849200D03*
Y1861900D03*
Y1874600D03*
Y1887300D03*
Y1900000D03*
Y1912700D03*
Y1925400D03*
Y1938100D03*
Y1950800D03*
G54D34*
X655000Y878500D03*
Y921500D03*
Y1188500D03*
Y1231500D03*
Y1338500D03*
Y1381500D03*
X708500Y530000D03*
Y580000D03*
Y645000D03*
Y695000D03*
Y745000D03*
Y795000D03*
X751500Y530000D03*
Y580000D03*
X800000Y548500D03*
X751500Y645000D03*
X800000Y653500D03*
Y591500D03*
X751500Y695000D03*
X800000Y696500D03*
X751500Y745000D03*
Y795000D03*
X800000Y753500D03*
Y796500D03*
X790000Y1630300D03*
Y1673300D03*
Y1774900D03*
Y1731900D03*
Y1876500D03*
Y1833500D03*
Y1938500D03*
Y1981500D03*
G54D16*
X190500Y558000D03*
Y532000D03*
X200000D03*
X190500Y717000D03*
X200000D03*
X190500Y743000D03*
X209500Y558000D03*
Y532000D03*
Y717000D03*
Y743000D03*
G54D25*
X375500Y868500D03*
X394500D03*
X385000Y891500D03*
X375500Y1178500D03*
X394500D03*
X385000Y1201500D03*
X375500Y1328500D03*
X394500D03*
X385000Y1351500D03*
G54D35*
X696500Y939300D03*
Y964700D03*
Y1249300D03*
Y1274700D03*
Y1399300D03*
Y1424700D03*
X787500Y939300D03*
Y964700D03*
Y1249300D03*
Y1274700D03*
Y1399300D03*
Y1424700D03*
G54D26*
X440000Y939500D03*
Y910500D03*
Y1249500D03*
Y1220500D03*
Y1399500D03*
Y1370500D03*
X495000Y910500D03*
Y939500D03*
Y1220500D03*
Y1249500D03*
Y1370500D03*
Y1399500D03*
G54D17*
X205000Y603500D03*
Y586500D03*
Y783500D03*
Y766500D03*
X245000Y486500D03*
Y503500D03*
X270000Y486500D03*
Y503500D03*
Y603500D03*
Y586500D03*
X245000Y671500D03*
Y688500D03*
X270000Y671500D03*
Y688500D03*
Y788500D03*
Y771500D03*
X285000Y983500D03*
Y966500D03*
Y1293500D03*
Y1276500D03*
Y1443500D03*
Y1426500D03*
X425000Y486500D03*
Y503500D03*
X420000Y613500D03*
Y596500D03*
Y671500D03*
Y688500D03*
Y798500D03*
Y781500D03*
X450000Y486500D03*
Y503500D03*
X445000Y671500D03*
Y688500D03*
G54D27*
X405000Y917000D03*
Y943000D03*
Y1227000D03*
Y1253000D03*
Y1377000D03*
Y1403000D03*
G54D36*
X857250Y142240D03*
Y1215390D03*
G54D18*
X162700Y640000D03*
X307700Y1790000D03*
G54D19*
X240000Y615000D03*
Y585000D03*
Y800000D03*
Y770000D03*
X446000Y581000D03*
Y611000D03*
Y797000D03*
Y767000D03*
G54D28*
X492300Y674500D03*
Y765500D03*
X517700Y674500D03*
Y765500D03*
X612300Y494500D03*
X637700D03*
Y585500D03*
X612300D03*
Y644500D03*
X637700D03*
Y735500D03*
X612300D03*
G54D37*
X857250Y193040D03*
Y243840D03*
Y345440D03*
Y294640D03*
Y396240D03*
Y497840D03*
Y447040D03*
Y548640D03*
Y650240D03*
Y599440D03*
Y701040D03*
Y802640D03*
Y751840D03*
Y853440D03*
Y904240D03*
Y1266190D03*
Y1316990D03*
Y1418590D03*
Y1367790D03*
Y1469390D03*
Y1570990D03*
Y1520190D03*
Y1621790D03*
Y1723390D03*
Y1672590D03*
Y1774190D03*
Y1875790D03*
Y1824990D03*
Y1926590D03*
Y1977390D03*
G54D29*
X470500Y878000D03*
X441500D03*
X470500Y1188000D03*
X441500D03*
X470500Y1338000D03*
X441500D03*
G54D38*
X939800Y-52070D03*
Y1060450D03*
Y2170430D03*
G54D39*
G01X255000Y930000D02*
Y950000D01*
X215000Y990000D01*
Y1710000D01*
X134450Y1790550D01*
X50800D01*
G01X0D02*
X50800D01*
G01Y1866750D02*
X227000D01*
X240000Y1853750D01*
Y1850000D01*
G01X0Y1866750D02*
X50800D01*
G01X255000Y1390000D02*
Y1720000D01*
X133650Y1841350D01*
X50800D01*
G01X0D02*
X50800D01*
G01X255000Y1240000D02*
Y1260000D01*
X235000Y1280000D01*
Y1715000D01*
X134050Y1815950D01*
X50800D01*
G01X0D02*
X50800D01*
G01Y1942950D02*
X228290D01*
X231240Y1940000D01*
X240000D01*
G01X0Y1942950D02*
X50800D01*
G01Y1917550D02*
X223690D01*
X231240Y1910000D01*
X240000D01*
G01X0Y1917550D02*
X50800D01*
G01Y1892150D02*
X227850D01*
X228590Y1891410D01*
X232340D01*
X240000Y1883750D01*
Y1880000D01*
G01X0Y1892150D02*
X50800D01*
G01X165000Y570000D02*
Y578760D01*
X166000Y579760D01*
Y580000D01*
X172500Y586500D01*
X205000D01*
G01D02*
Y571760D01*
X209500Y567260D01*
Y558000D01*
G01X222000Y586000D02*
X205500D01*
X205000Y586500D01*
G01Y766500D02*
X194240D01*
X193740Y766000D01*
X170000D01*
X165000Y761000D01*
Y750000D01*
G01X209500Y743000D02*
Y752740D01*
X205000Y757240D01*
Y766500D01*
G01X222000Y766000D02*
X205500D01*
X205000Y766500D01*
G01X264000Y518000D02*
X260000Y514000D01*
X250000D01*
X245000Y509000D01*
Y503500D01*
G01D02*
X270000D01*
G01X300000Y507700D02*
X284960D01*
X280760Y503500D01*
X270000D01*
G01X240000Y560000D02*
X239000Y561000D01*
X229000D01*
X222000Y568000D01*
Y586000D01*
G01D02*
X239000D01*
X240000Y585000D01*
G01D02*
X257740D01*
X259240Y586500D01*
X270000D01*
G01D02*
X282640D01*
X285240Y583900D01*
X300000D01*
G01Y692700D02*
X284960D01*
X280760Y688500D01*
X270000D01*
G01D02*
X245000D01*
G01X264000Y704000D02*
X258000Y698000D01*
X250000D01*
X245000Y693000D01*
Y688500D01*
G01X270000Y771500D02*
X254260D01*
X252760Y770000D01*
X240000D01*
G01X300000Y768900D02*
X283360D01*
X280760Y771500D01*
X270000D01*
G01X222000Y766000D02*
X236000D01*
X240000Y770000D01*
G01Y745000D02*
X239000Y746000D01*
X228000D01*
X222000Y752000D01*
Y766000D01*
G01X270000Y1850000D02*
X303940D01*
X304740Y1849200D01*
X318500D01*
G01X270000Y1910000D02*
X301500D01*
X311500Y1900000D01*
X318500D01*
G01X270000Y1880000D02*
X299340D01*
X304740Y1874600D01*
X318500D01*
G01X270000Y1940000D02*
X296900D01*
X311500Y1925400D01*
X318500D01*
G01X312000Y942700D02*
X308500Y946200D01*
Y966500D01*
G01X285000Y930000D02*
X312000D01*
G01X285000Y966500D02*
X308500D01*
G01X312000Y1252700D02*
X308500Y1256200D01*
Y1276500D01*
G01X285000Y1240000D02*
X312000D01*
G01X285000Y1276500D02*
X308500D01*
G01X312000Y1402700D02*
X308500Y1406200D01*
Y1426500D01*
G01X285000Y1390000D02*
X312000D01*
G01X285000Y1426500D02*
X308500D01*
G01X292500Y1622000D02*
X293190Y1622690D01*
X306270D01*
G01X392000Y533100D02*
X419100D01*
X426000Y540000D01*
Y544000D01*
G01D02*
Y548000D01*
X415500Y558500D01*
X392000D01*
G01X426000Y544000D02*
X532000D01*
X548000Y560000D01*
X555500D01*
G01Y585000D02*
Y582750D01*
X565000Y573250D01*
Y545000D01*
X540400Y520400D01*
X392000D01*
G01X555500Y585000D02*
X545000D01*
X526000Y566000D01*
X434000D01*
X416100Y583900D01*
X392000D01*
G01X425000Y503500D02*
X450000D01*
G01X392000Y507700D02*
X409300D01*
X413500Y503500D01*
X425000D01*
G01X392000Y596600D02*
X408400D01*
X408500Y596500D01*
X420000D01*
G01X419900Y596600D02*
X420000Y596500D01*
G01X446000Y581000D02*
Y590000D01*
X439500Y596500D01*
X420000D01*
G01X392000Y718100D02*
X513100D01*
X527500Y732500D01*
X557500D01*
X565000Y725000D01*
Y701750D01*
X555500Y692250D01*
Y690000D01*
G01X392000Y692700D02*
X407300D01*
X411500Y688500D01*
X420000D01*
G01X445000D02*
X420000D01*
G01X392000Y705400D02*
X480000D01*
G01X492300Y765500D02*
X492000Y765200D01*
Y754000D01*
X490000Y752000D01*
X436000D01*
X419100Y768900D01*
X392000D01*
G01X517700Y765500D02*
Y751990D01*
X509210Y743500D01*
X392000D01*
G01X446000Y767000D02*
Y776000D01*
X440500Y781500D01*
X420000D01*
G01X392000Y781600D02*
X409140D01*
X409240Y781500D01*
X420000D01*
G01X441500Y878000D02*
X422000D01*
X412500Y868500D01*
X394500D01*
G01X405000Y943000D02*
X389810D01*
X389510Y942700D01*
X378000D01*
G01X440000Y939500D02*
X420000D01*
X416500Y943000D01*
X405000D01*
G01X378000Y917300D02*
X380000Y915300D01*
Y910000D01*
X385000Y905000D01*
Y891500D01*
G01X378000Y917300D02*
X404700D01*
X405000Y917000D01*
G01X441500Y1188000D02*
X422000D01*
X412500Y1178500D01*
X394500D01*
G01X405000Y1253000D02*
X389810D01*
X389510Y1252700D01*
X378000D01*
G01X440000Y1249500D02*
X420000D01*
X416500Y1253000D01*
X405000D01*
G01X378000Y1227300D02*
X380000Y1225300D01*
Y1220000D01*
X385000Y1215000D01*
Y1201500D01*
G01X378000Y1227300D02*
X404700D01*
X405000Y1227000D01*
G01X441500Y1338000D02*
X422000D01*
X412500Y1328500D01*
X394500D01*
G01X405000Y1403000D02*
X389810D01*
X389510Y1402700D01*
X378000D01*
G01X440000Y1399500D02*
X420000D01*
X416500Y1403000D01*
X405000D01*
G01X378000Y1377300D02*
X380000Y1375300D01*
Y1370000D01*
X385000Y1365000D01*
Y1351500D01*
G01X378000Y1377300D02*
X404700D01*
X405000Y1377000D01*
G01X615950Y1676400D02*
X570000Y1722350D01*
Y1770000D01*
X490800Y1849200D01*
X411500D01*
G01X615950Y1981200D02*
X599200D01*
X543400Y1925400D01*
X411500D01*
G01Y1900000D02*
X425260D01*
X425280Y1900020D01*
X564000D01*
X582960Y1881060D01*
X583740Y1880550D01*
X584610Y1880190D01*
X585530Y1880010D01*
X604040D01*
X604450Y1879600D01*
X615950D01*
G01X411500Y1874600D02*
X519350D01*
X615950Y1778000D01*
G01X425500Y1980000D02*
X405000D01*
G01X450000Y503500D02*
X468500D01*
G01X446000Y581000D02*
X466000D01*
X470000Y585000D01*
G01X445000Y688500D02*
X446500Y690000D01*
X458760D01*
X465000Y683760D01*
Y675000D01*
G01X480000Y705400D02*
X492300Y693100D01*
Y674500D01*
G01X480000Y705400D02*
X518450D01*
X528050Y715000D01*
X555500D01*
G01X492300Y765500D02*
Y777300D01*
X510000Y795000D01*
X555500D01*
G01X446000Y767000D02*
X467000D01*
X470000Y770000D01*
G01X575000Y495500D02*
X602540D01*
X603540Y494500D01*
X612300D01*
G01X574500Y560000D02*
Y523510D01*
X575000Y523010D01*
Y514500D01*
G01X685000Y550000D02*
X598000D01*
X588000Y560000D01*
X574500D01*
G01X575000Y645500D02*
X602540D01*
X603540Y644500D01*
X612300D01*
G01X574500Y585000D02*
X603040D01*
X603540Y585500D01*
X612300D01*
G01X555500Y690000D02*
X528450D01*
X517700Y679250D01*
Y674500D01*
G01X574500Y715000D02*
X583040D01*
X603540Y735500D01*
X612300D01*
G01X575000Y664500D02*
Y678740D01*
X574500Y679240D01*
Y690000D01*
G01X675000Y664500D02*
X575000D01*
G01X517700Y765500D02*
X526460D01*
X530960Y770000D01*
X555500D01*
G01X574500Y795000D02*
X635000D01*
X655000Y775000D01*
X745000D01*
X750000Y780000D01*
Y793500D01*
X751500Y795000D01*
G01X574500Y770000D02*
X645000D01*
X650000Y765000D01*
X745000D01*
X750000Y760000D01*
Y746500D01*
X751500Y745000D01*
G01X675000Y495500D02*
X647460D01*
X646460Y494500D01*
X637700D01*
G01Y585500D02*
X642950D01*
X668450Y560000D01*
X745510D01*
X751500Y565990D01*
Y580000D01*
G01X675000Y645500D02*
X647460D01*
X646460Y644500D01*
X637700D01*
G01X612300Y585500D02*
X637700D01*
G01Y735500D02*
Y712300D01*
X675000Y675000D01*
X745000D01*
X750000Y680000D01*
Y693500D01*
X751500Y695000D01*
G01X612300Y735500D02*
X637700D01*
G01X675000Y514500D02*
Y540000D01*
X685000Y550000D01*
G01D02*
X745510D01*
X751500Y544010D01*
Y530000D01*
G01Y645000D02*
X750000Y646500D01*
Y660000D01*
X745500Y664500D01*
X675000D01*
G01X800000Y548500D02*
X840850D01*
X840990Y548640D01*
X857250D01*
G01X800000Y548500D02*
Y535000D01*
X795000Y530000D01*
X751500D01*
G01Y645000D02*
X777490D01*
X785990Y653500D01*
X800000D01*
G01Y591500D02*
X833050D01*
X840990Y599440D01*
X857250D01*
G01X751500Y580000D02*
X774490D01*
X785990Y591500D01*
X800000D01*
G01Y696500D02*
X836450D01*
X840990Y701040D01*
X857250D01*
G01X751500Y695000D02*
X784490D01*
X785990Y696500D01*
X800000D01*
G01Y653500D02*
X837730D01*
X840990Y650240D01*
X857250D01*
G01X800000Y796500D02*
X834850D01*
X840990Y802640D01*
X857250D01*
G01X751500Y795000D02*
X784490D01*
X785990Y796500D01*
X800000D01*
G01Y753500D02*
X839330D01*
X840990Y751840D01*
X857250D01*
G01X751500Y745000D02*
X777490D01*
X785990Y753500D01*
X800000D01*
M02*
