G04 ================== begin FILE IDENTIFICATION RECORD ==================*
G04 Layout Name:  D:/Project/Circuit/ORCAD/KVP/03v1/pcb/kvp_03v1.brd*
G04 Film Name:    BOTTOM*
G04 File Format:  Gerber RS274X*
G04 File Origin:  Cadence Allegro 16.6-S017*
G04 Origin Date:  Tue Oct 22 15:15:47 2013*
G04 *
G04 Layer:  ETCH/BOTTOM*
G04 Layer:  PIN/BOTTOM*
G04 Layer:  VIA CLASS/BOTTOM*
G04 *
G04 Offset:    (0.000 0.000)*
G04 Mirror:    No*
G04 Mode:      Positive*
G04 Rotation:  0*
G04 FullContactRelief:  No*
G04 UndefLineWidth:     0.250*
G04 ================== end FILE IDENTIFICATION RECORD ====================*
%FSLAX34Y34*MOMM*%
%IR0*IPPOS*OFA0.00000B0.00000*MIA0B0*SFA1.00000B1.00000*%
%ADD11C,1.*%
%ADD14C,3.1*%
%ADD10C,4.*%
%ADD21C,2.5*%
%ADD15C,1.6*%
%ADD13C,1.55*%
%ADD18C,1.95*%
%ADD12R,1.55X1.55*%
%ADD16R,1.95X1.95*%
%ADD17R,1.1X2.7*%
%ADD20R,2.7X1.1*%
%ADD22R,2.5X2.5*%
%ADD23C,.2*%
%ADD19R,1.8X1.25*%
%ADD24C,.5*%
%ADD25C,.25*%
%ADD26C,.35*%
%ADD27C,.45*%
%ADD30C,2.008*%
%ADD32C,3.404*%
%ADD29C,2.254*%
%ADD31C,2.058*%
%ADD33C,3.158*%
%ADD28C,2.258*%
G75*
%LPD*%
G75*
G36*
G01X34010Y-694550D02*
X34270Y-694270D01*
G03X31660Y-675250I-8872J8472D01*
G02X31050Y-674170I642J1075D01*
G01Y-672030D01*
G02X31660Y-670950I1252J5D01*
G03Y-649850I-6260J10550D01*
G02X31050Y-648770I642J1075D01*
G01Y-646630D01*
G02X31660Y-645550I1252J5D01*
G03X33920Y-626170I-6260J10552D01*
G01X33640Y-625900D01*
X33480Y-625160D01*
X34490Y-622650D01*
G02X35650Y-621870I1159J-472D01*
G01X36420D01*
G03X37670Y-620620I0J1250D01*
G01Y-598580D01*
G03X36420Y-597330I-1250J0D01*
G01X35650D01*
G02X34490Y-596550I-1J1252D01*
G01X33480Y-594040D01*
X33640Y-593300D01*
X33920Y-593030D01*
G03X31660Y-573650I-8520J8828D01*
G02X31050Y-572570I642J1075D01*
G01Y-570430D01*
G02X31660Y-569350I1252J5D01*
G03X30590Y-547680I-6260J10552D01*
G01X30260Y-547530D01*
X29870Y-546930D01*
X29810Y-543970D01*
X30170Y-543360D01*
X30490Y-543200D01*
G03X27450Y-522550I-5087J9800D01*
G02X27480Y-520090I237J1227D01*
G03X27750Y-520040I-2099J12087D01*
G01X27870Y-520020D01*
X73730D01*
X73850Y-520040D01*
G03X74120Y-520090I2369J12037D01*
G02X74150Y-522550I-207J-1233D01*
G03X71110Y-543200I2047J-10850D01*
G01X71430Y-543360D01*
X71790Y-543970D01*
X71730Y-546930D01*
X71340Y-547530D01*
X71010Y-547680D01*
G03X69940Y-569350I5190J-11118D01*
G02X70550Y-570430I-642J-1075D01*
G01Y-572570D01*
G02X69940Y-573650I-1252J-5D01*
G03X67680Y-593030I6260J-10552D01*
G01X67960Y-593300D01*
X68120Y-594040D01*
X67110Y-596550D01*
G02X65950Y-597330I-1159J472D01*
G01X65180D01*
G03X63930Y-598580I0J-1250D01*
G01Y-620620D01*
G03X65180Y-621870I1250J0D01*
G01X65950D01*
G02X67110Y-622650I1J-1252D01*
G01X68120Y-625160D01*
X67960Y-625900D01*
X67680Y-626170D01*
G03X69940Y-645550I8520J-8828D01*
G02X70550Y-646630I-642J-1075D01*
G01Y-648770D01*
G02X69940Y-649850I-1252J-5D01*
G03Y-670950I6260J-10550D01*
G02X70550Y-672030I-642J-1075D01*
G01Y-674170D01*
G02X69940Y-675250I-1252J-5D01*
G03X67330Y-694270I6262J-10548D01*
G01X67590Y-694550D01*
X67720Y-695270D01*
X66670Y-697740D01*
G02X65520Y-698500I-1150J491D01*
G01X36080D01*
G02X34930Y-697740I0J1251D01*
G01X33880Y-695270D01*
X34010Y-694550D01*
G37*
G36*
G01X244950Y-1962150D02*
G02X234950Y-1952150I0J10000D01*
G01Y-1737690D01*
G03X232020Y-1730620I-10000J-2D01*
G01X117230Y-1615830D01*
G02X114300Y-1608760I7070J7072D01*
G01Y-708500D01*
G03X104300Y-698500I-10000J0D01*
G01X86880D01*
G02X85730Y-697740I0J1251D01*
G01X84680Y-695270D01*
X84810Y-694550D01*
X85070Y-694270D01*
G03X82460Y-675250I-8872J8472D01*
G02X81850Y-674170I642J1075D01*
G01Y-672030D01*
G02X82460Y-670950I1252J5D01*
G03Y-649850I-6260J10550D01*
G02X81850Y-648770I642J1075D01*
G01Y-646630D01*
G02X82460Y-645550I1252J5D01*
G03X84720Y-626170I-6260J10552D01*
G01X84440Y-625900D01*
X84280Y-625160D01*
X85290Y-622650D01*
G02X86450Y-621870I1159J-472D01*
G01X87220D01*
G03X88470Y-620620I0J1250D01*
G01Y-598580D01*
G03X87220Y-597330I-1250J0D01*
G01X86450D01*
G02X85290Y-596550I-1J1252D01*
G01X84280Y-594040D01*
X84440Y-593300D01*
X84720Y-593030D01*
G03X82460Y-573650I-8520J8828D01*
G02X81850Y-572570I642J1075D01*
G01Y-570430D01*
G02X82460Y-569350I1252J5D01*
G03X81390Y-547680I-6260J10552D01*
G01X81060Y-547530D01*
X80670Y-546930D01*
X80610Y-543970D01*
X80970Y-543360D01*
X81290Y-543200D01*
G03X78250Y-522550I-5087J9800D01*
G02X78280Y-520090I237J1227D01*
G03X78550Y-520040I-2099J12087D01*
G01X78670Y-520020D01*
X127850D01*
G02X128740Y-520390I2J-1250D01*
G01X197160Y-588810D01*
G02X197530Y-589700I-880J-888D01*
G01Y-1102270D01*
G03X202910Y-1115260I18370J-1D01*
G01X330510Y-1242860D01*
G02X330880Y-1243750I-880J-888D01*
G01Y-1940410D01*
G03X345770Y-1952080I12018J0D01*
G01X346110Y-1952000D01*
X346750Y-1952190D01*
X348470Y-1954050D01*
G02X348740Y-1955300I-914J-852D01*
G02X339250Y-1962150I-9490J3149D01*
G01X244950D01*
G37*
G36*
G01X347040Y-1066800D02*
G02X339970Y-1063870I2J10000D01*
G01X295030Y-1018930D01*
G02X292100Y-1011860I7070J7072D01*
G01Y-416890D01*
G03X289170Y-409820I-10000J-2D01*
G01X282330Y-402980D01*
G03X275260Y-400050I-7072J-7070D01*
G01X86150D01*
G02X85160Y-399560I2J1249D01*
G03X67240I-8960J-6840D01*
G02X66250Y-400050I-992J759D01*
G01X35350D01*
G02X34360Y-399560I2J1249D01*
G03X18060Y-397840I-8962J-6838D01*
G02X16470Y-397870I-813J946D01*
G02X12700Y-390050I6225J7820D01*
G01Y-386060D01*
G02X13950Y-384810I1250J0D01*
G01X14320D01*
X14940Y-385220D01*
X15090Y-385560D01*
G03X17050Y-373430I10309J4558D01*
G01X16780Y-373720D01*
X16050Y-373900D01*
X13500Y-372920D01*
G02X12700Y-371750I451J1167D01*
G01Y-368120D01*
G02X13950Y-366870I1250J0D01*
G01X35420D01*
G03X36670Y-365620I0J1250D01*
G01Y-345580D01*
G03X35420Y-344330I-1250J0D01*
G01X13950D01*
G02X12700Y-343080I0J1250D01*
G01Y-339450D01*
G02X13500Y-338280I1251J3D01*
G01X16050Y-337300D01*
X16780Y-337480D01*
X17050Y-337770D01*
G03Y-322630I8350J7570D01*
G01X16780Y-322920D01*
X16050Y-323100D01*
X13500Y-322120D01*
G02X12700Y-320950I451J1167D01*
G01Y-314050D01*
G02X13500Y-312880I1251J3D01*
G01X16050Y-311900D01*
X16780Y-312080D01*
X17050Y-312370D01*
G03Y-297230I8350J7570D01*
G01X16780Y-297520D01*
X16050Y-297700D01*
X13500Y-296720D01*
G02X12700Y-295550I451J1167D01*
G01Y-288650D01*
G02X13500Y-287480I1251J3D01*
G01X16050Y-286500D01*
X16780Y-286680D01*
X17050Y-286970D01*
G03Y-271830I8350J7570D01*
G01X16780Y-272120D01*
X16050Y-272300D01*
X13500Y-271320D01*
G02X12700Y-270150I451J1167D01*
G01Y-263250D01*
G02X13500Y-262080I1251J3D01*
G01X16050Y-261100D01*
X16780Y-261280D01*
X17050Y-261570D01*
G03Y-246430I8350J7570D01*
G01X16780Y-246720D01*
X16050Y-246900D01*
X13500Y-245920D01*
G02X12700Y-244750I451J1167D01*
G01Y-237850D01*
G02X13500Y-236680I1251J3D01*
G01X16050Y-235700D01*
X16780Y-235880D01*
X17050Y-236170D01*
G03Y-221030I8350J7570D01*
G01X16780Y-221320D01*
X16050Y-221500D01*
X13500Y-220520D01*
G02X12700Y-219350I451J1167D01*
G01Y-200500D01*
G02X22700Y-190500I10000J0D01*
G01X523400D01*
G02X533400Y-200500I0J-10000D01*
G01Y-529750D01*
G02X523400Y-539750I-10000J0D01*
G01X378300D01*
G03X368300Y-549750I0J-10000D01*
G01Y-1056800D01*
G02X358300Y-1066800I-10000J0D01*
G01X347040D01*
G37*
G36*
G01X15520Y-183430D02*
G03X15260Y-183540I7086J-17110D01*
G02X14230Y-183530I-504J1145D01*
G01X13560Y-183210D01*
G02X12860Y-182310I529J1134D01*
G02X12700Y-180500I9842J1782D01*
G01Y-175100D01*
G02X22700Y-165100I10000J0D01*
G01X631350D01*
G02X641350Y-175100I0J-10000D01*
G01Y-180940D01*
G02X640850Y-181940I-1250J0D01*
G01X639010Y-183320D01*
X638440Y-183420D01*
X638150Y-183340D01*
G03Y-204980I-3150J-10820D01*
G01X638440Y-204900D01*
X639010Y-205000D01*
X640850Y-206380D01*
G02X641350Y-207380I-750J-1000D01*
G01Y-233670D01*
G02X640100Y-234920I-1250J0D01*
G01X626210D01*
G03X624960Y-236170I0J-1250D01*
G01Y-253750D01*
G03X626210Y-255000I1250J0D01*
G01X640100D01*
G02X641350Y-256250I0J-1250D01*
G01Y-282540D01*
G02X640850Y-283540I-1250J0D01*
G01X639010Y-284920D01*
X638440Y-285020D01*
X638150Y-284940D01*
G03Y-306580I-3150J-10820D01*
G01X638440Y-306500D01*
X639010Y-306600D01*
X640850Y-307980D01*
G02X641350Y-308980I-750J-1000D01*
G01Y-335270D01*
G02X640100Y-336520I-1250J0D01*
G01X626210D01*
G03X624960Y-337770I0J-1250D01*
G01Y-355350D01*
G03X626210Y-356600I1250J0D01*
G01X640100D01*
G02X641350Y-357850I0J-1250D01*
G01Y-384140D01*
G02X640850Y-385140I-1250J0D01*
G01X639010Y-386520D01*
X638440Y-386620D01*
X638150Y-386540D01*
G03Y-408180I-3150J-10820D01*
G01X638440Y-408100D01*
X639010Y-408200D01*
X640850Y-409580D01*
G02X641350Y-410580I-750J-1000D01*
G01Y-436870D01*
G02X640100Y-438120I-1250J0D01*
G01X626210D01*
G03X624960Y-439370I0J-1250D01*
G01Y-456950D01*
G03X626210Y-458200I1250J0D01*
G01X640100D01*
G02X641350Y-459450I0J-1250D01*
G01Y-485740D01*
G02X640850Y-486740I-1250J0D01*
G01X639010Y-488120D01*
X638440Y-488220D01*
X638150Y-488140D01*
G03Y-509780I-3150J-10820D01*
G01X638440Y-509700D01*
X639010Y-509800D01*
X640850Y-511180D01*
G02X641350Y-512180I-750J-1000D01*
G01Y-538470D01*
G02X640100Y-539720I-1250J0D01*
G01X626210D01*
G03X624960Y-540970I0J-1250D01*
G01Y-557550D01*
G02X623710Y-558800I-1250J0D01*
G01X397350D01*
G03X387350Y-568800I0J-10000D01*
G01Y-1057690D01*
G02X387340Y-1057810I-1246J43D01*
G02X378360Y-1066790I-9949J969D01*
G02X378230Y-1066800I-161J1237D01*
G02X377820Y-1066790I39J10001D01*
G02X376830Y-1066220I60J1249D01*
G01X375560Y-1064270D01*
X375490Y-1063690D01*
X375600Y-1063400D01*
G03X376820Y-1056800I-17298J6610D01*
G01Y-549750D01*
G02X378300Y-548270I1480J0D01*
G01X523400D01*
G03X541920Y-529750I0J18520D01*
G01Y-200500D01*
G03X523400Y-181980I-18520J0D01*
G01X88630D01*
G02X87690Y-181550I3J1248D01*
G01X86260Y-179930D01*
X86110Y-179420D01*
X86150Y-179150D01*
G03X66250I-9950J1350D01*
G01X66290Y-179420D01*
X66140Y-179930D01*
X64710Y-181550D01*
G02X63770Y-181980I-943J818D01*
G01X37830D01*
G02X36890Y-181550I3J1248D01*
G01X35460Y-179930D01*
X35310Y-179420D01*
X35350Y-179150D01*
G03X16000Y-181340I-9951J1346D01*
G02X15990Y-182250I-1166J-442D01*
G01X15520Y-183430D01*
G37*
G36*
G01X438820Y-1917420D02*
Y-1798300D01*
G02X439550Y-1796540I2499J-5D01*
G01X446680Y-1789410D01*
G02X448440Y-1788680I1765J-1769D01*
G01X475260D01*
G02X476790Y-1789200I4J-2500D01*
G03Y-1774120I5810J7540D01*
G02X475260Y-1774640I-1526J1980D01*
G01X447130D01*
G03X437680Y-1778560I7J-13368D01*
G01X429710Y-1786520D01*
G02X426990Y-1787060I-1765J1770D01*
G01X426290Y-1786770D01*
X425450Y-1785510D01*
Y-1772610D01*
G02X435450Y-1762610I10000J0D01*
G01X491160D01*
G02X498230Y-1765540I-2J-10000D01*
G01X498720Y-1766030D01*
G03X505790Y-1768960I7072J7070D01*
G01X860670D01*
G02X862490Y-1769750I-3J-2499D01*
G01X865340Y-1772780D01*
X865690Y-1773750D01*
X865660Y-1774270D01*
G03X899640Y-1774330I16988J-1040D01*
G02X900770Y-1772090I2496J146D01*
G01X901820Y-1771400D01*
G02X904900Y-1771670I1368J-2094D01*
G02X908050Y-1778960I-6861J-7290D01*
G01Y-1974860D01*
G02X904900Y-1982150I-10011J0D01*
G02X901820Y-1982420I-1712J1824D01*
G01X900770Y-1981730D01*
G02X899640Y-1979490I1366J2094D01*
G03X865660Y-1979550I-16992J980D01*
G01X865690Y-1980070D01*
X865340Y-1981040D01*
X862490Y-1984070D01*
G02X860670Y-1984860I-1823J1709D01*
G01X531190D01*
G02X524120Y-1981930I2J10000D01*
G01X523630Y-1981440D01*
G03X516560Y-1978510I-7072J-7070D01*
G01X435450D01*
G02X425450Y-1968510I0J10000D01*
G01Y-1930970D01*
G02X426990Y-1928660I2500J2D01*
G01X427690Y-1928370D01*
X429180Y-1928660D01*
X453700Y-1953180D01*
X454050Y-1953910D01*
X454110Y-1954330D01*
G03X464770Y-1943670I9440J1220D01*
G01X464350Y-1943610D01*
X463620Y-1943260D01*
X439550Y-1919180D01*
G02X438820Y-1917420I1769J1765D01*
G37*
G36*
G01X447130Y-1520640D02*
G03X437680Y-1524560I7J-13368D01*
G01X429710Y-1532520D01*
G02X426990Y-1533060I-1765J1770D01*
G01X426290Y-1532770D01*
X425450Y-1531510D01*
Y-1518610D01*
G02X435450Y-1508610I10000J0D01*
G01X491160D01*
G02X498230Y-1511540I-2J-10000D01*
G01X498720Y-1512030D01*
G03X505790Y-1514960I7072J7070D01*
G01X860670D01*
G02X862490Y-1515750I-3J-2499D01*
G01X865340Y-1518780D01*
X865690Y-1519750D01*
X865660Y-1520270D01*
G03X899640Y-1520330I16988J-1040D01*
G02X900770Y-1518090I2496J146D01*
G01X901820Y-1517400D01*
G02X904900Y-1517670I1368J-2094D01*
G02X908050Y-1524960I-6861J-7290D01*
G01Y-1720860D01*
G02X904900Y-1728150I-10011J0D01*
G02X901820Y-1728420I-1712J1824D01*
G01X900770Y-1727730D01*
G02X899640Y-1725490I1366J2094D01*
G03X865660Y-1725550I-16992J980D01*
G01X865690Y-1726070D01*
X865340Y-1727040D01*
X862490Y-1730070D01*
G02X860670Y-1730860I-1823J1709D01*
G01X531190D01*
G02X524120Y-1727930I2J10000D01*
G01X523630Y-1727440D01*
G03X516560Y-1724510I-7072J-7070D01*
G01X435450D01*
G02X425450Y-1714510I0J10000D01*
G01Y-1676970D01*
G02X426990Y-1674660I2500J2D01*
G01X427690Y-1674370D01*
X429180Y-1674660D01*
X453700Y-1699180D01*
X454050Y-1699910D01*
X454110Y-1700330D01*
G03X464770Y-1689670I9440J1220D01*
G01X464350Y-1689610D01*
X463620Y-1689260D01*
X439550Y-1665180D01*
G02X438820Y-1663420I1769J1765D01*
G01Y-1544300D01*
G02X439550Y-1542540I2499J-5D01*
G01X446680Y-1535410D01*
G02X448440Y-1534680I1765J-1769D01*
G01X475260D01*
G02X476790Y-1535200I4J-2500D01*
G03Y-1520120I5810J7540D01*
G02X475260Y-1520640I-1526J1980D01*
G01X447130D01*
G37*
G36*
G01Y-1266640D02*
G03X437680Y-1270560I7J-13368D01*
G01X429710Y-1278520D01*
G02X426990Y-1279060I-1765J1770D01*
G01X426290Y-1278770D01*
X425450Y-1277510D01*
Y-1264610D01*
G02X435450Y-1254610I10000J0D01*
G01X491160D01*
G02X498230Y-1257540I-2J-10000D01*
G01X498720Y-1258030D01*
G03X505790Y-1260960I7072J7070D01*
G01X863130D01*
G02X865630Y-1263460I0J-2500D01*
G01Y-1281830D01*
G03X868130Y-1284330I2500J0D01*
G01X897170D01*
G03X899670Y-1281830I0J2500D01*
G01Y-1264690D01*
G02X902170Y-1262190I2500J0D01*
G01X902920D01*
X903540Y-1262600D01*
G02X908050Y-1270960I-5493J-8360D01*
G01Y-1466860D01*
G02X904900Y-1474150I-10011J0D01*
G02X901820Y-1474420I-1712J1824D01*
G01X900770Y-1473730D01*
G02X899640Y-1471490I1366J2094D01*
G03X865660Y-1471550I-16992J980D01*
G01X865690Y-1472070D01*
X865340Y-1473040D01*
X862490Y-1476070D01*
G02X860670Y-1476860I-1823J1709D01*
G01X531190D01*
G02X524120Y-1473930I2J10000D01*
G01X523630Y-1473440D01*
G03X516560Y-1470510I-7072J-7070D01*
G01X435450D01*
G02X425450Y-1460510I0J10000D01*
G01Y-1422970D01*
G02X426990Y-1420660I2500J2D01*
G01X427690Y-1420370D01*
X429180Y-1420660D01*
X453700Y-1445180D01*
X454050Y-1445910D01*
X454110Y-1446330D01*
G03X464770Y-1435670I9440J1220D01*
G01X464350Y-1435610D01*
X463620Y-1435260D01*
X439550Y-1411180D01*
G02X438820Y-1409420I1769J1765D01*
G01Y-1290300D01*
G02X439550Y-1288540I2499J-5D01*
G01X446680Y-1281410D01*
G02X448440Y-1280680I1765J-1769D01*
G01X475260D01*
G02X476790Y-1281200I4J-2500D01*
G03Y-1266120I5810J7540D01*
G02X475260Y-1266640I-1526J1980D01*
G01X447130D01*
G37*
G36*
G01X457200Y-1107310D02*
Y-1039960D01*
G02X458450Y-1038710I1250J0D01*
G01X526200D01*
G03X527450Y-1037460I0J1250D01*
G01Y-989160D01*
G02X528700Y-987910I1250J0D01*
G01X541410D01*
G02X542660Y-989160I0J-1250D01*
G01Y-1022500D01*
G03X543910Y-1023750I1250J0D01*
G01X558990D01*
G03X560240Y-1022500I0J1250D01*
G01Y-989160D01*
G02X561490Y-987910I1250J0D01*
G01X564300D01*
G02X565550Y-989160I0J-1250D01*
G01Y-1037460D01*
G03X566800Y-1038710I1250J0D01*
G01X583760D01*
G02X585010Y-1039960I0J-1250D01*
G01Y-1042950D01*
G03X586260Y-1044200I1250J0D01*
G01X608340D01*
G03X609590Y-1042950I0J1250D01*
G01Y-1039960D01*
G02X610840Y-1038710I1250J0D01*
G01X678600D01*
G02X679850Y-1039960I0J-1250D01*
G01Y-1039970D01*
G02X678600Y-1041220I-1250J0D01*
G01X651610D01*
G03X650360Y-1042470I0J-1250D01*
G01Y-1057550D01*
G03X651610Y-1058800I1250J0D01*
G01X678600D01*
G02X679850Y-1060050I0J-1250D01*
G01Y-1062860D01*
G02X678600Y-1064110I-1250J0D01*
G01X516000D01*
G03X514750Y-1065360I0J-1250D01*
G01Y-1107310D01*
G02X513500Y-1108560I-1250J0D01*
G01X458450D01*
G02X457200Y-1107310I0J1250D01*
G37*
G36*
G01Y-923160D02*
Y-855810D01*
G02X458450Y-854560I1250J0D01*
G01X526200D01*
G03X527450Y-853310I0J1250D01*
G01Y-805010D01*
G02X528700Y-803760I1250J0D01*
G01X541410D01*
G02X542660Y-805010I0J-1250D01*
G01Y-838350D01*
G03X543910Y-839600I1250J0D01*
G01X558990D01*
G03X560240Y-838350I0J1250D01*
G01Y-805010D01*
G02X561490Y-803760I1250J0D01*
G01X564300D01*
G02X565550Y-805010I0J-1250D01*
G01Y-853310D01*
G03X566800Y-854560I1250J0D01*
G01X583760D01*
G02X585010Y-855810I0J-1250D01*
G01Y-858800D01*
G03X586260Y-860050I1250J0D01*
G01X608340D01*
G03X609590Y-858800I0J1250D01*
G01Y-855810D01*
G02X610840Y-854560I1250J0D01*
G01X678600D01*
G02X679850Y-855810I0J-1250D01*
G01Y-855820D01*
G02X678600Y-857070I-1250J0D01*
G01X651610D01*
G03X650360Y-858320I0J-1250D01*
G01Y-873400D01*
G03X651610Y-874650I1250J0D01*
G01X678600D01*
G02X679850Y-875900I0J-1250D01*
G01Y-878710D01*
G02X678600Y-879960I-1250J0D01*
G01X516000D01*
G03X514750Y-881210I0J-1250D01*
G01Y-923160D01*
G02X513500Y-924410I-1250J0D01*
G01X458450D01*
G02X457200Y-923160I0J1250D01*
G37*
G36*
G01Y-751710D02*
Y-684360D01*
G02X458450Y-683110I1250J0D01*
G01X525800D01*
G03X527050Y-681860I0J1250D01*
G01Y-633560D01*
G02X528300Y-632310I1250J0D01*
G01X541010D01*
G02X542260Y-633560I0J-1250D01*
G01Y-666900D01*
G03X543510Y-668150I1250J0D01*
G01X558590D01*
G03X559840Y-666900I0J1250D01*
G01Y-633560D01*
G02X561090Y-632310I1250J0D01*
G01X563900D01*
G02X565150Y-633560I0J-1250D01*
G01Y-681860D01*
G03X566400Y-683110I1250J0D01*
G01X583360D01*
G02X584610Y-684360I0J-1250D01*
G01Y-687350D01*
G03X585860Y-688600I1250J0D01*
G01X607940D01*
G03X609190Y-687350I0J1250D01*
G01Y-684360D01*
G02X610440Y-683110I1250J0D01*
G01X678200D01*
G02X679450Y-684360I0J-1250D01*
G01Y-684370D01*
G02X678200Y-685620I-1250J0D01*
G01X651210D01*
G03X649960Y-686870I0J-1250D01*
G01Y-701950D01*
G03X651210Y-703200I1250J0D01*
G01X678200D01*
G02X679450Y-704450I0J-1250D01*
G01Y-707260D01*
G02X678200Y-708510I-1250J0D01*
G01X515600D01*
G03X514350Y-709760I0J-1250D01*
G01Y-751710D01*
G02X513100Y-752960I-1250J0D01*
G01X458450D01*
G02X457200Y-751710I0J1250D01*
G37*
G36*
G01X540150Y-1107310D02*
Y-1090760D01*
G02X541400Y-1089510I1250J0D01*
G01X716700D01*
G02X717950Y-1090760I0J-1250D01*
G01Y-1107310D01*
G02X716700Y-1108560I-1250J0D01*
G01X541400D01*
G02X540150Y-1107310I0J1250D01*
G37*
G36*
G01X698900Y-1050160D02*
Y-1020910D01*
G03X697650Y-1019660I-1250J0D01*
G01X585850D01*
G02X584600Y-1018410I0J1250D01*
G01Y-1015450D01*
G02X585850Y-1014200I1250J0D01*
G01X608340D01*
G03X609590Y-1012950I0J1250D01*
G01Y-996370D01*
G03X608340Y-995120I-1250J0D01*
G01X585850D01*
G02X584600Y-993870I0J1250D01*
G01Y-989160D01*
G02X585850Y-987910I1250J0D01*
G01X729400D01*
G02X730650Y-989160I0J-1250D01*
G01Y-1050160D01*
G02X729400Y-1051410I-1250J0D01*
G01X700150D01*
G02X698900Y-1050160I0J1250D01*
G37*
G36*
G01X540150Y-923160D02*
Y-906610D01*
G02X541400Y-905360I1250J0D01*
G01X716700D01*
G02X717950Y-906610I0J-1250D01*
G01Y-923160D01*
G02X716700Y-924410I-1250J0D01*
G01X541400D01*
G02X540150Y-923160I0J1250D01*
G37*
G36*
G01X698900Y-866010D02*
Y-836760D01*
G03X697650Y-835510I-1250J0D01*
G01X585850D01*
G02X584600Y-834260I0J1250D01*
G01Y-831300D01*
G02X585850Y-830050I1250J0D01*
G01X608340D01*
G03X609590Y-828800I0J1250D01*
G01Y-812220D01*
G03X608340Y-810970I-1250J0D01*
G01X585850D01*
G02X584600Y-809720I0J1250D01*
G01Y-805010D01*
G02X585850Y-803760I1250J0D01*
G01X729400D01*
G02X730650Y-805010I0J-1250D01*
G01Y-866010D01*
G02X729400Y-867260I-1250J0D01*
G01X700150D01*
G02X698900Y-866010I0J1250D01*
G37*
G36*
G01X539750Y-751710D02*
Y-735160D01*
G02X541000Y-733910I1250J0D01*
G01X716300D01*
G02X717550Y-735160I0J-1250D01*
G01Y-751710D01*
G02X716300Y-752960I-1250J0D01*
G01X541000D01*
G02X539750Y-751710I0J1250D01*
G37*
G36*
G01X698500Y-694560D02*
Y-665310D01*
G03X697250Y-664060I-1250J0D01*
G01X585450D01*
G02X584200Y-662810I0J1250D01*
G01Y-659850D01*
G02X585450Y-658600I1250J0D01*
G01X607940D01*
G03X609190Y-657350I0J1250D01*
G01Y-640770D01*
G03X607940Y-639520I-1250J0D01*
G01X585450D01*
G02X584200Y-638270I0J1250D01*
G01Y-633560D01*
G02X585450Y-632310I1250J0D01*
G01X729000D01*
G02X730250Y-633560I0J-1250D01*
G01Y-694560D01*
G02X729000Y-695810I-1250J0D01*
G01X699750D01*
G02X698500Y-694560I0J1250D01*
G37*
G36*
G01X757300Y-987910D02*
X811950D01*
G02X813200Y-989160I0J-1250D01*
G01Y-1081910D01*
G02X811950Y-1083160I-1250J0D01*
G01X757300D01*
G02X756050Y-1081910I0J1250D01*
G01Y-989160D01*
G02X757300Y-987910I1250J0D01*
G37*
G36*
G01X757290Y-803760D02*
X811940D01*
G02X813190Y-805020I2J-1248D01*
G01X812810Y-897770D01*
G02X811560Y-899010I-1252J12D01*
G01X756910D01*
G02X755660Y-897750I-2J1248D01*
G01X756040Y-805000D01*
G02X757290Y-803760I1252J-12D01*
G37*
G36*
G01X756900Y-632310D02*
X811550D01*
G02X812800Y-633560I0J-1250D01*
G01Y-726310D01*
G02X811550Y-727560I-1250J0D01*
G01X756900D01*
G02X755650Y-726310I0J1250D01*
G01Y-633560D01*
G02X756900Y-632310I1250J0D01*
G37*
%LPC*%
G75*
G36*
G01X168010Y-1512960D02*
X187590D01*
G02X188840Y-1514210I0J-1250D01*
G01Y-1533790D01*
G02X187590Y-1535040I-1250J0D01*
G01X168010D01*
G02X166760Y-1533790I0J1250D01*
G01Y-1514210D01*
G02X168010Y-1512960I1250J0D01*
G37*
G36*
G01X66180Y-344330D02*
X86220D01*
G02X87470Y-345580I0J-1250D01*
G01Y-365620D01*
G02X86220Y-366870I-1250J0D01*
G01X66180D01*
G02X64930Y-365620I0J1250D01*
G01Y-345580D01*
G02X66180Y-344330I1250J0D01*
G37*
G36*
G01X423010Y-428110D02*
X440590D01*
G02X441840Y-429360I0J-1250D01*
G01Y-446940D01*
G02X440590Y-448190I-1250J0D01*
G01X423010D01*
G02X421760Y-446940I0J1250D01*
G01Y-429360D01*
G02X423010Y-428110I1250J0D01*
G37*
G36*
G01X613510Y-1041220D02*
X644590D01*
G02X645840Y-1042470I0J-1250D01*
G01Y-1057550D01*
G02X644590Y-1058800I-1250J0D01*
G01X613510D01*
G02X612260Y-1057550I0J1250D01*
G01Y-1042470D01*
G02X613510Y-1041220I1250J0D01*
G37*
G36*
G01Y-857070D02*
X644590D01*
G02X645840Y-858320I0J-1250D01*
G01Y-873400D01*
G02X644590Y-874650I-1250J0D01*
G01X613510D01*
G02X612260Y-873400I0J1250D01*
G01Y-858320D01*
G02X613510Y-857070I1250J0D01*
G37*
G36*
G01X613110Y-685620D02*
X644190D01*
G02X645440Y-686870I0J-1250D01*
G01Y-701950D01*
G02X644190Y-703200I-1250J0D01*
G01X613110D01*
G02X611860Y-701950I0J1250D01*
G01Y-686870D01*
G02X613110Y-685620I1250J0D01*
G37*
G36*
G01X613510Y-993220D02*
X644590D01*
G02X645840Y-994470I0J-1250D01*
G01Y-1009550D01*
G02X644590Y-1010800I-1250J0D01*
G01X613510D01*
G02X612260Y-1009550I0J1250D01*
G01Y-994470D01*
G02X613510Y-993220I1250J0D01*
G37*
G36*
G01X651610D02*
X682690D01*
G02X683940Y-994470I0J-1250D01*
G01Y-1009550D01*
G02X682690Y-1010800I-1250J0D01*
G01X651610D01*
G02X650360Y-1009550I0J1250D01*
G01Y-994470D01*
G02X651610Y-993220I1250J0D01*
G37*
G36*
G01X613510Y-809070D02*
X644590D01*
G02X645840Y-810320I0J-1250D01*
G01Y-825400D01*
G02X644590Y-826650I-1250J0D01*
G01X613510D01*
G02X612260Y-825400I0J1250D01*
G01Y-810320D01*
G02X613510Y-809070I1250J0D01*
G37*
G36*
G01X651610D02*
X682690D01*
G02X683940Y-810320I0J-1250D01*
G01Y-825400D01*
G02X682690Y-826650I-1250J0D01*
G01X651610D01*
G02X650360Y-825400I0J1250D01*
G01Y-810320D01*
G02X651610Y-809070I1250J0D01*
G37*
G36*
G01X651210Y-637620D02*
X682290D01*
G02X683540Y-638870I0J-1250D01*
G01Y-653950D01*
G02X682290Y-655200I-1250J0D01*
G01X651210D01*
G02X649960Y-653950I0J1250D01*
G01Y-638870D01*
G02X651210Y-637620I1250J0D01*
G37*
G36*
G01X613110D02*
X644190D01*
G02X645440Y-638870I0J-1250D01*
G01Y-653950D01*
G02X644190Y-655200I-1250J0D01*
G01X613110D01*
G02X611860Y-653950I0J1250D01*
G01Y-638870D01*
G02X613110Y-637620I1250J0D01*
G37*
G54D30*
X25400Y-203200D03*
X76200D03*
G54D32*
X882650Y-1927710D03*
Y-1826110D03*
Y-1673710D03*
Y-1572110D03*
Y-1419710D03*
Y-1318110D03*
G54D29*
X76200Y-381000D03*
Y-330200D03*
Y-304800D03*
Y-279400D03*
Y-254000D03*
Y-228600D03*
G54D31*
X457200Y-438150D03*
G54D33*
X882650Y-1876910D03*
Y-1622910D03*
Y-1368910D03*
G54D28*
X203200Y-1524000D03*
%LPD*%
G75*
G54D10*
X0Y-889000D03*
Y0D03*
G54D20*
X667150Y-1050010D03*
X629050D03*
X667150Y-1002010D03*
X629050D03*
X667150Y-865860D03*
X629050D03*
X667150Y-817860D03*
X629050D03*
X628650Y-694410D03*
X666750D03*
X628650Y-646410D03*
X666750D03*
G54D11*
G01X76200Y-508000D02*
X130720D01*
G02X135210Y-509860I0J-6350D01*
G01X136040Y-510690D01*
G01X25400Y-508000D02*
X76200D01*
G01X342900Y-1280010D02*
Y-1240880D01*
G03X341040Y-1236390I-6350J0D01*
G01X211410Y-1106760D01*
G02X209550Y-1102270I4490J4490D01*
G01Y-586830D01*
G03X207690Y-582340I-6350J0D01*
G01X136040Y-510690D01*
G01D02*
Y-510580D01*
G02X137860Y-506180I6220J4D01*
G03X139700Y-501740I-4430J4437D01*
G01Y-482600D01*
G01Y-146050D02*
Y-177800D01*
G01X342900Y-1940410D02*
Y-1788010D01*
G01D02*
Y-1686410D01*
G01D02*
Y-1534010D01*
G01D02*
Y-1432410D01*
G01D02*
Y-1280010D01*
G01X882650Y-905360D02*
X868920D01*
G03X864430Y-907220I0J-6350D01*
G01X808310Y-963340D01*
G03X806450Y-967830I4490J-4490D01*
G01Y-996950D01*
G01X882650Y-803760D02*
X824470D01*
G03X819980Y-805620I0J-6350D01*
G01X806450Y-819150D01*
G01Y-698500D02*
X810110Y-702160D01*
G01D02*
X882650D01*
X65400Y-2231550D03*
Y8450D03*
X146050Y-1587500D03*
X120200Y-1610200D03*
X146050Y-1485900D03*
Y-1377950D03*
X116200Y-702200D03*
X137700Y-598700D03*
X139200Y-655200D03*
X139700Y-546100D03*
X90200Y-393200D03*
X139700Y-368300D03*
Y-393700D03*
Y-317500D03*
Y-292100D03*
Y-342900D03*
Y-215900D03*
Y-266700D03*
Y-241300D03*
X154850Y-209070D03*
X222250Y-1663700D03*
X180200Y-1670200D03*
X203200Y-1435100D03*
X228600Y-1413360D03*
X171450Y-1358900D03*
X209550Y-1295400D03*
X171450Y-1231900D03*
Y-1149350D03*
X196850Y-1117600D03*
X191200Y-592200D03*
X215900Y-196850D03*
X244200Y-1954200D03*
X260350Y-1927710D03*
X273050Y-1895960D03*
X241300Y-1873250D03*
X279400Y-1813410D03*
X260350Y-1873250D03*
X298200Y-1750200D03*
X241300Y-1797050D03*
X279400Y-1794360D03*
X284200Y-1726200D03*
X241300Y-1733550D03*
X260350Y-1673710D03*
Y-1619250D03*
X273050Y-1641960D03*
X241300Y-1574800D03*
X279400Y-1559410D03*
Y-1540360D03*
X285750Y-1470510D03*
X298450Y-1495910D03*
X247650Y-1485900D03*
X260350Y-1419710D03*
X273050Y-1387960D03*
X260350Y-1365250D03*
X279400Y-1305410D03*
Y-1286360D03*
Y-1216510D03*
X298450Y-1241910D03*
X247650Y-1231900D03*
X254000Y-1174750D03*
X298450Y-1009650D03*
Y-971550D03*
X285750Y-368300D03*
X279400Y-393700D03*
X298450Y-317500D03*
X292100Y-342900D03*
X298450Y-196850D03*
X330200Y-1955800D03*
X323850Y-1921360D03*
Y-1908660D03*
X342900Y-1940410D03*
X323850Y-1832460D03*
X322200Y-1882200D03*
X323850Y-1752600D03*
Y-1807060D03*
X342900Y-1788010D03*
X323850Y-1701800D03*
Y-1667360D03*
X342900Y-1686410D03*
X323850Y-1654660D03*
X322200Y-1628200D03*
X323850Y-1578460D03*
Y-1553060D03*
X342900Y-1534010D03*
X323850Y-1447800D03*
Y-1498600D03*
X342900Y-1432410D03*
X323850Y-1413360D03*
Y-1400660D03*
X322200Y-1374200D03*
X323850Y-1324460D03*
Y-1299060D03*
X342900Y-1280010D03*
X323850Y-1244600D03*
X381000Y-1057760D03*
X355600Y-1060450D03*
X361950Y-994260D03*
X355600Y-1022350D03*
X361950Y-939800D03*
X317500Y-946150D03*
X381000Y-870160D03*
X355600Y-838200D03*
X361950Y-810110D03*
Y-749300D03*
X317500Y-806450D03*
X381000Y-700160D03*
X361950Y-638660D03*
X355600Y-666750D03*
X336550Y-654050D03*
X361950Y-558800D03*
X387350Y-533400D03*
X355600Y-450850D03*
Y-368300D03*
X381000Y-292100D03*
X374650Y-317500D03*
X387350Y-266700D03*
X432650Y-1970160D03*
X464650Y-1936160D03*
X431800Y-1946760D03*
X463550Y-1953110D03*
X457200Y-1883260D03*
Y-1857860D03*
X446650Y-1796160D03*
X432650Y-1770160D03*
X463550Y-1699110D03*
X464650Y-1682160D03*
X432650Y-1716160D03*
X431800Y-1692760D03*
X457200Y-1629260D03*
Y-1603860D03*
X448650Y-1542160D03*
X432650Y-1516160D03*
X463550Y-1445110D03*
X432650Y-1462160D03*
X431800Y-1438760D03*
X464650Y-1428160D03*
X457200Y-1375260D03*
X448650Y-1288160D03*
X457200Y-1349860D03*
X432650Y-1262160D03*
X463550Y-533400D03*
X425450Y-311150D03*
Y-349250D03*
X400050Y-215900D03*
X425450Y-234950D03*
X393700Y-241300D03*
X425450Y-260350D03*
Y-285750D03*
Y-196850D03*
X539430Y-1978940D03*
X494980Y-1972590D03*
X495300Y-1927710D03*
X527050Y-1908660D03*
X501650Y-1883260D03*
X527050Y-1832460D03*
X490650Y-1822160D03*
X527050Y-1857860D03*
X492650Y-1770160D03*
X482600Y-1781660D03*
X495300Y-1673710D03*
X539430Y-1724940D03*
X494980Y-1718590D03*
X527050Y-1654660D03*
X501650Y-1629260D03*
X527050Y-1603860D03*
X482600Y-1527660D03*
X527050Y-1578460D03*
X490650Y-1568160D03*
X492650Y-1516160D03*
X539750Y-1470510D03*
X495300Y-1464160D03*
X501650Y-1375260D03*
X527050Y-1400660D03*
X495300Y-1419710D03*
X490650Y-1314160D03*
X527050Y-1324460D03*
Y-1349860D03*
X482600Y-1273660D03*
X492650Y-1261160D03*
X483000Y-994260D03*
Y-810110D03*
X482600Y-638660D03*
X508000Y-533400D03*
X527050Y-501650D03*
Y-450850D03*
Y-368300D03*
X520700Y-298450D03*
X527050Y-228600D03*
X508000Y-196850D03*
X565150Y-1965810D03*
X615950Y-1978510D03*
X565150Y-1915010D03*
Y-1889610D03*
X615950Y-1915010D03*
Y-1940410D03*
Y-1832460D03*
X565150Y-1813410D03*
X584200Y-1845160D03*
X565150Y-1775310D03*
X615950D03*
X565150Y-1711810D03*
Y-1661010D03*
X615950Y-1724510D03*
Y-1661010D03*
Y-1686410D03*
X565150Y-1635610D03*
X584200Y-1591160D03*
X615950Y-1578460D03*
X565150Y-1559410D03*
Y-1521310D03*
X615950D03*
X565150Y-1457810D03*
X615950Y-1432410D03*
Y-1470510D03*
X565150Y-1381610D03*
Y-1407010D03*
X615950D03*
X565150Y-1305410D03*
X615950Y-1324460D03*
X584200Y-1337160D03*
X565150Y-1267310D03*
X615950D03*
X603650Y-1051410D03*
Y-867260D03*
X603250Y-695810D03*
X553670Y-527050D03*
X565150Y-349250D03*
X553670Y-203200D03*
X685800Y-1978510D03*
Y-1953110D03*
Y-1915010D03*
X622300Y-1883260D03*
X685800Y-1857860D03*
X622300D03*
X685800Y-1775310D03*
Y-1724510D03*
Y-1699110D03*
Y-1661010D03*
X622300Y-1629260D03*
X685800Y-1603860D03*
X622300D03*
X685800Y-1521310D03*
Y-1445110D03*
Y-1470510D03*
Y-1407010D03*
X622300Y-1375260D03*
X685800Y-1349860D03*
X622300D03*
X685800Y-1267310D03*
X762000Y-1972160D03*
Y-1959460D03*
Y-1895960D03*
Y-1908660D03*
X711200Y-1826110D03*
X762000Y-1845160D03*
Y-1857860D03*
Y-1794360D03*
Y-1781660D03*
Y-1718160D03*
Y-1705460D03*
Y-1641960D03*
Y-1654660D03*
Y-1591160D03*
Y-1603860D03*
X711200Y-1572110D03*
X762000Y-1540360D03*
Y-1527660D03*
Y-1464160D03*
Y-1451460D03*
Y-1387960D03*
Y-1400660D03*
X711200Y-1318110D03*
X762000Y-1286360D03*
Y-1337160D03*
Y-1349860D03*
Y-1273660D03*
X800100Y-1934060D03*
Y-1876910D03*
Y-1819760D03*
Y-1680060D03*
Y-1622910D03*
Y-1565760D03*
Y-1368910D03*
Y-1426060D03*
Y-1311760D03*
X885400Y-2231550D03*
X857250Y-1953110D03*
Y-1902310D03*
Y-1851510D03*
Y-1800710D03*
Y-1699110D03*
Y-1648310D03*
Y-1597510D03*
Y-1546710D03*
Y-1445110D03*
Y-1394310D03*
Y-1292710D03*
Y-1343510D03*
X885400Y8450D03*
G54D12*
X76200Y-838200D03*
X25400D03*
X76200Y-609600D03*
X25400D03*
X76200Y-355600D03*
X25400D03*
X76200Y-101600D03*
X25400D03*
X177800Y-1524000D03*
X431800Y-438150D03*
X635000Y-549760D03*
Y-448160D03*
Y-346560D03*
Y-244960D03*
G54D21*
X882650Y-2029310D03*
Y-1978510D03*
Y-1927710D03*
Y-1826110D03*
Y-1876910D03*
Y-1775310D03*
Y-1673710D03*
Y-1724510D03*
Y-1622910D03*
Y-1521310D03*
Y-1572110D03*
Y-1470510D03*
Y-1368910D03*
Y-1419710D03*
Y-1318110D03*
Y-956160D03*
Y-905360D03*
Y-854560D03*
Y-752960D03*
Y-803760D03*
Y-702160D03*
Y-600560D03*
Y-651360D03*
Y-549760D03*
Y-448160D03*
Y-498960D03*
Y-397360D03*
Y-295760D03*
Y-346560D03*
Y-244960D03*
G54D22*
Y-1267310D03*
Y-194160D03*
G54D13*
X76200Y-762000D03*
Y-787400D03*
Y-812800D03*
X25400Y-762000D03*
Y-787400D03*
Y-812800D03*
X76200Y-685800D03*
Y-711200D03*
Y-736600D03*
X25400Y-685800D03*
Y-711200D03*
Y-736600D03*
X76200Y-635000D03*
Y-660400D03*
X25400Y-635000D03*
Y-660400D03*
X76200Y-533400D03*
Y-558800D03*
Y-584200D03*
X25400Y-533400D03*
Y-558800D03*
Y-584200D03*
X76200Y-457200D03*
Y-482600D03*
Y-508000D03*
X25400Y-457200D03*
Y-482600D03*
Y-508000D03*
X76200Y-381000D03*
Y-406400D03*
Y-431800D03*
X25400Y-381000D03*
Y-406400D03*
Y-431800D03*
X76200Y-304800D03*
Y-330200D03*
X25400Y-304800D03*
Y-330200D03*
X76200Y-228600D03*
Y-254000D03*
Y-279400D03*
X25400Y-228600D03*
Y-254000D03*
Y-279400D03*
X76200Y-152400D03*
Y-177800D03*
Y-203200D03*
X25400Y-152400D03*
Y-177800D03*
Y-203200D03*
X76200Y-76200D03*
Y-127000D03*
X25400Y-76200D03*
Y-127000D03*
X76200Y-50800D03*
X25400D03*
X685800Y-549760D03*
X635000Y-498960D03*
X685800D03*
Y-448160D03*
X635000Y-397360D03*
X685800D03*
X635000Y-295760D03*
X685800D03*
Y-346560D03*
Y-244960D03*
X635000Y-194160D03*
X685800D03*
X736600Y-549760D03*
X711200D03*
Y-498960D03*
X736600D03*
Y-448160D03*
X711200D03*
Y-397360D03*
X736600D03*
X711200Y-295760D03*
X736600D03*
Y-346560D03*
X711200D03*
X736600Y-244960D03*
X711200D03*
Y-194160D03*
X736600D03*
G54D23*
X965400Y-2222500D03*
Y0D03*
G54D14*
X139700Y-482600D03*
Y-146050D03*
G54D24*
G01X463550Y-1953110D02*
X433660Y-1923220D01*
G02X431800Y-1918730I4490J4490D01*
G01Y-1796990D01*
G02X433660Y-1792500I6350J0D01*
G01X442640Y-1783520D01*
G02X447130Y-1781660I4490J-4490D01*
G01X482600D01*
G01X463550Y-1699110D02*
X433660Y-1669220D01*
G02X431800Y-1664730I4490J4490D01*
G01Y-1542990D01*
G02X433660Y-1538500I6350J0D01*
G01X442640Y-1529520D01*
G02X447130Y-1527660I4490J-4490D01*
G01X482600D01*
G01X463550Y-1445110D02*
X433660Y-1415220D01*
G02X431800Y-1410730I4490J4490D01*
G01Y-1288990D01*
G02X433660Y-1284500I6350J0D01*
G01X442640Y-1275520D01*
G02X447130Y-1273660I4490J-4490D01*
G01X482600D01*
G01X502450Y-1095860D02*
X502050Y-1095460D01*
G01X502450Y-911710D02*
X502050Y-911310D01*
G01Y-740260D02*
X501650Y-739860D01*
G54D15*
X203200Y-1524000D03*
X457200Y-438150D03*
G54D25*
G01X503450Y-1006960D02*
X492610Y-996120D01*
G03X488120Y-994260I-4490J-4490D01*
G01X483000D01*
G01X503450Y-822810D02*
X492610Y-811970D01*
G03X488120Y-810110I-4490J-4490D01*
G01X483000D01*
G01X503050Y-651360D02*
X492210Y-640520D01*
G03X487720Y-638660I-4490J-4490D01*
G01X482600D01*
G54D16*
X502450Y-1095860D03*
Y-911710D03*
X502050Y-740260D03*
X718350Y-1038710D03*
Y-854560D03*
X717950Y-683110D03*
G54D26*
G01X882650Y-1895200D02*
Y-1876910D01*
G01D02*
Y-1858620D01*
G01X864360Y-1876910D02*
X882650D01*
G01D02*
X900940D01*
G54D17*
X503450Y-1006960D03*
Y-822810D03*
X503050Y-651360D03*
X551450Y-1006960D03*
Y-822810D03*
X551050Y-651360D03*
G54D27*
G01X63910Y-533400D02*
X76200D01*
G01D02*
X88490D01*
G01X25400D02*
X37690D01*
G01X25400D02*
X35340Y-523460D01*
G01X76200Y-177800D02*
Y-166510D01*
G01X64910Y-177800D02*
X76200D01*
G01D02*
X87490D01*
G01X25400D02*
Y-166510D01*
G01X14110Y-177800D02*
X25400D01*
G01D02*
X36690D01*
G01X76200Y-214490D02*
Y-203200D01*
G01D02*
Y-191910D01*
G01X64910Y-203200D02*
X76200D01*
G01D02*
X87490D01*
G01X25400Y-214490D02*
Y-203200D01*
G01D02*
Y-191910D01*
G01X14110Y-203200D02*
X25400D01*
G01D02*
X36690D01*
G01X203200Y-1536540D02*
Y-1524000D01*
G01D02*
Y-1511460D01*
G01X190660Y-1524000D02*
X203200D01*
G01D02*
X215740D01*
G01X177800Y-1536290D02*
Y-1524000D01*
G01D02*
Y-1511710D01*
G01X165510Y-1524000D02*
X177800D01*
G01D02*
X190090D01*
G01X457200Y-449690D02*
Y-438150D01*
G01X431800Y-449440D02*
Y-438150D01*
G01X457200D02*
Y-426610D01*
G01X445660Y-438150D02*
X457200D01*
G01D02*
X468740D01*
G01X431800D02*
Y-426860D01*
G01X420510Y-438150D02*
X431800D01*
G01D02*
X443090D01*
G01X611010Y-1050010D02*
X629050D01*
G01X551450Y-1025000D02*
Y-1006960D01*
G01X541410D02*
X551450D01*
G01D02*
X561490D01*
G01X597300Y-1045450D02*
Y-1034660D01*
G01X583760Y-1044070D02*
X597300Y-1034660D01*
G01Y-1015450D02*
Y-1004660D01*
G01D02*
Y-993870D01*
G01X611010Y-865860D02*
X629050D01*
G01X551450Y-840850D02*
Y-822810D01*
G01X597300Y-861300D02*
Y-850510D01*
G01X583760Y-859920D02*
X597300Y-850510D01*
G01Y-831300D02*
Y-820510D01*
G01X541410Y-822810D02*
X551450D01*
G01D02*
X561490D01*
G01X597300Y-820510D02*
Y-809720D01*
G01X610610Y-694410D02*
X628650D01*
G01X596900Y-689850D02*
Y-679060D01*
G01X583360Y-688470D02*
X596900Y-679060D01*
G01Y-659850D02*
Y-649060D01*
G01D02*
Y-638270D01*
G01X551050Y-669400D02*
Y-651360D01*
G01X541010D02*
X551050D01*
G01D02*
X561090D01*
G01X667150Y-1060050D02*
Y-1050010D01*
G01X629050Y-1060050D02*
Y-1050010D01*
G01X667150D02*
Y-1039970D01*
G01X649110Y-1050010D02*
X667150D01*
G01X629050D02*
Y-1039970D01*
G01Y-1050010D02*
X647090D01*
G01X667150Y-1012050D02*
Y-1002010D01*
G01D02*
Y-991970D01*
G01X649110Y-1002010D02*
X667150D01*
G01D02*
X685190D01*
G01X629050Y-1012050D02*
Y-1002010D01*
G01D02*
Y-991970D01*
G01Y-1002010D02*
X647090D01*
G01X667150Y-875900D02*
Y-865860D01*
G01D02*
Y-855820D01*
G01X649110Y-865860D02*
X667150D01*
G01X629050Y-875900D02*
Y-865860D01*
G01D02*
Y-855820D01*
G01Y-865860D02*
X647090D01*
G01X667150Y-827900D02*
Y-817860D01*
G01X629050Y-827900D02*
Y-817860D01*
G01X667150D02*
Y-807820D01*
G01X649110Y-817860D02*
X667150D01*
G01D02*
X685190D01*
G01X629050D02*
Y-807820D01*
G01Y-817860D02*
X647090D01*
G01X628650Y-704450D02*
Y-694410D01*
G01D02*
Y-684370D01*
G01Y-694410D02*
X646690D01*
G01X666750Y-704450D02*
Y-694410D01*
G01D02*
Y-684370D01*
G01X648710Y-694410D02*
X666750D01*
G01X628650Y-656450D02*
Y-646410D01*
G01D02*
Y-636370D01*
G01Y-646410D02*
X646690D01*
G01X666750Y-656450D02*
Y-646410D01*
G01D02*
Y-636370D01*
G01X648710Y-646410D02*
X666750D01*
G01D02*
X684790D01*
G01X635000Y-549760D02*
Y-538470D01*
G01X623710Y-549760D02*
X635000D01*
G01Y-459450D02*
Y-448160D01*
G01D02*
Y-436870D01*
G01X623710Y-448160D02*
X635000D01*
G01Y-357850D02*
Y-346560D01*
G01D02*
Y-335270D01*
G01X623710Y-346560D02*
X635000D01*
G01Y-256250D02*
Y-244960D01*
G01D02*
Y-233670D01*
G01X623710Y-244960D02*
X635000D01*
G01X882650Y-1641200D02*
Y-1622910D01*
G01D02*
Y-1604620D01*
G01X864360Y-1622910D02*
X882650D01*
G01D02*
X900940D01*
G01X882650Y-1387200D02*
Y-1368910D01*
G01D02*
Y-1350620D01*
G01X864360Y-1368910D02*
X882650D01*
G01D02*
X900940D01*
G54D18*
X552450Y-1095860D03*
Y-911710D03*
X552050Y-740260D03*
X768350Y-1038710D03*
Y-854560D03*
X767950Y-683110D03*
G54D19*
X597300Y-1034660D03*
Y-1004660D03*
Y-850510D03*
Y-820510D03*
X596900Y-679060D03*
Y-649060D03*
M02*
