M48
METRIC,TZ
T01C.5
T02C1.
T03C1.3
T04C2.
T05C3.2
;LEADER: 12 
;HEADER: 
;CODE  : ASCII 
;FILE  : kvp_03v1-1-2.drl for  ... layers TOP and BOTTOM
;T01 Holesize 1. = 0.500000 Tolerance = +0.000000/-0.000000 PLATED MM Quantity = 205
;T02 Holesize 2. = 1.000000 Tolerance = +0.000000/-0.000000 PLATED MM Quantity = 100
;T03 Holesize 3. = 1.300000 Tolerance = +0.000000/-0.000000 PLATED MM Quantity = 12
;T04 Holesize 4. = 2.000000 Tolerance = +0.000000/-0.000000 PLATED MM Quantity = 34
;T05 Holesize 5. = 3.200000 Tolerance = +0.000000/-0.000000 PLATED MM Quantity = 5
%
G90
T01
X476000Y692000
X514000Y638000
X476000Y662000
X554000Y638000
Y668000
X414000Y756000
X420000Y730000
X462000
X506000
X538000Y756000
X576000Y734000
X596000Y758000
X686000Y752000
X652000Y716000
X684000Y688000
X728000Y720000
X830000Y740000
Y710000
X778000Y722000
X830000Y676000
X760000Y670000
X622000Y712000
X594000Y678000
X646000Y680000
X385000Y805000
X490000Y800000
X628000Y782000
X592000
X536000
X648000Y802000
X686000Y788000
X762000Y770000
X832000Y776000
X386000Y662000
X690000Y636000
X470000Y770000
X465000Y675000
X222000Y766000
Y586000
X264000Y704000
Y518000
X-25000Y1655850
R04Y-75000
X150000Y775000
X121480Y1606470
X29740Y1387140
X29610Y1462140
X14420Y1312890
X54580Y1249550
X61820Y1174900
X61620Y1099900
X61420Y1024900
X61220Y949900
X61020Y874900
X60820Y799900
X60620Y724900
X60420Y649900
X60220Y574900
X60020Y499900
X134360Y490000
X209360
X155000Y595000
X100000Y600000
X115400Y533260
X300400Y628260
X270400Y623260
X240400Y638260
X205400Y628260
X200000Y680000
X100000Y685000
X260000Y800000
X265000Y750000
X190000Y800000
X130000
X135000Y725000
X265000Y565000
X210000Y515000
X468500Y503500
X470000Y585000
X385000Y620000
X386000Y476000
X414000Y546000
Y570000
X446000Y554040
X514000Y554000
X542000Y568000
X434000Y532000
X504000
X546000Y542000
X484000Y478000
X514000Y510000
X564000Y528000
X554000Y478000
X624000
X682000
X738000
X770000Y494000
X818000Y538000
X586000Y544000
X594000Y506000
X660000Y538000
X654000Y506000
X588000Y572000
X648000Y562000
X484000Y594000
X502000Y578000
X538000Y594000
X660000
X678000Y572000
X772000Y594000
X756000Y554000
X830000Y580000
Y560000
X694000Y508000
X514980Y1847500
X566000Y1920000
X564980Y1610000
Y1685000
X420020Y1819740
X419910Y1744740
X368480Y1690160
X335020Y1623040
X408880Y1610000
X483880
X514980Y1697500
Y1772500
X470020Y1787470
X460220Y1713110
X431260Y1861240
X563260Y1801240
X567260Y1847240
X555260Y1885240
X433260Y1887240
Y1911240
X434000Y1658000
X496000Y1912000
X500000Y1888000
X338000Y1968000
X289980Y1964980
R02X-75000
X147070Y1763060
X196000Y1706220
R10Y-75000
X279980Y1067730
R02Y75000
Y1367730
Y1517730
Y1592730
Y1667730
X327470Y1725780
X364980Y1790730
Y1865730
X242000Y1758000
X72000Y1828000
X120000Y1804000
Y1854000
X74000Y1880000
X120000Y1906000
X74000Y1930000
X168000
X182000Y1906000
X172000Y1880000
X184000Y1816000
X290000Y1830000
X288000Y1926000
X290000Y1894000
Y1864000
X364000Y1920000
X250000Y1366000
X230000Y1262000
X252000Y1294000
X236000Y1180000
X234000Y1106000
Y1002000
X268000Y1004000
X198000Y920000
X238000
X225000Y1445000
Y1365000
Y1525000
R02Y75000
X245000Y1480000
Y1630000
Y1700000
X308500Y966500
Y1276500
X306270Y1622690
X308500Y1426500
X405000Y1980000
X431200Y1950800
T02
X615950Y1930400
X666750
X692150
X717550
Y1981200
R02X-25400
X615950
Y1828800
X666750
R02X25400
Y1879600
R02X-25400
X615950
Y1727200
X666750
R02X25400
Y1778000
R02X-25400
X615950
Y1625600
X666750
R02X25400
Y1676400
R02X-25400
X615950
X0Y1333350
X0Y1561950
X0Y1587350
R08Y25400
X0Y1358750
X0Y1815950
X0Y1841350
R08Y25400
X0Y1384150
X0Y2069950
X0Y2095350
X0Y2120750
X0Y1409550
R05Y25400
X50800Y1333350
Y1561950
Y1587350
R08Y25400
Y1358750
Y1815950
Y1841350
R08Y25400
Y1384150
Y2069950
Y2095350
Y2120750
Y1409550
R05Y25400
X282300Y1790000
X307700
X137300Y640000
X162700
T03
X530000Y1365000
X580000
X700000
X750000
X530000Y1215000
X580000
X700000
X750000
X530000Y905000
X580000
X700000
X750000
T04
X857250Y142240
R15Y50800
X500000Y2010000
X130000Y1660000
X857250Y1215390
R15Y50800
T05
X-25400Y1282550
Y2171550
X939800Y2170430
Y1060450
Y-52070
M30
