M48
METRIC,TZ
T01C.5
T02C1.
T03C1.3
T04C2.
T05C2.7
T06C2.7
;LEADER: 12 
;HEADER: 
;CODE  : ASCII 
;FILE  : kvp_03v1-1-2.drl for  ... layers TOP and BOTTOM
;T01 Holesize 1. = 0.500000 Tolerance = +0.000000/-0.000000 PLATED MM Quantity = 295
;T02 Holesize 2. = 1.000000 Tolerance = +0.000000/-0.000000 PLATED MM Quantity = 100
;T03 Holesize 3. = 1.300000 Tolerance = +0.000000/-0.000000 PLATED MM Quantity = 12
;T04 Holesize 4. = 2.000000 Tolerance = +0.000000/-0.000000 PLATED MM Quantity = 34
;T05 Holesize 5. = 2.700000 Tolerance = +0.000000/-0.000000 PLATED MM Quantity = 2
;T06 Holesize 6. = 2.700000 Tolerance = +0.000000/-0.000000 NON_PLATED MM Quantity = 2
%
G90
T01
X603650Y-1051410
Y-867260
X603250Y-695810
X463550Y-1953110
X482600Y-1781660
X431800Y-1438760
X432650Y-1462160
X495300Y-1464160
X539750Y-1470510
X685800
X615950
X685800Y-1445110
X762000Y-1451460
Y-1464160
X800100Y-1426060
X857250Y-1445110
X622300Y-1375260
X615950Y-1407010
X857250Y-1394310
Y-1343510
X685800Y-1407010
X800100Y-1368910
X622300Y-1349860
X762000Y-1400660
Y-1387960
X457200Y-1349860
X527050
X584200Y-1337160
X762000Y-1349860
Y-1337160
X615950Y-1432410
X762000Y-1286360
X615950Y-1267310
X685800
X565150
X762000Y-1273660
X800100Y-1311760
X857250Y-1292710
X615950Y-1324460
X711200Y-1318110
X685800Y-1349860
X565150Y-1305410
X527050Y-1324460
X565150Y-1457810
Y-1407010
X495300Y-1419710
X527050Y-1400660
X565150Y-1381610
X501650Y-1375260
X457200
X432650Y-1262160
X448650Y-1288160
X492650Y-1261160
X490650Y-1314160
X464650Y-1428160
X494980Y-1718590
X539430Y-1724940
X762000Y-1527660
X685800Y-1521310
X615950
X565150
X492650Y-1516160
X857250Y-1546710
Y-1597510
X800100Y-1565760
X762000Y-1540360
Y-1603860
Y-1591160
X711200Y-1572110
X622300Y-1603860
X685800
X584200Y-1591160
X565150Y-1559410
X615950Y-1578460
X527050Y-1603860
X490650Y-1568160
X527050Y-1578460
X457200Y-1603860
X857250Y-1648310
X800100Y-1680060
Y-1622910
X762000Y-1654660
Y-1641960
X622300Y-1629260
X685800Y-1661010
X615950Y-1686410
Y-1661010
X857250Y-1699110
X762000Y-1705460
Y-1718160
X685800Y-1699110
Y-1724510
X615950
X432650Y-1516160
X448650Y-1542160
X565150Y-1635610
X501650Y-1629260
X527050Y-1654660
X457200Y-1629260
X431800Y-1692760
X432650Y-1716160
X565150Y-1661010
X495300Y-1673710
X565150Y-1711810
X464650Y-1682160
X463550Y-1699110
X482600Y-1527660
Y-638660
X483000Y-994260
Y-810110
X463550Y-1445110
X482600Y-1273660
X494980Y-1972590
X539430Y-1978940
X762000Y-1781660
X685800Y-1775310
X615950
X565150
X492650Y-1770160
X857250Y-1800710
Y-1851510
X800100Y-1819760
X762000Y-1794360
Y-1857860
Y-1845160
X711200Y-1826110
X622300Y-1857860
X685800
X584200Y-1845160
X565150Y-1813410
X615950Y-1832460
X527050Y-1857860
X490650Y-1822160
X527050Y-1832460
X457200Y-1857860
X857250Y-1902310
X800100Y-1934060
Y-1876910
X762000Y-1908660
Y-1895960
X622300Y-1883260
X685800Y-1915010
X615950Y-1940410
Y-1915010
X857250Y-1953110
X762000Y-1959460
Y-1972160
X685800Y-1953110
Y-1978510
X615950
X432650Y-1770160
X446650Y-1796160
X565150Y-1889610
X501650Y-1883260
X527050Y-1908660
X457200Y-1883260
X431800Y-1946760
X432650Y-1970160
X565150Y-1915010
X495300Y-1927710
X565150Y-1965810
X464650Y-1936160
X342900Y-1686410
Y-1940410
Y-1432410
Y-1280010
Y-1788010
Y-1534010
X273050Y-1895960
X322200Y-1882200
X260350Y-1873250
Y-1927710
X323850Y-1908660
Y-1921360
Y-1832460
X279400Y-1794360
Y-1813410
X323850Y-1807060
X260350Y-1673710
X273050Y-1641960
X260350Y-1619250
X322200Y-1628200
X323850Y-1752600
Y-1667360
Y-1654660
X279400Y-1540360
Y-1559410
X323850Y-1553060
Y-1578460
X260350Y-1365250
X322200Y-1374200
X273050Y-1387960
X260350Y-1419710
X323850Y-1498600
Y-1400660
Y-1413360
X279400Y-1286360
Y-1305410
X323850Y-1299060
Y-1324460
Y-1244600
X139700Y-546100
X244200Y-1954200
X330200Y-1955800
X241300Y-1873250
Y-1797050
Y-1733550
X120200Y-1610200
X180200Y-1670200
X116200Y-702200
X139200Y-655200
X137700Y-598700
X191200Y-592200
X196850Y-1117600
X254000Y-1174750
X247650Y-1231900
X171450Y-1149350
Y-1231900
Y-1358900
X146050Y-1377950
X203200Y-1435100
X247650Y-1485900
X146050
Y-1587500
X284200Y-1726200
X298200Y-1750200
X222250Y-1663700
X323850Y-1701800
X241300Y-1574800
X323850Y-1447800
X209550Y-1295400
X298450Y-1495910
X285750Y-1470510
X228600Y-1413360
X298450Y-1241910
X279400Y-1216510
X355600Y-1060450
X298450Y-971550
Y-1009650
X279400Y-393700
X139700
X355600Y-1022350
X317500Y-806450
Y-946150
X361950Y-939800
X285750Y-368300
X139700
X355600Y-838200
X361950Y-994260
X336550Y-654050
X361950Y-749300
X292100Y-342900
X139700
X355600Y-666750
X361950Y-810110
X508000Y-196850
X154850Y-209070
X361950Y-638660
X425450Y-349250
Y-311150
Y-285750
Y-260350
X508000Y-533400
X139700Y-241300
R03Y-25400
X374650
X381000Y-292100
X387350Y-266700
X393700Y-241300
X425450Y-234950
X139700Y-215900
X215900Y-196850
X298450
X425450
X527050Y-228600
X520700Y-298450
X527050Y-368300
Y-450850
X463550Y-533400
X387350
X361950Y-558800
X298450Y-317500
X400050Y-215900
X527050Y-501650
X355600Y-450850
Y-368300
X90200Y-393200
X381000Y-1057760
Y-870160
Y-700160
X553670Y-527050
X565150Y-349250
X553670Y-203200
T02
X177800Y-1524000
X203200
X635000Y-244960
X685800
X711200
X736600
Y-194160
R02X-25400
X635000
Y-346560
X685800
R02X25400
Y-295760
R02X-25400
X635000
Y-448160
X685800
R02X25400
Y-397360
R02X-25400
X635000
Y-549760
X685800
R02X25400
Y-498960
R02X-25400
X635000
X25400Y-812800
R07Y25400
Y-584200
R08Y25400
Y-330200
R08Y25400
Y-76200
Y-50800
X76200Y-812800
R07Y25400
Y-584200
R08Y25400
Y-330200
R08Y25400
Y-76200
Y-50800
X25400Y-838200
X76200
X25400Y-609600
X76200
X25400Y-355600
X76200
X25400Y-101600
X76200
X431800Y-438150
X457200
T03
X502450Y-911710
X552450
X718350Y-1038710
X768350
X502450Y-1095860
X552450
X717950Y-683110
X767950
X502050Y-740260
X552050
X718350Y-854560
X768350
T04
X882650Y-1267310
R15Y-50800
X139700Y-146050
Y-482600
X882650Y-194160
R15Y-50800
T05
X0Y-889000
X0Y0
T06
X965400Y0
Y-2222500
M30
