G04 ================== begin FILE IDENTIFICATION RECORD ==================*
G04 Layout Name:  e:/ORCAD_sch/P400/KVP_03v1/pcb/kvp_03v1.brd*
G04 Film Name:    MASK_BOT*
G04 File Format:  Gerber RS274X*
G04 File Origin:  Cadence Allegro 16.6-S003*
G04 Origin Date:  Fri Mar 15 11:53:02 2013*
G04 *
G04 Layer:  VIA CLASS/SOLDERMASK_BOTTOM*
G04 Layer:  PIN/SOLDERMASK_BOTTOM*
G04 Layer:  PACKAGE GEOMETRY/SOLDERMASK_BOTTOM*
G04 *
G04 Offset:    (0.000 0.000)*
G04 Mirror:    No*
G04 Mode:      Positive*
G04 Rotation:  0*
G04 FullContactRelief:  No*
G04 UndefLineWidth:     0.000*
G04 ================== end FILE IDENTIFICATION RECORD ====================*
%FSLAX34Y34*MOMM*%
%IR0*IPPOS*OFA0.00000B0.00000*MIA0B0*SFA1.00000B1.00000*%
%ADD26R,.7X1.1*%
%ADD24R,.8X1.2*%
%ADD15R,.8X1.3*%
%ADD23R,2.2X.8*%
%ADD21R,2.4X.8*%
%ADD13C,3.3*%
%ADD31C,2.15*%
%ADD10C,4.4*%
%ADD37C,5.4*%
%ADD36C,2.7*%
%ADD17C,1.8*%
%ADD12C,1.75*%
%ADD32R,2.15X2.15*%
%ADD33R,2.25X2.25*%
%ADD22R,1.75X.85*%
%ADD11R,1.75X1.75*%
%ADD28R,1.3X3.*%
%ADD27O,1.2X2.15*%
%ADD25R,3.X1.3*%
%ADD34O,2.15X1.2*%
%ADD20R,1.3X1.6*%
%ADD16R,1.6X1.3*%
%ADD18R,2.X1.45*%
%ADD30R,1.15X1.6*%
%ADD29R,1.6X1.15*%
%ADD19R,1.2X1.95*%
%ADD35R,2.7X2.7*%
%ADD14R,1.95X1.2*%
%LPD*%
G75*
G54D10*
X-25400Y1282550D03*
Y2171550D03*
G54D20*
X275500Y1622000D03*
X292500D03*
X425500Y1980000D03*
X442500D03*
G54D11*
X50800Y1333350D03*
X0D03*
X50800Y1561950D03*
X0D03*
X50800Y1815950D03*
X0D03*
X50800Y2069950D03*
X0D03*
X137300Y640000D03*
X282300Y1790000D03*
X615950Y1625600D03*
Y1727200D03*
Y1828800D03*
Y1930400D03*
G54D30*
X574500Y560000D03*
X555500D03*
X574500Y585000D03*
X555500D03*
X574500Y690000D03*
X555500D03*
X574500Y715000D03*
X555500D03*
X574500Y770000D03*
X555500D03*
X574500Y795000D03*
X555500D03*
G54D12*
X50800Y1409550D03*
Y1384150D03*
Y1358750D03*
X0Y1409550D03*
Y1384150D03*
Y1358750D03*
X50800Y1485750D03*
Y1460350D03*
Y1434950D03*
X0Y1485750D03*
Y1460350D03*
Y1434950D03*
X50800Y1536550D03*
Y1511150D03*
X0Y1536550D03*
Y1511150D03*
X50800Y1638150D03*
Y1612750D03*
Y1587350D03*
X0Y1638150D03*
Y1612750D03*
Y1587350D03*
X50800Y1714350D03*
Y1688950D03*
Y1663550D03*
X0Y1714350D03*
Y1688950D03*
Y1663550D03*
X50800Y1790550D03*
Y1765150D03*
Y1739750D03*
X0Y1790550D03*
Y1765150D03*
Y1739750D03*
X50800Y1866750D03*
Y1841350D03*
X0Y1866750D03*
Y1841350D03*
X50800Y1942950D03*
Y1917550D03*
Y1892150D03*
X0Y1942950D03*
Y1917550D03*
Y1892150D03*
X50800Y2019150D03*
Y1993750D03*
Y1968350D03*
X0Y2019150D03*
Y1993750D03*
Y1968350D03*
X50800Y2095350D03*
Y2044550D03*
X0Y2095350D03*
Y2044550D03*
X50800Y2120750D03*
X0D03*
X666750Y1625600D03*
Y1727200D03*
X615950Y1676400D03*
X666750D03*
X615950Y1778000D03*
X666750D03*
X615950Y1879600D03*
X666750D03*
Y1828800D03*
Y1930400D03*
X615950Y1981200D03*
X666750D03*
X717550Y1625600D03*
X692150D03*
X717550Y1727200D03*
X692150D03*
Y1676400D03*
X717550D03*
X692150Y1778000D03*
X717550D03*
X692150Y1879600D03*
X717550D03*
Y1828800D03*
X692150D03*
X717550Y1930400D03*
X692150D03*
Y1981200D03*
X717550D03*
G54D21*
X300000Y495000D03*
Y571200D03*
Y558500D03*
Y545800D03*
Y533100D03*
Y520400D03*
Y507700D03*
Y609300D03*
Y596600D03*
Y583900D03*
Y730800D03*
Y718100D03*
Y705400D03*
Y692700D03*
Y680000D03*
Y794300D03*
Y781600D03*
Y768900D03*
Y756200D03*
Y743500D03*
X392000Y495000D03*
Y571200D03*
Y558500D03*
Y545800D03*
Y533100D03*
Y520400D03*
Y507700D03*
Y609300D03*
Y596600D03*
Y583900D03*
Y730800D03*
Y718100D03*
Y705400D03*
Y692700D03*
Y680000D03*
Y794300D03*
Y781600D03*
Y768900D03*
Y756200D03*
Y743500D03*
G54D22*
X312000Y917300D03*
Y930000D03*
Y942700D03*
Y1227300D03*
Y1240000D03*
Y1252700D03*
Y1377300D03*
Y1390000D03*
Y1402700D03*
X378000Y917300D03*
Y942700D03*
Y1227300D03*
Y1252700D03*
Y1377300D03*
Y1402700D03*
G54D31*
X580000Y905000D03*
Y1215000D03*
Y1365000D03*
X750000Y905000D03*
Y1215000D03*
Y1365000D03*
G54D13*
X130000Y1660000D03*
X500000Y2010000D03*
G54D14*
X165000Y540000D03*
Y570000D03*
Y720000D03*
Y750000D03*
X240000Y530000D03*
Y560000D03*
Y715000D03*
Y745000D03*
G54D32*
X530000Y905000D03*
Y1215000D03*
Y1365000D03*
X700000Y905000D03*
Y1215000D03*
Y1365000D03*
G54D23*
X318500Y1861900D03*
Y1849200D03*
Y1938100D03*
Y1925400D03*
Y1912700D03*
Y1900000D03*
Y1887300D03*
Y1874600D03*
Y1950800D03*
X411500Y1849200D03*
Y1861900D03*
Y1874600D03*
Y1887300D03*
Y1900000D03*
Y1912700D03*
Y1925400D03*
Y1938100D03*
Y1950800D03*
G54D33*
X655000Y878500D03*
Y921500D03*
Y1188500D03*
Y1231500D03*
Y1338500D03*
Y1381500D03*
X708500Y530000D03*
Y580000D03*
Y645000D03*
Y695000D03*
Y745000D03*
Y795000D03*
X751500Y530000D03*
Y580000D03*
X800000Y548500D03*
X751500Y645000D03*
X800000Y653500D03*
Y591500D03*
X751500Y695000D03*
X800000Y696500D03*
X751500Y745000D03*
Y795000D03*
X800000Y753500D03*
Y796500D03*
X790000Y1630300D03*
Y1673300D03*
Y1774900D03*
Y1731900D03*
Y1876500D03*
Y1833500D03*
Y1938500D03*
Y1981500D03*
G54D15*
X190500Y558000D03*
Y532000D03*
X200000D03*
X190500Y717000D03*
X200000D03*
X190500Y743000D03*
X209500Y558000D03*
Y532000D03*
Y717000D03*
Y743000D03*
G54D24*
X375500Y868500D03*
X394500D03*
X385000Y891500D03*
X375500Y1178500D03*
X394500D03*
X385000Y1201500D03*
X375500Y1328500D03*
X394500D03*
X385000Y1351500D03*
G54D16*
X205000Y603500D03*
Y586500D03*
Y783500D03*
Y766500D03*
X245000Y486500D03*
Y503500D03*
X270000Y486500D03*
Y503500D03*
Y603500D03*
Y586500D03*
X245000Y671500D03*
Y688500D03*
X270000Y671500D03*
Y688500D03*
Y788500D03*
Y771500D03*
X285000Y983500D03*
Y966500D03*
Y1293500D03*
Y1276500D03*
Y1443500D03*
Y1426500D03*
X425000Y486500D03*
Y503500D03*
X420000Y613500D03*
Y596500D03*
Y671500D03*
Y688500D03*
Y798500D03*
Y781500D03*
X450000Y486500D03*
Y503500D03*
X445000Y671500D03*
Y688500D03*
G54D34*
X696500Y939300D03*
Y964700D03*
Y1249300D03*
Y1274700D03*
Y1399300D03*
Y1424700D03*
X787500Y939300D03*
Y964700D03*
Y1249300D03*
Y1274700D03*
Y1399300D03*
Y1424700D03*
G54D25*
X440000Y939500D03*
Y910500D03*
Y1249500D03*
Y1220500D03*
Y1399500D03*
Y1370500D03*
X495000Y910500D03*
Y939500D03*
Y1220500D03*
Y1249500D03*
Y1370500D03*
Y1399500D03*
G54D35*
X857250Y142240D03*
Y1215390D03*
G54D17*
X162700Y640000D03*
X307700Y1790000D03*
G54D26*
X405000Y917000D03*
Y943000D03*
Y1227000D03*
Y1253000D03*
Y1377000D03*
Y1403000D03*
G54D18*
X240000Y615000D03*
Y585000D03*
Y800000D03*
Y770000D03*
X446000Y581000D03*
Y611000D03*
Y797000D03*
Y767000D03*
G54D27*
X492300Y674500D03*
Y765500D03*
X517700Y674500D03*
Y765500D03*
X612300Y494500D03*
X637700D03*
Y585500D03*
X612300D03*
Y644500D03*
X637700D03*
Y735500D03*
X612300D03*
G54D36*
X857250Y193040D03*
Y243840D03*
Y345440D03*
Y294640D03*
Y396240D03*
Y497840D03*
Y447040D03*
Y548640D03*
Y650240D03*
Y599440D03*
Y701040D03*
Y802640D03*
Y751840D03*
Y853440D03*
Y904240D03*
Y1266190D03*
Y1316990D03*
Y1418590D03*
Y1367790D03*
Y1469390D03*
Y1570990D03*
Y1520190D03*
Y1621790D03*
Y1723390D03*
Y1672590D03*
Y1774190D03*
Y1875790D03*
Y1824990D03*
Y1926590D03*
Y1977390D03*
G54D19*
X285000Y930000D03*
X255000D03*
X285000Y1240000D03*
X255000D03*
X285000Y1390000D03*
X255000D03*
X270000Y1850000D03*
X240000D03*
X270000Y1880000D03*
X240000D03*
X270000Y1910000D03*
X240000D03*
X270000Y1940000D03*
X240000D03*
G54D28*
X470500Y878000D03*
X441500D03*
X470500Y1188000D03*
X441500D03*
X470500Y1338000D03*
X441500D03*
G54D37*
X939800Y-52070D03*
Y1060450D03*
Y2170430D03*
G54D29*
X575000Y495500D03*
Y514500D03*
Y645500D03*
Y664500D03*
X675000Y495500D03*
Y514500D03*
Y645500D03*
Y664500D03*
M02*
