G04 ================== begin FILE IDENTIFICATION RECORD ==================*
G04 Layout Name:  e:/ORCAD_sch/P400/KVP_03v1/pcb/kvp_03v1.brd*
G04 Film Name:    MASK_TOP*
G04 File Format:  Gerber RS274X*
G04 File Origin:  Cadence Allegro 16.6-S003*
G04 Origin Date:  Mon Mar 18 10:49:43 2013*
G04 *
G04 Layer:  VIA CLASS/SOLDERMASK_TOP*
G04 Layer:  PIN/SOLDERMASK_TOP*
G04 Layer:  PACKAGE GEOMETRY/SOLDERMASK_TOP*
G04 *
G04 Offset:    (0.000 0.000)*
G04 Mirror:    No*
G04 Mode:      Positive*
G04 Rotation:  0*
G04 FullContactRelief:  No*
G04 UndefLineWidth:     0.000*
G04 ================== end FILE IDENTIFICATION RECORD ====================*
%FSLAX34Y34*MOMM*%
%IR0*IPPOS*OFA0.00000B0.00000*MIA0B0*SFA1.00000B1.00000*%
%ADD14C,3.3*%
%ADD15C,2.15*%
%ADD10C,4.4*%
%ADD19C,5.4*%
%ADD18C,2.7*%
%ADD13C,1.8*%
%ADD12C,1.75*%
%ADD16R,2.15X2.15*%
%ADD11R,1.75X1.75*%
%ADD17R,2.7X2.7*%
%LPD*%
G75*
G54D10*
X-25400Y1282550D03*
Y2171550D03*
G54D11*
X50800Y1333350D03*
X0D03*
X50800Y1561950D03*
X0D03*
X50800Y1815950D03*
X0D03*
X50800Y2069950D03*
X0D03*
X162700Y640000D03*
X307700Y1790000D03*
X615950Y1625600D03*
Y1727200D03*
Y1828800D03*
Y1930400D03*
G54D12*
X50800Y1409550D03*
Y1384150D03*
Y1358750D03*
X0Y1409550D03*
Y1384150D03*
Y1358750D03*
X50800Y1485750D03*
Y1460350D03*
Y1434950D03*
X0Y1485750D03*
Y1460350D03*
Y1434950D03*
X50800Y1536550D03*
Y1511150D03*
X0Y1536550D03*
Y1511150D03*
X50800Y1638150D03*
Y1612750D03*
Y1587350D03*
X0Y1638150D03*
Y1612750D03*
Y1587350D03*
X50800Y1714350D03*
Y1688950D03*
Y1663550D03*
X0Y1714350D03*
Y1688950D03*
Y1663550D03*
X50800Y1790550D03*
Y1765150D03*
Y1739750D03*
X0Y1790550D03*
Y1765150D03*
Y1739750D03*
X50800Y1866750D03*
Y1841350D03*
X0Y1866750D03*
Y1841350D03*
X50800Y1942950D03*
Y1917550D03*
Y1892150D03*
X0Y1942950D03*
Y1917550D03*
Y1892150D03*
X50800Y2019150D03*
Y1993750D03*
Y1968350D03*
X0Y2019150D03*
Y1993750D03*
Y1968350D03*
X50800Y2095350D03*
Y2044550D03*
X0Y2095350D03*
Y2044550D03*
X50800Y2120750D03*
X0D03*
X666750Y1625600D03*
Y1727200D03*
X615950Y1676400D03*
X666750D03*
X615950Y1778000D03*
X666750D03*
X615950Y1879600D03*
X666750D03*
Y1828800D03*
Y1930400D03*
X615950Y1981200D03*
X666750D03*
X717550Y1625600D03*
X692150D03*
X717550Y1727200D03*
X692150D03*
Y1676400D03*
X717550D03*
X692150Y1778000D03*
X717550D03*
X692150Y1879600D03*
X717550D03*
Y1828800D03*
X692150D03*
X717550Y1930400D03*
X692150D03*
Y1981200D03*
X717550D03*
G54D13*
X137300Y640000D03*
X282300Y1790000D03*
G54D14*
X130000Y1660000D03*
X500000Y2010000D03*
G54D15*
X580000Y905000D03*
Y1215000D03*
Y1365000D03*
X750000Y905000D03*
Y1215000D03*
Y1365000D03*
G54D16*
X530000Y905000D03*
Y1215000D03*
Y1365000D03*
X700000Y905000D03*
Y1215000D03*
Y1365000D03*
G54D17*
X857250Y142240D03*
Y1215390D03*
G54D18*
Y193040D03*
Y243840D03*
Y345440D03*
Y294640D03*
Y396240D03*
Y497840D03*
Y447040D03*
Y548640D03*
Y650240D03*
Y599440D03*
Y701040D03*
Y802640D03*
Y751840D03*
Y853440D03*
Y904240D03*
Y1266190D03*
Y1316990D03*
Y1418590D03*
Y1367790D03*
Y1469390D03*
Y1570990D03*
Y1520190D03*
Y1621790D03*
Y1723390D03*
Y1672590D03*
Y1774190D03*
Y1875790D03*
Y1824990D03*
Y1926590D03*
Y1977390D03*
G54D19*
X939800Y-52070D03*
Y1060450D03*
Y2170430D03*
M02*
