G04 ================== begin FILE IDENTIFICATION RECORD ==================*
G04 Layout Name:  D:/Project/Circuit/ORCAD/KVP/03v1/pcb/kvp_03v1.brd*
G04 Film Name:    MASK_TOP*
G04 File Format:  Gerber RS274X*
G04 File Origin:  Cadence Allegro 16.6-S017*
G04 Origin Date:  Tue Oct 22 15:15:47 2013*
G04 *
G04 Layer:  VIA CLASS/SOLDERMASK_TOP*
G04 Layer:  PIN/SOLDERMASK_TOP*
G04 Layer:  PACKAGE GEOMETRY/SOLDERMASK_TOP*
G04 *
G04 Offset:    (0.000 0.000)*
G04 Mirror:    No*
G04 Mode:      Positive*
G04 Rotation:  0*
G04 FullContactRelief:  No*
G04 UndefLineWidth:     0.000*
G04 ================== end FILE IDENTIFICATION RECORD ====================*
%FSLAX34Y34*MOMM*%
%IR0*IPPOS*OFA0.00000B0.00000*MIA0B0*SFA1.00000B1.00000*%
%ADD26R,.7X1.1*%
%ADD11C,3.*%
%ADD23R,2.2X.8*%
%ADD20R,1.3X.8*%
%ADD21R,2.4X.8*%
%ADD16C,3.3*%
%ADD10C,4.2*%
%ADD28C,2.15*%
%ADD30C,2.7*%
%ADD17C,1.8*%
%ADD32C,2.8*%
%ADD13C,1.75*%
%ADD25R,2.15X2.15*%
%ADD15R,2.25X2.25*%
%ADD22R,1.75X.85*%
%ADD12R,1.75X1.75*%
%ADD24O,1.2X2.15*%
%ADD29R,1.6X2.*%
%ADD18R,1.3X1.6*%
%ADD14R,1.15X1.6*%
%ADD27R,1.6X1.15*%
%ADD19R,1.3X2.9*%
%ADD31R,2.7X2.7*%
%LPD*%
G75*
G54D10*
X0Y-889000D03*
Y0D03*
G54D20*
X305100Y-1848360D03*
Y-1867360D03*
X279100D03*
Y-1857860D03*
Y-1848360D03*
X305100Y-1594360D03*
Y-1613360D03*
X279100D03*
Y-1603860D03*
Y-1594360D03*
X305100Y-1359360D03*
X279100D03*
X305100Y-1340360D03*
X279100Y-1349860D03*
Y-1340360D03*
G54D11*
X65400Y-2231550D03*
Y8450D03*
X885400Y-2231550D03*
Y8450D03*
G54D12*
X76200Y-838200D03*
X25400D03*
X76200Y-609600D03*
X25400D03*
X76200Y-355600D03*
X25400D03*
X76200Y-101600D03*
X25400D03*
X177800Y-1524000D03*
X431800Y-438150D03*
X635000Y-549760D03*
Y-448160D03*
Y-346560D03*
Y-244960D03*
G54D30*
X882650Y-2029310D03*
Y-1978510D03*
Y-1927710D03*
Y-1826110D03*
Y-1876910D03*
Y-1775310D03*
Y-1673710D03*
Y-1724510D03*
Y-1622910D03*
Y-1521310D03*
Y-1572110D03*
Y-1470510D03*
Y-1368910D03*
Y-1419710D03*
Y-1318110D03*
Y-956160D03*
Y-905360D03*
Y-854560D03*
Y-752960D03*
Y-803760D03*
Y-702160D03*
Y-600560D03*
Y-651360D03*
Y-549760D03*
Y-448160D03*
Y-498960D03*
Y-397360D03*
Y-295760D03*
Y-346560D03*
Y-244960D03*
G54D21*
X342900Y-1921360D03*
Y-1908660D03*
Y-1895960D03*
Y-1883260D03*
Y-1870560D03*
Y-1857860D03*
Y-1845160D03*
Y-1832460D03*
Y-1819760D03*
Y-1807060D03*
Y-1667360D03*
Y-1654660D03*
Y-1641960D03*
Y-1629260D03*
Y-1616560D03*
Y-1603860D03*
Y-1591160D03*
Y-1578460D03*
Y-1565760D03*
Y-1553060D03*
Y-1413360D03*
Y-1400660D03*
Y-1387960D03*
Y-1375260D03*
Y-1362560D03*
Y-1349860D03*
Y-1337160D03*
Y-1324460D03*
Y-1311760D03*
Y-1299060D03*
X434900Y-1921360D03*
Y-1908660D03*
Y-1895960D03*
Y-1883260D03*
Y-1870560D03*
Y-1857860D03*
Y-1845160D03*
Y-1832460D03*
Y-1819760D03*
Y-1807060D03*
Y-1667360D03*
Y-1654660D03*
Y-1641960D03*
Y-1629260D03*
Y-1616560D03*
Y-1603860D03*
Y-1591160D03*
Y-1578460D03*
Y-1565760D03*
Y-1553060D03*
Y-1413360D03*
Y-1400660D03*
Y-1387960D03*
Y-1375260D03*
Y-1362560D03*
Y-1349860D03*
Y-1337160D03*
Y-1324460D03*
Y-1311760D03*
Y-1299060D03*
G54D31*
X882650Y-1267310D03*
Y-194160D03*
G54D22*
X380150Y-994260D03*
Y-1006960D03*
Y-1019660D03*
Y-822810D03*
Y-835510D03*
Y-810110D03*
X379750Y-638660D03*
Y-651360D03*
Y-664060D03*
X446150Y-994260D03*
Y-1019660D03*
Y-835510D03*
Y-810110D03*
X445750Y-638660D03*
Y-664060D03*
G54D13*
X76200Y-762000D03*
Y-787400D03*
Y-812800D03*
X25400Y-762000D03*
Y-787400D03*
Y-812800D03*
X76200Y-685800D03*
Y-711200D03*
Y-736600D03*
X25400Y-685800D03*
Y-711200D03*
Y-736600D03*
X76200Y-635000D03*
Y-660400D03*
X25400Y-635000D03*
Y-660400D03*
X76200Y-533400D03*
Y-558800D03*
Y-584200D03*
X25400Y-533400D03*
Y-558800D03*
Y-584200D03*
X76200Y-457200D03*
Y-482600D03*
Y-508000D03*
X25400Y-457200D03*
Y-482600D03*
Y-508000D03*
X76200Y-381000D03*
Y-406400D03*
Y-431800D03*
X25400Y-381000D03*
Y-406400D03*
Y-431800D03*
X76200Y-304800D03*
Y-330200D03*
X25400Y-304800D03*
Y-330200D03*
X76200Y-228600D03*
Y-254000D03*
Y-279400D03*
X25400Y-228600D03*
Y-254000D03*
Y-279400D03*
X76200Y-152400D03*
Y-177800D03*
Y-203200D03*
X25400Y-152400D03*
Y-177800D03*
Y-203200D03*
X76200Y-76200D03*
Y-127000D03*
X25400Y-76200D03*
Y-127000D03*
X76200Y-50800D03*
X25400D03*
X685800Y-549760D03*
X635000Y-498960D03*
X685800D03*
Y-448160D03*
X635000Y-397360D03*
X685800D03*
X635000Y-295760D03*
X685800D03*
Y-346560D03*
Y-244960D03*
X635000Y-194160D03*
X685800D03*
X736600Y-549760D03*
X711200D03*
Y-498960D03*
X736600D03*
Y-448160D03*
X711200D03*
Y-397360D03*
X736600D03*
X711200Y-295760D03*
X736600D03*
Y-346560D03*
X711200D03*
X736600Y-244960D03*
X711200D03*
Y-194160D03*
X736600D03*
G54D14*
X123800Y-685800D03*
X104800D03*
X123800Y-635000D03*
X104800D03*
X123800Y-609600D03*
X104800D03*
X123800Y-660400D03*
X104800D03*
X123800Y-584200D03*
X104800D03*
X123800Y-558800D03*
X104800D03*
X123800Y-381000D03*
X104800D03*
X123800Y-304800D03*
X104800D03*
X123800Y-330200D03*
X104800D03*
X123800Y-355600D03*
X104800D03*
X123800Y-228600D03*
X104800D03*
X123800Y-254000D03*
X104800D03*
X123800Y-279400D03*
X104800D03*
X282550Y-1743560D03*
X263550D03*
X282550Y-1768960D03*
X263550D03*
X282550Y-1514960D03*
X263550D03*
X282550Y-1489560D03*
X263550D03*
X282550Y-1235560D03*
X263550D03*
X282550Y-1260960D03*
X263550D03*
X600050Y-1978510D03*
X581050D03*
X600050Y-1927710D03*
X581050D03*
X600050Y-1902310D03*
X581050D03*
X600050Y-1953110D03*
X581050D03*
X600050Y-1826110D03*
X581050D03*
X600050Y-1800710D03*
X581050D03*
X600050Y-1673710D03*
X581050D03*
X600050Y-1724510D03*
X581050D03*
X600050Y-1699110D03*
X581050D03*
X600050Y-1648310D03*
X581050D03*
X600050Y-1572110D03*
X581050D03*
X600050Y-1546710D03*
X581050D03*
X600050Y-1470510D03*
X581050D03*
X600050Y-1445110D03*
X581050D03*
X600050Y-1419710D03*
X581050D03*
X600050Y-1394310D03*
X581050D03*
X600050Y-1318110D03*
X581050D03*
X600050Y-1292710D03*
X581050D03*
G54D32*
X965400Y-2222500D03*
Y0D03*
G54D23*
X448800Y-349250D03*
Y-336550D03*
Y-323850D03*
Y-311150D03*
Y-298450D03*
Y-285750D03*
Y-273050D03*
Y-260350D03*
Y-247650D03*
X541800Y-298450D03*
Y-311150D03*
Y-323850D03*
Y-336550D03*
Y-349250D03*
Y-247650D03*
Y-260350D03*
Y-273050D03*
Y-285750D03*
G54D24*
X539750Y-1897010D03*
X514350D03*
Y-1806010D03*
X539750D03*
Y-1643010D03*
X514350D03*
Y-1552010D03*
X539750D03*
Y-1389010D03*
X514350D03*
Y-1298010D03*
X539750D03*
X666750Y-1897010D03*
X641350D03*
Y-1806010D03*
X666750D03*
Y-1643010D03*
X641350D03*
Y-1552010D03*
X666750D03*
Y-1389010D03*
X641350D03*
Y-1298010D03*
X666750D03*
G54D15*
X148500Y-527050D03*
X105500D03*
X154850Y-190500D03*
X111850D03*
X505550Y-1006960D03*
Y-822810D03*
Y-651360D03*
X548550Y-1006960D03*
Y-822810D03*
Y-651360D03*
X635400Y-1047510D03*
Y-1004510D03*
Y-863360D03*
Y-820360D03*
X635000Y-691910D03*
Y-648910D03*
X740500Y-1965810D03*
Y-1902310D03*
Y-1851510D03*
Y-1788010D03*
Y-1711810D03*
Y-1648310D03*
Y-1597510D03*
Y-1534010D03*
Y-1457810D03*
Y-1394310D03*
Y-1343510D03*
Y-1280010D03*
X783500Y-1965810D03*
Y-1902310D03*
Y-1851510D03*
Y-1788010D03*
Y-1711810D03*
Y-1648310D03*
Y-1597510D03*
Y-1534010D03*
Y-1457810D03*
Y-1394310D03*
Y-1343510D03*
Y-1280010D03*
X812800Y-545860D03*
Y-444260D03*
Y-502860D03*
Y-401260D03*
Y-299660D03*
Y-342660D03*
Y-241060D03*
Y-198060D03*
G54D25*
X502450Y-1095860D03*
Y-911710D03*
X502050Y-740260D03*
X718350Y-1038710D03*
Y-854560D03*
X717950Y-683110D03*
G54D16*
X139700Y-482600D03*
Y-146050D03*
G54D17*
X203200Y-1524000D03*
X457200Y-438150D03*
G54D26*
X470300Y-993960D03*
Y-1019960D03*
Y-835810D03*
Y-809810D03*
X469900Y-638360D03*
Y-664360D03*
G54D27*
X603250Y-1867360D03*
Y-1848360D03*
Y-1613360D03*
Y-1594360D03*
Y-1359360D03*
Y-1340360D03*
X704850Y-1867360D03*
Y-1848360D03*
Y-1613360D03*
Y-1594360D03*
Y-1359360D03*
Y-1340360D03*
G54D18*
X289950Y-1895960D03*
X306950D03*
X296300Y-1819760D03*
Y-1794360D03*
X309000Y-1768960D03*
X289950Y-1641960D03*
X306950D03*
X296300Y-1565760D03*
X309000Y-1514960D03*
X296300Y-1540360D03*
X289950Y-1387960D03*
X306950D03*
X296300Y-1311760D03*
Y-1286360D03*
X309000Y-1260960D03*
X313300Y-1819760D03*
Y-1794360D03*
X326000Y-1768960D03*
X313300Y-1565760D03*
X326000Y-1514960D03*
X313300Y-1540360D03*
Y-1311760D03*
Y-1286360D03*
X326000Y-1260960D03*
X364000Y-1038710D03*
X381000D03*
X364000Y-854560D03*
X381000D03*
X364000Y-683110D03*
X381000D03*
X461400Y-1921360D03*
X448700Y-1781660D03*
X461400Y-1807060D03*
Y-1667360D03*
Y-1553060D03*
X448700Y-1527660D03*
X461400Y-1413360D03*
Y-1299060D03*
X448700Y-1273660D03*
X478400Y-1921360D03*
X465700Y-1781660D03*
X478400Y-1807060D03*
Y-1667360D03*
Y-1553060D03*
X465700Y-1527660D03*
X478400Y-1413360D03*
Y-1299060D03*
X465700Y-1273660D03*
X524900Y-527050D03*
Y-203200D03*
X541900Y-527050D03*
Y-203200D03*
G54D19*
X276600Y-1927710D03*
X307600D03*
X276600Y-1673710D03*
X307600D03*
X276600Y-1419710D03*
X307600D03*
X448050Y-1953110D03*
Y-1699110D03*
Y-1445110D03*
X479050Y-1953110D03*
Y-1699110D03*
Y-1445110D03*
X503450Y-1064110D03*
Y-879960D03*
X503050Y-708510D03*
X551450Y-1064110D03*
Y-879960D03*
X551050Y-708510D03*
X767350Y-1006960D03*
X719350D03*
X767350Y-822810D03*
X719350D03*
X766950Y-651360D03*
X718950D03*
G54D28*
X552450Y-1095860D03*
Y-911710D03*
X552050Y-740260D03*
X768350Y-1038710D03*
Y-854560D03*
X767950Y-683110D03*
G54D29*
X839000Y-1965810D03*
X812000D03*
X839000Y-1902310D03*
X812000D03*
X839000Y-1851510D03*
X812000D03*
X839000Y-1788010D03*
X812000D03*
X839000Y-1711810D03*
X812000D03*
X839000Y-1648310D03*
X812000D03*
X839000Y-1597510D03*
X812000D03*
X839000Y-1534010D03*
X812000D03*
X839000Y-1457810D03*
X812000D03*
X839000Y-1394310D03*
X812000D03*
X839000Y-1343510D03*
X812000D03*
X839000Y-1280010D03*
X812000D03*
M02*
