G04 ================== begin FILE IDENTIFICATION RECORD ==================*
G04 Layout Name:  e:/ORCAD_sch/P400/KVP_03v1/pcb/kvp_03v1.brd*
G04 Film Name:    SILK_BOT*
G04 File Format:  Gerber RS274X*
G04 File Origin:  Cadence Allegro 16.6-S003*
G04 Origin Date:  Mon Mar 18 10:49:43 2013*
G04 *
G04 Layer:  MANUFACTURING/AUTOSILK_BOTTOM*
G04 *
G04 Offset:    (0.000 0.000)*
G04 Mirror:    No*
G04 Mode:      Positive*
G04 Rotation:  0*
G04 FullContactRelief:  No*
G04 UndefLineWidth:     0.200*
G04 ================== end FILE IDENTIFICATION RECORD ====================*
%FSLAX34Y34*MOMM*%
%IR0*IPPOS*OFA0.00000B0.00000*MIA0B0*SFA1.00000B1.00000*%
%ADD10C,.2*%
%ADD11C,.4*%
%ADD12C,.5*%
%ADD13C,.15*%
%ADD14C,.25*%
G75*
%LPD*%
G75*
G54D10*
G01X173000Y561500D02*
Y548500D01*
G01X157000Y561500D02*
Y548500D01*
G01X185500Y540750D02*
X214500D01*
Y549250D01*
X185500D01*
Y540750D01*
G01Y725750D02*
X214500D01*
Y734250D01*
X185500D01*
Y725750D01*
G01X173000Y741500D02*
Y728500D01*
G01X157000Y741500D02*
Y728500D01*
G01X248000Y551500D02*
Y538500D01*
G01X232000Y551500D02*
Y538500D01*
G01Y595000D02*
Y605000D01*
G01X248000Y595000D02*
Y605000D01*
G01Y736500D02*
Y723500D01*
G01X232000Y736500D02*
Y723500D01*
G01Y780000D02*
Y790000D01*
G01X248000Y780000D02*
Y790000D01*
G01X263500Y938000D02*
X276500D01*
G01X263500Y922000D02*
X276500D01*
G01X263500Y1248000D02*
X276500D01*
G01X263500Y1232000D02*
X276500D01*
G01X263500Y1398000D02*
X276500D01*
G01X263500Y1382000D02*
X276500D01*
G01X248500Y1858000D02*
X261500D01*
G01X248500Y1842000D02*
X261500D01*
G01X248500Y1888000D02*
X261500D01*
G01X248500Y1872000D02*
X261500D01*
G01X248500Y1918000D02*
X261500D01*
G01X248500Y1902000D02*
X261500D01*
G01X248500Y1932000D02*
X261500D01*
G01X248500Y1948000D02*
X261500D01*
G01X317500Y485000D02*
Y620000D01*
X375000D01*
Y485000D01*
X317500D01*
G01Y670000D02*
Y805000D01*
X375000D01*
Y670000D01*
X317500D01*
G01X364050Y907780D02*
X325950D01*
Y952220D01*
X364050D01*
Y907780D01*
G01Y1217780D02*
X325950D01*
Y1262220D01*
X364050D01*
Y1217780D01*
G01Y1367780D02*
X325950D01*
Y1412220D01*
X364050D01*
Y1367780D01*
G01X331750Y1958000D02*
Y1842000D01*
X398250D01*
Y1958000D01*
X331750D01*
G01X493980Y2110000D02*
Y2130320D01*
X487380Y2113390D01*
X480780Y2130320D01*
Y2110000D01*
G01X462490D02*
Y2123550D01*
G01Y2121180D02*
X463500Y2122530D01*
X465030Y2123210D01*
X466810Y2123550D01*
X468580Y2122870D01*
X470110Y2121510D01*
X471120Y2119480D01*
X471630Y2116770D01*
X471120Y2114060D01*
X470110Y2112030D01*
X468580Y2110680D01*
X466810Y2110000D01*
X465030Y2110340D01*
X463500Y2111350D01*
X462490Y2112710D01*
G01X450300Y2110000D02*
Y2123550D01*
G01Y2120840D02*
X449030Y2122190D01*
X447760Y2123210D01*
X445980Y2123550D01*
X444710Y2123210D01*
X443180Y2122190D01*
G01X422360Y2121850D02*
X424130Y2123210D01*
X425660Y2123550D01*
X427690Y2122870D01*
X429210Y2121510D01*
X430230Y2119140D01*
X430480Y2116770D01*
X430230Y2114400D01*
X429210Y2112370D01*
X427690Y2110680D01*
X425660Y2110000D01*
X423880Y2110680D01*
X422360Y2112030D01*
G01X410420Y2110000D02*
Y2130320D01*
G01Y2120500D02*
X409150Y2122190D01*
X407880Y2123210D01*
X405850Y2123550D01*
X404320Y2123210D01*
X402540Y2121850D01*
X401780Y2119820D01*
Y2110000D01*
G01X370290Y2126930D02*
X368760Y2128970D01*
X366980Y2129980D01*
X364950Y2130320D01*
X362410Y2129640D01*
X360630Y2127950D01*
X360130Y2125920D01*
X360380Y2123880D01*
X361400Y2122190D01*
X366480Y2118810D01*
X368760Y2116430D01*
X370290Y2113050D01*
X370790Y2110000D01*
X360130D01*
G01X345140Y2130320D02*
X347170Y2129640D01*
X348700Y2127950D01*
X349710Y2125920D01*
X350470Y2123210D01*
X350730Y2120160D01*
X350470Y2117110D01*
X349710Y2114400D01*
X348700Y2112370D01*
X347170Y2110680D01*
X345140Y2110000D01*
X343110Y2110680D01*
X341580Y2112370D01*
X340570Y2114400D01*
X339810Y2117110D01*
X339550Y2120160D01*
X339810Y2123210D01*
X340570Y2125920D01*
X341580Y2127950D01*
X343110Y2129640D01*
X345140Y2130320D01*
G01X324820Y2110000D02*
Y2130320D01*
X327870Y2126260D01*
G01Y2110000D02*
X321770D01*
G01X310090Y2114060D02*
X308560Y2111690D01*
X306530Y2110340D01*
X304250Y2110000D01*
X302210Y2110340D01*
X300180Y2112030D01*
X298910Y2114060D01*
X298660Y2116100D01*
X299170Y2118470D01*
X300940Y2120160D01*
X302720Y2120840D01*
X305010D01*
G01X302720D02*
X301200Y2121850D01*
X299930Y2123550D01*
X299420Y2125580D01*
X299930Y2127610D01*
X301200Y2129300D01*
X303480Y2130320D01*
X305770Y2129980D01*
X308060Y2128630D01*
G01X492970Y2140000D02*
Y2160320D01*
G01X483320D02*
X492970Y2147790D01*
G01X481790Y2140000D02*
X488650Y2153550D01*
G01X473410Y2160320D02*
X467060Y2140000D01*
X460710Y2160320D01*
G01X451820Y2140000D02*
Y2160320D01*
X445720D01*
X443690Y2159300D01*
X442170Y2156930D01*
X441660Y2154220D01*
X442170Y2151510D01*
X443440Y2149480D01*
X445720Y2148470D01*
X451820D01*
G01X434040Y2133230D02*
X418800D01*
G01X406100Y2160320D02*
X408130Y2159640D01*
X409660Y2157950D01*
X410670Y2155920D01*
X411430Y2153210D01*
X411690Y2150160D01*
X411430Y2147110D01*
X410670Y2144400D01*
X409660Y2142370D01*
X408130Y2140680D01*
X406100Y2140000D01*
X404070Y2140680D01*
X402540Y2142370D01*
X401530Y2144400D01*
X400770Y2147110D01*
X400510Y2150160D01*
X400770Y2153210D01*
X401530Y2155920D01*
X402540Y2157950D01*
X404070Y2159640D01*
X406100Y2160320D01*
G01X391370Y2144060D02*
X389840Y2141690D01*
X387810Y2140340D01*
X385530Y2140000D01*
X383490Y2140340D01*
X381460Y2142030D01*
X380190Y2144060D01*
X379940Y2146100D01*
X380450Y2148470D01*
X382220Y2150160D01*
X384000Y2150840D01*
X386290D01*
G01X384000D02*
X382480Y2151850D01*
X381210Y2153550D01*
X380700Y2155580D01*
X381210Y2157610D01*
X382480Y2159300D01*
X384760Y2160320D01*
X387050Y2159980D01*
X389340Y2158630D01*
G01X370030Y2153550D02*
X365460Y2140000D01*
X360890Y2153550D01*
G01X345140Y2140000D02*
Y2160320D01*
X348190Y2156260D01*
G01Y2140000D02*
X342090D01*
G01X370500Y876750D02*
X399500D01*
Y883250D01*
X370500D01*
Y876750D01*
G01X427000Y919500D02*
Y930500D01*
G01X398500Y938500D02*
Y921500D01*
G01X411500Y938500D02*
Y921500D01*
G01Y935000D02*
X398500D01*
G01X411500Y933000D02*
X398500D01*
G01X411500Y931000D02*
X398500D01*
G01X391000Y916000D02*
X399000D01*
G01X395000Y912000D02*
Y920000D01*
G01X427000Y1229500D02*
Y1240500D01*
G01X370500Y1186750D02*
X399500D01*
Y1193250D01*
X370500D01*
Y1186750D01*
G01X398500Y1248500D02*
Y1231500D01*
G01X411500Y1248500D02*
Y1231500D01*
G01Y1245000D02*
X398500D01*
G01X411500Y1243000D02*
X398500D01*
G01X411500Y1241000D02*
X398500D01*
G01X391000Y1226000D02*
X399000D01*
G01X395000Y1222000D02*
Y1230000D01*
G01X370500Y1336750D02*
X399500D01*
Y1343250D01*
X370500D01*
Y1336750D01*
G01X427000Y1379500D02*
Y1390500D01*
G01X398500Y1398500D02*
Y1381500D01*
G01X411500Y1398500D02*
Y1381500D01*
G01Y1395000D02*
X398500D01*
G01X411500Y1393000D02*
X398500D01*
G01X411500Y1391000D02*
X398500D01*
G01X391000Y1376000D02*
X399000D01*
G01X395000Y1372000D02*
Y1380000D01*
G01X537710Y290000D02*
Y310320D01*
G01X527050D02*
Y290000D01*
G01Y300160D02*
X537710D01*
G01X507490Y290000D02*
Y303550D01*
G01Y301180D02*
X508500Y302530D01*
X510030Y303210D01*
X511810Y303550D01*
X513580Y302870D01*
X515110Y301510D01*
X516120Y299480D01*
X516630Y296770D01*
X516120Y294060D01*
X515110Y292030D01*
X513580Y290680D01*
X511810Y290000D01*
X510030Y290340D01*
X508500Y291350D01*
X507490Y292710D01*
G01X491740Y290000D02*
Y310320D01*
G01X472940Y290000D02*
Y307270D01*
X472440Y308970D01*
X471420Y309980D01*
X469900Y310320D01*
X468370Y309640D01*
X467610Y307950D01*
G01X470660Y302190D02*
X475740D01*
G01X537210Y410000D02*
Y430320D01*
X527550D01*
G01X531110Y420500D02*
X537210D01*
G01X516380Y423550D02*
Y414060D01*
X515360Y411690D01*
X513840Y410340D01*
X512060Y410000D01*
X510280Y410340D01*
X508760Y411690D01*
X507740Y414060D01*
G01Y410000D02*
Y423550D01*
G01X491740Y410000D02*
Y430320D01*
G01X471420Y410000D02*
Y430320D01*
G01X559970Y436000D02*
Y456320D01*
X554890D01*
X552860Y455300D01*
X551330Y453950D01*
X550060Y451920D01*
X549050Y449550D01*
X548790Y446160D01*
X549050Y442770D01*
X550060Y440400D01*
X551330Y438370D01*
X552860Y437020D01*
X554890Y436000D01*
X559970D01*
G01X539650Y456320D02*
Y441760D01*
X538630Y438710D01*
X536600Y436680D01*
X534060Y436000D01*
X531520Y436680D01*
X529490Y438710D01*
X528470Y441760D01*
Y456320D01*
G01X518820Y436000D02*
Y456320D01*
X512720D01*
X510690Y455300D01*
X509170Y452930D01*
X508660Y450220D01*
X509170Y447510D01*
X510440Y445480D01*
X512720Y444470D01*
X518820D01*
G01X498500Y456320D02*
Y436000D01*
X488340D01*
G01X468020D02*
X478180D01*
Y456320D01*
X468020D01*
G01X472080Y446500D02*
X478180D01*
G01X458110Y436000D02*
X447450Y456320D01*
G01X458110D02*
X447450Y436000D01*
G01X438000Y591000D02*
Y601000D01*
G01X454000Y591000D02*
Y601000D01*
G01X535000Y752500D02*
X475000D01*
Y687500D01*
X535000D01*
Y752500D01*
G01X487500Y742500D02*
G03I-2500J0D01*
G01X483250Y772500D02*
G03I-1250J0D01*
G01X438000Y777000D02*
Y787000D01*
G01X454000Y777000D02*
Y787000D01*
G01X450500Y865000D02*
X461500D01*
G01X508000Y930500D02*
Y919500D01*
G01X482000Y930500D02*
Y919500D01*
G01X453000D02*
Y930500D01*
G01X450500Y891000D02*
X461500D01*
G01X547210Y1136930D02*
X545680Y1138970D01*
X543900Y1139980D01*
X541870Y1140320D01*
X539330Y1139640D01*
X537550Y1137950D01*
X537050Y1135920D01*
X537300Y1133880D01*
X538320Y1132190D01*
X543400Y1128810D01*
X545680Y1126430D01*
X547210Y1123050D01*
X547710Y1120000D01*
X537050D01*
G01X519010D02*
Y1140320D01*
X528410Y1125760D01*
X515710D01*
G01X499710Y1130840D02*
X498690Y1131850D01*
X497930Y1133550D01*
X497420Y1135920D01*
X497930Y1137950D01*
X498950Y1139300D01*
X500720Y1140320D01*
X507580D01*
Y1120000D01*
X499200D01*
X497420Y1121350D01*
X496410Y1123390D01*
X495900Y1125760D01*
X496410Y1128130D01*
X497930Y1130160D01*
X499710Y1130840D01*
X507580D01*
G01X450500Y1175000D02*
X461500D01*
G01X508000Y1240500D02*
Y1229500D01*
G01X482000Y1240500D02*
Y1229500D01*
G01X453000D02*
Y1240500D01*
G01X450500Y1201000D02*
X461500D01*
G01X450500Y1325000D02*
X461500D01*
G01X508000Y1390500D02*
Y1379500D01*
G01X482000Y1390500D02*
Y1379500D01*
G01X453000D02*
Y1390500D01*
G01X450500Y1351000D02*
X461500D01*
G01X687380Y170000D02*
Y190320D01*
X690430Y186260D01*
G01Y170000D02*
X684330D01*
G01X671890Y186930D02*
X670360Y188970D01*
X668580Y189980D01*
X666550Y190320D01*
X664010Y189640D01*
X662230Y187950D01*
X661730Y185920D01*
X661980Y183880D01*
X663000Y182190D01*
X668080Y178810D01*
X670360Y176430D01*
X671890Y173050D01*
X672390Y170000D01*
X661730D01*
G01X646740Y190320D02*
X648770Y189640D01*
X650300Y187950D01*
X651310Y185920D01*
X652070Y183210D01*
X652330Y180160D01*
X652070Y177110D01*
X651310Y174400D01*
X650300Y172370D01*
X648770Y170680D01*
X646740Y170000D01*
X644710Y170680D01*
X643180Y172370D01*
X642170Y174400D01*
X641410Y177110D01*
X641150Y180160D01*
X641410Y183210D01*
X642170Y185920D01*
X643180Y187950D01*
X644710Y189640D01*
X646740Y190320D01*
G01X606100Y170000D02*
X608130Y170340D01*
X609910Y171690D01*
X611430Y173730D01*
X612450Y176100D01*
X612960Y178810D01*
Y181510D01*
X612450Y184220D01*
X611430Y186590D01*
X609910Y188630D01*
X608130Y189980D01*
X606100Y190320D01*
X604070Y189980D01*
X602290Y188630D01*
X600770Y186590D01*
X599750Y184220D01*
X599240Y181510D01*
Y178810D01*
X599750Y176100D01*
X600770Y173730D01*
X602290Y171690D01*
X604070Y170340D01*
X606100Y170000D01*
G01X590100D02*
Y190320D01*
G01Y180500D02*
X588830Y182190D01*
X587560Y183210D01*
X585530Y183550D01*
X584000Y183210D01*
X582220Y181850D01*
X581460Y179820D01*
Y170000D01*
G01X573080D02*
Y183550D01*
G01Y179820D02*
X572320Y181510D01*
X571050Y182870D01*
X569270Y183550D01*
X567490Y182870D01*
X566220Y181510D01*
X565460Y179820D01*
Y170000D01*
G01Y179820D02*
X564700Y181510D01*
X563430Y182870D01*
X561650Y183550D01*
X559870Y182870D01*
X558600Y181510D01*
X557840Y179480D01*
Y170000D01*
G01X682970Y293050D02*
X681440Y291350D01*
X679670Y290340D01*
X677380Y290000D01*
X675090Y290680D01*
X673320Y292030D01*
X672050Y294400D01*
X671790Y297110D01*
X672300Y299820D01*
X673570Y301510D01*
X675350Y302870D01*
X677130Y303210D01*
X678900Y302870D01*
X681190Y301510D01*
X680430Y310320D01*
X673570D01*
G01X661890Y298470D02*
X660110Y300840D01*
X658580Y302190D01*
X656550Y302870D01*
X654770Y302190D01*
X653500Y300840D01*
X652490Y298810D01*
X652230Y296430D01*
X652490Y294400D01*
X653500Y292370D01*
X655030Y290680D01*
X656810Y290000D01*
X658840Y290680D01*
X660620Y292710D01*
X661630Y295760D01*
X661890Y299140D01*
X661380Y303550D01*
X660620Y305920D01*
X659350Y308290D01*
X657570Y309980D01*
X655790Y310320D01*
X654010Y309640D01*
X652740Y307950D01*
G01X616420Y290000D02*
X618450Y290340D01*
X620230Y291690D01*
X621750Y293730D01*
X622770Y296100D01*
X623280Y298810D01*
Y301510D01*
X622770Y304220D01*
X621750Y306590D01*
X620230Y308630D01*
X618450Y309980D01*
X616420Y310320D01*
X614390Y309980D01*
X612610Y308630D01*
X611090Y306590D01*
X610070Y304220D01*
X609560Y301510D01*
Y298810D01*
X610070Y296100D01*
X611090Y293730D01*
X612610Y291690D01*
X614390Y290340D01*
X616420Y290000D01*
G01X600420D02*
Y310320D01*
G01Y300500D02*
X599150Y302190D01*
X597880Y303210D01*
X595850Y303550D01*
X594320Y303210D01*
X592540Y301850D01*
X591780Y299820D01*
Y290000D01*
G01X583400D02*
Y303550D01*
G01Y299820D02*
X582640Y301510D01*
X581370Y302870D01*
X579590Y303550D01*
X577810Y302870D01*
X576540Y301510D01*
X575780Y299820D01*
Y290000D01*
G01Y299820D02*
X575020Y301510D01*
X573750Y302870D01*
X571970Y303550D01*
X570190Y302870D01*
X568920Y301510D01*
X568160Y299480D01*
Y290000D01*
G01X580500Y505000D02*
X569500D01*
G01X565000Y565500D02*
Y554500D01*
G01Y590500D02*
Y579500D01*
G01X580500Y655000D02*
X569500D01*
G01X565000Y695500D02*
Y684500D01*
G01Y720500D02*
Y709500D01*
G01Y775500D02*
Y764500D01*
G01Y800500D02*
Y789500D01*
G01X642380Y410000D02*
X644410Y410340D01*
X646190Y411690D01*
X647710Y413730D01*
X648730Y416100D01*
X649240Y418810D01*
Y421510D01*
X648730Y424220D01*
X647710Y426590D01*
X646190Y428630D01*
X644410Y429980D01*
X642380Y430320D01*
X640350Y429980D01*
X638570Y428630D01*
X637050Y426590D01*
X636030Y424220D01*
X635520Y421510D01*
Y418810D01*
X636030Y416100D01*
X637050Y413730D01*
X638570Y411690D01*
X640350Y410340D01*
X642380Y410000D01*
G01X626890D02*
Y430320D01*
X617230D01*
G01X620790Y420500D02*
X626890D01*
G01X606570Y410000D02*
Y430320D01*
X596910D01*
G01X600470Y420500D02*
X606570D01*
G01X637460Y435000D02*
Y455320D01*
X631110D01*
X629080Y454300D01*
X627810Y452950D01*
X627300Y450240D01*
X627810Y447530D01*
X629330Y445840D01*
X631110Y444820D01*
X637460D01*
G01X631110D02*
X627300Y435000D01*
G01X612060Y455320D02*
Y435000D01*
G01X617900Y455320D02*
X606220D01*
G01X655000Y572500D02*
X595000D01*
Y507500D01*
X655000D01*
Y572500D01*
G01Y722500D02*
X595000D01*
Y657500D01*
X655000D01*
Y722500D01*
G01X607500Y712500D02*
G03I-2500J0D01*
G01X603250Y742500D02*
G03I-1250J0D01*
G01X641000Y926000D02*
X637000D01*
Y874000D01*
X641000D01*
G01X662380Y1120000D02*
Y1140320D01*
X665430Y1136260D01*
G01Y1120000D02*
X659330D01*
G01X642060D02*
Y1140320D01*
X645110Y1136260D01*
G01Y1120000D02*
X639010D01*
G01X621740Y1140320D02*
X623770Y1139640D01*
X625300Y1137950D01*
X626310Y1135920D01*
X627070Y1133210D01*
X627330Y1130160D01*
X627070Y1127110D01*
X626310Y1124400D01*
X625300Y1122370D01*
X623770Y1120680D01*
X621740Y1120000D01*
X619710Y1120680D01*
X618180Y1122370D01*
X617170Y1124400D01*
X616410Y1127110D01*
X616150Y1130160D01*
X616410Y1133210D01*
X617170Y1135920D01*
X618180Y1137950D01*
X619710Y1139640D01*
X621740Y1140320D01*
G01X599390Y1130840D02*
X598370Y1131850D01*
X597610Y1133550D01*
X597100Y1135920D01*
X597610Y1137950D01*
X598630Y1139300D01*
X600400Y1140320D01*
X607260D01*
Y1120000D01*
X598880D01*
X597100Y1121350D01*
X596090Y1123390D01*
X595580Y1125760D01*
X596090Y1128130D01*
X597610Y1130160D01*
X599390Y1130840D01*
X607260D01*
G01X641000Y1236000D02*
X637000D01*
Y1184000D01*
X641000D01*
G01Y1386000D02*
X637000D01*
Y1334000D01*
X641000D01*
G01X756000Y544000D02*
Y548000D01*
X704000D01*
Y544000D01*
G01X756000Y516000D02*
Y512000D01*
X704000D01*
Y516000D01*
G01X756000Y566000D02*
Y562000D01*
X704000D01*
Y566000D01*
G01X680500Y505000D02*
X669500D01*
G01X756000Y631000D02*
Y627000D01*
G01X704000D02*
Y631000D01*
G01X685000Y645000D02*
X694000D01*
G01X686000Y653000D02*
Y637000D01*
G01X756000Y594000D02*
Y598000D01*
X704000D01*
Y594000D01*
G01X756000Y709000D02*
Y713000D01*
X704000D01*
Y709000D01*
G01X756000Y681000D02*
Y677000D01*
X704000D01*
Y681000D01*
G01X678000Y695000D02*
X694000D01*
G01X686000Y703000D02*
Y687000D01*
G01X756000Y659000D02*
Y663000D01*
X704000D01*
Y659000D01*
G01X756000Y731000D02*
Y727000D01*
X704000D01*
Y731000D01*
G01X680500Y655000D02*
X669500D01*
G01X756000Y759000D02*
Y763000D01*
X704000D01*
Y759000D01*
G01X678000Y745000D02*
X694000D01*
G01X686000Y753000D02*
Y737000D01*
G01X756000Y781000D02*
Y777000D01*
X704000D01*
Y781000D01*
G01X678000Y795000D02*
X694000D01*
G01X686000Y803000D02*
Y787000D01*
G01X669000Y926000D02*
X673000D01*
Y874000D01*
X669000D01*
G01X756000Y809000D02*
Y813000D01*
X704000D01*
Y809000D01*
G01X774500Y922000D02*
Y982000D01*
X709500D01*
Y922000D01*
X774500D01*
G01X777210Y1136930D02*
X775680Y1138970D01*
X773900Y1139980D01*
X771870Y1140320D01*
X769330Y1139640D01*
X767550Y1137950D01*
X767050Y1135920D01*
X767300Y1133880D01*
X768320Y1132190D01*
X773400Y1128810D01*
X775680Y1126430D01*
X777210Y1123050D01*
X777710Y1120000D01*
X767050D01*
G01X756890Y1136930D02*
X755360Y1138970D01*
X753580Y1139980D01*
X751550Y1140320D01*
X749010Y1139640D01*
X747230Y1137950D01*
X746730Y1135920D01*
X746980Y1133880D01*
X748000Y1132190D01*
X753080Y1128810D01*
X755360Y1126430D01*
X756890Y1123050D01*
X757390Y1120000D01*
X746730D01*
G01X731740Y1140320D02*
X733770Y1139640D01*
X735300Y1137950D01*
X736310Y1135920D01*
X737070Y1133210D01*
X737330Y1130160D01*
X737070Y1127110D01*
X736310Y1124400D01*
X735300Y1122370D01*
X733770Y1120680D01*
X731740Y1120000D01*
X729710Y1120680D01*
X728180Y1122370D01*
X727170Y1124400D01*
X726410Y1127110D01*
X726150Y1130160D01*
X726410Y1133210D01*
X727170Y1135920D01*
X728180Y1137950D01*
X729710Y1139640D01*
X731740Y1140320D01*
G01X709390Y1130840D02*
X708370Y1131850D01*
X707610Y1133550D01*
X707100Y1135920D01*
X707610Y1137950D01*
X708630Y1139300D01*
X710400Y1140320D01*
X717260D01*
Y1120000D01*
X708880D01*
X707100Y1121350D01*
X706090Y1123390D01*
X705580Y1125760D01*
X706090Y1128130D01*
X707610Y1130160D01*
X709390Y1130840D01*
X717260D01*
G01X669000Y1236000D02*
X673000D01*
Y1184000D01*
X669000D01*
G01X774500Y1232000D02*
Y1292000D01*
X709500D01*
Y1232000D01*
X774500D01*
G01X669000Y1386000D02*
X673000D01*
Y1334000D01*
X669000D01*
G01X774500Y1382000D02*
Y1442000D01*
X709500D01*
Y1382000D01*
X774500D01*
G01X786000Y596000D02*
X782000D01*
Y544000D01*
X786000D01*
G01X814000Y596000D02*
X818000D01*
Y544000D01*
X814000D01*
G01X786000Y701000D02*
X782000D01*
Y649000D01*
X786000D01*
G01X814000Y701000D02*
X818000D01*
Y649000D01*
X814000D01*
G01X800000Y623000D02*
Y639000D01*
G01X792000Y631000D02*
X808000D01*
G01X800000Y723000D02*
Y739000D01*
G01X786000Y801000D02*
X782000D01*
Y749000D01*
X786000D01*
G01X814000Y801000D02*
X818000D01*
Y749000D01*
X814000D01*
G01X792000Y731000D02*
X808000D01*
G01X804000Y1625800D02*
X808000D01*
Y1677800D01*
X804000D01*
G01X776000Y1625800D02*
X772000D01*
Y1677800D01*
X776000D01*
G01X804000Y1727400D02*
X808000D01*
Y1779400D01*
X804000D01*
G01X776000Y1727400D02*
X772000D01*
Y1779400D01*
X776000D01*
G01X804000Y1829000D02*
X808000D01*
Y1881000D01*
X804000D01*
G01X776000Y1829000D02*
X772000D01*
Y1881000D01*
X776000D01*
G01X804000Y1934000D02*
X808000D01*
Y1986000D01*
X804000D01*
G01X776000Y1934000D02*
X772000D01*
Y1986000D01*
X776000D01*
G54D11*
G01X305180Y483180D02*
G03X303180Y485180I-2000J0D01*
G01D02*
G03X301180Y483180I0J-2000D01*
G01D02*
G03X303180Y481180I2000J0D01*
G01D02*
G03X305180Y483180I0J2000D01*
G01X327440Y492720D02*
G03I-2000J0D01*
G01X305180Y668180D02*
G03I-2000J0D01*
G01X327440Y677720D02*
G03I-2000J0D01*
G01X756000Y627000D02*
X704000D01*
G54D12*
G01X357570Y944700D02*
G03I-2495J0D01*
G01Y1254700D02*
G03I-2495J0D01*
G01Y1404700D02*
G03I-2495J0D01*
G01X344250Y1852000D02*
G03I-2500J0D01*
G01X607500Y562500D02*
G03I-2500J0D01*
G01X767000Y972000D02*
G03I-2500J0D01*
G01Y1282000D02*
G03I-2500J0D01*
G01Y1432000D02*
G03I-2500J0D01*
G54D13*
G01X167110Y612350D02*
X163890D01*
Y608540D01*
X164860Y607270D01*
X165980Y606420D01*
X167590Y606000D01*
X169200Y606420D01*
X170330Y607270D01*
X171290Y608540D01*
X171940Y610020D01*
X172260Y611710D01*
Y613200D01*
X171940Y614470D01*
X171290Y615950D01*
X170330Y617220D01*
X169360Y618060D01*
X168080Y618700D01*
X166950D01*
X165660Y618280D01*
X164700Y617430D01*
G01X158820Y606000D02*
Y618700D01*
X151430Y606000D01*
Y618700D01*
G01X145710Y606000D02*
Y618700D01*
X142500D01*
X141210Y618060D01*
X140240Y617220D01*
X139440Y615950D01*
X138800Y614470D01*
X138640Y612350D01*
X138800Y610230D01*
X139440Y608750D01*
X140240Y607480D01*
X141210Y606630D01*
X142500Y606000D01*
X145710D01*
G01X132440D02*
Y618700D01*
X128420D01*
X127130Y618060D01*
X126330Y617220D01*
X126010Y615520D01*
X126330Y613830D01*
X127290Y612770D01*
X128420Y612140D01*
X132440D01*
G01X128420D02*
X126010Y606000D01*
G01X156940Y1684230D02*
X153080D01*
G01X155180Y1686990D02*
Y1681480D01*
G01X145760Y1681900D02*
X144800Y1680850D01*
X143670Y1680210D01*
X142230Y1680000D01*
X140780Y1680420D01*
X139650Y1681270D01*
X138850Y1682750D01*
X138690Y1684440D01*
X139010Y1686140D01*
X139810Y1687200D01*
X140940Y1688040D01*
X142060Y1688250D01*
X143190Y1688040D01*
X144640Y1687200D01*
X144160Y1692700D01*
X139810D01*
G01X127990Y1686770D02*
X127340Y1687410D01*
X126860Y1688470D01*
X126540Y1689950D01*
X126860Y1691220D01*
X127510Y1692060D01*
X128630Y1692700D01*
X132970D01*
Y1680000D01*
X127670D01*
X126540Y1680850D01*
X125900Y1682120D01*
X125580Y1683600D01*
X125900Y1685080D01*
X126860Y1686350D01*
X127990Y1686770D01*
X132970D01*
G01X119540Y1680000D02*
Y1692700D01*
X115520D01*
X114230Y1692060D01*
X113430Y1691220D01*
X113110Y1689520D01*
X113430Y1687830D01*
X114390Y1686770D01*
X115520Y1686140D01*
X119540D01*
G01X115520D02*
X113110Y1680000D01*
G01X202490Y510000D02*
Y522700D01*
X199280D01*
X197990Y522060D01*
X197020Y521220D01*
X196220Y519950D01*
X195580Y518470D01*
X195420Y516350D01*
X195580Y514230D01*
X196220Y512750D01*
X197020Y511480D01*
X197990Y510630D01*
X199280Y510000D01*
X202490D01*
G01X189540D02*
Y522700D01*
X186330D01*
X185040Y522060D01*
X184070Y521220D01*
X183270Y519950D01*
X182630Y518470D01*
X182470Y516350D01*
X182630Y514230D01*
X183270Y512750D01*
X184070Y511480D01*
X185040Y510630D01*
X186330Y510000D01*
X189540D01*
G01X176590Y512540D02*
X175630Y511060D01*
X174340Y510210D01*
X172890Y510000D01*
X171610Y510210D01*
X170320Y511270D01*
X169520Y512540D01*
X169360Y513810D01*
X169680Y515290D01*
X170800Y516350D01*
X171930Y516770D01*
X173380D01*
G01X171930D02*
X170960Y517410D01*
X170160Y518470D01*
X169840Y519740D01*
X170160Y521010D01*
X170960Y522060D01*
X172410Y522700D01*
X173860Y522490D01*
X175310Y521640D01*
G01X179690Y580000D02*
Y592700D01*
X175670D01*
X174380Y592060D01*
X173580Y591220D01*
X173260Y589520D01*
X173580Y587830D01*
X174540Y586770D01*
X175670Y586140D01*
X179690D01*
G01X175670D02*
X173260Y580000D01*
G01X166260Y581480D02*
X165130Y580420D01*
X163850Y580000D01*
X162560Y580420D01*
X161430Y581690D01*
X160630Y583600D01*
X160310Y585500D01*
Y587830D01*
X160630Y589740D01*
X161430Y591430D01*
X162400Y592280D01*
X163530Y592700D01*
X164810Y592280D01*
X165780Y591430D01*
X166420Y590160D01*
X166740Y588470D01*
X166420Y586990D01*
X165620Y585500D01*
X164650Y584660D01*
X163530Y584440D01*
X162240Y584870D01*
X161270Y585930D01*
X160310Y587830D01*
G01X207420Y623640D02*
X208380Y624280D01*
X209510Y624700D01*
X210790D01*
X212240Y624060D01*
X213370Y623010D01*
X214170Y621740D01*
X214820Y619620D01*
X214980Y617710D01*
X214650Y615810D01*
X214170Y614540D01*
X213210Y613270D01*
X212080Y612420D01*
X210960Y612000D01*
X209830D01*
X208700Y612420D01*
X207740Y613060D01*
X206930Y613900D01*
G01X198010Y612000D02*
Y624700D01*
X199940Y622160D01*
G01Y612000D02*
X196080D01*
G01X185060Y624700D02*
X186340Y624280D01*
X187310Y623220D01*
X187950Y621950D01*
X188430Y620250D01*
X188590Y618350D01*
X188430Y616440D01*
X187950Y614750D01*
X187310Y613480D01*
X186340Y612420D01*
X185060Y612000D01*
X183770Y612420D01*
X182800Y613480D01*
X182160Y614750D01*
X181680Y616440D01*
X181520Y618350D01*
X181680Y620250D01*
X182160Y621950D01*
X182800Y623220D01*
X183770Y624280D01*
X185060Y624700D01*
G01X201000Y595000D02*
X209000D01*
G01X214490Y694000D02*
Y706700D01*
X211280D01*
X209990Y706060D01*
X209020Y705220D01*
X208220Y703950D01*
X207580Y702470D01*
X207420Y700350D01*
X207580Y698230D01*
X208220Y696750D01*
X209020Y695480D01*
X209990Y694630D01*
X211280Y694000D01*
X214490D01*
G01X201540D02*
Y706700D01*
X198330D01*
X197040Y706060D01*
X196070Y705220D01*
X195270Y703950D01*
X194630Y702470D01*
X194470Y700350D01*
X194630Y698230D01*
X195270Y696750D01*
X196070Y695480D01*
X197040Y694630D01*
X198330Y694000D01*
X201540D01*
G01X185060D02*
Y706700D01*
X186990Y704160D01*
G01Y694000D02*
X183130D01*
G01X158550Y660000D02*
X151800Y672700D01*
G01X158550D02*
X151800Y660000D01*
G01X145760Y661900D02*
X144800Y660850D01*
X143670Y660210D01*
X142230Y660000D01*
X140780Y660420D01*
X139650Y661270D01*
X138850Y662750D01*
X138690Y664440D01*
X139010Y666140D01*
X139810Y667200D01*
X140940Y668040D01*
X142060Y668250D01*
X143190Y668040D01*
X144640Y667200D01*
X144160Y672700D01*
X139810D01*
G01X175690Y758000D02*
Y770700D01*
X171670D01*
X170380Y770060D01*
X169580Y769220D01*
X169260Y767520D01*
X169580Y765830D01*
X170540Y764770D01*
X171670Y764140D01*
X175690D01*
G01X171670D02*
X169260Y758000D01*
G01X159850D02*
X159530Y760750D01*
X159040Y763080D01*
X158400Y765200D01*
X157590Y767520D01*
X156310Y770700D01*
X162740D01*
G01X208940Y803640D02*
X209900Y804280D01*
X211030Y804700D01*
X212310D01*
X213760Y804060D01*
X214890Y803010D01*
X215690Y801740D01*
X216340Y799620D01*
X216500Y797710D01*
X216170Y795810D01*
X215690Y794540D01*
X214730Y793270D01*
X213600Y792420D01*
X212480Y792000D01*
X211350D01*
X210220Y792420D01*
X209260Y793060D01*
X208450Y793900D01*
G01X199530Y792000D02*
Y804700D01*
X201460Y802160D01*
G01Y792000D02*
X197600D01*
G01X201000Y775000D02*
X209000D01*
G01X228170Y1844000D02*
Y1856700D01*
X224150D01*
X222860Y1856060D01*
X222060Y1855220D01*
X221740Y1853520D01*
X222060Y1851830D01*
X223020Y1850770D01*
X224150Y1850140D01*
X228170D01*
G01X224150D02*
X221740Y1844000D01*
G01X215540Y1846540D02*
X214580Y1845060D01*
X213290Y1844210D01*
X211840Y1844000D01*
X210560Y1844210D01*
X209270Y1845270D01*
X208470Y1846540D01*
X208310Y1847810D01*
X208630Y1849290D01*
X209750Y1850350D01*
X210880Y1850770D01*
X212330D01*
G01X210880D02*
X209910Y1851410D01*
X209110Y1852470D01*
X208790Y1853740D01*
X209110Y1855010D01*
X209910Y1856060D01*
X211360Y1856700D01*
X212810Y1856490D01*
X214260Y1855640D01*
G01X202590Y1846540D02*
X201630Y1845060D01*
X200340Y1844210D01*
X198890Y1844000D01*
X197610Y1844210D01*
X196320Y1845270D01*
X195520Y1846540D01*
X195360Y1847810D01*
X195680Y1849290D01*
X196800Y1850350D01*
X197930Y1850770D01*
X199380D01*
G01X197930D02*
X196960Y1851410D01*
X196160Y1852470D01*
X195840Y1853740D01*
X196160Y1855010D01*
X196960Y1856060D01*
X198410Y1856700D01*
X199860Y1856490D01*
X201310Y1855640D01*
G01X228170Y1874000D02*
Y1886700D01*
X224150D01*
X222860Y1886060D01*
X222060Y1885220D01*
X221740Y1883520D01*
X222060Y1881830D01*
X223020Y1880770D01*
X224150Y1880140D01*
X228170D01*
G01X224150D02*
X221740Y1874000D01*
G01X215540Y1876540D02*
X214580Y1875060D01*
X213290Y1874210D01*
X211840Y1874000D01*
X210560Y1874210D01*
X209270Y1875270D01*
X208470Y1876540D01*
X208310Y1877810D01*
X208630Y1879290D01*
X209750Y1880350D01*
X210880Y1880770D01*
X212330D01*
G01X210880D02*
X209910Y1881410D01*
X209110Y1882470D01*
X208790Y1883740D01*
X209110Y1885010D01*
X209910Y1886060D01*
X211360Y1886700D01*
X212810Y1886490D01*
X214260Y1885640D01*
G01X197120Y1874000D02*
Y1886700D01*
X203080Y1877600D01*
X195030D01*
G01X228170Y1904000D02*
Y1916700D01*
X224150D01*
X222860Y1916060D01*
X222060Y1915220D01*
X221740Y1913520D01*
X222060Y1911830D01*
X223020Y1910770D01*
X224150Y1910140D01*
X228170D01*
G01X224150D02*
X221740Y1904000D01*
G01X215540Y1906540D02*
X214580Y1905060D01*
X213290Y1904210D01*
X211840Y1904000D01*
X210560Y1904210D01*
X209270Y1905270D01*
X208470Y1906540D01*
X208310Y1907810D01*
X208630Y1909290D01*
X209750Y1910350D01*
X210880Y1910770D01*
X212330D01*
G01X210880D02*
X209910Y1911410D01*
X209110Y1912470D01*
X208790Y1913740D01*
X209110Y1915010D01*
X209910Y1916060D01*
X211360Y1916700D01*
X212810Y1916490D01*
X214260Y1915640D01*
G01X202590Y1905900D02*
X201630Y1904850D01*
X200500Y1904210D01*
X199060Y1904000D01*
X197610Y1904420D01*
X196480Y1905270D01*
X195680Y1906750D01*
X195520Y1908440D01*
X195840Y1910140D01*
X196640Y1911200D01*
X197770Y1912040D01*
X198890Y1912250D01*
X200020Y1912040D01*
X201470Y1911200D01*
X200990Y1916700D01*
X196640D01*
G01X226170Y1934000D02*
Y1946700D01*
X222150D01*
X220860Y1946060D01*
X220060Y1945220D01*
X219740Y1943520D01*
X220060Y1941830D01*
X221020Y1940770D01*
X222150Y1940140D01*
X226170D01*
G01X222150D02*
X219740Y1934000D01*
G01X213540Y1936540D02*
X212580Y1935060D01*
X211290Y1934210D01*
X209840Y1934000D01*
X208560Y1934210D01*
X207270Y1935270D01*
X206470Y1936540D01*
X206310Y1937810D01*
X206630Y1939290D01*
X207750Y1940350D01*
X208880Y1940770D01*
X210330D01*
G01X208880D02*
X207910Y1941410D01*
X207110Y1942470D01*
X206790Y1943740D01*
X207110Y1945010D01*
X207910Y1946060D01*
X209360Y1946700D01*
X210810Y1946490D01*
X212260Y1945640D01*
G01X200110Y1939290D02*
X198990Y1940770D01*
X198020Y1941620D01*
X196730Y1942040D01*
X195610Y1941620D01*
X194800Y1940770D01*
X194160Y1939500D01*
X194000Y1938020D01*
X194160Y1936750D01*
X194800Y1935480D01*
X195770Y1934420D01*
X196890Y1934000D01*
X198180Y1934420D01*
X199310Y1935690D01*
X199950Y1937600D01*
X200110Y1939710D01*
X199790Y1942470D01*
X199310Y1943950D01*
X198500Y1945430D01*
X197380Y1946490D01*
X196250Y1946700D01*
X195120Y1946280D01*
X194320Y1945220D01*
G01X235420Y475640D02*
X236380Y476280D01*
X237510Y476700D01*
X238790D01*
X240240Y476060D01*
X241370Y475010D01*
X242170Y473740D01*
X242820Y471620D01*
X242980Y469710D01*
X242650Y467810D01*
X242170Y466540D01*
X241210Y465270D01*
X240080Y464420D01*
X238960Y464000D01*
X237830D01*
X236700Y464420D01*
X235740Y465060D01*
X234930Y465900D01*
G01X226010Y464000D02*
Y476700D01*
X227940Y474160D01*
G01Y464000D02*
X224080D01*
G01X216590Y465900D02*
X215630Y464850D01*
X214500Y464210D01*
X213060Y464000D01*
X211610Y464420D01*
X210480Y465270D01*
X209680Y466750D01*
X209520Y468440D01*
X209840Y470140D01*
X210640Y471200D01*
X211770Y472040D01*
X212890Y472250D01*
X214020Y472040D01*
X215470Y471200D01*
X214990Y476700D01*
X210640D01*
G01X249000Y495000D02*
X241000D01*
G01X287420Y475640D02*
X288380Y476280D01*
X289510Y476700D01*
X290790D01*
X292240Y476060D01*
X293370Y475010D01*
X294170Y473740D01*
X294820Y471620D01*
X294980Y469710D01*
X294650Y467810D01*
X294170Y466540D01*
X293210Y465270D01*
X292080Y464420D01*
X290960Y464000D01*
X289830D01*
X288700Y464420D01*
X287740Y465060D01*
X286930Y465900D01*
G01X278010Y464000D02*
Y476700D01*
X279940Y474160D01*
G01Y464000D02*
X276080D01*
G01X268110Y469290D02*
X266990Y470770D01*
X266020Y471620D01*
X264730Y472040D01*
X263610Y471620D01*
X262800Y470770D01*
X262160Y469500D01*
X262000Y468020D01*
X262160Y466750D01*
X262800Y465480D01*
X263770Y464420D01*
X264890Y464000D01*
X266180Y464420D01*
X267310Y465690D01*
X267950Y467600D01*
X268110Y469710D01*
X267790Y472470D01*
X267310Y473950D01*
X266500Y475430D01*
X265380Y476490D01*
X264250Y476700D01*
X263120Y476280D01*
X262320Y475220D01*
G01X274000Y495000D02*
X266000D01*
G01X252000Y525820D02*
X264700D01*
Y529840D01*
X264060Y531130D01*
X263220Y531930D01*
X261520Y532250D01*
X259830Y531930D01*
X258770Y530970D01*
X258140Y529840D01*
Y525820D01*
G01Y529840D02*
X252000Y532250D01*
G01Y541980D02*
X264700D01*
X262160Y540050D01*
G01X252000D02*
Y543910D01*
G01X254540Y551400D02*
X253060Y552360D01*
X252210Y553650D01*
X252000Y555100D01*
X252210Y556380D01*
X253270Y557670D01*
X254540Y558470D01*
X255810Y558630D01*
X257290Y558310D01*
X258350Y557190D01*
X258770Y556060D01*
Y554610D01*
G01Y556060D02*
X259410Y557030D01*
X260470Y557830D01*
X261740Y558150D01*
X263010Y557830D01*
X264060Y557030D01*
X264700Y555580D01*
X264490Y554130D01*
X263640Y552680D01*
G01X242940Y661640D02*
X243900Y662280D01*
X245030Y662700D01*
X246310D01*
X247760Y662060D01*
X248890Y661010D01*
X249690Y659740D01*
X250340Y657620D01*
X250500Y655710D01*
X250170Y653810D01*
X249690Y652540D01*
X248730Y651270D01*
X247600Y650420D01*
X246480Y650000D01*
X245350D01*
X244220Y650420D01*
X243260Y651060D01*
X242450Y651900D01*
G01X231590Y650000D02*
Y662700D01*
X237550Y653600D01*
X229500D01*
G01X272940Y661640D02*
X273900Y662280D01*
X275030Y662700D01*
X276310D01*
X277760Y662060D01*
X278890Y661010D01*
X279690Y659740D01*
X280340Y657620D01*
X280500Y655710D01*
X280170Y653810D01*
X279690Y652540D01*
X278730Y651270D01*
X277600Y650420D01*
X276480Y650000D01*
X275350D01*
X274220Y650420D01*
X273260Y651060D01*
X272450Y651900D01*
G01X267060D02*
X266100Y650850D01*
X264970Y650210D01*
X263530Y650000D01*
X262080Y650420D01*
X260950Y651270D01*
X260150Y652750D01*
X259990Y654440D01*
X260310Y656140D01*
X261110Y657200D01*
X262240Y658040D01*
X263360Y658250D01*
X264490Y658040D01*
X265940Y657200D01*
X265460Y662700D01*
X261110D01*
G01X283420Y629640D02*
X284380Y630280D01*
X285510Y630700D01*
X286790D01*
X288240Y630060D01*
X289370Y629010D01*
X290170Y627740D01*
X290820Y625620D01*
X290980Y623710D01*
X290650Y621810D01*
X290170Y620540D01*
X289210Y619270D01*
X288080Y618420D01*
X286960Y618000D01*
X285830D01*
X284700Y618420D01*
X283740Y619060D01*
X282930Y619900D01*
G01X274010Y618000D02*
Y630700D01*
X275940Y628160D01*
G01Y618000D02*
X272080D01*
G01X259120D02*
Y630700D01*
X265080Y621600D01*
X257030D01*
G01X266000Y595000D02*
X274000D01*
G01X246420Y636640D02*
X247380Y637280D01*
X248510Y637700D01*
X249790D01*
X251240Y637060D01*
X252370Y636010D01*
X253170Y634740D01*
X253820Y632620D01*
X253980Y630710D01*
X253650Y628810D01*
X253170Y627540D01*
X252210Y626270D01*
X251080Y625420D01*
X249960Y625000D01*
X248830D01*
X247700Y625420D01*
X246740Y626060D01*
X245930Y626900D01*
G01X237010Y625000D02*
Y637700D01*
X238940Y635160D01*
G01Y625000D02*
X235080D01*
G01X227590Y627540D02*
X226630Y626060D01*
X225340Y625210D01*
X223890Y625000D01*
X222610Y625210D01*
X221320Y626270D01*
X220520Y627540D01*
X220360Y628810D01*
X220680Y630290D01*
X221800Y631350D01*
X222930Y631770D01*
X224380D01*
G01X222930D02*
X221960Y632410D01*
X221160Y633470D01*
X220840Y634740D01*
X221160Y636010D01*
X221960Y637060D01*
X223410Y637700D01*
X224860Y637490D01*
X226310Y636640D01*
G01X254000Y720310D02*
X266700D01*
Y724330D01*
X266060Y725620D01*
X265220Y726420D01*
X263520Y726740D01*
X261830Y726420D01*
X260770Y725460D01*
X260140Y724330D01*
Y720310D01*
G01Y724330D02*
X254000Y726740D01*
G01X259290Y733420D02*
X260770Y734540D01*
X261620Y735510D01*
X262040Y736800D01*
X261620Y737920D01*
X260770Y738730D01*
X259500Y739370D01*
X258020Y739530D01*
X256750Y739370D01*
X255480Y738730D01*
X254420Y737760D01*
X254000Y736640D01*
X254420Y735350D01*
X255690Y734220D01*
X257600Y733580D01*
X259710Y733420D01*
X262470Y733740D01*
X263950Y734220D01*
X265430Y735030D01*
X266490Y736150D01*
X266700Y737280D01*
X266280Y738410D01*
X265220Y739210D01*
G01X249000Y680000D02*
X241000D01*
G01X274000D02*
X266000D01*
G01X274940Y809640D02*
X275900Y810280D01*
X277030Y810700D01*
X278310D01*
X279760Y810060D01*
X280890Y809010D01*
X281690Y807740D01*
X282340Y805620D01*
X282500Y803710D01*
X282170Y801810D01*
X281690Y800540D01*
X280730Y799270D01*
X279600Y798420D01*
X278480Y798000D01*
X277350D01*
X276220Y798420D01*
X275260Y799060D01*
X274450Y799900D01*
G01X269060Y800540D02*
X268100Y799060D01*
X266810Y798210D01*
X265360Y798000D01*
X264080Y798210D01*
X262790Y799270D01*
X261990Y800540D01*
X261830Y801810D01*
X262150Y803290D01*
X263270Y804350D01*
X264400Y804770D01*
X265850D01*
G01X264400D02*
X263430Y805410D01*
X262630Y806470D01*
X262310Y807740D01*
X262630Y809010D01*
X263430Y810060D01*
X264880Y810700D01*
X266330Y810490D01*
X267780Y809640D01*
G01X266000Y780000D02*
X274000D01*
G01X242940Y821640D02*
X243900Y822280D01*
X245030Y822700D01*
X246310D01*
X247760Y822060D01*
X248890Y821010D01*
X249690Y819740D01*
X250340Y817620D01*
X250500Y815710D01*
X250170Y813810D01*
X249690Y812540D01*
X248730Y811270D01*
X247600Y810420D01*
X246480Y810000D01*
X245350D01*
X244220Y810420D01*
X243260Y811060D01*
X242450Y811900D01*
G01X236580Y820580D02*
X235620Y821850D01*
X234490Y822490D01*
X233200Y822700D01*
X231590Y822280D01*
X230470Y821220D01*
X230150Y819950D01*
X230310Y818680D01*
X230950Y817620D01*
X234170Y815500D01*
X235620Y814020D01*
X236580Y811900D01*
X236900Y810000D01*
X230150D01*
G01X288170Y942000D02*
Y954700D01*
X284150D01*
X282860Y954060D01*
X282060Y953220D01*
X281740Y951520D01*
X282060Y949830D01*
X283020Y948770D01*
X284150Y948140D01*
X288170D01*
G01X284150D02*
X281740Y942000D01*
G01X275540Y944540D02*
X274580Y943060D01*
X273290Y942210D01*
X271840Y942000D01*
X270560Y942210D01*
X269270Y943270D01*
X268470Y944540D01*
X268310Y945810D01*
X268630Y947290D01*
X269750Y948350D01*
X270880Y948770D01*
X272330D01*
G01X270880D02*
X269910Y949410D01*
X269110Y950470D01*
X268790Y951740D01*
X269110Y953010D01*
X269910Y954060D01*
X271360Y954700D01*
X272810Y954490D01*
X274260Y953640D01*
G01X259060Y954700D02*
X260340Y954280D01*
X261310Y953220D01*
X261950Y951950D01*
X262430Y950250D01*
X262590Y948350D01*
X262430Y946440D01*
X261950Y944750D01*
X261310Y943480D01*
X260340Y942420D01*
X259060Y942000D01*
X257770Y942420D01*
X256800Y943480D01*
X256160Y944750D01*
X255680Y946440D01*
X255520Y948350D01*
X255680Y950250D01*
X256160Y951950D01*
X256800Y953220D01*
X257770Y954280D01*
X259060Y954700D01*
G01X303420Y1005640D02*
X304380Y1006280D01*
X305510Y1006700D01*
X306790D01*
X308240Y1006060D01*
X309370Y1005010D01*
X310170Y1003740D01*
X310820Y1001620D01*
X310980Y999710D01*
X310650Y997810D01*
X310170Y996540D01*
X309210Y995270D01*
X308080Y994420D01*
X306960Y994000D01*
X305830D01*
X304700Y994420D01*
X303740Y995060D01*
X302930Y995900D01*
G01X297060Y1004580D02*
X296100Y1005850D01*
X294970Y1006490D01*
X293680Y1006700D01*
X292070Y1006280D01*
X290950Y1005220D01*
X290630Y1003950D01*
X290790Y1002680D01*
X291430Y1001620D01*
X294650Y999500D01*
X296100Y998020D01*
X297060Y995900D01*
X297380Y994000D01*
X290630D01*
G01X281060D02*
Y1006700D01*
X282990Y1004160D01*
G01Y994000D02*
X279130D01*
G01X281000Y975000D02*
X289000D01*
G01X288170Y1252000D02*
Y1264700D01*
X284150D01*
X282860Y1264060D01*
X282060Y1263220D01*
X281740Y1261520D01*
X282060Y1259830D01*
X283020Y1258770D01*
X284150Y1258140D01*
X288170D01*
G01X284150D02*
X281740Y1252000D01*
G01X275060Y1262580D02*
X274100Y1263850D01*
X272970Y1264490D01*
X271680Y1264700D01*
X270070Y1264280D01*
X268950Y1263220D01*
X268630Y1261950D01*
X268790Y1260680D01*
X269430Y1259620D01*
X272650Y1257500D01*
X274100Y1256020D01*
X275060Y1253900D01*
X275380Y1252000D01*
X268630D01*
G01X257120D02*
Y1264700D01*
X263080Y1255600D01*
X255030D01*
G01X295420Y1317640D02*
X296380Y1318280D01*
X297510Y1318700D01*
X298790D01*
X300240Y1318060D01*
X301370Y1317010D01*
X302170Y1315740D01*
X302820Y1313620D01*
X302980Y1311710D01*
X302650Y1309810D01*
X302170Y1308540D01*
X301210Y1307270D01*
X300080Y1306420D01*
X298960Y1306000D01*
X297830D01*
X296700Y1306420D01*
X295740Y1307060D01*
X294930Y1307900D01*
G01X289060Y1316580D02*
X288100Y1317850D01*
X286970Y1318490D01*
X285680Y1318700D01*
X284070Y1318280D01*
X282950Y1317220D01*
X282630Y1315950D01*
X282790Y1314680D01*
X283430Y1313620D01*
X286650Y1311500D01*
X288100Y1310020D01*
X289060Y1307900D01*
X289380Y1306000D01*
X282630D01*
G01X273060Y1318700D02*
X274340Y1318280D01*
X275310Y1317220D01*
X275950Y1315950D01*
X276430Y1314250D01*
X276590Y1312350D01*
X276430Y1310440D01*
X275950Y1308750D01*
X275310Y1307480D01*
X274340Y1306420D01*
X273060Y1306000D01*
X271770Y1306420D01*
X270800Y1307480D01*
X270160Y1308750D01*
X269680Y1310440D01*
X269520Y1312350D01*
X269680Y1314250D01*
X270160Y1315950D01*
X270800Y1317220D01*
X271770Y1318280D01*
X273060Y1318700D01*
G01X281000Y1285000D02*
X289000D01*
G01X288170Y1402000D02*
Y1414700D01*
X284150D01*
X282860Y1414060D01*
X282060Y1413220D01*
X281740Y1411520D01*
X282060Y1409830D01*
X283020Y1408770D01*
X284150Y1408140D01*
X288170D01*
G01X284150D02*
X281740Y1402000D01*
G01X272010D02*
Y1414700D01*
X273940Y1412160D01*
G01Y1402000D02*
X270080D01*
G01X259060D02*
X257930Y1402210D01*
X256640Y1402850D01*
X255840Y1403900D01*
X255520Y1405390D01*
X255840Y1406870D01*
X256800Y1408140D01*
X258250Y1408770D01*
X259860D01*
X260820Y1409200D01*
X261630Y1410250D01*
X261950Y1411740D01*
X261470Y1413220D01*
X260340Y1414280D01*
X259060Y1414700D01*
X257770Y1414280D01*
X256640Y1413220D01*
X256160Y1411740D01*
X256480Y1410250D01*
X257290Y1409200D01*
X258250Y1408770D01*
X259860D01*
X261310Y1408140D01*
X262270Y1406870D01*
X262590Y1405390D01*
X262270Y1403900D01*
X261470Y1402850D01*
X260180Y1402210D01*
X259060Y1402000D01*
G01X295420Y1467640D02*
X296380Y1468280D01*
X297510Y1468700D01*
X298790D01*
X300240Y1468060D01*
X301370Y1467010D01*
X302170Y1465740D01*
X302820Y1463620D01*
X302980Y1461710D01*
X302650Y1459810D01*
X302170Y1458540D01*
X301210Y1457270D01*
X300080Y1456420D01*
X298960Y1456000D01*
X297830D01*
X296700Y1456420D01*
X295740Y1457060D01*
X294930Y1457900D01*
G01X286010Y1456000D02*
Y1468700D01*
X287940Y1466160D01*
G01Y1456000D02*
X284080D01*
G01X275790Y1457480D02*
X274660Y1456420D01*
X273380Y1456000D01*
X272090Y1456420D01*
X270960Y1457690D01*
X270160Y1459600D01*
X269840Y1461500D01*
Y1463830D01*
X270160Y1465740D01*
X270960Y1467430D01*
X271930Y1468280D01*
X273060Y1468700D01*
X274340Y1468280D01*
X275310Y1467430D01*
X275950Y1466160D01*
X276270Y1464470D01*
X275950Y1462990D01*
X275150Y1461500D01*
X274180Y1460660D01*
X273060Y1460440D01*
X271770Y1460870D01*
X270800Y1461930D01*
X269840Y1463830D01*
G01X281000Y1435000D02*
X289000D01*
G01X314770Y1762350D02*
X311550D01*
Y1758540D01*
X312520Y1757270D01*
X313640Y1756420D01*
X315250Y1756000D01*
X316860Y1756420D01*
X317990Y1757270D01*
X318950Y1758540D01*
X319600Y1760020D01*
X319920Y1761710D01*
Y1763200D01*
X319600Y1764470D01*
X318950Y1765950D01*
X317990Y1767220D01*
X317020Y1768060D01*
X315740Y1768700D01*
X314610D01*
X313320Y1768280D01*
X312360Y1767430D01*
G01X306480Y1756000D02*
Y1768700D01*
X299090Y1756000D01*
Y1768700D01*
G01X293370Y1756000D02*
Y1768700D01*
X290160D01*
X288870Y1768060D01*
X287900Y1767220D01*
X287100Y1765950D01*
X286460Y1764470D01*
X286300Y1762350D01*
X286460Y1760230D01*
X287100Y1758750D01*
X287900Y1757480D01*
X288870Y1756630D01*
X290160Y1756000D01*
X293370D01*
G01X273670D02*
X280100D01*
Y1768700D01*
X273670D01*
G01X276240Y1762560D02*
X280100D01*
G01X283550Y1810000D02*
X276800Y1822700D01*
G01X283550D02*
X276800Y1810000D01*
G01X265290D02*
Y1822700D01*
X271250Y1813600D01*
X263200D01*
G01X360710Y624000D02*
Y636700D01*
X357500D01*
X356210Y636060D01*
X355240Y635220D01*
X354440Y633950D01*
X353800Y632470D01*
X353640Y630350D01*
X353800Y628230D01*
X354440Y626750D01*
X355240Y625480D01*
X356210Y624630D01*
X357500Y624000D01*
X360710D01*
G01X347760D02*
Y636700D01*
X344550D01*
X343260Y636060D01*
X342290Y635220D01*
X341490Y633950D01*
X340850Y632470D01*
X340690Y630350D01*
X340850Y628230D01*
X341490Y626750D01*
X342290Y625480D01*
X343260Y624630D01*
X344550Y624000D01*
X347760D01*
G01X329340D02*
Y636700D01*
X335300Y627600D01*
X327250D01*
G01X364710Y810000D02*
Y822700D01*
X361500D01*
X360210Y822060D01*
X359240Y821220D01*
X358440Y819950D01*
X357800Y818470D01*
X357640Y816350D01*
X357800Y814230D01*
X358440Y812750D01*
X359240Y811480D01*
X360210Y810630D01*
X361500Y810000D01*
X364710D01*
G01X351760D02*
Y822700D01*
X348550D01*
X347260Y822060D01*
X346290Y821220D01*
X345490Y819950D01*
X344850Y818470D01*
X344690Y816350D01*
X344850Y814230D01*
X345490Y812750D01*
X346290Y811480D01*
X347260Y810630D01*
X348550Y810000D01*
X351760D01*
G01X338330Y820580D02*
X337370Y821850D01*
X336240Y822490D01*
X334950Y822700D01*
X333340Y822280D01*
X332220Y821220D01*
X331900Y819950D01*
X332060Y818680D01*
X332700Y817620D01*
X335920Y815500D01*
X337370Y814020D01*
X338330Y811900D01*
X338650Y810000D01*
X331900D01*
G01X358980Y956000D02*
X354960Y968700D01*
X350930Y956000D01*
G01X352380Y960440D02*
X357530D01*
G01X346030Y968700D02*
X342010Y956000D01*
X337980Y968700D01*
G01X332590Y958540D02*
X331630Y957060D01*
X330340Y956210D01*
X328890Y956000D01*
X327610Y956210D01*
X326320Y957270D01*
X325520Y958540D01*
X325360Y959810D01*
X325680Y961290D01*
X326800Y962350D01*
X327930Y962770D01*
X329380D01*
G01X327930D02*
X326960Y963410D01*
X326160Y964470D01*
X325840Y965740D01*
X326160Y967010D01*
X326960Y968060D01*
X328410Y968700D01*
X329860Y968490D01*
X331310Y967640D01*
G01X358980Y1266000D02*
X354960Y1278700D01*
X350930Y1266000D01*
G01X352380Y1270440D02*
X357530D01*
G01X346030Y1278700D02*
X342010Y1266000D01*
X337980Y1278700D01*
G01X332110Y1276580D02*
X331150Y1277850D01*
X330020Y1278490D01*
X328730Y1278700D01*
X327120Y1278280D01*
X326000Y1277220D01*
X325680Y1275950D01*
X325840Y1274680D01*
X326480Y1273620D01*
X329700Y1271500D01*
X331150Y1270020D01*
X332110Y1267900D01*
X332430Y1266000D01*
X325680D01*
G01X356980Y1416000D02*
X352960Y1428700D01*
X348930Y1416000D01*
G01X350380Y1420440D02*
X355530D01*
G01X344030Y1428700D02*
X340010Y1416000D01*
X335980Y1428700D01*
G01X327060Y1416000D02*
Y1428700D01*
X328990Y1426160D01*
G01Y1416000D02*
X325130D01*
G01X314420Y1681640D02*
X315380Y1682280D01*
X316510Y1682700D01*
X317790D01*
X319240Y1682060D01*
X320370Y1681010D01*
X321170Y1679740D01*
X321820Y1677620D01*
X321980Y1675710D01*
X321650Y1673810D01*
X321170Y1672540D01*
X320210Y1671270D01*
X319080Y1670420D01*
X317960Y1670000D01*
X316830D01*
X315700Y1670420D01*
X314740Y1671060D01*
X313930Y1671900D01*
G01X308060Y1680580D02*
X307100Y1681850D01*
X305970Y1682490D01*
X304680Y1682700D01*
X303070Y1682280D01*
X301950Y1681220D01*
X301630Y1679950D01*
X301790Y1678680D01*
X302430Y1677620D01*
X305650Y1675500D01*
X307100Y1674020D01*
X308060Y1671900D01*
X308380Y1670000D01*
X301630D01*
G01X295110Y1680580D02*
X294150Y1681850D01*
X293020Y1682490D01*
X291730Y1682700D01*
X290120Y1682280D01*
X289000Y1681220D01*
X288680Y1679950D01*
X288840Y1678680D01*
X289480Y1677620D01*
X292700Y1675500D01*
X294150Y1674020D01*
X295110Y1671900D01*
X295430Y1670000D01*
X288680D01*
G01X301000Y1650000D02*
X309000D01*
G01X380490Y1964000D02*
Y1976700D01*
X377280D01*
X375990Y1976060D01*
X375020Y1975220D01*
X374220Y1973950D01*
X373580Y1972470D01*
X373420Y1970350D01*
X373580Y1968230D01*
X374220Y1966750D01*
X375020Y1965480D01*
X375990Y1964630D01*
X377280Y1964000D01*
X380490D01*
G01X367540D02*
Y1976700D01*
X364330D01*
X363040Y1976060D01*
X362070Y1975220D01*
X361270Y1973950D01*
X360630Y1972470D01*
X360470Y1970350D01*
X360630Y1968230D01*
X361270Y1966750D01*
X362070Y1965480D01*
X363040Y1964630D01*
X364330Y1964000D01*
X367540D01*
G01X354590Y1965900D02*
X353630Y1964850D01*
X352500Y1964210D01*
X351060Y1964000D01*
X349610Y1964420D01*
X348480Y1965270D01*
X347680Y1966750D01*
X347520Y1968440D01*
X347840Y1970140D01*
X348640Y1971200D01*
X349770Y1972040D01*
X350890Y1972250D01*
X352020Y1972040D01*
X353470Y1971200D01*
X352990Y1976700D01*
X348640D01*
G01X419420Y475640D02*
X420380Y476280D01*
X421510Y476700D01*
X422790D01*
X424240Y476060D01*
X425370Y475010D01*
X426170Y473740D01*
X426820Y471620D01*
X426980Y469710D01*
X426650Y467810D01*
X426170Y466540D01*
X425210Y465270D01*
X424080Y464420D01*
X422960Y464000D01*
X421830D01*
X420700Y464420D01*
X419740Y465060D01*
X418930Y465900D01*
G01X410010Y464000D02*
Y476700D01*
X411940Y474160D01*
G01Y464000D02*
X408080D01*
G01X397060D02*
Y476700D01*
X398990Y474160D01*
G01Y464000D02*
X395130D01*
G01X429000Y495000D02*
X421000D01*
G01X412940Y661640D02*
X413900Y662280D01*
X415030Y662700D01*
X416310D01*
X417760Y662060D01*
X418890Y661010D01*
X419690Y659740D01*
X420340Y657620D01*
X420500Y655710D01*
X420170Y653810D01*
X419690Y652540D01*
X418730Y651270D01*
X417600Y650420D01*
X416480Y650000D01*
X415350D01*
X414220Y650420D01*
X413260Y651060D01*
X412450Y651900D01*
G01X403530Y650000D02*
X402400Y650210D01*
X401110Y650850D01*
X400310Y651900D01*
X399990Y653390D01*
X400310Y654870D01*
X401270Y656140D01*
X402720Y656770D01*
X404330D01*
X405290Y657200D01*
X406100Y658250D01*
X406420Y659740D01*
X405940Y661220D01*
X404810Y662280D01*
X403530Y662700D01*
X402240Y662280D01*
X401110Y661220D01*
X400630Y659740D01*
X400950Y658250D01*
X401760Y657200D01*
X402720Y656770D01*
X404330D01*
X405780Y656140D01*
X406740Y654870D01*
X407060Y653390D01*
X406740Y651900D01*
X405940Y650850D01*
X404650Y650210D01*
X403530Y650000D01*
G01X415420Y637640D02*
X416380Y638280D01*
X417510Y638700D01*
X418790D01*
X420240Y638060D01*
X421370Y637010D01*
X422170Y635740D01*
X422820Y633620D01*
X422980Y631710D01*
X422650Y629810D01*
X422170Y628540D01*
X421210Y627270D01*
X420080Y626420D01*
X418960Y626000D01*
X417830D01*
X416700Y626420D01*
X415740Y627060D01*
X414930Y627900D01*
G01X406010Y626000D02*
Y638700D01*
X407940Y636160D01*
G01Y626000D02*
X404080D01*
G01X393380D02*
X393060Y628750D01*
X392570Y631080D01*
X391930Y633200D01*
X391120Y635520D01*
X389840Y638700D01*
X396270D01*
G01X416000Y605000D02*
X424000D01*
G01X407450Y858700D02*
X403430Y846000D01*
X399400Y858700D01*
G01X394010Y846000D02*
Y858700D01*
X390800D01*
X389510Y858060D01*
X388540Y857220D01*
X387740Y855950D01*
X387100Y854470D01*
X386940Y852350D01*
X387100Y850230D01*
X387740Y848750D01*
X388540Y847480D01*
X389510Y846630D01*
X390800Y846000D01*
X394010D01*
G01X380580Y856580D02*
X379620Y857850D01*
X378490Y858490D01*
X377200Y858700D01*
X375590Y858280D01*
X374470Y857220D01*
X374150Y855950D01*
X374310Y854680D01*
X374950Y853620D01*
X378170Y851500D01*
X379620Y850020D01*
X380580Y847900D01*
X380900Y846000D01*
X374150D01*
G01X367630Y851290D02*
X366510Y852770D01*
X365540Y853620D01*
X364250Y854040D01*
X363130Y853620D01*
X362320Y852770D01*
X361680Y851500D01*
X361520Y850020D01*
X361680Y848750D01*
X362320Y847480D01*
X363290Y846420D01*
X364410Y846000D01*
X365700Y846420D01*
X366830Y847690D01*
X367470Y849600D01*
X367630Y851710D01*
X367310Y854470D01*
X366830Y855950D01*
X366020Y857430D01*
X364900Y858490D01*
X363770Y858700D01*
X362640Y858280D01*
X361840Y857220D01*
G01X420940Y821640D02*
X421900Y822280D01*
X423030Y822700D01*
X424310D01*
X425760Y822060D01*
X426890Y821010D01*
X427690Y819740D01*
X428340Y817620D01*
X428500Y815710D01*
X428170Y813810D01*
X427690Y812540D01*
X426730Y811270D01*
X425600Y810420D01*
X424480Y810000D01*
X423350D01*
X422220Y810420D01*
X421260Y811060D01*
X420450Y811900D01*
G01X414580Y815290D02*
X413460Y816770D01*
X412490Y817620D01*
X411200Y818040D01*
X410080Y817620D01*
X409270Y816770D01*
X408630Y815500D01*
X408470Y814020D01*
X408630Y812750D01*
X409270Y811480D01*
X410240Y810420D01*
X411360Y810000D01*
X412650Y810420D01*
X413780Y811690D01*
X414420Y813600D01*
X414580Y815710D01*
X414260Y818470D01*
X413780Y819950D01*
X412970Y821430D01*
X411850Y822490D01*
X410720Y822700D01*
X409590Y822280D01*
X408790Y821220D01*
G01X456170Y950000D02*
Y962700D01*
X452150D01*
X450860Y962060D01*
X450060Y961220D01*
X449740Y959520D01*
X450060Y957830D01*
X451020Y956770D01*
X452150Y956140D01*
X456170D01*
G01X452150D02*
X449740Y950000D01*
G01X443540Y952540D02*
X442580Y951060D01*
X441290Y950210D01*
X439840Y950000D01*
X438560Y950210D01*
X437270Y951270D01*
X436470Y952540D01*
X436310Y953810D01*
X436630Y955290D01*
X437750Y956350D01*
X438880Y956770D01*
X440330D01*
G01X438880D02*
X437910Y957410D01*
X437110Y958470D01*
X436790Y959740D01*
X437110Y961010D01*
X437910Y962060D01*
X439360Y962700D01*
X440810Y962490D01*
X442260Y961640D01*
G01X427060Y950000D02*
Y962700D01*
X428990Y960160D01*
G01Y950000D02*
X425130D01*
G01X417450Y970700D02*
X413430Y958000D01*
X409400Y970700D01*
G01X404010Y958000D02*
Y970700D01*
X400800D01*
X399510Y970060D01*
X398540Y969220D01*
X397740Y967950D01*
X397100Y966470D01*
X396940Y964350D01*
X397100Y962230D01*
X397740Y960750D01*
X398540Y959480D01*
X399510Y958630D01*
X400800Y958000D01*
X404010D01*
G01X390580Y968580D02*
X389620Y969850D01*
X388490Y970490D01*
X387200Y970700D01*
X385590Y970280D01*
X384470Y969220D01*
X384150Y967950D01*
X384310Y966680D01*
X384950Y965620D01*
X388170Y963500D01*
X389620Y962020D01*
X390580Y959900D01*
X390900Y958000D01*
X384150D01*
G01X372640D02*
Y970700D01*
X378600Y961600D01*
X370550D01*
G01X407450Y1166700D02*
X403430Y1154000D01*
X399400Y1166700D01*
G01X394010Y1154000D02*
Y1166700D01*
X390800D01*
X389510Y1166060D01*
X388540Y1165220D01*
X387740Y1163950D01*
X387100Y1162470D01*
X386940Y1160350D01*
X387100Y1158230D01*
X387740Y1156750D01*
X388540Y1155480D01*
X389510Y1154630D01*
X390800Y1154000D01*
X394010D01*
G01X380580Y1164580D02*
X379620Y1165850D01*
X378490Y1166490D01*
X377200Y1166700D01*
X375590Y1166280D01*
X374470Y1165220D01*
X374150Y1163950D01*
X374310Y1162680D01*
X374950Y1161620D01*
X378170Y1159500D01*
X379620Y1158020D01*
X380580Y1155900D01*
X380900Y1154000D01*
X374150D01*
G01X368110Y1156540D02*
X367150Y1155060D01*
X365860Y1154210D01*
X364410Y1154000D01*
X363130Y1154210D01*
X361840Y1155270D01*
X361040Y1156540D01*
X360880Y1157810D01*
X361200Y1159290D01*
X362320Y1160350D01*
X363450Y1160770D01*
X364900D01*
G01X363450D02*
X362480Y1161410D01*
X361680Y1162470D01*
X361360Y1163740D01*
X361680Y1165010D01*
X362480Y1166060D01*
X363930Y1166700D01*
X365380Y1166490D01*
X366830Y1165640D01*
G01X456170Y1262000D02*
Y1274700D01*
X452150D01*
X450860Y1274060D01*
X450060Y1273220D01*
X449740Y1271520D01*
X450060Y1269830D01*
X451020Y1268770D01*
X452150Y1268140D01*
X456170D01*
G01X452150D02*
X449740Y1262000D01*
G01X443060Y1272580D02*
X442100Y1273850D01*
X440970Y1274490D01*
X439680Y1274700D01*
X438070Y1274280D01*
X436950Y1273220D01*
X436630Y1271950D01*
X436790Y1270680D01*
X437430Y1269620D01*
X440650Y1267500D01*
X442100Y1266020D01*
X443060Y1263900D01*
X443380Y1262000D01*
X436630D01*
G01X430590Y1263900D02*
X429630Y1262850D01*
X428500Y1262210D01*
X427060Y1262000D01*
X425610Y1262420D01*
X424480Y1263270D01*
X423680Y1264750D01*
X423520Y1266440D01*
X423840Y1268140D01*
X424640Y1269200D01*
X425770Y1270040D01*
X426890Y1270250D01*
X428020Y1270040D01*
X429470Y1269200D01*
X428990Y1274700D01*
X424640D01*
G01X407450Y1318700D02*
X403430Y1306000D01*
X399400Y1318700D01*
G01X394010Y1306000D02*
Y1318700D01*
X390800D01*
X389510Y1318060D01*
X388540Y1317220D01*
X387740Y1315950D01*
X387100Y1314470D01*
X386940Y1312350D01*
X387100Y1310230D01*
X387740Y1308750D01*
X388540Y1307480D01*
X389510Y1306630D01*
X390800Y1306000D01*
X394010D01*
G01X380580Y1316580D02*
X379620Y1317850D01*
X378490Y1318490D01*
X377200Y1318700D01*
X375590Y1318280D01*
X374470Y1317220D01*
X374150Y1315950D01*
X374310Y1314680D01*
X374950Y1313620D01*
X378170Y1311500D01*
X379620Y1310020D01*
X380580Y1307900D01*
X380900Y1306000D01*
X374150D01*
G01X364580Y1318700D02*
X365860Y1318280D01*
X366830Y1317220D01*
X367470Y1315950D01*
X367950Y1314250D01*
X368110Y1312350D01*
X367950Y1310440D01*
X367470Y1308750D01*
X366830Y1307480D01*
X365860Y1306420D01*
X364580Y1306000D01*
X363290Y1306420D01*
X362320Y1307480D01*
X361680Y1308750D01*
X361200Y1310440D01*
X361040Y1312350D01*
X361200Y1314250D01*
X361680Y1315950D01*
X362320Y1317220D01*
X363290Y1318280D01*
X364580Y1318700D01*
G01X415450Y1280700D02*
X411430Y1268000D01*
X407400Y1280700D01*
G01X402010Y1268000D02*
Y1280700D01*
X398800D01*
X397510Y1280060D01*
X396540Y1279220D01*
X395740Y1277950D01*
X395100Y1276470D01*
X394940Y1274350D01*
X395100Y1272230D01*
X395740Y1270750D01*
X396540Y1269480D01*
X397510Y1268630D01*
X398800Y1268000D01*
X402010D01*
G01X388580Y1278580D02*
X387620Y1279850D01*
X386490Y1280490D01*
X385200Y1280700D01*
X383590Y1280280D01*
X382470Y1279220D01*
X382150Y1277950D01*
X382310Y1276680D01*
X382950Y1275620D01*
X386170Y1273500D01*
X387620Y1272020D01*
X388580Y1269900D01*
X388900Y1268000D01*
X382150D01*
G01X372580D02*
Y1280700D01*
X374510Y1278160D01*
G01Y1268000D02*
X370650D01*
G01X462170Y1410000D02*
Y1422700D01*
X458150D01*
X456860Y1422060D01*
X456060Y1421220D01*
X455740Y1419520D01*
X456060Y1417830D01*
X457020Y1416770D01*
X458150Y1416140D01*
X462170D01*
G01X458150D02*
X455740Y1410000D01*
G01X446010D02*
Y1422700D01*
X447940Y1420160D01*
G01Y1410000D02*
X444080D01*
G01X435790Y1411480D02*
X434660Y1410420D01*
X433380Y1410000D01*
X432090Y1410420D01*
X430960Y1411690D01*
X430160Y1413600D01*
X429840Y1415500D01*
Y1417830D01*
X430160Y1419740D01*
X430960Y1421430D01*
X431930Y1422280D01*
X433060Y1422700D01*
X434340Y1422280D01*
X435310Y1421430D01*
X435950Y1420160D01*
X436270Y1418470D01*
X435950Y1416990D01*
X435150Y1415500D01*
X434180Y1414660D01*
X433060Y1414440D01*
X431770Y1414870D01*
X430800Y1415930D01*
X429840Y1417830D01*
G01X417450Y1430700D02*
X413430Y1418000D01*
X409400Y1430700D01*
G01X404010Y1418000D02*
Y1430700D01*
X400800D01*
X399510Y1430060D01*
X398540Y1429220D01*
X397740Y1427950D01*
X397100Y1426470D01*
X396940Y1424350D01*
X397100Y1422230D01*
X397740Y1420750D01*
X398540Y1419480D01*
X399510Y1418630D01*
X400800Y1418000D01*
X404010D01*
G01X387530D02*
Y1430700D01*
X389460Y1428160D01*
G01Y1418000D02*
X385600D01*
G01X374580D02*
X373450Y1418210D01*
X372160Y1418850D01*
X371360Y1419900D01*
X371040Y1421390D01*
X371360Y1422870D01*
X372320Y1424140D01*
X373770Y1424770D01*
X375380D01*
X376340Y1425200D01*
X377150Y1426250D01*
X377470Y1427740D01*
X376990Y1429220D01*
X375860Y1430280D01*
X374580Y1430700D01*
X373290Y1430280D01*
X372160Y1429220D01*
X371680Y1427740D01*
X372000Y1426250D01*
X372810Y1425200D01*
X373770Y1424770D01*
X375380D01*
X376830Y1424140D01*
X377790Y1422870D01*
X378110Y1421390D01*
X377790Y1419900D01*
X376990Y1418850D01*
X375700Y1418210D01*
X374580Y1418000D01*
G01X441420Y2003640D02*
X442380Y2004280D01*
X443510Y2004700D01*
X444790D01*
X446240Y2004060D01*
X447370Y2003010D01*
X448170Y2001740D01*
X448820Y1999620D01*
X448980Y1997710D01*
X448650Y1995810D01*
X448170Y1994540D01*
X447210Y1993270D01*
X446080Y1992420D01*
X444960Y1992000D01*
X443830D01*
X442700Y1992420D01*
X441740Y1993060D01*
X440930Y1993900D01*
G01X435060Y2002580D02*
X434100Y2003850D01*
X432970Y2004490D01*
X431680Y2004700D01*
X430070Y2004280D01*
X428950Y2003220D01*
X428630Y2001950D01*
X428790Y2000680D01*
X429430Y1999620D01*
X432650Y1997500D01*
X434100Y1996020D01*
X435060Y1993900D01*
X435380Y1992000D01*
X428630D01*
G01X422590Y1994540D02*
X421630Y1993060D01*
X420340Y1992210D01*
X418890Y1992000D01*
X417610Y1992210D01*
X416320Y1993270D01*
X415520Y1994540D01*
X415360Y1995810D01*
X415680Y1997290D01*
X416800Y1998350D01*
X417930Y1998770D01*
X419380D01*
G01X417930D02*
X416960Y1999410D01*
X416160Y2000470D01*
X415840Y2001740D01*
X416160Y2003010D01*
X416960Y2004060D01*
X418410Y2004700D01*
X419860Y2004490D01*
X421310Y2003640D01*
G01X434000Y1984000D02*
Y1976000D01*
G01X467420Y475640D02*
X468380Y476280D01*
X469510Y476700D01*
X470790D01*
X472240Y476060D01*
X473370Y475010D01*
X474170Y473740D01*
X474820Y471620D01*
X474980Y469710D01*
X474650Y467810D01*
X474170Y466540D01*
X473210Y465270D01*
X472080Y464420D01*
X470960Y464000D01*
X469830D01*
X468700Y464420D01*
X467740Y465060D01*
X466930Y465900D01*
G01X458010Y464000D02*
Y476700D01*
X459940Y474160D01*
G01Y464000D02*
X456080D01*
G01X448110Y474580D02*
X447150Y475850D01*
X446020Y476490D01*
X444730Y476700D01*
X443120Y476280D01*
X442000Y475220D01*
X441680Y473950D01*
X441840Y472680D01*
X442480Y471620D01*
X445700Y469500D01*
X447150Y468020D01*
X448110Y465900D01*
X448430Y464000D01*
X441680D01*
G01X454000Y495000D02*
X446000D01*
G01X452940Y661640D02*
X453900Y662280D01*
X455030Y662700D01*
X456310D01*
X457760Y662060D01*
X458890Y661010D01*
X459690Y659740D01*
X460340Y657620D01*
X460500Y655710D01*
X460170Y653810D01*
X459690Y652540D01*
X458730Y651270D01*
X457600Y650420D01*
X456480Y650000D01*
X455350D01*
X454220Y650420D01*
X453260Y651060D01*
X452450Y651900D01*
G01X446260Y651480D02*
X445130Y650420D01*
X443850Y650000D01*
X442560Y650420D01*
X441430Y651690D01*
X440630Y653600D01*
X440310Y655500D01*
Y657830D01*
X440630Y659740D01*
X441430Y661430D01*
X442400Y662280D01*
X443530Y662700D01*
X444810Y662280D01*
X445780Y661430D01*
X446420Y660160D01*
X446740Y658470D01*
X446420Y656990D01*
X445620Y655500D01*
X444650Y654660D01*
X443530Y654440D01*
X442240Y654870D01*
X441270Y655930D01*
X440310Y657830D01*
G01X463420Y635640D02*
X464380Y636280D01*
X465510Y636700D01*
X466790D01*
X468240Y636060D01*
X469370Y635010D01*
X470170Y633740D01*
X470820Y631620D01*
X470980Y629710D01*
X470650Y627810D01*
X470170Y626540D01*
X469210Y625270D01*
X468080Y624420D01*
X466960Y624000D01*
X465830D01*
X464700Y624420D01*
X463740Y625060D01*
X462930Y625900D01*
G01X454010Y624000D02*
Y636700D01*
X455940Y634160D01*
G01Y624000D02*
X452080D01*
G01X441060D02*
X439930Y624210D01*
X438640Y624850D01*
X437840Y625900D01*
X437520Y627390D01*
X437840Y628870D01*
X438800Y630140D01*
X440250Y630770D01*
X441860D01*
X442820Y631200D01*
X443630Y632250D01*
X443950Y633740D01*
X443470Y635220D01*
X442340Y636280D01*
X441060Y636700D01*
X439770Y636280D01*
X438640Y635220D01*
X438160Y633740D01*
X438480Y632250D01*
X439290Y631200D01*
X440250Y630770D01*
X441860D01*
X443310Y630140D01*
X444270Y628870D01*
X444590Y627390D01*
X444270Y625900D01*
X443470Y624850D01*
X442180Y624210D01*
X441060Y624000D01*
G01X515850Y781690D02*
X514570Y780630D01*
X513120Y780000D01*
X511830D01*
X510540Y780630D01*
X509580Y781690D01*
X509100Y783180D01*
X509420Y784660D01*
X510220Y785930D01*
X511670Y786770D01*
X513600Y787200D01*
X514730Y788040D01*
X515210Y789520D01*
X514890Y791010D01*
X514080Y792060D01*
X512960Y792700D01*
X511830D01*
X510710Y792280D01*
X509740Y791220D01*
G01X502580Y790580D02*
X501620Y791850D01*
X500490Y792490D01*
X499200Y792700D01*
X497590Y792280D01*
X496470Y791220D01*
X496150Y789950D01*
X496310Y788680D01*
X496950Y787620D01*
X500170Y785500D01*
X501620Y784020D01*
X502580Y781900D01*
X502900Y780000D01*
X496150D01*
G01X450940Y819640D02*
X451900Y820280D01*
X453030Y820700D01*
X454310D01*
X455760Y820060D01*
X456890Y819010D01*
X457690Y817740D01*
X458340Y815620D01*
X458500Y813710D01*
X458170Y811810D01*
X457690Y810540D01*
X456730Y809270D01*
X455600Y808420D01*
X454480Y808000D01*
X453350D01*
X452220Y808420D01*
X451260Y809060D01*
X450450Y809900D01*
G01X441850Y808000D02*
X441530Y810750D01*
X441040Y813080D01*
X440400Y815200D01*
X439590Y817520D01*
X438310Y820700D01*
X444740D01*
G01X472170Y846000D02*
Y858700D01*
X468150D01*
X466860Y858060D01*
X466060Y857220D01*
X465740Y855520D01*
X466060Y853830D01*
X467020Y852770D01*
X468150Y852140D01*
X472170D01*
G01X468150D02*
X465740Y846000D01*
G01X459540Y848540D02*
X458580Y847060D01*
X457290Y846210D01*
X455840Y846000D01*
X454560Y846210D01*
X453270Y847270D01*
X452470Y848540D01*
X452310Y849810D01*
X452630Y851290D01*
X453750Y852350D01*
X454880Y852770D01*
X456330D01*
G01X454880D02*
X453910Y853410D01*
X453110Y854470D01*
X452790Y855740D01*
X453110Y857010D01*
X453910Y858060D01*
X455360Y858700D01*
X456810Y858490D01*
X458260Y857640D01*
G01X446110Y856580D02*
X445150Y857850D01*
X444020Y858490D01*
X442730Y858700D01*
X441120Y858280D01*
X440000Y857220D01*
X439680Y855950D01*
X439840Y854680D01*
X440480Y853620D01*
X443700Y851500D01*
X445150Y850020D01*
X446110Y847900D01*
X446430Y846000D01*
X439680D01*
G01X510170Y950000D02*
Y962700D01*
X506150D01*
X504860Y962060D01*
X504060Y961220D01*
X503740Y959520D01*
X504060Y957830D01*
X505020Y956770D01*
X506150Y956140D01*
X510170D01*
G01X506150D02*
X503740Y950000D01*
G01X497060Y960580D02*
X496100Y961850D01*
X494970Y962490D01*
X493680Y962700D01*
X492070Y962280D01*
X490950Y961220D01*
X490630Y959950D01*
X490790Y958680D01*
X491430Y957620D01*
X494650Y955500D01*
X496100Y954020D01*
X497060Y951900D01*
X497380Y950000D01*
X490630D01*
G01X481380D02*
X481060Y952750D01*
X480570Y955080D01*
X479930Y957200D01*
X479120Y959520D01*
X477840Y962700D01*
X484270D01*
G01X470170Y1156000D02*
Y1168700D01*
X466150D01*
X464860Y1168060D01*
X464060Y1167220D01*
X463740Y1165520D01*
X464060Y1163830D01*
X465020Y1162770D01*
X466150Y1162140D01*
X470170D01*
G01X466150D02*
X463740Y1156000D01*
G01X457060Y1166580D02*
X456100Y1167850D01*
X454970Y1168490D01*
X453680Y1168700D01*
X452070Y1168280D01*
X450950Y1167220D01*
X450630Y1165950D01*
X450790Y1164680D01*
X451430Y1163620D01*
X454650Y1161500D01*
X456100Y1160020D01*
X457060Y1157900D01*
X457380Y1156000D01*
X450630D01*
G01X444110Y1161290D02*
X442990Y1162770D01*
X442020Y1163620D01*
X440730Y1164040D01*
X439610Y1163620D01*
X438800Y1162770D01*
X438160Y1161500D01*
X438000Y1160020D01*
X438160Y1158750D01*
X438800Y1157480D01*
X439770Y1156420D01*
X440890Y1156000D01*
X442180Y1156420D01*
X443310Y1157690D01*
X443950Y1159600D01*
X444110Y1161710D01*
X443790Y1164470D01*
X443310Y1165950D01*
X442500Y1167430D01*
X441380Y1168490D01*
X440250Y1168700D01*
X439120Y1168280D01*
X438320Y1167220D01*
G01X510170Y1260000D02*
Y1272700D01*
X506150D01*
X504860Y1272060D01*
X504060Y1271220D01*
X503740Y1269520D01*
X504060Y1267830D01*
X505020Y1266770D01*
X506150Y1266140D01*
X510170D01*
G01X506150D02*
X503740Y1260000D01*
G01X497060Y1270580D02*
X496100Y1271850D01*
X494970Y1272490D01*
X493680Y1272700D01*
X492070Y1272280D01*
X490950Y1271220D01*
X490630Y1269950D01*
X490790Y1268680D01*
X491430Y1267620D01*
X494650Y1265500D01*
X496100Y1264020D01*
X497060Y1261900D01*
X497380Y1260000D01*
X490630D01*
G01X481060D02*
Y1272700D01*
X482990Y1270160D01*
G01Y1260000D02*
X479130D01*
G01X472170Y1306000D02*
Y1318700D01*
X468150D01*
X466860Y1318060D01*
X466060Y1317220D01*
X465740Y1315520D01*
X466060Y1313830D01*
X467020Y1312770D01*
X468150Y1312140D01*
X472170D01*
G01X468150D02*
X465740Y1306000D01*
G01X459060Y1316580D02*
X458100Y1317850D01*
X456970Y1318490D01*
X455680Y1318700D01*
X454070Y1318280D01*
X452950Y1317220D01*
X452630Y1315950D01*
X452790Y1314680D01*
X453430Y1313620D01*
X456650Y1311500D01*
X458100Y1310020D01*
X459060Y1307900D01*
X459380Y1306000D01*
X452630D01*
G01X443060Y1318700D02*
X444340Y1318280D01*
X445310Y1317220D01*
X445950Y1315950D01*
X446430Y1314250D01*
X446590Y1312350D01*
X446430Y1310440D01*
X445950Y1308750D01*
X445310Y1307480D01*
X444340Y1306420D01*
X443060Y1306000D01*
X441770Y1306420D01*
X440800Y1307480D01*
X440160Y1308750D01*
X439680Y1310440D01*
X439520Y1312350D01*
X439680Y1314250D01*
X440160Y1315950D01*
X440800Y1317220D01*
X441770Y1318280D01*
X443060Y1318700D01*
G01X518170Y1410000D02*
Y1422700D01*
X514150D01*
X512860Y1422060D01*
X512060Y1421220D01*
X511740Y1419520D01*
X512060Y1417830D01*
X513020Y1416770D01*
X514150Y1416140D01*
X518170D01*
G01X514150D02*
X511740Y1410000D01*
G01X502010D02*
Y1422700D01*
X503940Y1420160D01*
G01Y1410000D02*
X500080D01*
G01X492590Y1411900D02*
X491630Y1410850D01*
X490500Y1410210D01*
X489060Y1410000D01*
X487610Y1410420D01*
X486480Y1411270D01*
X485680Y1412750D01*
X485520Y1414440D01*
X485840Y1416140D01*
X486640Y1417200D01*
X487770Y1418040D01*
X488890Y1418250D01*
X490020Y1418040D01*
X491470Y1417200D01*
X490990Y1422700D01*
X486640D01*
G01X533880Y1975230D02*
X530020D01*
G01X532120Y1977990D02*
Y1972480D01*
G01X522220Y1981580D02*
X521260Y1982850D01*
X520130Y1983490D01*
X518840Y1983700D01*
X517230Y1983280D01*
X516110Y1982220D01*
X515790Y1980950D01*
X515950Y1979680D01*
X516590Y1978620D01*
X519810Y1976500D01*
X521260Y1975020D01*
X522220Y1972900D01*
X522540Y1971000D01*
X515790D01*
G01X504280D02*
Y1983700D01*
X510240Y1974600D01*
X502190D01*
G01X491980Y1977770D02*
X491330Y1978410D01*
X490850Y1979470D01*
X490530Y1980950D01*
X490850Y1982220D01*
X491500Y1983060D01*
X492620Y1983700D01*
X496960D01*
Y1971000D01*
X491660D01*
X490530Y1971850D01*
X489890Y1973120D01*
X489570Y1974600D01*
X489890Y1976080D01*
X490850Y1977350D01*
X491980Y1977770D01*
X496960D01*
G01X477100Y1971000D02*
X483530D01*
Y1983700D01*
X477100D01*
G01X479670Y1977560D02*
X483530D01*
G01X562170Y492000D02*
Y504700D01*
X558150D01*
X556860Y504060D01*
X556060Y503220D01*
X555740Y501520D01*
X556060Y499830D01*
X557020Y498770D01*
X558150Y498140D01*
X562170D01*
G01X558150D02*
X555740Y492000D01*
G01X546010D02*
Y504700D01*
X547940Y502160D01*
G01Y492000D02*
X544080D01*
G01X533060D02*
Y504700D01*
X534990Y502160D01*
G01Y492000D02*
X531130D01*
G01X558170Y534000D02*
Y546700D01*
X554150D01*
X552860Y546060D01*
X552060Y545220D01*
X551740Y543520D01*
X552060Y541830D01*
X553020Y540770D01*
X554150Y540140D01*
X558170D01*
G01X554150D02*
X551740Y534000D01*
G01X542010D02*
Y546700D01*
X543940Y544160D01*
G01Y534000D02*
X540080D01*
G01X527120D02*
Y546700D01*
X533080Y537600D01*
X525030D01*
G01X563690Y646000D02*
Y658700D01*
X559670D01*
X558380Y658060D01*
X557580Y657220D01*
X557260Y655520D01*
X557580Y653830D01*
X558540Y652770D01*
X559670Y652140D01*
X563690D01*
G01X559670D02*
X557260Y646000D01*
G01X550580Y656580D02*
X549620Y657850D01*
X548490Y658490D01*
X547200Y658700D01*
X545590Y658280D01*
X544470Y657220D01*
X544150Y655950D01*
X544310Y654680D01*
X544950Y653620D01*
X548170Y651500D01*
X549620Y650020D01*
X550580Y647900D01*
X550900Y646000D01*
X544150D01*
G01X580170Y596000D02*
Y608700D01*
X576150D01*
X574860Y608060D01*
X574060Y607220D01*
X573740Y605520D01*
X574060Y603830D01*
X575020Y602770D01*
X576150Y602140D01*
X580170D01*
G01X576150D02*
X573740Y596000D01*
G01X564010D02*
Y608700D01*
X565940Y606160D01*
G01Y596000D02*
X562080D01*
G01X551060Y608700D02*
X552340Y608280D01*
X553310Y607220D01*
X553950Y605950D01*
X554430Y604250D01*
X554590Y602350D01*
X554430Y600440D01*
X553950Y598750D01*
X553310Y597480D01*
X552340Y596420D01*
X551060Y596000D01*
X549770Y596420D01*
X548800Y597480D01*
X548160Y598750D01*
X547680Y600440D01*
X547520Y602350D01*
X547680Y604250D01*
X548160Y605950D01*
X548800Y607220D01*
X549770Y608280D01*
X551060Y608700D01*
G01X551690Y668000D02*
Y680700D01*
X547670D01*
X546380Y680060D01*
X545580Y679220D01*
X545260Y677520D01*
X545580Y675830D01*
X546540Y674770D01*
X547670Y674140D01*
X551690D01*
G01X547670D02*
X545260Y668000D01*
G01X533590D02*
Y680700D01*
X539550Y671600D01*
X531500D01*
G01X567690Y726000D02*
Y738700D01*
X563670D01*
X562380Y738060D01*
X561580Y737220D01*
X561260Y735520D01*
X561580Y733830D01*
X562540Y732770D01*
X563670Y732140D01*
X567690D01*
G01X563670D02*
X561260Y726000D01*
G01X551530D02*
Y738700D01*
X553460Y736160D01*
G01Y726000D02*
X549600D01*
G01X573690Y746000D02*
Y758700D01*
X569670D01*
X568380Y758060D01*
X567580Y757220D01*
X567260Y755520D01*
X567580Y753830D01*
X568540Y752770D01*
X569670Y752140D01*
X573690D01*
G01X569670D02*
X567260Y746000D01*
G01X561060Y747900D02*
X560100Y746850D01*
X558970Y746210D01*
X557530Y746000D01*
X556080Y746420D01*
X554950Y747270D01*
X554150Y748750D01*
X553990Y750440D01*
X554310Y752140D01*
X555110Y753200D01*
X556240Y754040D01*
X557360Y754250D01*
X558490Y754040D01*
X559940Y753200D01*
X559460Y758700D01*
X555110D01*
G01X573690Y806000D02*
Y818700D01*
X569670D01*
X568380Y818060D01*
X567580Y817220D01*
X567260Y815520D01*
X567580Y813830D01*
X568540Y812770D01*
X569670Y812140D01*
X573690D01*
G01X569670D02*
X567260Y806000D01*
G01X557530D02*
X556400Y806210D01*
X555110Y806850D01*
X554310Y807900D01*
X553990Y809390D01*
X554310Y810870D01*
X555270Y812140D01*
X556720Y812770D01*
X558330D01*
X559290Y813200D01*
X560100Y814250D01*
X560420Y815740D01*
X559940Y817220D01*
X558810Y818280D01*
X557530Y818700D01*
X556240Y818280D01*
X555110Y817220D01*
X554630Y815740D01*
X554950Y814250D01*
X555760Y813200D01*
X556720Y812770D01*
X558330D01*
X559780Y812140D01*
X560740Y810870D01*
X561060Y809390D01*
X560740Y807900D01*
X559940Y806850D01*
X558650Y806210D01*
X557530Y806000D01*
G01X678170Y472000D02*
Y484700D01*
X674150D01*
X672860Y484060D01*
X672060Y483220D01*
X671740Y481520D01*
X672060Y479830D01*
X673020Y478770D01*
X674150Y478140D01*
X678170D01*
G01X674150D02*
X671740Y472000D01*
G01X662010D02*
Y484700D01*
X663940Y482160D01*
G01Y472000D02*
X660080D01*
G01X652110Y482580D02*
X651150Y483850D01*
X650020Y484490D01*
X648730Y484700D01*
X647120Y484280D01*
X646000Y483220D01*
X645680Y481950D01*
X645840Y480680D01*
X646480Y479620D01*
X649700Y477500D01*
X651150Y476020D01*
X652110Y473900D01*
X652430Y472000D01*
X645680D01*
G01X697450Y632700D02*
X693430Y620000D01*
X689400Y632700D01*
G01X684010Y620000D02*
Y632700D01*
X680800D01*
X679510Y632060D01*
X678540Y631220D01*
X677740Y629950D01*
X677100Y628470D01*
X676940Y626350D01*
X677100Y624230D01*
X677740Y622750D01*
X678540Y621480D01*
X679510Y620630D01*
X680800Y620000D01*
X684010D01*
G01X667530D02*
Y632700D01*
X669460Y630160D01*
G01Y620000D02*
X665600D01*
G01X654580Y632700D02*
X655860Y632280D01*
X656830Y631220D01*
X657470Y629950D01*
X657950Y628250D01*
X658110Y626350D01*
X657950Y624440D01*
X657470Y622750D01*
X656830Y621480D01*
X655860Y620420D01*
X654580Y620000D01*
X653290Y620420D01*
X652320Y621480D01*
X651680Y622750D01*
X651200Y624440D01*
X651040Y626350D01*
X651200Y628250D01*
X651680Y629950D01*
X652320Y631220D01*
X653290Y632280D01*
X654580Y632700D01*
G01X635850Y601690D02*
X634570Y600630D01*
X633120Y600000D01*
X631830D01*
X630540Y600630D01*
X629580Y601690D01*
X629100Y603180D01*
X629420Y604660D01*
X630220Y605930D01*
X631670Y606770D01*
X633600Y607200D01*
X634730Y608040D01*
X635210Y609520D01*
X634890Y611010D01*
X634080Y612060D01*
X632960Y612700D01*
X631830D01*
X630710Y612280D01*
X629740Y611220D01*
G01X623060Y602540D02*
X622100Y601060D01*
X620810Y600210D01*
X619360Y600000D01*
X618080Y600210D01*
X616790Y601270D01*
X615990Y602540D01*
X615830Y603810D01*
X616150Y605290D01*
X617270Y606350D01*
X618400Y606770D01*
X619850D01*
G01X618400D02*
X617430Y607410D01*
X616630Y608470D01*
X616310Y609740D01*
X616630Y611010D01*
X617430Y612060D01*
X618880Y612700D01*
X620330Y612490D01*
X621780Y611640D01*
G01X679690Y672000D02*
Y684700D01*
X675670D01*
X674380Y684060D01*
X673580Y683220D01*
X673260Y681520D01*
X673580Y679830D01*
X674540Y678770D01*
X675670Y678140D01*
X679690D01*
G01X675670D02*
X673260Y672000D01*
G01X667060Y674540D02*
X666100Y673060D01*
X664810Y672210D01*
X663360Y672000D01*
X662080Y672210D01*
X660790Y673270D01*
X659990Y674540D01*
X659830Y675810D01*
X660150Y677290D01*
X661270Y678350D01*
X662400Y678770D01*
X663850D01*
G01X662400D02*
X661430Y679410D01*
X660630Y680470D01*
X660310Y681740D01*
X660630Y683010D01*
X661430Y684060D01*
X662880Y684700D01*
X664330Y684490D01*
X665780Y683640D01*
G01X699450Y774700D02*
X695430Y762000D01*
X691400Y774700D01*
G01X686010Y762000D02*
Y774700D01*
X682800D01*
X681510Y774060D01*
X680540Y773220D01*
X679740Y771950D01*
X679100Y770470D01*
X678940Y768350D01*
X679100Y766230D01*
X679740Y764750D01*
X680540Y763480D01*
X681510Y762630D01*
X682800Y762000D01*
X686010D01*
G01X669530D02*
Y774700D01*
X671460Y772160D01*
G01Y762000D02*
X667600D01*
G01X659630Y772580D02*
X658670Y773850D01*
X657540Y774490D01*
X656250Y774700D01*
X654640Y774280D01*
X653520Y773220D01*
X653200Y771950D01*
X653360Y770680D01*
X654000Y769620D01*
X657220Y767500D01*
X658670Y766020D01*
X659630Y763900D01*
X659950Y762000D01*
X653200D01*
G01X636850Y750690D02*
X635570Y749630D01*
X634120Y749000D01*
X632830D01*
X631540Y749630D01*
X630580Y750690D01*
X630100Y752180D01*
X630420Y753660D01*
X631220Y754930D01*
X632670Y755770D01*
X634600Y756200D01*
X635730Y757040D01*
X636210Y758520D01*
X635890Y760010D01*
X635080Y761060D01*
X633960Y761700D01*
X632830D01*
X631710Y761280D01*
X630740Y760220D01*
G01X620530Y749000D02*
Y761700D01*
X622460Y759160D01*
G01Y749000D02*
X618600D01*
G01X699450Y822700D02*
X695430Y810000D01*
X691400Y822700D01*
G01X686010Y810000D02*
Y822700D01*
X682800D01*
X681510Y822060D01*
X680540Y821220D01*
X679740Y819950D01*
X679100Y818470D01*
X678940Y816350D01*
X679100Y814230D01*
X679740Y812750D01*
X680540Y811480D01*
X681510Y810630D01*
X682800Y810000D01*
X686010D01*
G01X669530D02*
Y822700D01*
X671460Y820160D01*
G01Y810000D02*
X667600D01*
G01X660110Y812540D02*
X659150Y811060D01*
X657860Y810210D01*
X656410Y810000D01*
X655130Y810210D01*
X653840Y811270D01*
X653040Y812540D01*
X652880Y813810D01*
X653200Y815290D01*
X654320Y816350D01*
X655450Y816770D01*
X656900D01*
G01X655450D02*
X654480Y817410D01*
X653680Y818470D01*
X653360Y819740D01*
X653680Y821010D01*
X654480Y822060D01*
X655930Y822700D01*
X657380Y822490D01*
X658830Y821640D01*
G01X677450Y950700D02*
X673430Y938000D01*
X669400Y950700D01*
G01X664010Y938000D02*
Y950700D01*
X660800D01*
X659510Y950060D01*
X658540Y949220D01*
X657740Y947950D01*
X657100Y946470D01*
X656940Y944350D01*
X657100Y942230D01*
X657740Y940750D01*
X658540Y939480D01*
X659510Y938630D01*
X660800Y938000D01*
X664010D01*
G01X650580Y948580D02*
X649620Y949850D01*
X648490Y950490D01*
X647200Y950700D01*
X645590Y950280D01*
X644470Y949220D01*
X644150Y947950D01*
X644310Y946680D01*
X644950Y945620D01*
X648170Y943500D01*
X649620Y942020D01*
X650580Y939900D01*
X650900Y938000D01*
X644150D01*
G01X638110Y939900D02*
X637150Y938850D01*
X636020Y938210D01*
X634580Y938000D01*
X633130Y938420D01*
X632000Y939270D01*
X631200Y940750D01*
X631040Y942440D01*
X631360Y944140D01*
X632160Y945200D01*
X633290Y946040D01*
X634410Y946250D01*
X635540Y946040D01*
X636990Y945200D01*
X636510Y950700D01*
X632160D01*
G01X677450Y1260700D02*
X673430Y1248000D01*
X669400Y1260700D01*
G01X664010Y1248000D02*
Y1260700D01*
X660800D01*
X659510Y1260060D01*
X658540Y1259220D01*
X657740Y1257950D01*
X657100Y1256470D01*
X656940Y1254350D01*
X657100Y1252230D01*
X657740Y1250750D01*
X658540Y1249480D01*
X659510Y1248630D01*
X660800Y1248000D01*
X664010D01*
G01X650580Y1258580D02*
X649620Y1259850D01*
X648490Y1260490D01*
X647200Y1260700D01*
X645590Y1260280D01*
X644470Y1259220D01*
X644150Y1257950D01*
X644310Y1256680D01*
X644950Y1255620D01*
X648170Y1253500D01*
X649620Y1252020D01*
X650580Y1249900D01*
X650900Y1248000D01*
X644150D01*
G01X637630Y1258580D02*
X636670Y1259850D01*
X635540Y1260490D01*
X634250Y1260700D01*
X632640Y1260280D01*
X631520Y1259220D01*
X631200Y1257950D01*
X631360Y1256680D01*
X632000Y1255620D01*
X635220Y1253500D01*
X636670Y1252020D01*
X637630Y1249900D01*
X637950Y1248000D01*
X631200D01*
G01X673450Y1410700D02*
X669430Y1398000D01*
X665400Y1410700D01*
G01X660010Y1398000D02*
Y1410700D01*
X656800D01*
X655510Y1410060D01*
X654540Y1409220D01*
X653740Y1407950D01*
X653100Y1406470D01*
X652940Y1404350D01*
X653100Y1402230D01*
X653740Y1400750D01*
X654540Y1399480D01*
X655510Y1398630D01*
X656800Y1398000D01*
X660010D01*
G01X643530D02*
Y1410700D01*
X645460Y1408160D01*
G01Y1398000D02*
X641600D01*
G01X633310Y1399480D02*
X632180Y1398420D01*
X630900Y1398000D01*
X629610Y1398420D01*
X628480Y1399690D01*
X627680Y1401600D01*
X627360Y1403500D01*
Y1405830D01*
X627680Y1407740D01*
X628480Y1409430D01*
X629450Y1410280D01*
X630580Y1410700D01*
X631860Y1410280D01*
X632830Y1409430D01*
X633470Y1408160D01*
X633790Y1406470D01*
X633470Y1404990D01*
X632670Y1403500D01*
X631700Y1402660D01*
X630580Y1402440D01*
X629290Y1402870D01*
X628320Y1403930D01*
X627360Y1405830D01*
G01X753450Y508700D02*
X749430Y496000D01*
X745400Y508700D01*
G01X740010Y496000D02*
Y508700D01*
X736800D01*
X735510Y508060D01*
X734540Y507220D01*
X733740Y505950D01*
X733100Y504470D01*
X732940Y502350D01*
X733100Y500230D01*
X733740Y498750D01*
X734540Y497480D01*
X735510Y496630D01*
X736800Y496000D01*
X740010D01*
G01X723530D02*
Y508700D01*
X725460Y506160D01*
G01Y496000D02*
X721600D01*
G01X714110Y497900D02*
X713150Y496850D01*
X712020Y496210D01*
X710580Y496000D01*
X709130Y496420D01*
X708000Y497270D01*
X707200Y498750D01*
X707040Y500440D01*
X707360Y502140D01*
X708160Y503200D01*
X709290Y504040D01*
X710410Y504250D01*
X711540Y504040D01*
X712990Y503200D01*
X712510Y508700D01*
X708160D01*
G01X753450Y614700D02*
X749430Y602000D01*
X745400Y614700D01*
G01X740010Y602000D02*
Y614700D01*
X736800D01*
X735510Y614060D01*
X734540Y613220D01*
X733740Y611950D01*
X733100Y610470D01*
X732940Y608350D01*
X733100Y606230D01*
X733740Y604750D01*
X734540Y603480D01*
X735510Y602630D01*
X736800Y602000D01*
X740010D01*
G01X723530D02*
Y614700D01*
X725460Y612160D01*
G01Y602000D02*
X721600D01*
G01X713630Y607290D02*
X712510Y608770D01*
X711540Y609620D01*
X710250Y610040D01*
X709130Y609620D01*
X708320Y608770D01*
X707680Y607500D01*
X707520Y606020D01*
X707680Y604750D01*
X708320Y603480D01*
X709290Y602420D01*
X710410Y602000D01*
X711700Y602420D01*
X712830Y603690D01*
X713470Y605600D01*
X713630Y607710D01*
X713310Y610470D01*
X712830Y611950D01*
X712020Y613430D01*
X710900Y614490D01*
X709770Y614700D01*
X708640Y614280D01*
X707840Y613220D01*
G01X698980Y720700D02*
X694960Y708000D01*
X690930Y720700D01*
G01X685540Y708000D02*
Y720700D01*
X682330D01*
X681040Y720060D01*
X680070Y719220D01*
X679270Y717950D01*
X678630Y716470D01*
X678470Y714350D01*
X678630Y712230D01*
X679270Y710750D01*
X680070Y709480D01*
X681040Y708630D01*
X682330Y708000D01*
X685540D01*
G01X671790Y709480D02*
X670660Y708420D01*
X669380Y708000D01*
X668090Y708420D01*
X666960Y709690D01*
X666160Y711600D01*
X665840Y713500D01*
Y715830D01*
X666160Y717740D01*
X666960Y719430D01*
X667930Y720280D01*
X669060Y720700D01*
X670340Y720280D01*
X671310Y719430D01*
X671950Y718160D01*
X672270Y716470D01*
X671950Y714990D01*
X671150Y713500D01*
X670180Y712660D01*
X669060Y712440D01*
X667770Y712870D01*
X666800Y713930D01*
X665840Y715830D01*
G01X751850Y988690D02*
X750570Y987630D01*
X749120Y987000D01*
X747830D01*
X746540Y987630D01*
X745580Y988690D01*
X745100Y990180D01*
X745420Y991660D01*
X746220Y992930D01*
X747670Y993770D01*
X749600Y994200D01*
X750730Y995040D01*
X751210Y996520D01*
X750890Y998010D01*
X750080Y999060D01*
X748960Y999700D01*
X747830D01*
X746710Y999280D01*
X745740Y998220D01*
G01X738580Y992290D02*
X737460Y993770D01*
X736490Y994620D01*
X735200Y995040D01*
X734080Y994620D01*
X733270Y993770D01*
X732630Y992500D01*
X732470Y991020D01*
X732630Y989750D01*
X733270Y988480D01*
X734240Y987420D01*
X735360Y987000D01*
X736650Y987420D01*
X737780Y988690D01*
X738420Y990600D01*
X738580Y992710D01*
X738260Y995470D01*
X737780Y996950D01*
X736970Y998430D01*
X735850Y999490D01*
X734720Y999700D01*
X733590Y999280D01*
X732790Y998220D01*
G01X751850Y1298690D02*
X750570Y1297630D01*
X749120Y1297000D01*
X747830D01*
X746540Y1297630D01*
X745580Y1298690D01*
X745100Y1300180D01*
X745420Y1301660D01*
X746220Y1302930D01*
X747670Y1303770D01*
X749600Y1304200D01*
X750730Y1305040D01*
X751210Y1306520D01*
X750890Y1308010D01*
X750080Y1309060D01*
X748960Y1309700D01*
X747830D01*
X746710Y1309280D01*
X745740Y1308220D01*
G01X739060Y1298900D02*
X738100Y1297850D01*
X736970Y1297210D01*
X735530Y1297000D01*
X734080Y1297420D01*
X732950Y1298270D01*
X732150Y1299750D01*
X731990Y1301440D01*
X732310Y1303140D01*
X733110Y1304200D01*
X734240Y1305040D01*
X735360Y1305250D01*
X736490Y1305040D01*
X737940Y1304200D01*
X737460Y1309700D01*
X733110D01*
G01X751850Y1448690D02*
X750570Y1447630D01*
X749120Y1447000D01*
X747830D01*
X746540Y1447630D01*
X745580Y1448690D01*
X745100Y1450180D01*
X745420Y1451660D01*
X746220Y1452930D01*
X747670Y1453770D01*
X749600Y1454200D01*
X750730Y1455040D01*
X751210Y1456520D01*
X750890Y1458010D01*
X750080Y1459060D01*
X748960Y1459700D01*
X747830D01*
X746710Y1459280D01*
X745740Y1458220D01*
G01X733590Y1447000D02*
Y1459700D01*
X739550Y1450600D01*
X731500D01*
G01X828700Y1635010D02*
X816000Y1639030D01*
X828700Y1643060D01*
G01X816000Y1648450D02*
X828700D01*
Y1651660D01*
X828060Y1652950D01*
X827220Y1653920D01*
X825950Y1654720D01*
X824470Y1655360D01*
X822350Y1655520D01*
X820230Y1655360D01*
X818750Y1654720D01*
X817480Y1653920D01*
X816630Y1652950D01*
X816000Y1651660D01*
Y1648450D01*
G01Y1664930D02*
X816210Y1666060D01*
X816850Y1667350D01*
X817900Y1668150D01*
X819390Y1668470D01*
X820870Y1668150D01*
X822140Y1667190D01*
X822770Y1665740D01*
Y1664130D01*
X823200Y1663170D01*
X824250Y1662360D01*
X825740Y1662040D01*
X827220Y1662520D01*
X828280Y1663650D01*
X828700Y1664930D01*
X828280Y1666220D01*
X827220Y1667350D01*
X825740Y1667830D01*
X824250Y1667510D01*
X823200Y1666700D01*
X822770Y1665740D01*
Y1664130D01*
X822140Y1662680D01*
X820870Y1661720D01*
X819390Y1661400D01*
X817900Y1661720D01*
X816850Y1662520D01*
X816210Y1663810D01*
X816000Y1664930D01*
G01X826700Y1735010D02*
X814000Y1739030D01*
X826700Y1743060D01*
G01X814000Y1748450D02*
X826700D01*
Y1751660D01*
X826060Y1752950D01*
X825220Y1753920D01*
X823950Y1754720D01*
X822470Y1755360D01*
X820350Y1755520D01*
X818230Y1755360D01*
X816750Y1754720D01*
X815480Y1753920D01*
X814630Y1752950D01*
X814000Y1751660D01*
Y1748450D01*
G01X819290Y1761880D02*
X820770Y1763000D01*
X821620Y1763970D01*
X822040Y1765260D01*
X821620Y1766380D01*
X820770Y1767190D01*
X819500Y1767830D01*
X818020Y1767990D01*
X816750Y1767830D01*
X815480Y1767190D01*
X814420Y1766220D01*
X814000Y1765100D01*
X814420Y1763810D01*
X815690Y1762680D01*
X817600Y1762040D01*
X819710Y1761880D01*
X822470Y1762200D01*
X823950Y1762680D01*
X825430Y1763490D01*
X826490Y1764610D01*
X826700Y1765740D01*
X826280Y1766870D01*
X825220Y1767670D01*
G01X826700Y1837010D02*
X814000Y1841030D01*
X826700Y1845060D01*
G01X814000Y1850450D02*
X826700D01*
Y1853660D01*
X826060Y1854950D01*
X825220Y1855920D01*
X823950Y1856720D01*
X822470Y1857360D01*
X820350Y1857520D01*
X818230Y1857360D01*
X816750Y1856720D01*
X815480Y1855920D01*
X814630Y1854950D01*
X814000Y1853660D01*
Y1850450D01*
G01Y1868870D02*
X826700D01*
X817600Y1862910D01*
Y1870960D01*
G01X826700Y1943010D02*
X814000Y1947030D01*
X826700Y1951060D01*
G01X814000Y1956450D02*
X826700D01*
Y1959660D01*
X826060Y1960950D01*
X825220Y1961920D01*
X823950Y1962720D01*
X822470Y1963360D01*
X820350Y1963520D01*
X818230Y1963360D01*
X816750Y1962720D01*
X815480Y1961920D01*
X814630Y1960950D01*
X814000Y1959660D01*
Y1956450D01*
G01X824580Y1969880D02*
X825850Y1970840D01*
X826490Y1971970D01*
X826700Y1973260D01*
X826280Y1974870D01*
X825220Y1975990D01*
X823950Y1976310D01*
X822680Y1976150D01*
X821620Y1975510D01*
X819500Y1972290D01*
X818020Y1970840D01*
X815900Y1969880D01*
X814000Y1969560D01*
Y1976310D01*
G01X836700Y544550D02*
X824000Y548570D01*
X836700Y552600D01*
G01X824000Y557990D02*
X836700D01*
Y561200D01*
X836060Y562490D01*
X835220Y563460D01*
X833950Y564260D01*
X832470Y564900D01*
X830350Y565060D01*
X828230Y564900D01*
X826750Y564260D01*
X825480Y563460D01*
X824630Y562490D01*
X824000Y561200D01*
Y557990D01*
G01Y574470D02*
X836700D01*
X834160Y572540D01*
G01X824000D02*
Y576400D01*
G01Y587100D02*
X826750Y587420D01*
X829080Y587910D01*
X831200Y588550D01*
X833520Y589360D01*
X836700Y590640D01*
Y584210D01*
G01Y652550D02*
X824000Y656570D01*
X836700Y660600D01*
G01X824000Y665990D02*
X836700D01*
Y669200D01*
X836060Y670490D01*
X835220Y671460D01*
X833950Y672260D01*
X832470Y672900D01*
X830350Y673060D01*
X828230Y672900D01*
X826750Y672260D01*
X825480Y671460D01*
X824630Y670490D01*
X824000Y669200D01*
Y665990D01*
G01Y682470D02*
X836700D01*
X834160Y680540D01*
G01X824000D02*
Y684400D01*
G01Y695420D02*
X836700D01*
X834160Y693490D01*
G01X824000D02*
Y697350D01*
G01X836700Y752550D02*
X824000Y756570D01*
X836700Y760600D01*
G01X824000Y765990D02*
X836700D01*
Y769200D01*
X836060Y770490D01*
X835220Y771460D01*
X833950Y772260D01*
X832470Y772900D01*
X830350Y773060D01*
X828230Y772900D01*
X826750Y772260D01*
X825480Y771460D01*
X824630Y770490D01*
X824000Y769200D01*
Y765990D01*
G01Y782470D02*
X836700D01*
X834160Y780540D01*
G01X824000D02*
Y784400D01*
G01Y797360D02*
X836700D01*
X827600Y791400D01*
Y799450D01*
G54D14*
G01X120000Y655000D02*
Y625000D01*
X180000D01*
Y655000D01*
X120000D01*
G01X218750Y529000D02*
G03X217500Y530250I-1250J0D01*
G01D02*
G03X216250Y529000I0J-1250D01*
G01D02*
G03X217500Y527750I1250J0D01*
G01D02*
G03X218750Y529000I0J1250D01*
G01Y714000D02*
G03X217500Y715250I-1250J0D01*
G01D02*
G03X216250Y714000I0J-1250D01*
G01D02*
G03X217500Y712750I1250J0D01*
G01D02*
G03X218750Y714000I0J1250D01*
G01X265000Y1805000D02*
Y1775000D01*
X325000D01*
Y1805000D01*
X265000D01*
G01X312250Y1841000D02*
G03X311000Y1842250I-1250J0D01*
G01D02*
G03X309750Y1841000I0J-1250D01*
G01D02*
G03X311000Y1839750I1250J0D01*
G01D02*
G03X312250Y1841000I0J1250D01*
G01X403750Y866000D02*
G03X402500Y867250I-1250J0D01*
G01D02*
G03X401250Y866000I0J-1250D01*
G01D02*
G03X402500Y864750I1250J0D01*
G01D02*
G03X403750Y866000I0J1250D01*
G01X385250Y952200D02*
G03X384000Y953450I-1250J0D01*
G01D02*
G03X382750Y952200I0J-1250D01*
G01D02*
G03X384000Y950950I1250J0D01*
G01D02*
G03X385250Y952200I0J1250D01*
G01X403750Y1176000D02*
G03X402500Y1177250I-1250J0D01*
G01D02*
G03X401250Y1176000I0J-1250D01*
G01D02*
G03X402500Y1174750I1250J0D01*
G01D02*
G03X403750Y1176000I0J1250D01*
G01X382750Y1262200D02*
G03X384000Y1260950I1250J0D01*
G01D02*
G03X385250Y1262200I0J1250D01*
G01D02*
G03X384000Y1263450I-1250J0D01*
G01D02*
G03X382750Y1262200I0J-1250D01*
G01X403750Y1326000D02*
G03X402500Y1327250I-1250J0D01*
G01D02*
G03X401250Y1326000I0J-1250D01*
G01D02*
G03X402500Y1324750I1250J0D01*
G01D02*
G03X403750Y1326000I0J1250D01*
G01X385250Y1412200D02*
G03X384000Y1413450I-1250J0D01*
G01D02*
G03X382750Y1412200I0J-1250D01*
G01D02*
G03X384000Y1410950I1250J0D01*
G01D02*
G03X385250Y1412200I0J1250D01*
G01X470120Y230540D02*
X490120D01*
Y210540D01*
X470120D01*
Y230540D01*
X490120Y210540D01*
Y230540D01*
X470120Y210540D01*
G01X510120Y280540D02*
X550120D01*
Y200540D01*
X510120D01*
Y280540D01*
G01X500120D02*
X460120D01*
Y200540D01*
X500120D01*
Y280540D01*
G01X459630Y400120D02*
X499630D01*
Y320120D01*
X459630D01*
Y400120D01*
G01X509630D02*
X549630D01*
Y320120D01*
X509630D01*
Y400120D01*
G01X469630Y390120D02*
X489630D01*
Y370120D01*
X469630D01*
Y390120D01*
X489630Y370120D01*
Y390120D01*
X469630Y370120D01*
G01X480670Y1059050D02*
Y1019050D01*
X560670D01*
Y1059050D01*
X480670D01*
G01X480360Y1109740D02*
X560360D01*
Y1069740D01*
X480360D01*
Y1109740D01*
G01X490360Y1099740D02*
X510360D01*
Y1079740D01*
X490360D01*
Y1099740D01*
X510360Y1079740D01*
Y1099740D01*
X490360Y1079740D01*
G01X620350Y159730D02*
X580350D01*
Y79730D01*
X620350D01*
Y159730D01*
G01X619710Y279890D02*
X579710D01*
Y199890D01*
X619710D01*
Y279890D01*
G01X520120Y230540D02*
X540120D01*
Y210540D01*
X520120D01*
Y230540D01*
X540120Y210540D01*
Y230540D01*
X520120Y210540D01*
G01X620000Y400000D02*
X580000D01*
Y320000D01*
X620000D01*
Y400000D01*
G01X519630Y390120D02*
X539630D01*
Y370120D01*
X519630D01*
Y390120D01*
X539630Y370120D01*
Y390120D01*
X519630Y370120D01*
G01X530670Y1049050D02*
X550670D01*
Y1029050D01*
X530670D01*
Y1049050D01*
X550670Y1029050D01*
Y1049050D01*
X530670Y1029050D01*
G01X630350Y159730D02*
X670350D01*
Y79730D01*
X630350D01*
Y159730D01*
G01X640350Y109730D02*
X660350D01*
Y89730D01*
X640350D01*
Y109730D01*
X660350Y89730D01*
Y109730D01*
X640350Y89730D01*
G01X590350Y149730D02*
X610350D01*
Y129730D01*
X590350D01*
Y149730D01*
X610350Y129730D01*
Y149730D01*
X590350Y129730D01*
G01X629710Y279890D02*
X669710D01*
Y199890D01*
X629710D01*
Y279890D01*
G01X639710Y269890D02*
X659710D01*
Y249890D01*
X639710D01*
Y269890D01*
X659710Y249890D01*
Y269890D01*
X639710Y249890D01*
G01X589710Y229890D02*
X609710D01*
Y209890D01*
X589710D01*
Y229890D01*
X609710Y209890D01*
Y229890D01*
X589710Y209890D01*
G01X630000Y400000D02*
X670000D01*
Y320000D01*
X630000D01*
Y400000D01*
G01X590000Y390000D02*
X610000D01*
Y370000D01*
X590000D01*
Y390000D01*
X610000Y370000D01*
Y390000D01*
X590000Y370000D01*
G01X640000Y390000D02*
X660000D01*
Y370000D01*
X640000D01*
Y390000D01*
X660000Y370000D01*
Y390000D01*
X640000Y370000D01*
G01X603250Y592500D02*
G03X602000Y593750I-1250J0D01*
G01D02*
G03X600750Y592500I0J-1250D01*
G01D02*
G03X602000Y591250I1250J0D01*
G01D02*
G03X603250Y592500I0J1250D01*
G01X655000Y848000D02*
Y864000D01*
G01X647000Y856000D02*
X663000D01*
G01X600000Y1050000D02*
X620000D01*
Y1030000D01*
X600000D01*
Y1050000D01*
X620000Y1030000D01*
Y1050000D01*
X600000Y1030000D01*
G01X590000Y1060000D02*
X670000D01*
Y1020000D01*
X590000D01*
Y1060000D01*
G01Y1110000D02*
Y1070000D01*
X670000D01*
Y1110000D01*
X590000D01*
G01X640000Y1100000D02*
X660000D01*
Y1080000D01*
X640000D01*
Y1100000D01*
X660000Y1080000D01*
Y1100000D01*
X640000Y1080000D01*
G01X655000Y1158000D02*
Y1174000D01*
G01X647000Y1166000D02*
X663000D01*
G01X655000Y1308000D02*
Y1324000D01*
G01X647000Y1316000D02*
X663000D01*
G01X678000Y530000D02*
X694000D01*
G01X686000Y538000D02*
Y522000D01*
G01Y588000D02*
Y572000D01*
G01X678000Y580000D02*
X694000D01*
G01X700420Y1059220D02*
Y1019220D01*
X780420D01*
Y1059220D01*
X700420D01*
G01X699720Y1110160D02*
Y1070160D01*
X779720D01*
Y1110160D01*
X699720D01*
G01X800000Y518000D02*
Y534000D01*
G01X792000Y526000D02*
X808000D01*
G01X750420Y1049220D02*
X770420D01*
Y1029220D01*
X750420D01*
Y1049220D01*
X770420Y1029220D01*
Y1049220D01*
X750420Y1029220D01*
G01X795750Y975000D02*
G03X794500Y976250I-1250J0D01*
G01D02*
G03X793250Y975000I0J-1250D01*
G01D02*
G03X794500Y973750I1250J0D01*
G01D02*
G03X795750Y975000I0J1250D01*
G01X749720Y1100160D02*
X769720D01*
Y1080160D01*
X749720D01*
Y1100160D01*
X769720Y1080160D01*
Y1100160D01*
X749720Y1080160D01*
G01X795750Y1285000D02*
G03X794500Y1286250I-1250J0D01*
G01D02*
G03X793250Y1285000I0J-1250D01*
G01D02*
G03X794500Y1283750I1250J0D01*
G01D02*
G03X795750Y1285000I0J1250D01*
G01Y1435000D02*
G03X794500Y1436250I-1250J0D01*
G01D02*
G03X793250Y1435000I0J-1250D01*
G01D02*
G03X794500Y1433750I1250J0D01*
G01D02*
G03X795750Y1435000I0J1250D01*
G01X790000Y1703800D02*
Y1687800D01*
G01X798000Y1695800D02*
X782000D01*
G01X790000Y1805400D02*
Y1789400D01*
G01X798000Y1797400D02*
X782000D01*
G01X790000Y1907000D02*
Y1891000D01*
G01X798000Y1899000D02*
X782000D01*
G01X790000Y2012000D02*
Y1996000D01*
G01X798000Y2004000D02*
X782000D01*
M02*
