G04 ================== begin FILE IDENTIFICATION RECORD ==================*
G04 Layout Name:  e:/ORCAD_sch/P400/KVP_03v1/pcb/kvp_03v1.brd*
G04 Film Name:    SILK_TOP*
G04 File Format:  Gerber RS274X*
G04 File Origin:  Cadence Allegro 16.6-S003*
G04 Origin Date:  Fri Mar 15 11:57:03 2013*
G04 *
G04 Layer:  MANUFACTURING/AUTOSILK_TOP*
G04 *
G04 Offset:    (0.000 0.000)*
G04 Mirror:    No*
G04 Mode:      Positive*
G04 Rotation:  0*
G04 FullContactRelief:  No*
G04 UndefLineWidth:     0.200*
G04 ================== end FILE IDENTIFICATION RECORD ====================*
%FSLAX34Y34*MOMM*%
%IR0*IPPOS*OFA0.00000B0.00000*MIA0B0*SFA1.00000B1.00000*%
%ADD10C,.2*%
%ADD11C,.15*%
%ADD12C,.25*%
G75*
%LPD*%
G75*
G54D10*
G01X-45400Y2201550D02*
X4600D01*
Y2161550D01*
X-15400Y2141550D01*
Y1311550D01*
X4600Y1291550D01*
Y1251550D01*
X-45400D01*
G01X555000Y955000D02*
X625000D01*
Y855000D01*
X485000D01*
Y955000D01*
X555000D01*
G01Y1265000D02*
X625000D01*
Y1165000D01*
X485000D01*
Y1265000D01*
X555000D01*
G01Y1415000D02*
X625000D01*
Y1315000D01*
X485000D01*
Y1415000D01*
X555000D01*
G01X725000Y955000D02*
X795000D01*
Y855000D01*
X655000D01*
Y955000D01*
X725000D01*
G01Y1265000D02*
X795000D01*
Y1165000D01*
X655000D01*
Y1265000D01*
X725000D01*
G01Y1415000D02*
X795000D01*
Y1315000D01*
X655000D01*
Y1415000D01*
X725000D01*
G01X603250Y1612900D02*
Y1689100D01*
X755650D01*
Y1612900D01*
X603250D01*
G01Y1714500D02*
Y1790700D01*
X755650D01*
Y1714500D01*
X603250D01*
G01X615950Y1644650D02*
Y1657350D01*
G01Y1746250D02*
Y1758950D01*
G01X603250Y1816100D02*
Y1892300D01*
X755650D01*
Y1816100D01*
X603250D01*
G01X615950Y1847850D02*
Y1860550D01*
G01X603250Y1917700D02*
Y1993900D01*
X755650D01*
Y1917700D01*
X603250D01*
G01X615950Y1949450D02*
Y1962150D01*
G01X831850Y97790D02*
Y948690D01*
G01Y97790D02*
X958850D01*
Y948690D01*
X831850D01*
G01D02*
Y97790D01*
G01Y1170940D02*
Y2021840D01*
G01Y1170940D02*
X958850D01*
Y2021840D01*
X831850D01*
G01D02*
Y1170940D01*
G54D11*
G01X47210Y1311540D02*
X46810Y1310960D01*
X46550Y1310280D01*
Y1309500D01*
X46940Y1308620D01*
X47600Y1307940D01*
X48390Y1307450D01*
X49700Y1307060D01*
X50880Y1306970D01*
X52060Y1307160D01*
X52850Y1307450D01*
X53630Y1308040D01*
X54160Y1308720D01*
X54420Y1309400D01*
Y1310080D01*
X54160Y1310760D01*
X53760Y1311350D01*
X53240Y1311830D01*
G01X54420Y1317270D02*
X46550D01*
X48120Y1316100D01*
G01X54420D02*
Y1318440D01*
G01X4420Y1306970D02*
X-3450Y1309400D01*
X4420Y1311830D01*
G01X1670Y1310960D02*
Y1307840D01*
G01X4420Y1317270D02*
X-3450D01*
X-1880Y1316100D01*
G01X4420D02*
Y1318440D01*
G01X-12050Y2212960D02*
X-5300Y2225660D01*
G01X-12050D02*
X-5300Y2212960D01*
G01X4270D02*
Y2225660D01*
X2340Y2223120D01*
G01Y2212960D02*
X6200D01*
G01X131790Y612350D02*
X135010D01*
Y608540D01*
X134040Y607270D01*
X132920Y606420D01*
X131310Y606000D01*
X129700Y606420D01*
X128570Y607270D01*
X127610Y608540D01*
X126960Y610020D01*
X126640Y611710D01*
Y613200D01*
X126960Y614470D01*
X127610Y615950D01*
X128570Y617220D01*
X129540Y618060D01*
X130820Y618700D01*
X131950D01*
X133240Y618280D01*
X134200Y617430D01*
G01X140080Y606000D02*
Y618700D01*
X147470Y606000D01*
Y618700D01*
G01X153190Y606000D02*
Y618700D01*
X156400D01*
X157690Y618060D01*
X158660Y617220D01*
X159460Y615950D01*
X160100Y614470D01*
X160260Y612350D01*
X160100Y610230D01*
X159460Y608750D01*
X158660Y607480D01*
X157690Y606630D01*
X156400Y606000D01*
X153190D01*
G01X166460D02*
Y618700D01*
X170480D01*
X171770Y618060D01*
X172570Y617220D01*
X172890Y615520D01*
X172570Y613830D01*
X171610Y612770D01*
X170480Y612140D01*
X166460D01*
G01X170480D02*
X172890Y606000D01*
G01X103060Y1630230D02*
X106920D01*
G01X104820Y1632990D02*
Y1627480D01*
G01X114240Y1627900D02*
X115200Y1626850D01*
X116330Y1626210D01*
X117770Y1626000D01*
X119220Y1626420D01*
X120350Y1627270D01*
X121150Y1628750D01*
X121310Y1630440D01*
X120990Y1632140D01*
X120190Y1633200D01*
X119060Y1634040D01*
X117940Y1634250D01*
X116810Y1634040D01*
X115360Y1633200D01*
X115840Y1638700D01*
X120190D01*
G01X132010Y1632770D02*
X132660Y1633410D01*
X133140Y1634470D01*
X133460Y1635950D01*
X133140Y1637220D01*
X132490Y1638060D01*
X131370Y1638700D01*
X127030D01*
Y1626000D01*
X132330D01*
X133460Y1626850D01*
X134100Y1628120D01*
X134420Y1629600D01*
X134100Y1631080D01*
X133140Y1632350D01*
X132010Y1632770D01*
X127030D01*
G01X140460Y1626000D02*
Y1638700D01*
X144480D01*
X145770Y1638060D01*
X146570Y1637220D01*
X146890Y1635520D01*
X146570Y1633830D01*
X145610Y1632770D01*
X144480Y1632140D01*
X140460D01*
G01X144480D02*
X146890Y1626000D01*
G01X115640Y1680000D02*
Y1692700D01*
X119820Y1682120D01*
X124010Y1692700D01*
Y1680000D01*
G01X129400D02*
Y1692700D01*
G01X136150D02*
Y1680000D01*
G01Y1686350D02*
X129400D01*
G01X142670Y1690580D02*
X143630Y1691850D01*
X144760Y1692490D01*
X146050Y1692700D01*
X147660Y1692280D01*
X148780Y1691220D01*
X149100Y1689950D01*
X148940Y1688680D01*
X148300Y1687620D01*
X145080Y1685500D01*
X143630Y1684020D01*
X142670Y1681900D01*
X142350Y1680000D01*
X149100D01*
G01X141450Y660000D02*
X148200Y672700D01*
G01X141450D02*
X148200Y660000D01*
G01X154240Y661900D02*
X155200Y660850D01*
X156330Y660210D01*
X157770Y660000D01*
X159220Y660420D01*
X160350Y661270D01*
X161150Y662750D01*
X161310Y664440D01*
X160990Y666140D01*
X160190Y667200D01*
X159060Y668040D01*
X157940Y668250D01*
X156810Y668040D01*
X155360Y667200D01*
X155840Y672700D01*
X160190D01*
G01X277790Y1762350D02*
X281010D01*
Y1758540D01*
X280040Y1757270D01*
X278920Y1756420D01*
X277310Y1756000D01*
X275700Y1756420D01*
X274570Y1757270D01*
X273610Y1758540D01*
X272960Y1760020D01*
X272640Y1761710D01*
Y1763200D01*
X272960Y1764470D01*
X273610Y1765950D01*
X274570Y1767220D01*
X275540Y1768060D01*
X276820Y1768700D01*
X277950D01*
X279240Y1768280D01*
X280200Y1767430D01*
G01X286080Y1756000D02*
Y1768700D01*
X293470Y1756000D01*
Y1768700D01*
G01X299190Y1756000D02*
Y1768700D01*
X302400D01*
X303690Y1768060D01*
X304660Y1767220D01*
X305460Y1765950D01*
X306100Y1764470D01*
X306260Y1762350D01*
X306100Y1760230D01*
X305460Y1758750D01*
X304660Y1757480D01*
X303690Y1756630D01*
X302400Y1756000D01*
X299190D01*
G01X318890D02*
X312460D01*
Y1768700D01*
X318890D01*
G01X316320Y1762560D02*
X312460D01*
G01X306450Y1810000D02*
X313200Y1822700D01*
G01X306450D02*
X313200Y1810000D01*
G01X324710D02*
Y1822700D01*
X318750Y1813600D01*
X326800D01*
G01X325640Y2125000D02*
Y2137700D01*
X329820Y2127120D01*
X334010Y2137700D01*
Y2125000D01*
G01X345670D02*
Y2133470D01*
G01Y2131990D02*
X345030Y2132830D01*
X344060Y2133250D01*
X342940Y2133470D01*
X341810Y2133040D01*
X340840Y2132200D01*
X340200Y2130930D01*
X339880Y2129230D01*
X340200Y2127540D01*
X340840Y2126270D01*
X341810Y2125420D01*
X342940Y2125000D01*
X344060Y2125210D01*
X345030Y2125850D01*
X345670Y2126690D01*
G01X353470Y2125000D02*
Y2133470D01*
G01Y2131770D02*
X354280Y2132620D01*
X355080Y2133250D01*
X356210Y2133470D01*
X357010Y2133250D01*
X357980Y2132620D01*
G01X371250Y2132410D02*
X370120Y2133250D01*
X369160Y2133470D01*
X367870Y2133040D01*
X366910Y2132200D01*
X366260Y2130710D01*
X366100Y2129230D01*
X366260Y2127750D01*
X366910Y2126480D01*
X367870Y2125420D01*
X369160Y2125000D01*
X370280Y2125420D01*
X371250Y2126270D01*
G01X378890Y2125000D02*
Y2137700D01*
G01Y2131560D02*
X379690Y2132620D01*
X380500Y2133250D01*
X381790Y2133470D01*
X382750Y2133250D01*
X383880Y2132410D01*
X384360Y2131140D01*
Y2125000D01*
G01X404470Y2135580D02*
X405430Y2136850D01*
X406560Y2137490D01*
X407850Y2137700D01*
X409460Y2137280D01*
X410580Y2136220D01*
X410900Y2134950D01*
X410740Y2133680D01*
X410100Y2132620D01*
X406880Y2130500D01*
X405430Y2129020D01*
X404470Y2126900D01*
X404150Y2125000D01*
X410900D01*
G01X420470Y2137700D02*
X419190Y2137280D01*
X418220Y2136220D01*
X417580Y2134950D01*
X417100Y2133250D01*
X416940Y2131350D01*
X417100Y2129440D01*
X417580Y2127750D01*
X418220Y2126480D01*
X419190Y2125420D01*
X420470Y2125000D01*
X421760Y2125420D01*
X422730Y2126480D01*
X423370Y2127750D01*
X423850Y2129440D01*
X424010Y2131350D01*
X423850Y2133250D01*
X423370Y2134950D01*
X422730Y2136220D01*
X421760Y2137280D01*
X420470Y2137700D01*
G01X433420Y2125000D02*
Y2137700D01*
X431490Y2135160D01*
G01Y2125000D02*
X435350D01*
G01X442840Y2127540D02*
X443800Y2126060D01*
X445090Y2125210D01*
X446540Y2125000D01*
X447820Y2125210D01*
X449110Y2126270D01*
X449910Y2127540D01*
X450070Y2128810D01*
X449750Y2130290D01*
X448630Y2131350D01*
X447500Y2131770D01*
X446050D01*
G01X447500D02*
X448470Y2132410D01*
X449270Y2133470D01*
X449590Y2134740D01*
X449270Y2136010D01*
X448470Y2137060D01*
X447020Y2137700D01*
X445570Y2137490D01*
X444120Y2136640D01*
G01X326290Y2150000D02*
Y2162700D01*
G01X332400D02*
X326290Y2154870D01*
G01X333360Y2150000D02*
X329020Y2158470D01*
G01X338750Y2162700D02*
X342770Y2150000D01*
X346800Y2162700D01*
G01X352510Y2150000D02*
Y2162700D01*
X356370D01*
X357660Y2162060D01*
X358620Y2160580D01*
X358940Y2158890D01*
X358620Y2157200D01*
X357820Y2155930D01*
X356370Y2155290D01*
X352510D01*
G01X363850Y2145770D02*
X373500D01*
G01X381620Y2162700D02*
X380340Y2162280D01*
X379370Y2161220D01*
X378730Y2159950D01*
X378250Y2158250D01*
X378090Y2156350D01*
X378250Y2154440D01*
X378730Y2152750D01*
X379370Y2151480D01*
X380340Y2150420D01*
X381620Y2150000D01*
X382910Y2150420D01*
X383880Y2151480D01*
X384520Y2152750D01*
X385000Y2154440D01*
X385160Y2156350D01*
X385000Y2158250D01*
X384520Y2159950D01*
X383880Y2161220D01*
X382910Y2162280D01*
X381620Y2162700D01*
G01X391040Y2152540D02*
X392000Y2151060D01*
X393290Y2150210D01*
X394740Y2150000D01*
X396020Y2150210D01*
X397310Y2151270D01*
X398110Y2152540D01*
X398270Y2153810D01*
X397950Y2155290D01*
X396830Y2156350D01*
X395700Y2156770D01*
X394250D01*
G01X395700D02*
X396670Y2157410D01*
X397470Y2158470D01*
X397790Y2159740D01*
X397470Y2161010D01*
X396670Y2162060D01*
X395220Y2162700D01*
X393770Y2162490D01*
X392320Y2161640D01*
G01X404630Y2158470D02*
X407520Y2150000D01*
X410420Y2158470D01*
G01X420470Y2150000D02*
Y2162700D01*
X418540Y2160160D01*
G01Y2150000D02*
X422400D01*
G01X467060Y1980230D02*
X470920D01*
G01X468820Y1982990D02*
Y1977480D01*
G01X478720Y1986580D02*
X479680Y1987850D01*
X480810Y1988490D01*
X482100Y1988700D01*
X483710Y1988280D01*
X484830Y1987220D01*
X485150Y1985950D01*
X484990Y1984680D01*
X484350Y1983620D01*
X481130Y1981500D01*
X479680Y1980020D01*
X478720Y1977900D01*
X478400Y1976000D01*
X485150D01*
G01X496660D02*
Y1988700D01*
X490700Y1979600D01*
X498750D01*
G01X508960Y1982770D02*
X509610Y1983410D01*
X510090Y1984470D01*
X510410Y1985950D01*
X510090Y1987220D01*
X509440Y1988060D01*
X508320Y1988700D01*
X503980D01*
Y1976000D01*
X509280D01*
X510410Y1976850D01*
X511050Y1978120D01*
X511370Y1979600D01*
X511050Y1981080D01*
X510090Y1982350D01*
X508960Y1982770D01*
X503980D01*
G01X523840Y1976000D02*
X517410D01*
Y1988700D01*
X523840D01*
G01X521270Y1982560D02*
X517410D01*
G01X485640Y2030000D02*
Y2042700D01*
X489820Y2032120D01*
X494010Y2042700D01*
Y2030000D01*
G01X499400D02*
Y2042700D01*
G01X506150D02*
Y2030000D01*
G01Y2036350D02*
X499400D01*
G01X515720Y2030000D02*
Y2042700D01*
X513790Y2040160D01*
G01Y2030000D02*
X517650D01*
G01X546610Y960000D02*
Y972700D01*
X550630D01*
X551920Y972060D01*
X552720Y971220D01*
X553040Y969520D01*
X552720Y967830D01*
X551760Y966770D01*
X550630Y966140D01*
X546610D01*
G01X550630D02*
X553040Y960000D01*
G01X559720Y970580D02*
X560680Y971850D01*
X561810Y972490D01*
X563100Y972700D01*
X564710Y972280D01*
X565830Y971220D01*
X566150Y969950D01*
X565990Y968680D01*
X565350Y967620D01*
X562130Y965500D01*
X560680Y964020D01*
X559720Y961900D01*
X559400Y960000D01*
X566150D01*
G01X575720D02*
X576850Y960210D01*
X578140Y960850D01*
X578940Y961900D01*
X579260Y963390D01*
X578940Y964870D01*
X577980Y966140D01*
X576530Y966770D01*
X574920D01*
X573960Y967200D01*
X573150Y968250D01*
X572830Y969740D01*
X573310Y971220D01*
X574440Y972280D01*
X575720Y972700D01*
X577010Y972280D01*
X578140Y971220D01*
X578620Y969740D01*
X578300Y968250D01*
X577490Y967200D01*
X576530Y966770D01*
X574920D01*
X573470Y966140D01*
X572510Y964870D01*
X572190Y963390D01*
X572510Y961900D01*
X573310Y960850D01*
X574600Y960210D01*
X575720Y960000D01*
G01X546610Y1270000D02*
Y1282700D01*
X550630D01*
X551920Y1282060D01*
X552720Y1281220D01*
X553040Y1279520D01*
X552720Y1277830D01*
X551760Y1276770D01*
X550630Y1276140D01*
X546610D01*
G01X550630D02*
X553040Y1270000D01*
G01X559720Y1280580D02*
X560680Y1281850D01*
X561810Y1282490D01*
X563100Y1282700D01*
X564710Y1282280D01*
X565830Y1281220D01*
X566150Y1279950D01*
X565990Y1278680D01*
X565350Y1277620D01*
X562130Y1275500D01*
X560680Y1274020D01*
X559720Y1271900D01*
X559400Y1270000D01*
X566150D01*
G01X572670Y1280580D02*
X573630Y1281850D01*
X574760Y1282490D01*
X576050Y1282700D01*
X577660Y1282280D01*
X578780Y1281220D01*
X579100Y1279950D01*
X578940Y1278680D01*
X578300Y1277620D01*
X575080Y1275500D01*
X573630Y1274020D01*
X572670Y1271900D01*
X572350Y1270000D01*
X579100D01*
G01X546610Y1420000D02*
Y1432700D01*
X550630D01*
X551920Y1432060D01*
X552720Y1431220D01*
X553040Y1429520D01*
X552720Y1427830D01*
X551760Y1426770D01*
X550630Y1426140D01*
X546610D01*
G01X550630D02*
X553040Y1420000D01*
G01X562770D02*
Y1432700D01*
X560840Y1430160D01*
G01Y1420000D02*
X564700D01*
G01X572670Y1425290D02*
X573790Y1426770D01*
X574760Y1427620D01*
X576050Y1428040D01*
X577170Y1427620D01*
X577980Y1426770D01*
X578620Y1425500D01*
X578780Y1424020D01*
X578620Y1422750D01*
X577980Y1421480D01*
X577010Y1420420D01*
X575890Y1420000D01*
X574600Y1420420D01*
X573470Y1421690D01*
X572830Y1423600D01*
X572670Y1425710D01*
X572990Y1428470D01*
X573470Y1429950D01*
X574280Y1431430D01*
X575400Y1432490D01*
X576530Y1432700D01*
X577660Y1432280D01*
X578460Y1431220D01*
G01X600150Y1641990D02*
X587450D01*
G01Y1648100D02*
X595280Y1641990D01*
G01X600150Y1649060D02*
X591680Y1644720D01*
G01X600150Y1660410D02*
X587450D01*
X596550Y1654450D01*
Y1662500D01*
G01X600150Y1743590D02*
X587450D01*
G01Y1749700D02*
X595280Y1743590D01*
G01X600150Y1750660D02*
X591680Y1746320D01*
G01X597610Y1756540D02*
X599090Y1757500D01*
X599940Y1758790D01*
X600150Y1760240D01*
X599940Y1761520D01*
X598880Y1762810D01*
X597610Y1763610D01*
X596340Y1763770D01*
X594860Y1763450D01*
X593800Y1762330D01*
X593380Y1761200D01*
Y1759750D01*
G01Y1761200D02*
X592740Y1762170D01*
X591680Y1762970D01*
X590410Y1763290D01*
X589140Y1762970D01*
X588090Y1762170D01*
X587450Y1760720D01*
X587660Y1759270D01*
X588510Y1757820D01*
G01X600150Y1845190D02*
X587450D01*
G01Y1851300D02*
X595280Y1845190D01*
G01X600150Y1852260D02*
X591680Y1847920D01*
G01X589570Y1858620D02*
X588300Y1859580D01*
X587660Y1860710D01*
X587450Y1862000D01*
X587870Y1863610D01*
X588930Y1864730D01*
X590200Y1865050D01*
X591470Y1864890D01*
X592530Y1864250D01*
X594650Y1861030D01*
X596130Y1859580D01*
X598250Y1858620D01*
X600150Y1858300D01*
Y1865050D01*
G01Y1946790D02*
X587450D01*
G01Y1952900D02*
X595280Y1946790D01*
G01X600150Y1953860D02*
X591680Y1949520D01*
G01X600150Y1963270D02*
X587450D01*
X589990Y1961340D01*
G01X600150D02*
Y1965200D01*
G01X716610Y960000D02*
Y972700D01*
X720630D01*
X721920Y972060D01*
X722720Y971220D01*
X723040Y969520D01*
X722720Y967830D01*
X721760Y966770D01*
X720630Y966140D01*
X716610D01*
G01X720630D02*
X723040Y960000D01*
G01X729720Y970580D02*
X730680Y971850D01*
X731810Y972490D01*
X733100Y972700D01*
X734710Y972280D01*
X735830Y971220D01*
X736150Y969950D01*
X735990Y968680D01*
X735350Y967620D01*
X732130Y965500D01*
X730680Y964020D01*
X729720Y961900D01*
X729400Y960000D01*
X736150D01*
G01X742990Y961480D02*
X744120Y960420D01*
X745400Y960000D01*
X746690Y960420D01*
X747820Y961690D01*
X748620Y963600D01*
X748940Y965500D01*
Y967830D01*
X748620Y969740D01*
X747820Y971430D01*
X746850Y972280D01*
X745720Y972700D01*
X744440Y972280D01*
X743470Y971430D01*
X742830Y970160D01*
X742510Y968470D01*
X742830Y966990D01*
X743630Y965500D01*
X744600Y964660D01*
X745720Y964440D01*
X747010Y964870D01*
X747980Y965930D01*
X748940Y967830D01*
G01X716610Y1270000D02*
Y1282700D01*
X720630D01*
X721920Y1282060D01*
X722720Y1281220D01*
X723040Y1279520D01*
X722720Y1277830D01*
X721760Y1276770D01*
X720630Y1276140D01*
X716610D01*
G01X720630D02*
X723040Y1270000D01*
G01X729720Y1280580D02*
X730680Y1281850D01*
X731810Y1282490D01*
X733100Y1282700D01*
X734710Y1282280D01*
X735830Y1281220D01*
X736150Y1279950D01*
X735990Y1278680D01*
X735350Y1277620D01*
X732130Y1275500D01*
X730680Y1274020D01*
X729720Y1271900D01*
X729400Y1270000D01*
X736150D01*
G01X742190Y1272540D02*
X743150Y1271060D01*
X744440Y1270210D01*
X745890Y1270000D01*
X747170Y1270210D01*
X748460Y1271270D01*
X749260Y1272540D01*
X749420Y1273810D01*
X749100Y1275290D01*
X747980Y1276350D01*
X746850Y1276770D01*
X745400D01*
G01X746850D02*
X747820Y1277410D01*
X748620Y1278470D01*
X748940Y1279740D01*
X748620Y1281010D01*
X747820Y1282060D01*
X746370Y1282700D01*
X744920Y1282490D01*
X743470Y1281640D01*
G01X716610Y1420000D02*
Y1432700D01*
X720630D01*
X721920Y1432060D01*
X722720Y1431220D01*
X723040Y1429520D01*
X722720Y1427830D01*
X721760Y1426770D01*
X720630Y1426140D01*
X716610D01*
G01X720630D02*
X723040Y1420000D01*
G01X732770D02*
Y1432700D01*
X730840Y1430160D01*
G01Y1420000D02*
X734700D01*
G01X745400D02*
X745720Y1422750D01*
X746210Y1425080D01*
X746850Y1427200D01*
X747660Y1429520D01*
X748940Y1432700D01*
X742510D01*
G01X885500Y961040D02*
X892250Y973740D01*
G01X885500D02*
X892250Y961040D01*
G01X898290Y963580D02*
X899250Y962100D01*
X900540Y961250D01*
X901990Y961040D01*
X903270Y961250D01*
X904560Y962310D01*
X905360Y963580D01*
X905520Y964850D01*
X905200Y966330D01*
X904080Y967390D01*
X902950Y967810D01*
X901500D01*
G01X902950D02*
X903920Y968450D01*
X904720Y969510D01*
X905040Y970780D01*
X904720Y972050D01*
X903920Y973100D01*
X902470Y973740D01*
X901020Y973530D01*
X899570Y972680D01*
G01X885500Y2034540D02*
X892250Y2047240D01*
G01X885500D02*
X892250Y2034540D01*
G01X898770Y2045120D02*
X899730Y2046390D01*
X900860Y2047030D01*
X902150Y2047240D01*
X903760Y2046820D01*
X904880Y2045760D01*
X905200Y2044490D01*
X905040Y2043220D01*
X904400Y2042160D01*
X901180Y2040040D01*
X899730Y2038560D01*
X898770Y2036440D01*
X898450Y2034540D01*
X905200D01*
G54D12*
G01X180000Y655000D02*
Y625000D01*
X120000D01*
Y655000D01*
X180000D01*
G01X325000Y1805000D02*
Y1775000D01*
X265000D01*
Y1805000D01*
X325000D01*
G01X611250Y1606500D02*
G03I-1250J0D01*
G01Y1708100D02*
G03I-1250J0D01*
G01Y1809700D02*
G03I-1250J0D01*
G01Y1911300D02*
G03I-1250J0D01*
G01X858500Y116840D02*
G03I-1250J0D01*
G01Y1189990D02*
G03I-1250J0D01*
M02*
