G04 ================== begin FILE IDENTIFICATION RECORD ==================*
G04 Layout Name:  D:/Project/Circuit/ORCAD/KVP/03v1/pcb/kvp_03v1.brd*
G04 Film Name:    TOP*
G04 File Format:  Gerber RS274X*
G04 File Origin:  Cadence Allegro 16.6-S017*
G04 Origin Date:  Tue Oct 22 15:15:47 2013*
G04 *
G04 Layer:  ETCH/TOP*
G04 Layer:  PIN/TOP*
G04 Layer:  VIA CLASS/TOP*
G04 *
G04 Offset:    (0.000 0.000)*
G04 Mirror:    No*
G04 Mode:      Positive*
G04 Rotation:  0*
G04 FullContactRelief:  No*
G04 UndefLineWidth:     0.250*
G04 ================== end FILE IDENTIFICATION RECORD ====================*
%FSLAX34Y34*MOMM*%
%IR0*IPPOS*OFA0.00000B0.00000*MIA0B0*SFA1.00000B1.00000*%
%ADD23R,2.X.6*%
%ADD20R,1.1X.6*%
%ADD21R,2.2X.6*%
%ADD11C,1.*%
%ADD16C,3.1*%
%ADD10C,4.*%
%ADD30C,2.5*%
%ADD17C,1.6*%
%ADD14R,.95X1.4*%
%ADD27R,1.4X.95*%
%ADD13C,1.55*%
%ADD22R,1.55X.65*%
%ADD15R,2.05X2.05*%
%ADD28C,1.95*%
%ADD12R,1.55X1.55*%
%ADD25R,1.95X1.95*%
%ADD18R,1.1X1.4*%
%ADD19R,1.1X2.7*%
%ADD24O,1.X1.95*%
%ADD29R,1.4X1.8*%
%ADD31R,2.5X2.5*%
%ADD32C,.2*%
%ADD26R,.5X.9*%
%ADD33C,.5*%
%ADD34C,.25*%
%ADD35C,.45*%
%ADD36C,2.258*%
%ADD37C,2.958*%
G75*
%LPD*%
G75*
G36*
G01X35890Y-552430D02*
G03X30590Y-547680I-10488J-6371D01*
G01X30260Y-547530D01*
X29870Y-546930D01*
X29810Y-543970D01*
X30170Y-543360D01*
X30490Y-543200D01*
G03Y-523600I-5090J9800D01*
G01X30170Y-523440D01*
X29810Y-522830D01*
X29870Y-519870D01*
X30260Y-519270D01*
X30590Y-519120D01*
G03X37250Y-504800I-5188J11122D01*
G01X37170Y-504510D01*
X37280Y-503950D01*
X38670Y-502140D01*
G02X39660Y-501650I992J-759D01*
G01X61940D01*
G02X62930Y-502140I-2J-1249D01*
G01X64320Y-503950D01*
X64430Y-504510D01*
X64350Y-504800D01*
G03X71010Y-519120I11848J-3198D01*
G01X71340Y-519270D01*
X71730Y-519870D01*
X71790Y-522830D01*
X71430Y-523440D01*
X71110Y-523600D01*
G03Y-543200I5090J-9800D01*
G01X71430Y-543360D01*
X71790Y-543970D01*
X71730Y-546930D01*
X71340Y-547530D01*
X71010Y-547680D01*
G03X65710Y-552430I5188J-11121D01*
G02X64650Y-553030I-1067J649D01*
G01X36950D01*
G02X35890Y-552430I7J1249D01*
G37*
G36*
G01X35570Y-221730D02*
G03X33050Y-219000I-10174J-6863D01*
G01X32610Y-218660D01*
X32120Y-217680D01*
X31970Y-212760D01*
X32390Y-211760D01*
X32810Y-211390D01*
G03Y-195010I-7410J8190D01*
G01X32390Y-194640D01*
X31970Y-193640D01*
X32120Y-188720D01*
X32610Y-187740D01*
X33050Y-187400D01*
G03X36380Y-172330I-7651J9594D01*
G01X36090Y-171740D01*
X36150Y-170450D01*
X38730Y-166280D01*
G02X40860Y-165100I2124J-1321D01*
G01X60740D01*
G02X62870Y-166280I6J-2501D01*
G01X65450Y-170450D01*
X65510Y-171740D01*
X65220Y-172330D01*
G03X68550Y-187400I10981J-5476D01*
G01X68990Y-187740D01*
X69480Y-188720D01*
X69630Y-193640D01*
X69210Y-194640D01*
X68790Y-195010D01*
G03Y-211390I7410J-8190D01*
G01X69210Y-211760D01*
X69630Y-212760D01*
X69480Y-217680D01*
X68990Y-218660D01*
X68550Y-219000D01*
G03X66030Y-221730I7654J-9593D01*
G02X63960Y-222830I-2071J1399D01*
G01X37640D01*
G02X35570Y-221730I1J2499D01*
G37*
G36*
G01X244950Y-1962150D02*
G02X234950Y-1952150I0J10000D01*
G01Y-1737690D01*
G03X232020Y-1730620I-10000J-2D01*
G01X117230Y-1615830D01*
G02X114300Y-1608760I7070J7072D01*
G01Y-708500D01*
G03X111500Y-701560I-10001J0D01*
G01X111230Y-701280D01*
X111100Y-700550D01*
X112140Y-698080D01*
G02X113290Y-697320I1151J-491D01*
G01X119980D01*
G02X121230Y-698570I0J-1250D01*
G01Y-1597570D01*
G03X124780Y-1606140I12120J0D01*
G01X253910Y-1735270D01*
G02X254280Y-1736160I-880J-888D01*
G01Y-1746400D01*
G02X253910Y-1747290I-1250J-2D01*
G01X251780Y-1749420D01*
G03X248230Y-1757990I8570J-8570D01*
G01Y-1842530D01*
G03X251780Y-1851100I12120J0D01*
G01X260760Y-1860080D01*
G03X267970Y-1863550I8566J8573D01*
G01X268450Y-1863610D01*
X269080Y-1864310D01*
Y-1864650D01*
X270310Y-1865880D01*
Y-1872400D01*
G03X271560Y-1873650I1250J0D01*
G01X286640D01*
G03X287890Y-1872400I0J1250D01*
G01Y-1866110D01*
X289120Y-1864880D01*
Y-1864440D01*
G02X289720Y-1863370I1250J3D01*
G01X291850Y-1862090D01*
X292490Y-1862070D01*
X292790Y-1862230D01*
G03X294260Y-1862880I5626J10735D01*
G01X294640Y-1863020D01*
X295080Y-1863650D01*
Y-1873630D01*
G03X296330Y-1874880I1250J0D01*
G01X313870D01*
G03X315120Y-1873630I0J1250D01*
G01X315620Y-1873130D01*
X318010D01*
X318420Y-1873290D01*
X318600Y-1873450D01*
G03X326100Y-1876330I7506J8340D01*
G01X326130D01*
G02X327380Y-1877580I0J-1250D01*
G01X328610Y-1878810D01*
Y-1885190D01*
G02X327360Y-1886440I-1250J0D01*
G01X318220D01*
G02X316970Y-1885190I0J1250D01*
G01Y-1885170D01*
X316240Y-1884440D01*
X297660D01*
X296430Y-1885670D01*
X282410D01*
G03X281160Y-1886920I0J-1250D01*
G01Y-1905000D01*
G03X282410Y-1906250I1250J0D01*
G01X296200D01*
X297430Y-1907480D01*
Y-1911900D01*
X297580Y-1912050D01*
Y-1944480D01*
G03X298830Y-1945730I1250J0D01*
G01X315250D01*
G02X316070Y-1946040I-4J-1250D01*
G03X326480Y-1949930I10409J11980D01*
G01X342900D01*
G03X345950Y-1949430I5J9521D01*
G01X346240Y-1949330D01*
X346830Y-1949420D01*
X348730Y-1950780D01*
G02X349250Y-1951800I-730J-1015D01*
G01Y-1952150D01*
G02X339250Y-1962150I-10000J0D01*
G01X244950D01*
G37*
G36*
G01X334790Y-1777380D02*
Y-1759920D01*
G03X333540Y-1758670I-1250J0D01*
G01X319750D01*
X318520Y-1757440D01*
X300230D01*
G03X298980Y-1758690I0J-1250D01*
G01Y-1758710D01*
X298250Y-1759440D01*
X293320D01*
G02X292070Y-1758190I0J1250D01*
G01Y-1743560D01*
G03X291850Y-1741520I-9521J5D01*
G01X291820Y-1741390D01*
Y-1733290D01*
G03X290570Y-1732040I-1250J0D01*
G01X279120D01*
X278510Y-1731640D01*
X278360Y-1731280D01*
G03X277130Y-1729470I-5302J-2280D01*
G01X139290Y-1591630D01*
G02X139120Y-1591220I410J410D01*
G01Y-674830D01*
G03X135570Y-666260I-12120J0D01*
G01X133440Y-664130D01*
G02X133070Y-663240I880J888D01*
G01Y-642020D01*
G02X134320Y-640770I1250J0D01*
G01X135240D01*
G02X135650Y-640940I0J-580D01*
G01X146460Y-651750D01*
G02X146630Y-652160I-410J-410D01*
G01Y-1363190D01*
G03X150180Y-1371760I12120J0D01*
G01X254330Y-1475910D01*
G02X254600Y-1477270I-886J-883D01*
G01X254380Y-1477810D01*
G03X254280Y-1478290I1149J-490D01*
G01Y-1492400D01*
G02X253910Y-1493290I-1250J-2D01*
G01X251780Y-1495420D01*
G03X248230Y-1503990I8570J-8570D01*
G01Y-1588530D01*
G03X251780Y-1597100I12120J0D01*
G01X260760Y-1606080D01*
G03X267970Y-1609550I8566J8573D01*
G01X268450Y-1609610D01*
X269080Y-1610310D01*
Y-1610650D01*
X270310Y-1611880D01*
Y-1618400D01*
G03X271560Y-1619650I1250J0D01*
G01X286640D01*
G03X287890Y-1618400I0J1250D01*
G01Y-1612110D01*
X289120Y-1610880D01*
Y-1610440D01*
G02X289720Y-1609370I1250J3D01*
G01X291850Y-1608090D01*
X292490Y-1608070D01*
X292790Y-1608230D01*
G03X294260Y-1608880I5626J10735D01*
G01X294640Y-1609020D01*
X295080Y-1609650D01*
Y-1619630D01*
G03X296330Y-1620880I1250J0D01*
G01X313870D01*
G03X315120Y-1619630I0J1250D01*
G01X315620Y-1619130D01*
X318010D01*
X318420Y-1619290D01*
X318600Y-1619450D01*
G03X326100Y-1622330I7506J8340D01*
G01X326130D01*
G02X327380Y-1623580I0J-1250D01*
G01X328610Y-1624810D01*
Y-1631190D01*
G02X327360Y-1632440I-1250J0D01*
G01X318220D01*
G02X316970Y-1631190I0J1250D01*
G01Y-1631170D01*
X316240Y-1630440D01*
X297660D01*
X296430Y-1631670D01*
X282410D01*
G03X281160Y-1632920I0J-1250D01*
G01Y-1651000D01*
G03X282410Y-1652250I1250J0D01*
G01X296200D01*
X297430Y-1653480D01*
Y-1657900D01*
X297580Y-1658050D01*
Y-1690480D01*
G03X298830Y-1691730I1250J0D01*
G01X315250D01*
G02X316070Y-1692040I-4J-1250D01*
G03X326480Y-1695930I10409J11980D01*
G01X342900D01*
G03X345950Y-1695430I5J9521D01*
G01X346240Y-1695330D01*
X346830Y-1695420D01*
X348730Y-1696780D01*
G02X349250Y-1697800I-730J-1015D01*
G01Y-1776620D01*
G02X348730Y-1777640I-1250J-5D01*
G01X346830Y-1779000D01*
X346240Y-1779090D01*
X345950Y-1778990D01*
G03X338460Y-1779590I-3047J-9020D01*
G01X338160Y-1779750D01*
X337520Y-1779730D01*
X335390Y-1778450D01*
G02X334790Y-1777380I651J1068D01*
G37*
G36*
G01Y-1523380D02*
Y-1505920D01*
G03X333540Y-1504670I-1250J0D01*
G01X319750D01*
X318520Y-1503440D01*
X300230D01*
G03X298980Y-1504690I0J-1250D01*
G01Y-1504710D01*
X298250Y-1505440D01*
X293320D01*
G02X292070Y-1504190I0J1250D01*
G01Y-1489560D01*
G03X291850Y-1487520I-9521J5D01*
G01X291820Y-1487390D01*
Y-1479290D01*
G03X290570Y-1478040I-1250J0D01*
G01X279300D01*
X278620Y-1477520D01*
X278520Y-1477090D01*
G03X275840Y-1472350I-9879J-2458D01*
G01X164690Y-1361200D01*
G02X164520Y-1360790I410J410D01*
G01Y-636840D01*
G03X160970Y-628270I-12120J0D01*
G01X140080Y-607380D01*
G03X134060Y-604100I-8572J-8569D01*
G01X133620Y-604010D01*
X133070Y-603330D01*
Y-591220D01*
G02X134320Y-589970I1250J0D01*
G01X139530D01*
G02X139940Y-590140I0J-580D01*
G01X171860Y-622060D01*
G02X172030Y-622470I-410J-410D01*
G01Y-1136420D01*
G03X175580Y-1144990I12120J0D01*
G01X254630Y-1224040D01*
X254280D01*
Y-1238400D01*
G02X253910Y-1239290I-1250J-2D01*
G01X251780Y-1241420D01*
G03X248230Y-1249990I8570J-8570D01*
G01Y-1334530D01*
G03X251780Y-1343100I12120J0D01*
G01X260760Y-1352080D01*
G03X267970Y-1355550I8566J8573D01*
G01X268450Y-1355610D01*
X269080Y-1356310D01*
Y-1356650D01*
X270310Y-1357880D01*
Y-1364400D01*
G03X271560Y-1365650I1250J0D01*
G01X286640D01*
G03X287890Y-1364400I0J1250D01*
G01Y-1358110D01*
X289120Y-1356880D01*
Y-1356440D01*
G02X289720Y-1355370I1250J3D01*
G01X291850Y-1354090D01*
X292490Y-1354070D01*
X292790Y-1354230D01*
G03X294260Y-1354880I5626J10735D01*
G01X294640Y-1355020D01*
X295080Y-1355650D01*
Y-1365630D01*
G03X296330Y-1366880I1250J0D01*
G01X313870D01*
G03X315120Y-1365630I0J1250D01*
G01X315620Y-1365130D01*
X318010D01*
X318420Y-1365290D01*
X318600Y-1365450D01*
G03X326100Y-1368330I7506J8340D01*
G01X326130D01*
G02X327380Y-1369580I0J-1250D01*
G01X328610Y-1370810D01*
Y-1377190D01*
G02X327360Y-1378440I-1250J0D01*
G01X318220D01*
G02X316970Y-1377190I0J1250D01*
G01Y-1377170D01*
X316240Y-1376440D01*
X297660D01*
X296430Y-1377670D01*
X282410D01*
G03X281160Y-1378920I0J-1250D01*
G01Y-1397000D01*
G03X282410Y-1398250I1250J0D01*
G01X296200D01*
X297430Y-1399480D01*
Y-1403900D01*
X297580Y-1404050D01*
Y-1436480D01*
G03X298830Y-1437730I1250J0D01*
G01X315250D01*
G02X316070Y-1438040I-4J-1250D01*
G03X326480Y-1441930I10409J11980D01*
G01X342900D01*
G03X345950Y-1441430I5J9521D01*
G01X346240Y-1441330D01*
X346830Y-1441420D01*
X348730Y-1442780D01*
G02X349250Y-1443800I-730J-1015D01*
G01Y-1522620D01*
G02X348730Y-1523640I-1250J-5D01*
G01X346830Y-1525000D01*
X346240Y-1525090D01*
X345950Y-1524990D01*
G03X338460Y-1525590I-3047J-9020D01*
G01X338160Y-1525750D01*
X337520Y-1525730D01*
X335390Y-1524450D01*
G02X334790Y-1523380I651J1068D01*
G37*
G36*
G01Y-1269380D02*
Y-1251920D01*
G03X333540Y-1250670I-1250J0D01*
G01X319750D01*
X318520Y-1249440D01*
X300230D01*
G03X298980Y-1250690I0J-1250D01*
G01Y-1250710D01*
X298250Y-1251440D01*
X293320D01*
G02X292070Y-1250190I0J1250D01*
G01Y-1235560D01*
G03X291850Y-1233520I-9521J5D01*
G01X291820Y-1233390D01*
Y-1225290D01*
G03X290570Y-1224040I-1250J0D01*
G01X279120D01*
X278510Y-1223640D01*
X278360Y-1223280D01*
G03X277130Y-1221470I-5302J-2280D01*
G01X190090Y-1134430D01*
G02X189920Y-1134020I410J410D01*
G01Y-612230D01*
G03X186370Y-603660I-12120J0D01*
G01X139290Y-556580D01*
G03X133980Y-553480I-8565J-8574D01*
G01X133570Y-553360D01*
X133070Y-552700D01*
Y-548530D01*
G03X131820Y-547280I-1250J0D01*
G01X96780D01*
G03X95530Y-548530I0J-1250D01*
G01Y-551780D01*
G02X94280Y-553030I-1250J0D01*
G01X87750D01*
G02X86690Y-552430I7J1249D01*
G03X81390Y-547680I-10488J-6371D01*
G01X81060Y-547530D01*
X80670Y-546930D01*
X80610Y-543970D01*
X80970Y-543360D01*
X81290Y-543200D01*
G03X85640Y-527670I-5089J9800D01*
G01X85410Y-527290D01*
X85510Y-526450D01*
X85820Y-526140D01*
G02X87590I885J-882D01*
G01X90360Y-528910D01*
G02X90730Y-529800I-880J-888D01*
G01Y-540570D01*
G03X91980Y-541820I1250J0D01*
G01X119020D01*
G03X120270Y-540570I0J1250D01*
G01Y-513530D01*
G03X119020Y-512280I-1250J0D01*
G01X108250D01*
G02X107360Y-511910I-2J1250D01*
G01X99230Y-503780D01*
G02X98960Y-502420I885J882D01*
G01X99110Y-502070D01*
X99730Y-501650D01*
X129210D01*
G02X136280Y-504580I-2J-10000D01*
G01X143080Y-511380D01*
G02X143350Y-512740I-886J-883D01*
G01X143200Y-513090D01*
X142580Y-513510D01*
X136210D01*
G03X134960Y-514760I0J-1250D01*
G01Y-539340D01*
G03X136210Y-540590I1250J0D01*
G01X160790D01*
G03X162040Y-539340I0J1250D01*
G01Y-533360D01*
G02X162810Y-532200I1250J6D01*
G01X163170Y-532050D01*
X163900Y-532200D01*
X212970Y-581270D01*
G02X215900Y-588340I-7070J-7072D01*
G01Y-1100760D01*
G03X218830Y-1107830I10000J2D01*
G01X346320Y-1235320D01*
G02X349250Y-1242390I-7070J-7072D01*
G01Y-1268620D01*
G02X348730Y-1269640I-1250J-5D01*
G01X346830Y-1271000D01*
X346240Y-1271090D01*
X345950Y-1270990D01*
G03X338460Y-1271590I-3047J-9020D01*
G01X338160Y-1271750D01*
X337520Y-1271730D01*
X335390Y-1270450D01*
G02X334790Y-1269380I651J1068D01*
G37*
G36*
G01X347040Y-1066800D02*
G02X339970Y-1063870I2J10000D01*
G01X295030Y-1018930D01*
G02X292100Y-1011860I7070J7072D01*
G01Y-416890D01*
G03X289170Y-409820I-10000J-2D01*
G01X282330Y-402980D01*
G03X275260Y-400050I-7072J-7070D01*
G01X88020D01*
G02X86020Y-399050I1J2501D01*
G03X84510Y-397380I-9815J-7357D01*
G02X83710Y-395540I1701J1834D01*
G01Y-391860D01*
G02X84510Y-390020I2501J6D01*
G03X86370Y-387870I-8286J9048D01*
G02X88440Y-386770I2071J-1399D01*
G01X93030D01*
G02X95530Y-389270I0J-2500D01*
G01Y-390020D01*
G03X98030Y-392520I2500J0D01*
G01X130570D01*
G03X133070Y-390020I0J2500D01*
G01Y-389270D01*
G02X135570Y-386770I2500J0D01*
G01X285810D01*
G02X286220Y-386940I0J-580D01*
G01X298860Y-399580D01*
G02X299030Y-399990I-410J-410D01*
G01Y-962120D01*
G03X301530Y-964620I2500J0D01*
G01X302870D01*
G02X304640Y-965350I4J-2500D01*
G01X348470Y-1009180D01*
G03X357040Y-1012730I8570J8570D01*
G01X365380D01*
G02X367880Y-1015230I0J-2500D01*
G01Y-1025920D01*
G02X365380Y-1028420I-2500J0D01*
G01X357710D01*
G03X355210Y-1030920I0J-2500D01*
G01Y-1046500D01*
G03X357710Y-1049000I2500J0D01*
G01X369750D01*
X370980Y-1050230D01*
X371480D01*
Y-1057760D01*
G03X371860Y-1060410I9518J13D01*
G01X372020Y-1060980D01*
X371810Y-1062130D01*
X369050Y-1065800D01*
G02X367050Y-1066800I-2000J1499D01*
G01X347040D01*
G37*
G36*
G01X357040Y-1001190D02*
G02X356630Y-1001020I0J580D01*
G01X311300Y-955690D01*
G02X310570Y-953920I1770J1766D01*
G01Y-399990D01*
G03X307020Y-391420I-12120J0D01*
G01X294380Y-378780D01*
G03X285810Y-375230I-8570J-8570D01*
G01X135570D01*
G02X133070Y-372730I0J2500D01*
G01Y-363870D01*
G02X135570Y-361370I2500J0D01*
G01X289470D01*
G02X289880Y-361540I0J-580D01*
G01X317910Y-389570D01*
G02X318080Y-389980I-410J-410D01*
G01Y-791530D01*
G03X321630Y-800100I12120J0D01*
G01X346560Y-825030D01*
G03X355130Y-828580I8570J8570D01*
G01X365380D01*
G02X367880Y-831080I0J-2500D01*
G01Y-841770D01*
G02X365380Y-844270I-2500J0D01*
G01X357710D01*
G03X355210Y-846770I0J-2500D01*
G01Y-862350D01*
G03X357710Y-864850I2500J0D01*
G01X369750D01*
X370980Y-866080D01*
X371480D01*
Y-870160D01*
G03X381890Y-879640I9522J0D01*
G01X382420Y-879590D01*
X383410Y-879920D01*
X386530Y-882770D01*
G02X387350Y-884620I-1679J-1851D01*
G01Y-985220D01*
G02X384850Y-987720I-2500J0D01*
G01X371610D01*
G03X369110Y-990220I0J-2500D01*
G01Y-997960D01*
X368610Y-998460D01*
G03X367880Y-1000230I1770J-1766D01*
G01X366920Y-1001190D01*
X357040D01*
G37*
G36*
G01X355130Y-817040D02*
G02X354720Y-816870I0J580D01*
G01X329790Y-791940D01*
G02X329620Y-791530I410J410D01*
G01Y-389980D01*
G03X326070Y-381410I-12120J0D01*
G01X298040Y-353380D01*
G03X289470Y-349830I-8570J-8570D01*
G01X135570D01*
G02X133070Y-347330I0J2500D01*
G01Y-338470D01*
G02X135570Y-335970I2500J0D01*
G01X295820D01*
G02X296230Y-336140I0J-580D01*
G01X336960Y-376870D01*
G02X337130Y-377280I-410J-410D01*
G01Y-638720D01*
G03X340680Y-647290I12120J0D01*
G01X346970Y-653580D01*
G03X355540Y-657130I8570J8570D01*
G01X364980D01*
G02X367480Y-659630I0J-2500D01*
G01Y-670320D01*
G02X364980Y-672820I-2500J0D01*
G01X357710D01*
G03X355210Y-675320I0J-2500D01*
G01Y-690900D01*
G03X357710Y-693400I2500J0D01*
G01X369750D01*
X370980Y-694630D01*
X371480D01*
Y-700160D01*
G03X381890Y-709640I9522J0D01*
G01X382420Y-709590D01*
X383410Y-709920D01*
X386530Y-712770D01*
G02X387350Y-714620I-1679J-1851D01*
G01Y-801070D01*
G02X384850Y-803570I-2500J0D01*
G01X371610D01*
G03X369110Y-806070I0J-2500D01*
G01Y-813810D01*
X368610Y-814310D01*
G03X367880Y-816080I1770J-1766D01*
G01X366920Y-817040D01*
X355130D01*
G37*
G36*
G01X355540Y-645590D02*
G02X355130Y-645420I0J580D01*
G01X348840Y-639130D01*
G02X348670Y-638720I410J410D01*
G01Y-377280D01*
G03X345120Y-368710I-12120J0D01*
G01X304390Y-327980D01*
G03X295820Y-324430I-8570J-8570D01*
G01X135570D01*
G02X133070Y-321930I0J2500D01*
G01Y-313070D01*
G02X135570Y-310570I2500J0D01*
G01X377570D01*
G02X379340Y-311300I4J-2500D01*
G01X394110Y-326070D01*
G03X402680Y-329620I8570J8570D01*
G01X432820D01*
X434280Y-331080D01*
Y-331370D01*
X435510Y-332600D01*
Y-353040D01*
G03X438010Y-355540I2500J0D01*
G01X459590D01*
G03X462090Y-353040I0J2500D01*
G01Y-332600D01*
X462590Y-332100D01*
G03X463320Y-330330I-1770J1766D01*
G01Y-317560D01*
X462820Y-317060D01*
G02X462090Y-315290I1770J1766D01*
G01Y-307200D01*
X462590Y-306700D01*
G03X463320Y-304930I-1770J1766D01*
G01Y-292160D01*
X462820Y-291660D01*
G02X462090Y-289890I1770J1766D01*
G01Y-281800D01*
X462590Y-281300D01*
G03X463320Y-279530I-1770J1766D01*
G01Y-266760D01*
X462820Y-266260D01*
G02X462090Y-264490I1770J1766D01*
G01Y-256400D01*
X462590Y-255900D01*
G03X463320Y-254130I-1770J1766D01*
G01Y-242630D01*
G03X460820Y-240130I-2500J0D01*
G01X435740D01*
X434280Y-241590D01*
Y-241880D01*
X422530D01*
G02X420760Y-241150I-4J2500D01*
G01X405990Y-226380D01*
G03X397420Y-222830I-8570J-8570D01*
G01X135570D01*
G02X133070Y-220330I0J2500D01*
G01Y-219580D01*
G03X130570Y-217080I-2500J0D01*
G01X98030D01*
G03X95530Y-219580I0J-2500D01*
G01Y-220330D01*
G02X93030Y-222830I-2500J0D01*
G01X88440D01*
G02X86370Y-221730I1J2499D01*
G03X83850Y-219000I-10174J-6863D01*
G01X83410Y-218660D01*
X82920Y-217680D01*
X82770Y-212760D01*
X83190Y-211760D01*
X83610Y-211390D01*
G03X83920Y-195310I-7409J8186D01*
G02X83300Y-192740I1752J1782D01*
G01X83690Y-191540D01*
G02X86070Y-189820I2376J-780D01*
G01X89240D01*
G02X91000Y-190550I-5J-2500D01*
G01X96350Y-195900D01*
G02X97080Y-197660I-1770J-1765D01*
G01Y-202770D01*
G03X99580Y-205270I2500J0D01*
G01X124120D01*
G03X126620Y-202770I0J2500D01*
G01Y-178230D01*
G03X124120Y-175730I-2500J0D01*
G01X111210D01*
G02X109450Y-175000I5J2500D01*
G01X105610Y-171160D01*
G03X105040Y-170610I-13039J-12942D01*
G02X104360Y-167970I1687J1842D01*
G01X104760Y-166800D01*
G02X107120Y-165100I2368J-799D01*
G01X133530D01*
X133890Y-165210D01*
G03X145510I5810J19160D01*
G01X145870Y-165100D01*
X631350D01*
G02X641350Y-175100I0J-10000D01*
G01Y-176940D01*
G02X640550Y-178780I-2501J-7D01*
G01X637470Y-181630D01*
X636480Y-181970D01*
X635960Y-181930D01*
G03X624730Y-187440I-965J-12232D01*
G02X623030Y-188540I-2091J1368D01*
G03X616360Y-191940I1900J-11970D01*
G01X567150Y-241150D01*
G02X565380Y-241880I-1766J1770D01*
G01X557780D01*
X556320Y-240420D01*
Y-240130D01*
X529780D01*
G03X527280Y-242630I0J-2500D01*
G01Y-354270D01*
G03X529780Y-356770I2500J0D01*
G01X535530D01*
X536230Y-356980D01*
X536540Y-357190D01*
G03X541800Y-358770I5253J7942D01*
G01X565150D01*
G03X570580Y-357070I0J9522D01*
G01X571160Y-356670D01*
X572540Y-356580D01*
X577090Y-358960D01*
G02X578430Y-361180I-1161J-2215D01*
G01Y-445530D01*
G03X581980Y-454100I12120J0D01*
G01X622710Y-494830D01*
X623070Y-496010D01*
X622950Y-496630D01*
G03X635960Y-511190I12047J-2328D01*
G01X636480Y-511150D01*
X637470Y-511490D01*
X640550Y-514340D01*
G02X641350Y-516180I-1701J-1833D01*
G01Y-534990D01*
G02X638850Y-537490I-2500J0D01*
G01X625230D01*
G03X622730Y-539990I0J-2500D01*
G01Y-556300D01*
G02X620230Y-558800I-2500J0D01*
G01X397350D01*
G03X387350Y-568800I0J-10000D01*
G01Y-629620D01*
G02X384850Y-632120I-2500J0D01*
G01X371210D01*
G03X368710Y-634620I0J-2500D01*
G01Y-642360D01*
X368210Y-642860D01*
G03X367480Y-644630I1770J-1766D01*
G01X366520Y-645590D01*
X355540D01*
G37*
G36*
G01X401710Y-317350D02*
X386940Y-302580D01*
G03X378370Y-299030I-8570J-8570D01*
G01X135570D01*
G02X133070Y-296530I0J2500D01*
G01Y-287670D01*
G02X135570Y-285170I2500J0D01*
G01X383920D01*
G02X385690Y-285900I4J-2500D01*
G01X400460Y-300670D01*
G03X409030Y-304220I8570J8570D01*
G01X432820D01*
X434280Y-305680D01*
Y-305970D01*
X435510Y-307200D01*
Y-315100D01*
X435010Y-315600D01*
G03X434280Y-317370I1770J-1766D01*
G01Y-318080D01*
X403480D01*
G02X401710Y-317350I-4J2500D01*
G37*
G36*
G01X408060Y-291950D02*
X393290Y-277180D01*
G03X384720Y-273630I-8570J-8570D01*
G01X135570D01*
G02X133070Y-271130I0J2500D01*
G01Y-262270D01*
G02X135570Y-259770I2500J0D01*
G01X390270D01*
G02X392040Y-260500I4J-2500D01*
G01X406810Y-275270D01*
G03X415380Y-278820I8570J8570D01*
G01X432820D01*
X434280Y-280280D01*
Y-280570D01*
X435510Y-281800D01*
Y-289700D01*
X435010Y-290200D01*
G03X434280Y-291970I1770J-1766D01*
G01Y-292680D01*
X409830D01*
G02X408060Y-291950I-4J2500D01*
G37*
G36*
G01X414410Y-266550D02*
X399640Y-251780D01*
G03X391070Y-248230I-8570J-8570D01*
G01X135570D01*
G02X133070Y-245730I0J2500D01*
G01Y-236870D01*
G02X135570Y-234370I2500J0D01*
G01X396620D01*
G02X398390Y-235100I4J-2500D01*
G01X413160Y-249870D01*
G03X421730Y-253420I8570J8570D01*
G01X432820D01*
X434280Y-254880D01*
Y-255170D01*
X435510Y-256400D01*
Y-264300D01*
X435010Y-264800D01*
G03X434280Y-266570I1770J-1766D01*
G01Y-267280D01*
X416180D01*
G02X414410Y-266550I-4J2500D01*
G37*
G36*
G01X287510Y-1810720D02*
Y-1824920D01*
G02X287130Y-1825820I-1251J-2D01*
G01X286210Y-1826700D01*
G03X285750Y-1826690I-493J-12109D01*
G01X269900D01*
G02X269320Y-1826110I0J580D01*
G01Y-1781730D01*
G02X270570Y-1780480I1250J0D01*
G01X290570D01*
G03X291820Y-1779230I0J1250D01*
G01Y-1779210D01*
X292550Y-1778480D01*
X297730D01*
G02X298980Y-1779730I0J-1250D01*
G01Y-1779750D01*
X299710Y-1780480D01*
X299870D01*
X300130Y-1781380D01*
G03X300470Y-1782390I15202J4555D01*
G01X300540Y-1782600D01*
Y-1782820D01*
G02X299290Y-1784070I-1250J0D01*
G01X288760D01*
G03X287510Y-1785320I0J-1250D01*
G01Y-1803400D01*
G03X288760Y-1804650I1250J0D01*
G01X302550D01*
X303780Y-1805880D01*
Y-1808220D01*
G02X302530Y-1809470I-1250J0D01*
G01X288760D01*
G03X287510Y-1810720I0J-1250D01*
G37*
G36*
G01Y-1556720D02*
Y-1570920D01*
G02X287130Y-1571820I-1251J-2D01*
G01X286210Y-1572700D01*
G03X285750Y-1572690I-493J-12109D01*
G01X269900D01*
G02X269320Y-1572110I0J580D01*
G01Y-1527730D01*
G02X270570Y-1526480I1250J0D01*
G01X290570D01*
G03X291820Y-1525230I0J1250D01*
G01Y-1525210D01*
X292550Y-1524480D01*
X297730D01*
G02X298980Y-1525730I0J-1250D01*
G01Y-1525750D01*
X299710Y-1526480D01*
X299870D01*
X300130Y-1527380D01*
G03X300470Y-1528390I15202J4555D01*
G01X300540Y-1528600D01*
Y-1528820D01*
G02X299290Y-1530070I-1250J0D01*
G01X288760D01*
G03X287510Y-1531320I0J-1250D01*
G01Y-1549400D01*
G03X288760Y-1550650I1250J0D01*
G01X302550D01*
X303780Y-1551880D01*
Y-1554220D01*
G02X302530Y-1555470I-1250J0D01*
G01X288760D01*
G03X287510Y-1556720I0J-1250D01*
G37*
G36*
G01Y-1302720D02*
Y-1316920D01*
G02X287130Y-1317820I-1251J-2D01*
G01X286210Y-1318700D01*
G03X285750Y-1318690I-493J-12109D01*
G01X269900D01*
G02X269320Y-1318110I0J580D01*
G01Y-1273730D01*
G02X270570Y-1272480I1250J0D01*
G01X290570D01*
G03X291820Y-1271230I0J1250D01*
G01Y-1271210D01*
X292550Y-1270480D01*
X297730D01*
G02X298980Y-1271730I0J-1250D01*
G01Y-1271750D01*
X299710Y-1272480D01*
X299870D01*
X300130Y-1273380D01*
G03X300470Y-1274390I15202J4555D01*
G01X300540Y-1274600D01*
Y-1274820D01*
G02X299290Y-1276070I-1250J0D01*
G01X288760D01*
G03X287510Y-1277320I0J-1250D01*
G01Y-1295400D01*
G03X288760Y-1296650I1250J0D01*
G01X302550D01*
X303780Y-1297880D01*
Y-1300220D01*
G02X302530Y-1301470I-1250J0D01*
G01X288760D01*
G03X287510Y-1302720I0J-1250D01*
G37*
G36*
G01X531190Y-1984860D02*
G02X524120Y-1981930I2J10000D01*
G01X523630Y-1981440D01*
G03X516560Y-1978510I-7072J-7070D01*
G01X435450D01*
G02X425450Y-1968510I0J10000D01*
G01Y-1927900D01*
G02X426700Y-1926650I1250J0D01*
G01X446940D01*
G03X448190Y-1925400I0J1250D01*
G01Y-1915910D01*
X449420Y-1914680D01*
X452360D01*
G02X453610Y-1915930I0J-1250D01*
G01Y-1929400D01*
G03X454860Y-1930650I1250J0D01*
G01X468650D01*
X469880Y-1931880D01*
X471130D01*
G02X472380Y-1933130I0J-1250D01*
G01Y-1934840D01*
G02X471130Y-1936090I-1250J0D01*
G01X470760D01*
X470030Y-1936820D01*
Y-1942830D01*
G02X469490Y-1943870I-1252J-10D01*
G01X467520Y-1945210D01*
X466920Y-1945280D01*
X466630Y-1945170D01*
G03X459520Y-1945600I-3088J-7941D01*
G01X459220Y-1945760D01*
X458580Y-1945750D01*
X456450Y-1944470D01*
G02X455840Y-1943400I639J1073D01*
G01Y-1938570D01*
G03X454590Y-1937320I-1250J0D01*
G01X441510D01*
G03X440260Y-1938570I0J-1250D01*
G01Y-1967650D01*
G03X441510Y-1968900I1250J0D01*
G01X454590D01*
G03X455840Y-1967650I0J1250D01*
G01Y-1962820D01*
G02X456450Y-1961750I1249J-3D01*
G01X458580Y-1960470D01*
X459220Y-1960460D01*
X459520Y-1960620D01*
G03X466630Y-1961050I4022J7511D01*
G01X466920Y-1960940D01*
X467520Y-1961010D01*
X469490Y-1962350D01*
G02X470030Y-1963390I-712J-1030D01*
G01Y-1968880D01*
G03X471280Y-1970130I1250J0D01*
G01X486820D01*
G03X488070Y-1968880I0J1250D01*
G01Y-1959130D01*
G02X489320Y-1957880I1250J0D01*
G01X530770D01*
G02X531890Y-1958340I5J-1581D01*
G01X553570Y-1980020D01*
G03X554060Y-1980490I7938J7785D01*
G01X554360Y-1980750D01*
X554540Y-1981500D01*
X553570Y-1984050D01*
G02X552410Y-1984860I-1169J438D01*
G01X531190D01*
G37*
G36*
G01X608320Y-1983610D02*
Y-1969240D01*
G03X607070Y-1967990I-1250J0D01*
G01X606070D01*
G02X604820Y-1966740I0J1250D01*
G01Y-1964880D01*
G02X606070Y-1963630I1250J0D01*
G01X607070D01*
G03X608320Y-1962380I0J1250D01*
G01Y-1959130D01*
G02X609570Y-1957880I1250J0D01*
G01X632370D01*
G03X640230Y-1954620I-5J11119D01*
G01X649210Y-1945640D01*
G02X650330Y-1945180I1115J-1121D01*
G01X772070D01*
G02X773190Y-1945640I5J-1581D01*
G01X777450Y-1949910D01*
G02X777720Y-1951270I-883J-882D01*
G01X777580Y-1951620D01*
X776950Y-1952040D01*
X770980D01*
G03X769730Y-1953290I0J-1250D01*
G01Y-1978330D01*
G03X770980Y-1979580I1250J0D01*
G01X796020D01*
G03X797270Y-1978330I0J1250D01*
G01Y-1973080D01*
G02X798520Y-1971830I1250J0D01*
G01X800230D01*
G02X801480Y-1973080I0J-1250D01*
G01Y-1977080D01*
G03X802730Y-1978330I1250J0D01*
G01X821270D01*
G03X822520Y-1977080I0J1250D01*
G01Y-1954540D01*
G03X821270Y-1953290I-1250J0D01*
G01X802730D01*
G03X801480Y-1954540I0J-1250D01*
G01Y-1958540D01*
G02X800230Y-1959790I-1250J0D01*
G01X798520D01*
G02X797270Y-1958540I0J1250D01*
G01Y-1953290D01*
G03X796020Y-1952040I-1250J0D01*
G01X788990D01*
X788270Y-1951380D01*
X788230Y-1950900D01*
G03X785010Y-1943980I-11078J-946D01*
G01X779930Y-1938900D01*
G03X772070Y-1935640I-7865J-7859D01*
G01X650330D01*
G03X642470Y-1938900I5J-11119D01*
G01X633490Y-1947880D01*
G02X632370Y-1948340I-1115J1121D01*
G01X609570D01*
G02X608320Y-1947090I0J1250D01*
G01Y-1943840D01*
G03X607070Y-1942590I-1250J0D01*
G01X597750D01*
G02X596820Y-1942180I-4J1251D01*
G01X595400Y-1940600D01*
X595240Y-1940110D01*
X595260Y-1939840D01*
G03X595300Y-1939400I-11049J1226D01*
G01X595330Y-1938910D01*
X596050Y-1938230D01*
X607070D01*
G03X608320Y-1936980I0J1250D01*
G01Y-1933730D01*
G02X609570Y-1932480I1250J0D01*
G01X772070D01*
G03X779930Y-1929220I-5J11119D01*
G01X785010Y-1924140D01*
G03X788230Y-1917220I-7858J7866D01*
G01X788270Y-1916740D01*
X788990Y-1916080D01*
X796020D01*
G03X797270Y-1914830I0J1250D01*
G01Y-1909580D01*
G02X798520Y-1908330I1250J0D01*
G01X800230D01*
G02X801480Y-1909580I0J-1250D01*
G01Y-1913580D01*
G03X802730Y-1914830I1250J0D01*
G01X821270D01*
G03X822520Y-1913580I0J1250D01*
G01Y-1891040D01*
G03X821270Y-1889790I-1250J0D01*
G01X802730D01*
G03X801480Y-1891040I0J-1250D01*
G01Y-1895040D01*
G02X800230Y-1896290I-1250J0D01*
G01X798520D01*
G02X797270Y-1895040I0J1250D01*
G01Y-1889790D01*
G03X796020Y-1888540I-1250J0D01*
G01X770980D01*
G03X769730Y-1889790I0J-1250D01*
G01Y-1914830D01*
G03X770980Y-1916080I1250J0D01*
G01X776570D01*
G02X777720Y-1916850I-4J-1249D01*
G01X777870Y-1917210D01*
X777720Y-1917940D01*
X773190Y-1922480D01*
G02X772070Y-1922940I-1115J1121D01*
G01X609570D01*
G02X608320Y-1921690I0J1250D01*
G01Y-1918440D01*
G03X607070Y-1917190I-1250J0D01*
G01X606070D01*
G02X604820Y-1915940I0J1250D01*
G01Y-1914080D01*
G02X606070Y-1912830I1250J0D01*
G01X607070D01*
G03X608320Y-1911580I0J1250D01*
G01Y-1893040D01*
G03X607070Y-1891790I-1250J0D01*
G01X595980D01*
X595280Y-1891180D01*
X595210Y-1890710D01*
G03X592060Y-1884380I-11011J-1531D01*
G01X576730Y-1869050D01*
G03X568870Y-1865790I-7865J-7859D01*
G01X450670D01*
G02X449420Y-1864540I0J1250D01*
G01X448190Y-1863310D01*
Y-1852410D01*
X449420Y-1851180D01*
G02X450670Y-1849930I1250J0D01*
G01X549820D01*
G03X557680Y-1846670I-5J11119D01*
G01X570650Y-1833710D01*
G02X572010Y-1833440I882J-883D01*
G01X572360Y-1833580D01*
X572780Y-1834210D01*
Y-1835380D01*
G03X574030Y-1836630I1250J0D01*
G01X594570D01*
X595270Y-1837240D01*
X595330Y-1837720D01*
G03X595490Y-1838530I6651J893D01*
G01X595530Y-1838680D01*
Y-1838840D01*
G02X594280Y-1840090I-1250J0D01*
G01X593980D01*
G03X592730Y-1841340I0J-1250D01*
G01Y-1874380D01*
G03X593980Y-1875630I1250J0D01*
G01X612520D01*
G03X613770Y-1874380I0J1250D01*
G01Y-1873380D01*
G02X615020Y-1872130I1250J0D01*
G01X622820D01*
G02X623940Y-1872590I5J-1581D01*
G01X634710Y-1883370D01*
G02X635080Y-1884200I-879J-889D01*
G01X635160Y-1886130D01*
X635000Y-1886570D01*
X634850Y-1886750D01*
G03X632830Y-1892260I6505J-5510D01*
G01Y-1901760D01*
G03X649870I8520J0D01*
G01Y-1892260D01*
G03X646530Y-1885500I-8511J0D01*
G02X646050Y-1884640I764J990D01*
G03X642860Y-1878030I-11048J-1257D01*
G01X630680Y-1865850D01*
G03X622820Y-1862590I-7865J-7859D01*
G01X615020D01*
G02X613770Y-1861340I0J1250D01*
G01Y-1854380D01*
G02X615020Y-1853130I1250J0D01*
G01X693080D01*
G02X694330Y-1854380I0J-1250D01*
G01Y-1861340D01*
G02X693080Y-1862590I-1250J0D01*
G01X685280D01*
G03X677420Y-1865850I5J-11119D01*
G01X665240Y-1878030D01*
G03X662050Y-1884640I7858J-7867D01*
G02X661570Y-1885500I-1244J130D01*
G03X658230Y-1892260I5171J-6760D01*
G01Y-1901760D01*
G03X675270I8520J0D01*
G01Y-1892260D01*
G03X673250Y-1886750I-8525J0D01*
G01X673100Y-1886570D01*
X672940Y-1886130D01*
X673020Y-1884200D01*
G02X673390Y-1883370I1249J-59D01*
G01X684160Y-1872590D01*
G02X685280Y-1872130I1115J-1121D01*
G01X693080D01*
G02X694330Y-1873380I0J-1250D01*
G01Y-1874380D01*
G03X695580Y-1875630I1250J0D01*
G01X714120D01*
G03X715370Y-1874380I0J1250D01*
G01Y-1847350D01*
G02X715740Y-1846470I1249J-7D01*
G01X730860Y-1831340D01*
G02X731980Y-1830880I1115J-1121D01*
G01X772070D01*
G02X773190Y-1831340I5J-1581D01*
G01X777450Y-1835610D01*
G02X777720Y-1836970I-883J-882D01*
G01X777580Y-1837320D01*
X776950Y-1837740D01*
X770980D01*
G03X769730Y-1838990I0J-1250D01*
G01Y-1864030D01*
G03X770980Y-1865280I1250J0D01*
G01X796020D01*
G03X797270Y-1864030I0J1250D01*
G01Y-1858780D01*
G02X798520Y-1857530I1250J0D01*
G01X800230D01*
G02X801480Y-1858780I0J-1250D01*
G01Y-1862780D01*
G03X802730Y-1864030I1250J0D01*
G01X821270D01*
G03X822520Y-1862780I0J1250D01*
G01Y-1840240D01*
G03X821270Y-1838990I-1250J0D01*
G01X802730D01*
G03X801480Y-1840240I0J-1250D01*
G01Y-1844240D01*
G02X800230Y-1845490I-1250J0D01*
G01X798520D01*
G02X797270Y-1844240I0J1250D01*
G01Y-1838990D01*
G03X796020Y-1837740I-1250J0D01*
G01X788990D01*
X788270Y-1837080D01*
X788230Y-1836600D01*
G03X785010Y-1829680I-11078J-946D01*
G01X779930Y-1824600D01*
G03X772070Y-1821340I-7865J-7859D01*
G01X731980D01*
G03X724120Y-1824600I5J-11119D01*
G01X708990Y-1839720D01*
G02X708110Y-1840090I-887J879D01*
G01X695580D01*
G03X694330Y-1841340I0J-1250D01*
G01Y-1842340D01*
G02X693080Y-1843590I-1250J0D01*
G01X615020D01*
G02X613770Y-1842340I0J1250D01*
G01Y-1841340D01*
G03X612520Y-1840090I-1250J0D01*
G01X609270D01*
G02X608020Y-1838840I0J1250D01*
G01Y-1836630D01*
X608320D01*
Y-1816840D01*
G03X607070Y-1815590I-1250J0D01*
G01X574030D01*
G03X572780Y-1816840I0J-1250D01*
G01Y-1820820D01*
X572230Y-1821490D01*
X571790Y-1821590D01*
G03X566270Y-1824600I2346J-10868D01*
G01X550940Y-1839930D01*
G02X549820Y-1840390I-1115J1121D01*
G01X509830D01*
G02X508680Y-1839620I4J1249D01*
G01X508530Y-1839260D01*
X508680Y-1838530D01*
X515860Y-1831340D01*
G03X519120Y-1823480I-7859J7865D01*
G01Y-1818450D01*
G02X519600Y-1817470I1250J-5D01*
G03X522870Y-1810760I-5249J6710D01*
G01Y-1801260D01*
G03X521510Y-1796640I-8527J0D01*
G01X521310Y-1796340D01*
X521290Y-1795670D01*
X522510Y-1793430D01*
G02X523610Y-1792780I1096J-600D01*
G01X523870D01*
G02X524990Y-1793240I5J-1581D01*
G01X531140Y-1799400D01*
X531330Y-1799940D01*
X531290Y-1800230D01*
G03X531230Y-1801260I8461J-1010D01*
G01Y-1810760D01*
G03X548270I8520J0D01*
G01Y-1806730D01*
G02X549520Y-1805480I1250J0D01*
G01X571530D01*
G02X572780Y-1806730I0J-1250D01*
G01Y-1809980D01*
G03X574030Y-1811230I1250J0D01*
G01X607880D01*
X608210Y-1810910D01*
G02X608460Y-1810710I898J-867D01*
G01X611100Y-1809170D01*
X611760D01*
X612050Y-1809340D01*
G03X617530Y-1810780I5473J9681D01*
G01X632140D01*
X632840Y-1811390D01*
X632900Y-1811870D01*
G03X649800I8450J1110D01*
G01X649860Y-1811390D01*
X650560Y-1810780D01*
X657540D01*
X658240Y-1811390D01*
X658300Y-1811870D01*
G03X675200I8450J1110D01*
G01X675260Y-1811390D01*
X675960Y-1810780D01*
X688470D01*
G02X689590Y-1811240I5J-1581D01*
G01X693270Y-1814920D01*
G03X701130Y-1818180I7865J7859D01*
G01X772070D01*
G03X779930Y-1814920I-5J11119D01*
G01X785010Y-1809840D01*
G03X788230Y-1802920I-7858J7866D01*
G01X788270Y-1802440D01*
X788990Y-1801780D01*
X796020D01*
G03X797270Y-1800530I0J1250D01*
G01Y-1795280D01*
G02X798520Y-1794030I1250J0D01*
G01X800230D01*
G02X801480Y-1795280I0J-1250D01*
G01Y-1799280D01*
G03X802730Y-1800530I1250J0D01*
G01X821270D01*
G03X822520Y-1799280I0J1250D01*
G01Y-1776740D01*
G03X821270Y-1775490I-1250J0D01*
G01X802730D01*
G03X801480Y-1776740I0J-1250D01*
G01Y-1780740D01*
G02X800230Y-1781990I-1250J0D01*
G01X798520D01*
G02X797270Y-1780740I0J1250D01*
G01Y-1775490D01*
G03X796020Y-1774240I-1250J0D01*
G01X770980D01*
G03X769730Y-1775490I0J-1250D01*
G01Y-1800530D01*
G03X770980Y-1801780I1250J0D01*
G01X776570D01*
G02X777720Y-1802550I-4J-1249D01*
G01X777870Y-1802910D01*
X777720Y-1803640D01*
X773190Y-1808180D01*
G02X772070Y-1808640I-1115J1121D01*
G01X701130D01*
G02X700010Y-1808180I-5J1581D01*
G01X696330Y-1804500D01*
G03X688470Y-1801240I-7865J-7859D01*
G01X675960D01*
X675260Y-1800630D01*
X675200Y-1800150D01*
G03X658300I-8450J-1110D01*
G01X658240Y-1800630D01*
X657540Y-1801240D01*
X650560D01*
X649860Y-1800630D01*
X649800Y-1800150D01*
G03X632900I-8450J-1110D01*
G01X632840Y-1800630D01*
X632140Y-1801240D01*
X617530D01*
G02X616410Y-1800780I-5J1581D01*
G01X614830Y-1799200D01*
G03X609310Y-1796190I-7866J-7858D01*
G01X608870Y-1796090D01*
X608320Y-1795420D01*
Y-1791440D01*
G03X607070Y-1790190I-1250J0D01*
G01X574030D01*
G03X572780Y-1791440I0J-1250D01*
G01Y-1794690D01*
G02X571530Y-1795940I-1250J0D01*
G01X547680D01*
G03X547070Y-1795960I59J-11119D01*
G02X546070Y-1795550I-72J1250D01*
G03X538720Y-1792800I-6325J-5708D01*
G01X538430Y-1792840D01*
X537890Y-1792650D01*
X531730Y-1786500D01*
G03X523870Y-1783240I-7865J-7859D01*
G01X508000D01*
G03X496880Y-1794360I0J-11120D01*
G01Y-1826110D01*
G02X495300Y-1827690I-1580J0D01*
G01X483760D01*
G02X482600Y-1826920I-5J1251D01*
G01X481580Y-1824420D01*
X481720Y-1823690D01*
X482000Y-1823410D01*
G03X484350Y-1818670I-5749J5803D01*
G01X484410Y-1818190D01*
X485110Y-1817580D01*
X486170D01*
G03X487420Y-1816330I0J1250D01*
G01Y-1797790D01*
G03X486170Y-1796540I-1250J0D01*
G01X485670D01*
G02X484420Y-1795290I0J1250D01*
G01Y-1795220D01*
G02X484790Y-1794340I1248J-7D01*
G01X485000Y-1794130D01*
G03X488270Y-1788300I-8754J8742D01*
G02X488610Y-1787700I1215J-292D01*
G03X476910Y-1775320I-6011J6037D01*
G01X476730Y-1775480D01*
X476310Y-1775640D01*
X475970D01*
G02X474720Y-1774390I0J1250D01*
G01Y-1772390D01*
G03X473470Y-1771140I-1250J0D01*
G01X457410D01*
X456180Y-1772370D01*
X442160D01*
G03X440910Y-1773620I0J-1250D01*
G01Y-1789700D01*
G03X442160Y-1790950I1250J0D01*
G01X455950D01*
X457180Y-1792180D01*
X469880D01*
G02X470770Y-1792550I2J-1250D01*
G01X472200Y-1793990D01*
X472380Y-1794460D01*
Y-1794710D01*
Y-1795290D01*
G02X471130Y-1796540I-1250J0D01*
G01X470110D01*
X468880Y-1797770D01*
X454860D01*
G03X453610Y-1799020I0J-1250D01*
G01Y-1812490D01*
G02X452360Y-1813740I-1250J0D01*
G01X449920D01*
X449790Y-1813610D01*
G03X448900Y-1813240I-888J-880D01*
G01X448190Y-1812530D01*
Y-1803020D01*
G03X446940Y-1801770I-1250J0D01*
G01X426700D01*
G02X425450Y-1800520I0J1250D01*
G01Y-1772610D01*
G02X435450Y-1762610I10000J0D01*
G01X491160D01*
G02X498230Y-1765540I-2J-10000D01*
G01X498720Y-1766030D01*
G03X505790Y-1768960I7072J7070D01*
G01X859470D01*
G02X860670Y-1769860I0J-1250D01*
G01X860830Y-1770400D01*
G02X860380Y-1771750I-1201J-350D01*
G03X859030Y-1772910I7366J-9939D01*
G01X851650Y-1780290D01*
G02X850290Y-1780570I-890J878D01*
G01X849940Y-1780420D01*
X849520Y-1779800D01*
Y-1776740D01*
G03X848270Y-1775490I-1250J0D01*
G01X829730D01*
G03X828480Y-1776740I0J-1250D01*
G01Y-1799280D01*
G03X829730Y-1800530I1250J0D01*
G01X848270D01*
G03X849520Y-1799280I0J1250D01*
G01Y-1795740D01*
G02X849860Y-1794890I1248J-6D01*
G01X850360Y-1794350D01*
G02X851140Y-1793960I913J-852D01*
G03X858570Y-1790410I-1315J12302D01*
G01X865350Y-1783630D01*
G02X866360Y-1783270I883J-881D01*
G01X868580Y-1783500D01*
X869060Y-1783790D01*
X869210Y-1784030D01*
G03X898410Y-1772460I13436J8722D01*
G01X898350Y-1772110D01*
X898590Y-1771480D01*
X900560Y-1769880D01*
G02X901810Y-1769700I778J-976D01*
G02X908050Y-1778960I-3751J-9260D01*
G01Y-1974860D01*
G02X901810Y-1984120I-9991J0D01*
G02X900560Y-1983940I-472J1156D01*
G01X898590Y-1982340D01*
X898350Y-1981710D01*
X898410Y-1981360D01*
G03X868120Y-1971770I-15764J2841D01*
G02X866980Y-1972490I-1133J531D01*
G01X864000D01*
X863280Y-1971810D01*
X863250Y-1971320D01*
G03X851000Y-1959790I-12250J-742D01*
G01X850770D01*
G02X849520Y-1958540I0J1250D01*
G01Y-1954540D01*
G03X848270Y-1953290I-1250J0D01*
G01X829730D01*
G03X828480Y-1954540I0J-1250D01*
G01Y-1977080D01*
G03X829730Y-1978330I1250J0D01*
G01X848270D01*
G03X849520Y-1977080I0J1250D01*
G01Y-1976730D01*
G02X850770Y-1975480I1250J0D01*
G01X851170D01*
X851810Y-1975930D01*
X851950Y-1976310D01*
G03X854600Y-1980650I11657J4139D01*
G01X854860Y-1980920D01*
X854990Y-1981650D01*
X853930Y-1984110D01*
G02X852780Y-1984860I-1146J501D01*
G01X609570D01*
G02X608320Y-1983610I0J1250D01*
G37*
G36*
G01X510630Y-1916590D02*
G02X509510Y-1916130I-5J1581D01*
G01X487830Y-1894450D01*
G03X479970Y-1891190I-7865J-7859D01*
G01X450670D01*
G02X449420Y-1889940I0J1250D01*
G01X448190Y-1888710D01*
Y-1877810D01*
X449420Y-1876580D01*
G02X450670Y-1875330I1250J0D01*
G01X507190D01*
G02X508130Y-1875750I5J-1252D01*
G01X509550Y-1877370D01*
X509700Y-1877870D01*
X509670Y-1878140D01*
G03X509580Y-1879540I11030J-1412D01*
G01Y-1884570D01*
G02X509100Y-1885550I-1250J5D01*
G03X505830Y-1892260I5249J-6710D01*
G01Y-1901760D01*
G03X522870I8520J0D01*
G01Y-1892260D01*
G03X519600Y-1885550I-8519J0D01*
G02X519120Y-1884570I770J985D01*
G01Y-1879540D01*
G02X519580Y-1878420I1581J5D01*
G01X522310Y-1875700D01*
G02X523190Y-1875330I887J-879D01*
G01X568870D01*
G02X569990Y-1875790I5J-1581D01*
G01X583850Y-1889660D01*
G02X584120Y-1891020I-883J-882D01*
G01X583980Y-1891370D01*
X583350Y-1891790D01*
X574030D01*
G03X572780Y-1893040I0J-1250D01*
G01Y-1896290D01*
G02X571530Y-1897540I-1250J0D01*
G01X561430D01*
G02X560310Y-1897080I-5J1581D01*
G01X558730Y-1895500D01*
G03X550870Y-1892240I-7865J-7859D01*
G01X548960D01*
X548260Y-1891630D01*
X548200Y-1891150D01*
G03X531230Y-1892260I-8449J-1110D01*
G01Y-1901760D01*
G03X533170Y-1907170I8513J0D01*
G01X533320Y-1907360D01*
X533460Y-1907780D01*
X533370Y-1909700D01*
G02X533000Y-1910520I-1248J70D01*
G01X527400Y-1916130D01*
G02X526280Y-1916590I-1115J1121D01*
G01X510630D01*
G37*
G36*
G01X531190Y-1730860D02*
G02X524120Y-1727930I2J10000D01*
G01X523630Y-1727440D01*
G03X516560Y-1724510I-7072J-7070D01*
G01X435450D01*
G02X425450Y-1714510I0J10000D01*
G01Y-1673900D01*
G02X426700Y-1672650I1250J0D01*
G01X446940D01*
G03X448190Y-1671400I0J1250D01*
G01Y-1661910D01*
X449420Y-1660680D01*
X452360D01*
G02X453610Y-1661930I0J-1250D01*
G01Y-1675400D01*
G03X454860Y-1676650I1250J0D01*
G01X468650D01*
X469880Y-1677880D01*
X471130D01*
G02X472380Y-1679130I0J-1250D01*
G01Y-1680840D01*
G02X471130Y-1682090I-1250J0D01*
G01X470760D01*
X470030Y-1682820D01*
Y-1688830D01*
G02X469490Y-1689870I-1252J-10D01*
G01X467520Y-1691210D01*
X466920Y-1691280D01*
X466630Y-1691170D01*
G03X459520Y-1691600I-3088J-7941D01*
G01X459220Y-1691760D01*
X458580Y-1691750D01*
X456450Y-1690470D01*
G02X455840Y-1689400I639J1073D01*
G01Y-1684570D01*
G03X454590Y-1683320I-1250J0D01*
G01X441510D01*
G03X440260Y-1684570I0J-1250D01*
G01Y-1713650D01*
G03X441510Y-1714900I1250J0D01*
G01X454590D01*
G03X455840Y-1713650I0J1250D01*
G01Y-1708820D01*
G02X456450Y-1707750I1249J-3D01*
G01X458580Y-1706470D01*
X459220Y-1706460D01*
X459520Y-1706620D01*
G03X466630Y-1707050I4022J7511D01*
G01X466920Y-1706940D01*
X467520Y-1707010D01*
X469490Y-1708350D01*
G02X470030Y-1709390I-712J-1030D01*
G01Y-1714880D01*
G03X471280Y-1716130I1250J0D01*
G01X486820D01*
G03X488070Y-1714880I0J1250D01*
G01Y-1705130D01*
G02X489320Y-1703880I1250J0D01*
G01X530770D01*
G02X531890Y-1704340I5J-1581D01*
G01X553570Y-1726020D01*
G03X554060Y-1726490I7938J7785D01*
G01X554360Y-1726750D01*
X554540Y-1727500D01*
X553570Y-1730050D01*
G02X552410Y-1730860I-1169J438D01*
G01X531190D01*
G37*
G36*
G01X608320Y-1729610D02*
Y-1715240D01*
G03X607070Y-1713990I-1250J0D01*
G01X606070D01*
G02X604820Y-1712740I0J1250D01*
G01Y-1710880D01*
G02X606070Y-1709630I1250J0D01*
G01X607070D01*
G03X608320Y-1708380I0J1250D01*
G01Y-1705130D01*
G02X609570Y-1703880I1250J0D01*
G01X632370D01*
G03X640230Y-1700620I-5J11119D01*
G01X649210Y-1691640D01*
G02X650330Y-1691180I1115J-1121D01*
G01X772070D01*
G02X773190Y-1691640I5J-1581D01*
G01X777450Y-1695910D01*
G02X777720Y-1697270I-883J-882D01*
G01X777580Y-1697620D01*
X776950Y-1698040D01*
X770980D01*
G03X769730Y-1699290I0J-1250D01*
G01Y-1724330D01*
G03X770980Y-1725580I1250J0D01*
G01X796020D01*
G03X797270Y-1724330I0J1250D01*
G01Y-1719080D01*
G02X798520Y-1717830I1250J0D01*
G01X800230D01*
G02X801480Y-1719080I0J-1250D01*
G01Y-1723080D01*
G03X802730Y-1724330I1250J0D01*
G01X821270D01*
G03X822520Y-1723080I0J1250D01*
G01Y-1700540D01*
G03X821270Y-1699290I-1250J0D01*
G01X802730D01*
G03X801480Y-1700540I0J-1250D01*
G01Y-1704540D01*
G02X800230Y-1705790I-1250J0D01*
G01X798520D01*
G02X797270Y-1704540I0J1250D01*
G01Y-1699290D01*
G03X796020Y-1698040I-1250J0D01*
G01X788990D01*
X788270Y-1697380D01*
X788230Y-1696900D01*
G03X785010Y-1689980I-11078J-946D01*
G01X779930Y-1684900D01*
G03X772070Y-1681640I-7865J-7859D01*
G01X650330D01*
G03X642470Y-1684900I5J-11119D01*
G01X633490Y-1693880D01*
G02X632370Y-1694340I-1115J1121D01*
G01X609570D01*
G02X608320Y-1693090I0J1250D01*
G01Y-1689840D01*
G03X607070Y-1688590I-1250J0D01*
G01X597750D01*
G02X596820Y-1688180I-4J1251D01*
G01X595400Y-1686600D01*
X595240Y-1686110D01*
X595260Y-1685840D01*
G03X595300Y-1685400I-11049J1226D01*
G01X595330Y-1684910D01*
X596050Y-1684230D01*
X607070D01*
G03X608320Y-1682980I0J1250D01*
G01Y-1679730D01*
G02X609570Y-1678480I1250J0D01*
G01X772070D01*
G03X779930Y-1675220I-5J11119D01*
G01X785010Y-1670140D01*
G03X788230Y-1663220I-7858J7866D01*
G01X788270Y-1662740D01*
X788990Y-1662080D01*
X796020D01*
G03X797270Y-1660830I0J1250D01*
G01Y-1655580D01*
G02X798520Y-1654330I1250J0D01*
G01X800230D01*
G02X801480Y-1655580I0J-1250D01*
G01Y-1659580D01*
G03X802730Y-1660830I1250J0D01*
G01X821270D01*
G03X822520Y-1659580I0J1250D01*
G01Y-1637040D01*
G03X821270Y-1635790I-1250J0D01*
G01X802730D01*
G03X801480Y-1637040I0J-1250D01*
G01Y-1641040D01*
G02X800230Y-1642290I-1250J0D01*
G01X798520D01*
G02X797270Y-1641040I0J1250D01*
G01Y-1635790D01*
G03X796020Y-1634540I-1250J0D01*
G01X770980D01*
G03X769730Y-1635790I0J-1250D01*
G01Y-1660830D01*
G03X770980Y-1662080I1250J0D01*
G01X776570D01*
G02X777720Y-1662850I-4J-1249D01*
G01X777870Y-1663210D01*
X777720Y-1663940D01*
X773190Y-1668480D01*
G02X772070Y-1668940I-1115J1121D01*
G01X609570D01*
G02X608320Y-1667690I0J1250D01*
G01Y-1664440D01*
G03X607070Y-1663190I-1250J0D01*
G01X606070D01*
G02X604820Y-1661940I0J1250D01*
G01Y-1660080D01*
G02X606070Y-1658830I1250J0D01*
G01X607070D01*
G03X608320Y-1657580I0J1250D01*
G01Y-1639040D01*
G03X607070Y-1637790I-1250J0D01*
G01X595980D01*
X595280Y-1637180D01*
X595210Y-1636710D01*
G03X592060Y-1630380I-11011J-1531D01*
G01X576730Y-1615050D01*
G03X568870Y-1611790I-7865J-7859D01*
G01X450670D01*
G02X449420Y-1610540I0J1250D01*
G01X448190Y-1609310D01*
Y-1598410D01*
X449420Y-1597180D01*
G02X450670Y-1595930I1250J0D01*
G01X549820D01*
G03X557680Y-1592670I-5J11119D01*
G01X570650Y-1579710D01*
G02X572010Y-1579440I882J-883D01*
G01X572360Y-1579580D01*
X572780Y-1580210D01*
Y-1581380D01*
G03X574030Y-1582630I1250J0D01*
G01X594570D01*
X595270Y-1583240D01*
X595330Y-1583720D01*
G03X595490Y-1584530I6651J893D01*
G01X595530Y-1584680D01*
Y-1584840D01*
G02X594280Y-1586090I-1250J0D01*
G01X593980D01*
G03X592730Y-1587340I0J-1250D01*
G01Y-1620380D01*
G03X593980Y-1621630I1250J0D01*
G01X612520D01*
G03X613770Y-1620380I0J1250D01*
G01Y-1619380D01*
G02X615020Y-1618130I1250J0D01*
G01X622820D01*
G02X623940Y-1618590I5J-1581D01*
G01X634710Y-1629370D01*
G02X635080Y-1630200I-879J-889D01*
G01X635160Y-1632130D01*
X635000Y-1632570D01*
X634850Y-1632750D01*
G03X632830Y-1638260I6505J-5510D01*
G01Y-1647760D01*
G03X649870I8520J0D01*
G01Y-1638260D01*
G03X646530Y-1631500I-8511J0D01*
G02X646050Y-1630640I764J990D01*
G03X642860Y-1624030I-11048J-1257D01*
G01X630680Y-1611850D01*
G03X622820Y-1608590I-7865J-7859D01*
G01X615020D01*
G02X613770Y-1607340I0J1250D01*
G01Y-1600380D01*
G02X615020Y-1599130I1250J0D01*
G01X693080D01*
G02X694330Y-1600380I0J-1250D01*
G01Y-1607340D01*
G02X693080Y-1608590I-1250J0D01*
G01X685280D01*
G03X677420Y-1611850I5J-11119D01*
G01X665240Y-1624030D01*
G03X662050Y-1630640I7858J-7867D01*
G02X661570Y-1631500I-1244J130D01*
G03X658230Y-1638260I5171J-6760D01*
G01Y-1647760D01*
G03X675270I8520J0D01*
G01Y-1638260D01*
G03X673250Y-1632750I-8525J0D01*
G01X673100Y-1632570D01*
X672940Y-1632130D01*
X673020Y-1630200D01*
G02X673390Y-1629370I1249J-59D01*
G01X684160Y-1618590D01*
G02X685280Y-1618130I1115J-1121D01*
G01X693080D01*
G02X694330Y-1619380I0J-1250D01*
G01Y-1620380D01*
G03X695580Y-1621630I1250J0D01*
G01X714120D01*
G03X715370Y-1620380I0J1250D01*
G01Y-1593350D01*
G02X715740Y-1592470I1249J-7D01*
G01X730860Y-1577340D01*
G02X731980Y-1576880I1115J-1121D01*
G01X772070D01*
G02X773190Y-1577340I5J-1581D01*
G01X777450Y-1581610D01*
G02X777720Y-1582970I-883J-882D01*
G01X777580Y-1583320D01*
X776950Y-1583740D01*
X770980D01*
G03X769730Y-1584990I0J-1250D01*
G01Y-1610030D01*
G03X770980Y-1611280I1250J0D01*
G01X796020D01*
G03X797270Y-1610030I0J1250D01*
G01Y-1604780D01*
G02X798520Y-1603530I1250J0D01*
G01X800230D01*
G02X801480Y-1604780I0J-1250D01*
G01Y-1608780D01*
G03X802730Y-1610030I1250J0D01*
G01X821270D01*
G03X822520Y-1608780I0J1250D01*
G01Y-1586240D01*
G03X821270Y-1584990I-1250J0D01*
G01X802730D01*
G03X801480Y-1586240I0J-1250D01*
G01Y-1590240D01*
G02X800230Y-1591490I-1250J0D01*
G01X798520D01*
G02X797270Y-1590240I0J1250D01*
G01Y-1584990D01*
G03X796020Y-1583740I-1250J0D01*
G01X788990D01*
X788270Y-1583080D01*
X788230Y-1582600D01*
G03X785010Y-1575680I-11078J-946D01*
G01X779930Y-1570600D01*
G03X772070Y-1567340I-7865J-7859D01*
G01X731980D01*
G03X724120Y-1570600I5J-11119D01*
G01X708990Y-1585720D01*
G02X708110Y-1586090I-887J879D01*
G01X695580D01*
G03X694330Y-1587340I0J-1250D01*
G01Y-1588340D01*
G02X693080Y-1589590I-1250J0D01*
G01X615020D01*
G02X613770Y-1588340I0J1250D01*
G01Y-1587340D01*
G03X612520Y-1586090I-1250J0D01*
G01X609270D01*
G02X608020Y-1584840I0J1250D01*
G01Y-1582630D01*
X608320D01*
Y-1562840D01*
G03X607070Y-1561590I-1250J0D01*
G01X574030D01*
G03X572780Y-1562840I0J-1250D01*
G01Y-1566820D01*
X572230Y-1567490D01*
X571790Y-1567590D01*
G03X566270Y-1570600I2346J-10868D01*
G01X550940Y-1585930D01*
G02X549820Y-1586390I-1115J1121D01*
G01X509830D01*
G02X508680Y-1585620I4J1249D01*
G01X508530Y-1585260D01*
X508680Y-1584530D01*
X515860Y-1577340D01*
G03X519120Y-1569480I-7859J7865D01*
G01Y-1564450D01*
G02X519600Y-1563470I1250J-5D01*
G03X522870Y-1556760I-5249J6710D01*
G01Y-1547260D01*
G03X521510Y-1542640I-8527J0D01*
G01X521310Y-1542340D01*
X521290Y-1541670D01*
X522510Y-1539430D01*
G02X523610Y-1538780I1096J-600D01*
G01X523870D01*
G02X524990Y-1539240I5J-1581D01*
G01X531140Y-1545400D01*
X531330Y-1545940D01*
X531290Y-1546230D01*
G03X531230Y-1547260I8461J-1010D01*
G01Y-1556760D01*
G03X548270I8520J0D01*
G01Y-1552730D01*
G02X549520Y-1551480I1250J0D01*
G01X571530D01*
G02X572780Y-1552730I0J-1250D01*
G01Y-1555980D01*
G03X574030Y-1557230I1250J0D01*
G01X607880D01*
X608210Y-1556910D01*
G02X608460Y-1556710I898J-867D01*
G01X611100Y-1555170D01*
X611760D01*
X612050Y-1555340D01*
G03X617530Y-1556780I5473J9681D01*
G01X632140D01*
X632840Y-1557390D01*
X632900Y-1557870D01*
G03X649800I8450J1110D01*
G01X649860Y-1557390D01*
X650560Y-1556780D01*
X657540D01*
X658240Y-1557390D01*
X658300Y-1557870D01*
G03X675200I8450J1110D01*
G01X675260Y-1557390D01*
X675960Y-1556780D01*
X688470D01*
G02X689590Y-1557240I5J-1581D01*
G01X693270Y-1560920D01*
G03X701130Y-1564180I7865J7859D01*
G01X772070D01*
G03X779930Y-1560920I-5J11119D01*
G01X785010Y-1555840D01*
G03X788230Y-1548920I-7858J7866D01*
G01X788270Y-1548440D01*
X788990Y-1547780D01*
X796020D01*
G03X797270Y-1546530I0J1250D01*
G01Y-1541280D01*
G02X798520Y-1540030I1250J0D01*
G01X800230D01*
G02X801480Y-1541280I0J-1250D01*
G01Y-1545280D01*
G03X802730Y-1546530I1250J0D01*
G01X821270D01*
G03X822520Y-1545280I0J1250D01*
G01Y-1522740D01*
G03X821270Y-1521490I-1250J0D01*
G01X802730D01*
G03X801480Y-1522740I0J-1250D01*
G01Y-1526740D01*
G02X800230Y-1527990I-1250J0D01*
G01X798520D01*
G02X797270Y-1526740I0J1250D01*
G01Y-1521490D01*
G03X796020Y-1520240I-1250J0D01*
G01X770980D01*
G03X769730Y-1521490I0J-1250D01*
G01Y-1546530D01*
G03X770980Y-1547780I1250J0D01*
G01X776570D01*
G02X777720Y-1548550I-4J-1249D01*
G01X777870Y-1548910D01*
X777720Y-1549640D01*
X773190Y-1554180D01*
G02X772070Y-1554640I-1115J1121D01*
G01X701130D01*
G02X700010Y-1554180I-5J1581D01*
G01X696330Y-1550500D01*
G03X688470Y-1547240I-7865J-7859D01*
G01X675960D01*
X675260Y-1546630D01*
X675200Y-1546150D01*
G03X658300I-8450J-1110D01*
G01X658240Y-1546630D01*
X657540Y-1547240D01*
X650560D01*
X649860Y-1546630D01*
X649800Y-1546150D01*
G03X632900I-8450J-1110D01*
G01X632840Y-1546630D01*
X632140Y-1547240D01*
X617530D01*
G02X616410Y-1546780I-5J1581D01*
G01X614830Y-1545200D01*
G03X609310Y-1542190I-7866J-7858D01*
G01X608870Y-1542090D01*
X608320Y-1541420D01*
Y-1537440D01*
G03X607070Y-1536190I-1250J0D01*
G01X574030D01*
G03X572780Y-1537440I0J-1250D01*
G01Y-1540690D01*
G02X571530Y-1541940I-1250J0D01*
G01X547680D01*
G03X547070Y-1541960I59J-11119D01*
G02X546070Y-1541550I-72J1250D01*
G03X538720Y-1538800I-6325J-5708D01*
G01X538430Y-1538840D01*
X537890Y-1538650D01*
X531730Y-1532500D01*
G03X523870Y-1529240I-7865J-7859D01*
G01X508000D01*
G03X496880Y-1540360I0J-11120D01*
G01Y-1572110D01*
G02X495300Y-1573690I-1580J0D01*
G01X483760D01*
G02X482600Y-1572920I-5J1251D01*
G01X481580Y-1570420D01*
X481720Y-1569690D01*
X482000Y-1569410D01*
G03X484350Y-1564670I-5749J5803D01*
G01X484410Y-1564190D01*
X485110Y-1563580D01*
X486170D01*
G03X487420Y-1562330I0J1250D01*
G01Y-1543790D01*
G03X486170Y-1542540I-1250J0D01*
G01X485670D01*
G02X484420Y-1541290I0J1250D01*
G01Y-1541220D01*
G02X484790Y-1540340I1248J-7D01*
G01X485000Y-1540130D01*
G03X488270Y-1534300I-8754J8742D01*
G02X488610Y-1533700I1215J-292D01*
G03X476910Y-1521320I-6011J6037D01*
G01X476730Y-1521480D01*
X476310Y-1521640D01*
X475970D01*
G02X474720Y-1520390I0J1250D01*
G01Y-1518390D01*
G03X473470Y-1517140I-1250J0D01*
G01X457410D01*
X456180Y-1518370D01*
X442160D01*
G03X440910Y-1519620I0J-1250D01*
G01Y-1535700D01*
G03X442160Y-1536950I1250J0D01*
G01X455950D01*
X457180Y-1538180D01*
X469880D01*
G02X470770Y-1538550I2J-1250D01*
G01X472200Y-1539990D01*
X472380Y-1540460D01*
Y-1540710D01*
Y-1541290D01*
G02X471130Y-1542540I-1250J0D01*
G01X470110D01*
X468880Y-1543770D01*
X454860D01*
G03X453610Y-1545020I0J-1250D01*
G01Y-1558490D01*
G02X452360Y-1559740I-1250J0D01*
G01X449920D01*
X449790Y-1559610D01*
G03X448900Y-1559240I-888J-880D01*
G01X448190Y-1558530D01*
Y-1549020D01*
G03X446940Y-1547770I-1250J0D01*
G01X426700D01*
G02X425450Y-1546520I0J1250D01*
G01Y-1518610D01*
G02X435450Y-1508610I10000J0D01*
G01X491160D01*
G02X498230Y-1511540I-2J-10000D01*
G01X498720Y-1512030D01*
G03X505790Y-1514960I7072J7070D01*
G01X859470D01*
G02X860670Y-1515860I0J-1250D01*
G01X860830Y-1516400D01*
G02X860380Y-1517750I-1201J-350D01*
G03X859030Y-1518910I7366J-9939D01*
G01X851650Y-1526290D01*
G02X850290Y-1526570I-890J878D01*
G01X849940Y-1526420D01*
X849520Y-1525800D01*
Y-1522740D01*
G03X848270Y-1521490I-1250J0D01*
G01X829730D01*
G03X828480Y-1522740I0J-1250D01*
G01Y-1545280D01*
G03X829730Y-1546530I1250J0D01*
G01X848270D01*
G03X849520Y-1545280I0J1250D01*
G01Y-1541740D01*
G02X849860Y-1540890I1248J-6D01*
G01X850360Y-1540350D01*
G02X851140Y-1539960I913J-852D01*
G03X858570Y-1536410I-1315J12302D01*
G01X865350Y-1529630D01*
G02X866360Y-1529270I883J-881D01*
G01X868580Y-1529500D01*
X869060Y-1529790D01*
X869210Y-1530030D01*
G03X898410Y-1518460I13436J8722D01*
G01X898350Y-1518110D01*
X898590Y-1517480D01*
X900560Y-1515880D01*
G02X901810Y-1515700I778J-976D01*
G02X908050Y-1524960I-3751J-9260D01*
G01Y-1720860D01*
G02X901810Y-1730120I-9991J0D01*
G02X900560Y-1729940I-472J1156D01*
G01X898590Y-1728340D01*
X898350Y-1727710D01*
X898410Y-1727360D01*
G03X868120Y-1717770I-15764J2841D01*
G02X866980Y-1718490I-1133J531D01*
G01X864000D01*
X863280Y-1717810D01*
X863250Y-1717320D01*
G03X851000Y-1705790I-12250J-742D01*
G01X850770D01*
G02X849520Y-1704540I0J1250D01*
G01Y-1700540D01*
G03X848270Y-1699290I-1250J0D01*
G01X829730D01*
G03X828480Y-1700540I0J-1250D01*
G01Y-1723080D01*
G03X829730Y-1724330I1250J0D01*
G01X848270D01*
G03X849520Y-1723080I0J1250D01*
G01Y-1722730D01*
G02X850770Y-1721480I1250J0D01*
G01X851170D01*
X851810Y-1721930D01*
X851950Y-1722310D01*
G03X854600Y-1726650I11657J4139D01*
G01X854860Y-1726920D01*
X854990Y-1727650D01*
X853930Y-1730110D01*
G02X852780Y-1730860I-1146J501D01*
G01X609570D01*
G02X608320Y-1729610I0J1250D01*
G37*
G36*
G01X510630Y-1662590D02*
G02X509510Y-1662130I-5J1581D01*
G01X487830Y-1640450D01*
G03X479970Y-1637190I-7865J-7859D01*
G01X450670D01*
G02X449420Y-1635940I0J1250D01*
G01X448190Y-1634710D01*
Y-1623810D01*
X449420Y-1622580D01*
G02X450670Y-1621330I1250J0D01*
G01X507190D01*
G02X508130Y-1621750I5J-1252D01*
G01X509550Y-1623370D01*
X509700Y-1623870D01*
X509670Y-1624140D01*
G03X509580Y-1625540I11030J-1412D01*
G01Y-1630570D01*
G02X509100Y-1631550I-1250J5D01*
G03X505830Y-1638260I5249J-6710D01*
G01Y-1647760D01*
G03X522870I8520J0D01*
G01Y-1638260D01*
G03X519600Y-1631550I-8519J0D01*
G02X519120Y-1630570I770J985D01*
G01Y-1625540D01*
G02X519580Y-1624420I1581J5D01*
G01X522310Y-1621700D01*
G02X523190Y-1621330I887J-879D01*
G01X568870D01*
G02X569990Y-1621790I5J-1581D01*
G01X583850Y-1635660D01*
G02X584120Y-1637020I-883J-882D01*
G01X583980Y-1637370D01*
X583350Y-1637790D01*
X574030D01*
G03X572780Y-1639040I0J-1250D01*
G01Y-1642290D01*
G02X571530Y-1643540I-1250J0D01*
G01X561430D01*
G02X560310Y-1643080I-5J1581D01*
G01X558730Y-1641500D01*
G03X550870Y-1638240I-7865J-7859D01*
G01X548960D01*
X548260Y-1637630D01*
X548200Y-1637150D01*
G03X531230Y-1638260I-8449J-1110D01*
G01Y-1647760D01*
G03X533170Y-1653170I8513J0D01*
G01X533320Y-1653360D01*
X533460Y-1653780D01*
X533370Y-1655700D01*
G02X533000Y-1656520I-1248J70D01*
G01X527400Y-1662130D01*
G02X526280Y-1662590I-1115J1121D01*
G01X510630D01*
G37*
G36*
G01X531190Y-1476860D02*
G02X524120Y-1473930I2J10000D01*
G01X523630Y-1473440D01*
G03X516560Y-1470510I-7072J-7070D01*
G01X435450D01*
G02X425450Y-1460510I0J10000D01*
G01Y-1419900D01*
G02X426700Y-1418650I1250J0D01*
G01X446940D01*
G03X448190Y-1417400I0J1250D01*
G01Y-1407910D01*
X449420Y-1406680D01*
X452360D01*
G02X453610Y-1407930I0J-1250D01*
G01Y-1421400D01*
G03X454860Y-1422650I1250J0D01*
G01X468650D01*
X469880Y-1423880D01*
X471130D01*
G02X472380Y-1425130I0J-1250D01*
G01Y-1426840D01*
G02X471130Y-1428090I-1250J0D01*
G01X470760D01*
X470030Y-1428820D01*
Y-1434830D01*
G02X469490Y-1435870I-1252J-10D01*
G01X467520Y-1437210D01*
X466920Y-1437280D01*
X466630Y-1437170D01*
G03X459520Y-1437600I-3088J-7941D01*
G01X459220Y-1437760D01*
X458580Y-1437750D01*
X456450Y-1436470D01*
G02X455840Y-1435400I639J1073D01*
G01Y-1430570D01*
G03X454590Y-1429320I-1250J0D01*
G01X441510D01*
G03X440260Y-1430570I0J-1250D01*
G01Y-1459650D01*
G03X441510Y-1460900I1250J0D01*
G01X454590D01*
G03X455840Y-1459650I0J1250D01*
G01Y-1454820D01*
G02X456450Y-1453750I1249J-3D01*
G01X458580Y-1452470D01*
X459220Y-1452460D01*
X459520Y-1452620D01*
G03X466630Y-1453050I4022J7511D01*
G01X466920Y-1452940D01*
X467520Y-1453010D01*
X469490Y-1454350D01*
G02X470030Y-1455390I-712J-1030D01*
G01Y-1460880D01*
G03X471280Y-1462130I1250J0D01*
G01X486820D01*
G03X488070Y-1460880I0J1250D01*
G01Y-1451130D01*
G02X489320Y-1449880I1250J0D01*
G01X530770D01*
G02X531890Y-1450340I5J-1581D01*
G01X553570Y-1472020D01*
G03X554060Y-1472490I7938J7785D01*
G01X554360Y-1472750D01*
X554540Y-1473500D01*
X553570Y-1476050D01*
G02X552410Y-1476860I-1169J438D01*
G01X531190D01*
G37*
G36*
G01X510630Y-1408590D02*
G02X509510Y-1408130I-5J1581D01*
G01X487830Y-1386450D01*
G03X479970Y-1383190I-7865J-7859D01*
G01X450670D01*
G02X449420Y-1381940I0J1250D01*
G01X448190Y-1380710D01*
Y-1369810D01*
X449420Y-1368580D01*
G02X450670Y-1367330I1250J0D01*
G01X507190D01*
G02X508130Y-1367750I5J-1252D01*
G01X509550Y-1369370D01*
X509700Y-1369870D01*
X509670Y-1370140D01*
G03X509580Y-1371540I11030J-1412D01*
G01Y-1376570D01*
G02X509100Y-1377550I-1250J5D01*
G03X505830Y-1384260I5249J-6710D01*
G01Y-1393760D01*
G03X522870I8520J0D01*
G01Y-1384260D01*
G03X519600Y-1377550I-8519J0D01*
G02X519120Y-1376570I770J985D01*
G01Y-1371540D01*
G02X519580Y-1370420I1581J5D01*
G01X522310Y-1367700D01*
G02X523190Y-1367330I887J-879D01*
G01X568870D01*
G02X569990Y-1367790I5J-1581D01*
G01X583850Y-1381660D01*
G02X584120Y-1383020I-883J-882D01*
G01X583980Y-1383370D01*
X583350Y-1383790D01*
X574030D01*
G03X572780Y-1385040I0J-1250D01*
G01Y-1388290D01*
G02X571530Y-1389540I-1250J0D01*
G01X561430D01*
G02X560310Y-1389080I-5J1581D01*
G01X558730Y-1387500D01*
G03X550870Y-1384240I-7865J-7859D01*
G01X548960D01*
X548260Y-1383630D01*
X548200Y-1383150D01*
G03X531230Y-1384260I-8449J-1110D01*
G01Y-1393760D01*
G03X533170Y-1399170I8513J0D01*
G01X533320Y-1399360D01*
X533460Y-1399780D01*
X533370Y-1401700D01*
G02X533000Y-1402520I-1248J70D01*
G01X527400Y-1408130D01*
G02X526280Y-1408590I-1115J1121D01*
G01X510630D01*
G37*
G36*
G01X608320Y-1475610D02*
Y-1461240D01*
G03X607070Y-1459990I-1250J0D01*
G01X606070D01*
G02X604820Y-1458740I0J1250D01*
G01Y-1456880D01*
G02X606070Y-1455630I1250J0D01*
G01X607070D01*
G03X608320Y-1454380I0J1250D01*
G01Y-1451130D01*
G02X609570Y-1449880I1250J0D01*
G01X632370D01*
G03X640230Y-1446620I-5J11119D01*
G01X649210Y-1437640D01*
G02X650330Y-1437180I1115J-1121D01*
G01X772070D01*
G02X773190Y-1437640I5J-1581D01*
G01X777450Y-1441910D01*
G02X777720Y-1443270I-883J-882D01*
G01X777580Y-1443620D01*
X776950Y-1444040D01*
X770980D01*
G03X769730Y-1445290I0J-1250D01*
G01Y-1470330D01*
G03X770980Y-1471580I1250J0D01*
G01X796020D01*
G03X797270Y-1470330I0J1250D01*
G01Y-1465080D01*
G02X798520Y-1463830I1250J0D01*
G01X800230D01*
G02X801480Y-1465080I0J-1250D01*
G01Y-1469080D01*
G03X802730Y-1470330I1250J0D01*
G01X821270D01*
G03X822520Y-1469080I0J1250D01*
G01Y-1446540D01*
G03X821270Y-1445290I-1250J0D01*
G01X802730D01*
G03X801480Y-1446540I0J-1250D01*
G01Y-1450540D01*
G02X800230Y-1451790I-1250J0D01*
G01X798520D01*
G02X797270Y-1450540I0J1250D01*
G01Y-1445290D01*
G03X796020Y-1444040I-1250J0D01*
G01X788990D01*
X788270Y-1443380D01*
X788230Y-1442900D01*
G03X785010Y-1435980I-11078J-946D01*
G01X779930Y-1430900D01*
G03X772070Y-1427640I-7865J-7859D01*
G01X650330D01*
G03X642470Y-1430900I5J-11119D01*
G01X633490Y-1439880D01*
G02X632370Y-1440340I-1115J1121D01*
G01X609570D01*
G02X608320Y-1439090I0J1250D01*
G01Y-1435840D01*
G03X607070Y-1434590I-1250J0D01*
G01X597750D01*
G02X596820Y-1434180I-4J1251D01*
G01X595400Y-1432600D01*
X595240Y-1432110D01*
X595260Y-1431840D01*
G03X595300Y-1431400I-11049J1226D01*
G01X595330Y-1430910D01*
X596050Y-1430230D01*
X607070D01*
G03X608320Y-1428980I0J1250D01*
G01Y-1425730D01*
G02X609570Y-1424480I1250J0D01*
G01X772070D01*
G03X779930Y-1421220I-5J11119D01*
G01X785010Y-1416140D01*
G03X788230Y-1409220I-7858J7866D01*
G01X788270Y-1408740D01*
X788990Y-1408080D01*
X796020D01*
G03X797270Y-1406830I0J1250D01*
G01Y-1401580D01*
G02X798520Y-1400330I1250J0D01*
G01X800230D01*
G02X801480Y-1401580I0J-1250D01*
G01Y-1405580D01*
G03X802730Y-1406830I1250J0D01*
G01X821270D01*
G03X822520Y-1405580I0J1250D01*
G01Y-1383040D01*
G03X821270Y-1381790I-1250J0D01*
G01X802730D01*
G03X801480Y-1383040I0J-1250D01*
G01Y-1387040D01*
G02X800230Y-1388290I-1250J0D01*
G01X798520D01*
G02X797270Y-1387040I0J1250D01*
G01Y-1381790D01*
G03X796020Y-1380540I-1250J0D01*
G01X770980D01*
G03X769730Y-1381790I0J-1250D01*
G01Y-1406830D01*
G03X770980Y-1408080I1250J0D01*
G01X776570D01*
G02X777720Y-1408850I-4J-1249D01*
G01X777870Y-1409210D01*
X777720Y-1409940D01*
X773190Y-1414480D01*
G02X772070Y-1414940I-1115J1121D01*
G01X609570D01*
G02X608320Y-1413690I0J1250D01*
G01Y-1410440D01*
G03X607070Y-1409190I-1250J0D01*
G01X606070D01*
G02X604820Y-1407940I0J1250D01*
G01Y-1406080D01*
G02X606070Y-1404830I1250J0D01*
G01X607070D01*
G03X608320Y-1403580I0J1250D01*
G01Y-1385040D01*
G03X607070Y-1383790I-1250J0D01*
G01X595980D01*
X595280Y-1383180D01*
X595210Y-1382710D01*
G03X592060Y-1376380I-11011J-1531D01*
G01X576730Y-1361050D01*
G03X568870Y-1357790I-7865J-7859D01*
G01X450670D01*
G02X449420Y-1356540I0J1250D01*
G01X448190Y-1355310D01*
Y-1344410D01*
X449420Y-1343180D01*
G02X450670Y-1341930I1250J0D01*
G01X549820D01*
G03X557680Y-1338670I-5J11119D01*
G01X570650Y-1325710D01*
G02X572010Y-1325440I882J-883D01*
G01X572360Y-1325580D01*
X572780Y-1326210D01*
Y-1327380D01*
G03X574030Y-1328630I1250J0D01*
G01X594570D01*
X595270Y-1329240D01*
X595330Y-1329720D01*
G03X595490Y-1330530I6651J893D01*
G01X595530Y-1330680D01*
Y-1330840D01*
G02X594280Y-1332090I-1250J0D01*
G01X593980D01*
G03X592730Y-1333340I0J-1250D01*
G01Y-1366380D01*
G03X593980Y-1367630I1250J0D01*
G01X612520D01*
G03X613770Y-1366380I0J1250D01*
G01Y-1365380D01*
G02X615020Y-1364130I1250J0D01*
G01X622820D01*
G02X623940Y-1364590I5J-1581D01*
G01X634710Y-1375370D01*
G02X635080Y-1376200I-879J-889D01*
G01X635160Y-1378130D01*
X635000Y-1378570D01*
X634850Y-1378750D01*
G03X632830Y-1384260I6505J-5510D01*
G01Y-1393760D01*
G03X649870I8520J0D01*
G01Y-1384260D01*
G03X646530Y-1377500I-8511J0D01*
G02X646050Y-1376640I764J990D01*
G03X642860Y-1370030I-11048J-1257D01*
G01X630680Y-1357850D01*
G03X622820Y-1354590I-7865J-7859D01*
G01X615020D01*
G02X613770Y-1353340I0J1250D01*
G01Y-1346380D01*
G02X615020Y-1345130I1250J0D01*
G01X693080D01*
G02X694330Y-1346380I0J-1250D01*
G01Y-1353340D01*
G02X693080Y-1354590I-1250J0D01*
G01X685280D01*
G03X677420Y-1357850I5J-11119D01*
G01X665240Y-1370030D01*
G03X662050Y-1376640I7858J-7867D01*
G02X661570Y-1377500I-1244J130D01*
G03X658230Y-1384260I5171J-6760D01*
G01Y-1393760D01*
G03X675270I8520J0D01*
G01Y-1384260D01*
G03X673250Y-1378750I-8525J0D01*
G01X673100Y-1378570D01*
X672940Y-1378130D01*
X673020Y-1376200D01*
G02X673390Y-1375370I1249J-59D01*
G01X684160Y-1364590D01*
G02X685280Y-1364130I1115J-1121D01*
G01X693080D01*
G02X694330Y-1365380I0J-1250D01*
G01Y-1366380D01*
G03X695580Y-1367630I1250J0D01*
G01X714120D01*
G03X715370Y-1366380I0J1250D01*
G01Y-1339350D01*
G02X715740Y-1338470I1249J-7D01*
G01X730860Y-1323340D01*
G02X731980Y-1322880I1115J-1121D01*
G01X772070D01*
G02X773190Y-1323340I5J-1581D01*
G01X777450Y-1327610D01*
G02X777720Y-1328970I-883J-882D01*
G01X777580Y-1329320D01*
X776950Y-1329740D01*
X770980D01*
G03X769730Y-1330990I0J-1250D01*
G01Y-1356030D01*
G03X770980Y-1357280I1250J0D01*
G01X796020D01*
G03X797270Y-1356030I0J1250D01*
G01Y-1350780D01*
G02X798520Y-1349530I1250J0D01*
G01X800230D01*
G02X801480Y-1350780I0J-1250D01*
G01Y-1354780D01*
G03X802730Y-1356030I1250J0D01*
G01X821270D01*
G03X822520Y-1354780I0J1250D01*
G01Y-1332240D01*
G03X821270Y-1330990I-1250J0D01*
G01X802730D01*
G03X801480Y-1332240I0J-1250D01*
G01Y-1336240D01*
G02X800230Y-1337490I-1250J0D01*
G01X798520D01*
G02X797270Y-1336240I0J1250D01*
G01Y-1330990D01*
G03X796020Y-1329740I-1250J0D01*
G01X788990D01*
X788270Y-1329080D01*
X788230Y-1328600D01*
G03X785010Y-1321680I-11078J-946D01*
G01X779930Y-1316600D01*
G03X772070Y-1313340I-7865J-7859D01*
G01X731980D01*
G03X724120Y-1316600I5J-11119D01*
G01X708990Y-1331720D01*
G02X708110Y-1332090I-887J879D01*
G01X695580D01*
G03X694330Y-1333340I0J-1250D01*
G01Y-1334340D01*
G02X693080Y-1335590I-1250J0D01*
G01X615020D01*
G02X613770Y-1334340I0J1250D01*
G01Y-1333340D01*
G03X612520Y-1332090I-1250J0D01*
G01X609270D01*
G02X608020Y-1330840I0J1250D01*
G01Y-1328630D01*
X608320D01*
Y-1308840D01*
G03X607070Y-1307590I-1250J0D01*
G01X574030D01*
G03X572780Y-1308840I0J-1250D01*
G01Y-1312820D01*
X572230Y-1313490D01*
X571790Y-1313590D01*
G03X566270Y-1316600I2346J-10868D01*
G01X550940Y-1331930D01*
G02X549820Y-1332390I-1115J1121D01*
G01X509830D01*
G02X508680Y-1331620I4J1249D01*
G01X508530Y-1331260D01*
X508680Y-1330530D01*
X515860Y-1323340D01*
G03X519120Y-1315480I-7859J7865D01*
G01Y-1310450D01*
G02X519600Y-1309470I1250J-5D01*
G03X522870Y-1302760I-5249J6710D01*
G01Y-1293260D01*
G03X521510Y-1288640I-8527J0D01*
G01X521310Y-1288340D01*
X521290Y-1287670D01*
X522510Y-1285430D01*
G02X523610Y-1284780I1096J-600D01*
G01X523870D01*
G02X524990Y-1285240I5J-1581D01*
G01X531140Y-1291400D01*
X531330Y-1291940D01*
X531290Y-1292230D01*
G03X531230Y-1293260I8461J-1010D01*
G01Y-1302760D01*
G03X548270I8520J0D01*
G01Y-1298730D01*
G02X549520Y-1297480I1250J0D01*
G01X571530D01*
G02X572780Y-1298730I0J-1250D01*
G01Y-1301980D01*
G03X574030Y-1303230I1250J0D01*
G01X607880D01*
X608210Y-1302910D01*
G02X608460Y-1302710I898J-867D01*
G01X611100Y-1301170D01*
X611760D01*
X612050Y-1301340D01*
G03X617530Y-1302780I5473J9681D01*
G01X632140D01*
X632840Y-1303390D01*
X632900Y-1303870D01*
G03X649800I8450J1110D01*
G01X649860Y-1303390D01*
X650560Y-1302780D01*
X657540D01*
X658240Y-1303390D01*
X658300Y-1303870D01*
G03X675200I8450J1110D01*
G01X675260Y-1303390D01*
X675960Y-1302780D01*
X688470D01*
G02X689590Y-1303240I5J-1581D01*
G01X693270Y-1306920D01*
G03X701130Y-1310180I7865J7859D01*
G01X772070D01*
G03X779930Y-1306920I-5J11119D01*
G01X785010Y-1301840D01*
G03X788230Y-1294920I-7858J7866D01*
G01X788270Y-1294440D01*
X788990Y-1293780D01*
X796020D01*
G03X797270Y-1292530I0J1250D01*
G01Y-1287280D01*
G02X798520Y-1286030I1250J0D01*
G01X800230D01*
G02X801480Y-1287280I0J-1250D01*
G01Y-1291280D01*
G03X802730Y-1292530I1250J0D01*
G01X821270D01*
G03X822520Y-1291280I0J1250D01*
G01Y-1268740D01*
G03X821270Y-1267490I-1250J0D01*
G01X802730D01*
G03X801480Y-1268740I0J-1250D01*
G01Y-1272740D01*
G02X800230Y-1273990I-1250J0D01*
G01X798520D01*
G02X797270Y-1272740I0J1250D01*
G01Y-1267490D01*
G03X796020Y-1266240I-1250J0D01*
G01X770980D01*
G03X769730Y-1267490I0J-1250D01*
G01Y-1292530D01*
G03X770980Y-1293780I1250J0D01*
G01X776570D01*
G02X777720Y-1294550I-4J-1249D01*
G01X777870Y-1294910D01*
X777720Y-1295640D01*
X773190Y-1300180D01*
G02X772070Y-1300640I-1115J1121D01*
G01X701130D01*
G02X700010Y-1300180I-5J1581D01*
G01X696330Y-1296500D01*
G03X688470Y-1293240I-7865J-7859D01*
G01X675960D01*
X675260Y-1292630D01*
X675200Y-1292150D01*
G03X658300I-8450J-1110D01*
G01X658240Y-1292630D01*
X657540Y-1293240D01*
X650560D01*
X649860Y-1292630D01*
X649800Y-1292150D01*
G03X632900I-8450J-1110D01*
G01X632840Y-1292630D01*
X632140Y-1293240D01*
X617530D01*
G02X616410Y-1292780I-5J1581D01*
G01X614830Y-1291200D01*
G03X609310Y-1288190I-7866J-7858D01*
G01X608870Y-1288090D01*
X608320Y-1287420D01*
Y-1283440D01*
G03X607070Y-1282190I-1250J0D01*
G01X574030D01*
G03X572780Y-1283440I0J-1250D01*
G01Y-1286690D01*
G02X571530Y-1287940I-1250J0D01*
G01X547680D01*
G03X547070Y-1287960I59J-11119D01*
G02X546070Y-1287550I-72J1250D01*
G03X538720Y-1284800I-6325J-5708D01*
G01X538430Y-1284840D01*
X537890Y-1284650D01*
X531730Y-1278500D01*
G03X523870Y-1275240I-7865J-7859D01*
G01X508000D01*
G03X496880Y-1286360I0J-11120D01*
G01Y-1318110D01*
G02X495300Y-1319690I-1580J0D01*
G01X483760D01*
G02X482600Y-1318920I-5J1251D01*
G01X481580Y-1316420D01*
X481720Y-1315690D01*
X482000Y-1315410D01*
G03X484350Y-1310670I-5749J5803D01*
G01X484410Y-1310190D01*
X485110Y-1309580D01*
X486170D01*
G03X487420Y-1308330I0J1250D01*
G01Y-1289790D01*
G03X486170Y-1288540I-1250J0D01*
G01X485670D01*
G02X484420Y-1287290I0J1250D01*
G01Y-1287220D01*
G02X484790Y-1286340I1248J-7D01*
G01X485000Y-1286130D01*
G03X488270Y-1280300I-8754J8742D01*
G02X488610Y-1279700I1215J-292D01*
G03X476910Y-1267320I-6011J6037D01*
G01X476730Y-1267480D01*
X476310Y-1267640D01*
X475970D01*
G02X474720Y-1266390I0J1250D01*
G01Y-1264390D01*
G03X473470Y-1263140I-1250J0D01*
G01X457410D01*
X456180Y-1264370D01*
X442160D01*
G03X440910Y-1265620I0J-1250D01*
G01Y-1281700D01*
G03X442160Y-1282950I1250J0D01*
G01X455950D01*
X457180Y-1284180D01*
X469880D01*
G02X470770Y-1284550I2J-1250D01*
G01X472200Y-1285990D01*
X472380Y-1286460D01*
Y-1286710D01*
Y-1287290D01*
G02X471130Y-1288540I-1250J0D01*
G01X470110D01*
X468880Y-1289770D01*
X454860D01*
G03X453610Y-1291020I0J-1250D01*
G01Y-1304490D01*
G02X452360Y-1305740I-1250J0D01*
G01X449920D01*
X449790Y-1305610D01*
G03X448900Y-1305240I-888J-880D01*
G01X448190Y-1304530D01*
Y-1295020D01*
G03X446940Y-1293770I-1250J0D01*
G01X426700D01*
G02X425450Y-1292520I0J1250D01*
G01Y-1264610D01*
G02X435450Y-1254610I10000J0D01*
G01X491160D01*
G02X498230Y-1257540I-2J-10000D01*
G01X498720Y-1258030D01*
G03X505790Y-1260960I7072J7070D01*
G01X859470D01*
G02X860670Y-1261860I0J-1250D01*
G01X860830Y-1262400D01*
G02X860380Y-1263750I-1201J-350D01*
G03X859030Y-1264910I7366J-9939D01*
G01X851650Y-1272290D01*
G02X850290Y-1272570I-890J878D01*
G01X849940Y-1272420D01*
X849520Y-1271800D01*
Y-1268740D01*
G03X848270Y-1267490I-1250J0D01*
G01X829730D01*
G03X828480Y-1268740I0J-1250D01*
G01Y-1291280D01*
G03X829730Y-1292530I1250J0D01*
G01X848270D01*
G03X849520Y-1291280I0J1250D01*
G01Y-1287740D01*
G02X849860Y-1286890I1248J-6D01*
G01X850360Y-1286350D01*
G02X851140Y-1285960I913J-852D01*
G03X858570Y-1282410I-1315J12302D01*
G01X864500Y-1276480D01*
G02X865860Y-1276200I890J-878D01*
G01X866210Y-1276350D01*
X866630Y-1276970D01*
Y-1282080D01*
G03X867880Y-1283330I1250J0D01*
G01X897420D01*
G03X898670Y-1282080I0J1250D01*
G01Y-1264140D01*
G02X899240Y-1263090I1250J1D01*
G01X901010Y-1261950D01*
G02X902210Y-1261870I673J-1053D01*
G02X908050Y-1270960I-4154J-9090D01*
G01Y-1466860D01*
G02X901810Y-1476120I-9991J0D01*
G02X900560Y-1475940I-472J1156D01*
G01X898590Y-1474340D01*
X898350Y-1473710D01*
X898410Y-1473360D01*
G03X868120Y-1463770I-15764J2841D01*
G02X866980Y-1464490I-1133J531D01*
G01X864000D01*
X863280Y-1463810D01*
X863250Y-1463320D01*
G03X851000Y-1451790I-12250J-742D01*
G01X850770D01*
G02X849520Y-1450540I0J1250D01*
G01Y-1446540D01*
G03X848270Y-1445290I-1250J0D01*
G01X829730D01*
G03X828480Y-1446540I0J-1250D01*
G01Y-1469080D01*
G03X829730Y-1470330I1250J0D01*
G01X848270D01*
G03X849520Y-1469080I0J1250D01*
G01Y-1468730D01*
G02X850770Y-1467480I1250J0D01*
G01X851170D01*
X851810Y-1467930D01*
X851950Y-1468310D01*
G03X854600Y-1472650I11657J4139D01*
G01X854860Y-1472920D01*
X854990Y-1473650D01*
X853930Y-1476110D01*
G02X852780Y-1476860I-1146J501D01*
G01X609570D01*
G02X608320Y-1475610I0J1250D01*
G37*
G36*
G01X457200Y-1107310D02*
Y-1046310D01*
G02X458450Y-1045060I1250J0D01*
G01X493410D01*
G02X494660Y-1046310I0J-1250D01*
G01Y-1079650D01*
G03X495910Y-1080900I1250J0D01*
G01X510990D01*
G03X512240Y-1079650I0J1250D01*
G01Y-1046310D01*
G02X513490Y-1045060I1250J0D01*
G01X513500D01*
G02X514750Y-1046310I0J-1250D01*
G01Y-1107310D01*
G02X513500Y-1108560I-1250J0D01*
G01X458450D01*
G02X457200Y-1107310I0J1250D01*
G37*
G36*
G01Y-923160D02*
Y-862160D01*
G02X458450Y-860910I1250J0D01*
G01X493410D01*
G02X494660Y-862160I0J-1250D01*
G01Y-895500D01*
G03X495910Y-896750I1250J0D01*
G01X510990D01*
G03X512240Y-895500I0J1250D01*
G01Y-862160D01*
G02X513490Y-860910I1250J0D01*
G01X513500D01*
G02X514750Y-862160I0J-1250D01*
G01Y-923160D01*
G02X513500Y-924410I-1250J0D01*
G01X458450D01*
G02X457200Y-923160I0J1250D01*
G37*
G36*
G01Y-751710D02*
Y-690710D01*
G02X458450Y-689460I1250J0D01*
G01X493010D01*
G02X494260Y-690710I0J-1250D01*
G01Y-724050D01*
G03X495510Y-725300I1250J0D01*
G01X510590D01*
G03X511840Y-724050I0J1250D01*
G01Y-690710D01*
G02X513090Y-689460I1250J0D01*
G01X513100D01*
G02X514350Y-690710I0J-1250D01*
G01Y-751710D01*
G02X513100Y-752960I-1250J0D01*
G01X458450D01*
G02X457200Y-751710I0J1250D01*
G37*
G36*
G01X561430Y-1973740D02*
G02X560310Y-1973280I-5J1581D01*
G01X538630Y-1951600D01*
G03X530770Y-1948340I-7865J-7859D01*
G01X489320D01*
G02X488070Y-1947090I0J1250D01*
G01Y-1937340D01*
G03X486820Y-1936090I-1250J0D01*
G01X486320D01*
G02X485070Y-1934840I0J1250D01*
G01Y-1933130D01*
G02X486320Y-1931880I1250J0D01*
G01X486690D01*
X487420Y-1931150D01*
Y-1910540D01*
G02X488190Y-1909390I1249J-4D01*
G01X488550Y-1909240D01*
X489280Y-1909390D01*
X502770Y-1922870D01*
G03X510630Y-1926130I7865J7859D01*
G01X526280D01*
G03X534140Y-1922870I-5J11119D01*
G01X541260Y-1915750D01*
G03X544420Y-1909370I-7859J7865D01*
G02X544900Y-1908540I1241J-164D01*
G03X548200Y-1902870I-5145J6790D01*
G01X548260Y-1902390D01*
X548960Y-1901780D01*
X550870D01*
G02X551990Y-1902240I5J-1581D01*
G01X553570Y-1903820D01*
G03X561430Y-1907080I7865J7859D01*
G01X571530D01*
G02X572780Y-1908330I0J-1250D01*
G01Y-1911580D01*
G03X574030Y-1912830I1250J0D01*
G01X584530D01*
G02X585780Y-1914080I0J-1250D01*
G01Y-1917170D01*
G02X584530Y-1918420I-1250J0D01*
G01X575260D01*
G03X574010Y-1919670I0J-1250D01*
G01Y-1935750D01*
G03X575260Y-1937000I1250J0D01*
G01X584530D01*
G02X585780Y-1938250I0J-1250D01*
G01Y-1938730D01*
G02X585320Y-1939850I-1581J-5D01*
G01X582940Y-1942220D01*
G02X582060Y-1942590I-887J879D01*
G01X574030D01*
G03X572780Y-1943840I0J-1250D01*
G01Y-1962380D01*
G03X574030Y-1963630I1250J0D01*
G01X594030D01*
G02X595280Y-1964880I0J-1250D01*
G01Y-1966740D01*
G02X594030Y-1967990I-1250J0D01*
G01X574030D01*
G03X572780Y-1969240I0J-1250D01*
G01Y-1972490D01*
G02X571530Y-1973740I-1250J0D01*
G01X561430D01*
G37*
G36*
G01Y-1719740D02*
G02X560310Y-1719280I-5J1581D01*
G01X538630Y-1697600D01*
G03X530770Y-1694340I-7865J-7859D01*
G01X489320D01*
G02X488070Y-1693090I0J1250D01*
G01Y-1683340D01*
G03X486820Y-1682090I-1250J0D01*
G01X486320D01*
G02X485070Y-1680840I0J1250D01*
G01Y-1679130D01*
G02X486320Y-1677880I1250J0D01*
G01X486690D01*
X487420Y-1677150D01*
Y-1656540D01*
G02X488190Y-1655390I1249J-4D01*
G01X488550Y-1655240D01*
X489280Y-1655390D01*
X502770Y-1668870D01*
G03X510630Y-1672130I7865J7859D01*
G01X526280D01*
G03X534140Y-1668870I-5J11119D01*
G01X541260Y-1661750D01*
G03X544420Y-1655370I-7859J7865D01*
G02X544900Y-1654540I1241J-164D01*
G03X548200Y-1648870I-5145J6790D01*
G01X548260Y-1648390D01*
X548960Y-1647780D01*
X550870D01*
G02X551990Y-1648240I5J-1581D01*
G01X553570Y-1649820D01*
G03X561430Y-1653080I7865J7859D01*
G01X571530D01*
G02X572780Y-1654330I0J-1250D01*
G01Y-1657580D01*
G03X574030Y-1658830I1250J0D01*
G01X584530D01*
G02X585780Y-1660080I0J-1250D01*
G01Y-1663170D01*
G02X584530Y-1664420I-1250J0D01*
G01X575260D01*
G03X574010Y-1665670I0J-1250D01*
G01Y-1681750D01*
G03X575260Y-1683000I1250J0D01*
G01X584530D01*
G02X585780Y-1684250I0J-1250D01*
G01Y-1684730D01*
G02X585320Y-1685850I-1581J-5D01*
G01X582940Y-1688220D01*
G02X582060Y-1688590I-887J879D01*
G01X574030D01*
G03X572780Y-1689840I0J-1250D01*
G01Y-1708380D01*
G03X574030Y-1709630I1250J0D01*
G01X594030D01*
G02X595280Y-1710880I0J-1250D01*
G01Y-1712740D01*
G02X594030Y-1713990I-1250J0D01*
G01X574030D01*
G03X572780Y-1715240I0J-1250D01*
G01Y-1718490D01*
G02X571530Y-1719740I-1250J0D01*
G01X561430D01*
G37*
G36*
G01Y-1465740D02*
G02X560310Y-1465280I-5J1581D01*
G01X538630Y-1443600D01*
G03X530770Y-1440340I-7865J-7859D01*
G01X489320D01*
G02X488070Y-1439090I0J1250D01*
G01Y-1429340D01*
G03X486820Y-1428090I-1250J0D01*
G01X486320D01*
G02X485070Y-1426840I0J1250D01*
G01Y-1425130D01*
G02X486320Y-1423880I1250J0D01*
G01X486690D01*
X487420Y-1423150D01*
Y-1402540D01*
G02X488190Y-1401390I1249J-4D01*
G01X488550Y-1401240D01*
X489280Y-1401390D01*
X502770Y-1414870D01*
G03X510630Y-1418130I7865J7859D01*
G01X526280D01*
G03X534140Y-1414870I-5J11119D01*
G01X541260Y-1407750D01*
G03X544420Y-1401370I-7859J7865D01*
G02X544900Y-1400540I1241J-164D01*
G03X548200Y-1394870I-5145J6790D01*
G01X548260Y-1394390D01*
X548960Y-1393780D01*
X550870D01*
G02X551990Y-1394240I5J-1581D01*
G01X553570Y-1395820D01*
G03X561430Y-1399080I7865J7859D01*
G01X571530D01*
G02X572780Y-1400330I0J-1250D01*
G01Y-1403580D01*
G03X574030Y-1404830I1250J0D01*
G01X584530D01*
G02X585780Y-1406080I0J-1250D01*
G01Y-1409170D01*
G02X584530Y-1410420I-1250J0D01*
G01X575260D01*
G03X574010Y-1411670I0J-1250D01*
G01Y-1427750D01*
G03X575260Y-1429000I1250J0D01*
G01X584530D01*
G02X585780Y-1430250I0J-1250D01*
G01Y-1430730D01*
G02X585320Y-1431850I-1581J-5D01*
G01X582940Y-1434220D01*
G02X582060Y-1434590I-887J879D01*
G01X574030D01*
G03X572780Y-1435840I0J-1250D01*
G01Y-1454380D01*
G03X574030Y-1455630I1250J0D01*
G01X594030D01*
G02X595280Y-1456880I0J-1250D01*
G01Y-1458740D01*
G02X594030Y-1459990I-1250J0D01*
G01X574030D01*
G03X572780Y-1461240I0J-1250D01*
G01Y-1464490D01*
G02X571530Y-1465740I-1250J0D01*
G01X561430D01*
G37*
G36*
G01X540150Y-1107310D02*
Y-1052660D01*
G02X541400Y-1051410I1250J0D01*
G01X541410D01*
G02X542660Y-1052660I0J-1250D01*
G01Y-1079650D01*
G03X543910Y-1080900I1250J0D01*
G01X558990D01*
G03X560240Y-1079650I0J1250D01*
G01Y-1052660D01*
G02X561490Y-1051410I1250J0D01*
G01X570650D01*
G02X571900Y-1052660I0J-1250D01*
G01Y-1081910D01*
G03X573150Y-1083160I1250J0D01*
G01X811950D01*
G02X813200Y-1084410I0J-1250D01*
G01Y-1107310D01*
G02X811950Y-1108560I-1250J0D01*
G01X541400D01*
G02X540150Y-1107310I0J1250D01*
G37*
G36*
G01X679850Y-1050160D02*
Y-1020910D01*
G03X678600Y-1019660I-1250J0D01*
G01X650190D01*
G02X648940Y-1018410I0J1250D01*
G01Y-992220D01*
G03X647690Y-990970I-1250J0D01*
G01X623110D01*
G03X621860Y-992220I0J-1250D01*
G01Y-1018410D01*
G02X620610Y-1019660I-1250J0D01*
G01X563340D01*
G02X562090Y-1018410I0J1250D01*
G01Y-994670D01*
G03X560840Y-993420I-1250J0D01*
G01X541400D01*
G02X540150Y-992170I0J1250D01*
G01Y-989160D01*
G02X541400Y-987910I1250J0D01*
G01X709310D01*
G02X710560Y-989160I0J-1250D01*
G01Y-1022500D01*
G03X711810Y-1023750I1250J0D01*
G01X726890D01*
G03X728140Y-1022500I0J1250D01*
G01Y-989160D01*
G02X729390Y-987910I1250J0D01*
G01X729400D01*
G02X730650Y-989160I0J-1250D01*
G01Y-1050160D01*
G02X729400Y-1051410I-1250J0D01*
G01X681100D01*
G02X679850Y-1050160I0J1250D01*
G37*
G36*
G01X540150Y-923160D02*
Y-868510D01*
G02X541400Y-867260I1250J0D01*
G01X541410D01*
G02X542660Y-868510I0J-1250D01*
G01Y-895500D01*
G03X543910Y-896750I1250J0D01*
G01X558990D01*
G03X560240Y-895500I0J1250D01*
G01Y-868510D01*
G02X561490Y-867260I1250J0D01*
G01X570650D01*
G02X571900Y-868510I0J-1250D01*
G01Y-897760D01*
G03X573150Y-899010I1250J0D01*
G01X811950D01*
G02X813200Y-900260I0J-1250D01*
G01Y-923160D01*
G02X811950Y-924410I-1250J0D01*
G01X541400D01*
G02X540150Y-923160I0J1250D01*
G37*
G36*
G01X679850Y-866010D02*
Y-836760D01*
G03X678600Y-835510I-1250J0D01*
G01X650190D01*
G02X648940Y-834260I0J1250D01*
G01Y-808070D01*
G03X647690Y-806820I-1250J0D01*
G01X623110D01*
G03X621860Y-808070I0J-1250D01*
G01Y-834260D01*
G02X620610Y-835510I-1250J0D01*
G01X563340D01*
G02X562090Y-834260I0J1250D01*
G01Y-810520D01*
G03X560840Y-809270I-1250J0D01*
G01X541400D01*
G02X540150Y-808020I0J1250D01*
G01Y-805010D01*
G02X541400Y-803760I1250J0D01*
G01X709310D01*
G02X710560Y-805010I0J-1250D01*
G01Y-838350D01*
G03X711810Y-839600I1250J0D01*
G01X726890D01*
G03X728140Y-838350I0J1250D01*
G01Y-805010D01*
G02X729390Y-803760I1250J0D01*
G01X729400D01*
G02X730650Y-805010I0J-1250D01*
G01Y-866010D01*
G02X729400Y-867260I-1250J0D01*
G01X681100D01*
G02X679850Y-866010I0J1250D01*
G37*
G36*
G01X539750Y-751710D02*
Y-697060D01*
G02X541000Y-695810I1250J0D01*
G01X541010D01*
G02X542260Y-697060I0J-1250D01*
G01Y-724050D01*
G03X543510Y-725300I1250J0D01*
G01X558590D01*
G03X559840Y-724050I0J1250D01*
G01Y-697060D01*
G02X561090Y-695810I1250J0D01*
G01X570250D01*
G02X571500Y-697060I0J-1250D01*
G01Y-726310D01*
G03X572750Y-727560I1250J0D01*
G01X811550D01*
G02X812800Y-728810I0J-1250D01*
G01Y-751710D01*
G02X811550Y-752960I-1250J0D01*
G01X541000D01*
G02X539750Y-751710I0J1250D01*
G37*
G36*
G01X679450Y-694560D02*
Y-665310D01*
G03X678200Y-664060I-1250J0D01*
G01X649790D01*
G02X648540Y-662810I0J1250D01*
G01Y-636620D01*
G03X647290Y-635370I-1250J0D01*
G01X622710D01*
G03X621460Y-636620I0J-1250D01*
G01Y-662810D01*
G02X620210Y-664060I-1250J0D01*
G01X563340D01*
G02X562090Y-662810I0J1250D01*
G01Y-639070D01*
G03X560840Y-637820I-1250J0D01*
G01X541000D01*
G02X539750Y-636570I0J1250D01*
G01Y-633560D01*
G02X541000Y-632310I1250J0D01*
G01X708910D01*
G02X710160Y-633560I0J-1250D01*
G01Y-666900D01*
G03X711410Y-668150I1250J0D01*
G01X726490D01*
G03X727740Y-666900I0J1250D01*
G01Y-633560D01*
G02X728990Y-632310I1250J0D01*
G01X729000D01*
G02X730250Y-633560I0J-1250D01*
G01Y-694560D01*
G02X729000Y-695810I-1250J0D01*
G01X680700D01*
G02X679450Y-694560I0J1250D01*
G37*
G36*
G01X756050Y-1050160D02*
Y-989160D01*
G02X757300Y-987910I1250J0D01*
G01X757310D01*
G02X758560Y-989160I0J-1250D01*
G01Y-1022500D01*
G03X759810Y-1023750I1250J0D01*
G01X774890D01*
G03X776140Y-1022500I0J1250D01*
G01Y-989160D01*
G02X777390Y-987910I1250J0D01*
G01X811950D01*
G02X813200Y-989160I0J-1250D01*
G01Y-1050160D01*
G02X811950Y-1051410I-1250J0D01*
G01X757300D01*
G02X756050Y-1050160I0J1250D01*
G37*
G36*
G01Y-866010D02*
Y-805010D01*
G02X757300Y-803760I1250J0D01*
G01X757310D01*
G02X758560Y-805010I0J-1250D01*
G01Y-838350D01*
G03X759810Y-839600I1250J0D01*
G01X774890D01*
G03X776140Y-838350I0J1250D01*
G01Y-805010D01*
G02X777390Y-803760I1250J0D01*
G01X811950D01*
G02X813200Y-805010I0J-1250D01*
G01Y-866010D01*
G02X811950Y-867260I-1250J0D01*
G01X757300D01*
G02X756050Y-866010I0J1250D01*
G37*
G36*
G01X755650Y-694560D02*
Y-633560D01*
G02X756900Y-632310I1250J0D01*
G01X756910D01*
G02X758160Y-633560I0J-1250D01*
G01Y-666900D01*
G03X759410Y-668150I1250J0D01*
G01X774490D01*
G03X775740Y-666900I0J1250D01*
G01Y-633560D01*
G02X776990Y-632310I1250J0D01*
G01X811550D01*
G02X812800Y-633560I0J-1250D01*
G01Y-694560D01*
G02X811550Y-695810I-1250J0D01*
G01X756900D01*
G02X755650Y-694560I0J1250D01*
G37*
%LPC*%
G75*
G36*
G01X269060Y-1910920D02*
X284140D01*
G02X285390Y-1912170I0J-1250D01*
G01Y-1943250D01*
G02X284140Y-1944500I-1250J0D01*
G01X269060D01*
G02X267810Y-1943250I0J1250D01*
G01Y-1912170D01*
G02X269060Y-1910920I1250J0D01*
G37*
G36*
G01X168010Y-1512960D02*
X187590D01*
G02X188840Y-1514210I0J-1250D01*
G01Y-1533790D01*
G02X187590Y-1535040I-1250J0D01*
G01X168010D01*
G02X166760Y-1533790I0J1250D01*
G01Y-1514210D01*
G02X168010Y-1512960I1250J0D01*
G37*
G36*
G01X269060Y-1656920D02*
X284140D01*
G02X285390Y-1658170I0J-1250D01*
G01Y-1689250D01*
G02X284140Y-1690500I-1250J0D01*
G01X269060D01*
G02X267810Y-1689250I0J1250D01*
G01Y-1658170D01*
G02X269060Y-1656920I1250J0D01*
G37*
G36*
G01Y-1402920D02*
X284140D01*
G02X285390Y-1404170I0J-1250D01*
G01Y-1435250D01*
G02X284140Y-1436500I-1250J0D01*
G01X269060D01*
G02X267810Y-1435250I0J1250D01*
G01Y-1404170D01*
G02X269060Y-1402920I1250J0D01*
G37*
G36*
G01X551920Y-212560D02*
Y-213260D01*
X550460Y-214720D01*
X531880D01*
X530650Y-213490D01*
X518610D01*
G02X516110Y-210990I0J2500D01*
G01Y-195410D01*
G02X518610Y-192910I2500J0D01*
G01X530650D01*
X531150Y-192410D01*
G02X532920Y-191680I1766J-1770D01*
G01X550460D01*
X551920Y-193140D01*
Y-193840D01*
G02Y-212560I1750J-9360D01*
G37*
G36*
G01Y-536410D02*
Y-537110D01*
X550460Y-538570D01*
X531880D01*
X530650Y-537340D01*
X518610D01*
G02X516110Y-534840I0J2500D01*
G01Y-519260D01*
G02X518610Y-516760I2500J0D01*
G01X530650D01*
X531150Y-516260D01*
G02X532920Y-515530I1766J-1770D01*
G01X550460D01*
X551920Y-516990D01*
Y-517690D01*
G02Y-536410I1750J-9360D01*
G37*
G36*
G01X143810Y-176960D02*
X165890D01*
G02X168390Y-179460I0J-2500D01*
G01Y-201540D01*
G02X165890Y-204040I-2500J0D01*
G01X143810D01*
G02X141310Y-201540I0J2500D01*
G01Y-179460D01*
G02X143810Y-176960I2500J0D01*
G37*
G36*
G01X450130Y-429320D02*
X450710Y-428910D01*
G02Y-447390I6490J-9240D01*
G01X450130Y-446980D01*
X448750Y-446890D01*
X444870Y-448910D01*
G02X443720Y-449190I-1150J2220D01*
G01X423260D01*
G02X420760Y-446690I0J2500D01*
G01Y-429610D01*
G02X423260Y-427110I2500J0D01*
G01X443720D01*
G02X444870Y-427390I0J-2500D01*
G01X448750Y-429410D01*
X450130Y-429320D01*
G37*
G36*
G01X751790Y-1864050D02*
X729210D01*
G02X727960Y-1862800I0J1250D01*
G01Y-1840220D01*
G02X729210Y-1838970I1250J0D01*
G01X751790D01*
G02X753040Y-1840220I0J-1250D01*
G01Y-1862800D01*
G02X751790Y-1864050I-1250J0D01*
G37*
G36*
G01X841970Y-1826530D02*
X844780Y-1823710D01*
G02X853530Y-1820090I8744J-8752D01*
G01X866980D01*
G03X868120Y-1819370I7J1251D01*
G02Y-1832850I14530J-6740D01*
G03X866980Y-1832130I-1133J-531D01*
G01X853910D01*
G03X853030Y-1832500I7J-1248D01*
G01X848670Y-1836860D01*
G03X848390Y-1838220I878J-890D01*
G01X848540Y-1838570D01*
X849160Y-1838990D01*
X849520D01*
Y-1862780D01*
G02X848270Y-1864030I-1250J0D01*
G01X829730D01*
G02X828480Y-1862780I0J1250D01*
G01Y-1840240D01*
G02X829730Y-1838990I1250J0D01*
G01X831730D01*
G03X832980Y-1837740I0J1250D01*
G01Y-1837510D01*
G02X841490Y-1826740I11070J0D01*
G01X841660Y-1826700D01*
X841970Y-1826530D01*
G37*
G36*
G01X848710Y-1914830D02*
X848390Y-1915600D01*
G03X848670Y-1916960I1158J-470D01*
G01X853030Y-1921320D01*
G03X853910Y-1921690I887J878D01*
G01X866980D01*
G03X868120Y-1920970I7J1251D01*
G02Y-1934450I14530J-6740D01*
G03X866980Y-1933730I-1133J-531D01*
G01X853530D01*
G02X844780Y-1930110I-6J12372D01*
G01X841970Y-1927290D01*
X841660Y-1927120D01*
X841490Y-1927080D01*
G02X832980Y-1916310I2560J10770D01*
G01Y-1916080D01*
G03X831730Y-1914830I-1250J0D01*
G01X829730D01*
G02X828480Y-1913580I0J1250D01*
G01Y-1891040D01*
G02X829730Y-1889790I1250J0D01*
G01X848270D01*
G02X849520Y-1891040I0J-1250D01*
G01Y-1914100D01*
X848790Y-1914830D01*
X848710D01*
G37*
G36*
G01X729210Y-1953270D02*
X751790D01*
G02X753040Y-1954520I0J-1250D01*
G01Y-1977100D01*
G02X751790Y-1978350I-1250J0D01*
G01X729210D01*
G02X727960Y-1977100I0J1250D01*
G01Y-1954520D01*
G02X729210Y-1953270I1250J0D01*
G37*
G36*
G01Y-1889770D02*
X751790D01*
G02X753040Y-1891020I0J-1250D01*
G01Y-1913600D01*
G02X751790Y-1914850I-1250J0D01*
G01X729210D01*
G02X727960Y-1913600I0J1250D01*
G01Y-1891020D01*
G02X729210Y-1889770I1250J0D01*
G37*
G36*
G01Y-1775470D02*
X751790D01*
G02X753040Y-1776720I0J-1250D01*
G01Y-1799300D01*
G02X751790Y-1800550I-1250J0D01*
G01X729210D01*
G02X727960Y-1799300I0J1250D01*
G01Y-1776720D01*
G02X729210Y-1775470I1250J0D01*
G37*
G36*
G01X751790Y-1610050D02*
X729210D01*
G02X727960Y-1608800I0J1250D01*
G01Y-1586220D01*
G02X729210Y-1584970I1250J0D01*
G01X751790D01*
G02X753040Y-1586220I0J-1250D01*
G01Y-1608800D01*
G02X751790Y-1610050I-1250J0D01*
G37*
G36*
G01X841970Y-1572530D02*
X844780Y-1569710D01*
G02X853530Y-1566090I8744J-8752D01*
G01X866980D01*
G03X868120Y-1565370I7J1251D01*
G02Y-1578850I14530J-6740D01*
G03X866980Y-1578130I-1133J-531D01*
G01X853910D01*
G03X853030Y-1578500I7J-1248D01*
G01X848670Y-1582860D01*
G03X848390Y-1584220I878J-890D01*
G01X848540Y-1584570D01*
X849160Y-1584990D01*
X849520D01*
Y-1608780D01*
G02X848270Y-1610030I-1250J0D01*
G01X829730D01*
G02X828480Y-1608780I0J1250D01*
G01Y-1586240D01*
G02X829730Y-1584990I1250J0D01*
G01X831730D01*
G03X832980Y-1583740I0J1250D01*
G01Y-1583510D01*
G02X841490Y-1572740I11070J0D01*
G01X841660Y-1572700D01*
X841970Y-1572530D01*
G37*
G36*
G01X848710Y-1660830D02*
X848390Y-1661600D01*
G03X848670Y-1662960I1158J-470D01*
G01X853030Y-1667320D01*
G03X853910Y-1667690I887J878D01*
G01X866980D01*
G03X868120Y-1666970I7J1251D01*
G02Y-1680450I14530J-6740D01*
G03X866980Y-1679730I-1133J-531D01*
G01X853530D01*
G02X844780Y-1676110I-6J12372D01*
G01X841970Y-1673290D01*
X841660Y-1673120D01*
X841490Y-1673080D01*
G02X832980Y-1662310I2560J10770D01*
G01Y-1662080D01*
G03X831730Y-1660830I-1250J0D01*
G01X829730D01*
G02X828480Y-1659580I0J1250D01*
G01Y-1637040D01*
G02X829730Y-1635790I1250J0D01*
G01X848270D01*
G02X849520Y-1637040I0J-1250D01*
G01Y-1660100D01*
X848790Y-1660830D01*
X848710D01*
G37*
G36*
G01X729210Y-1699270D02*
X751790D01*
G02X753040Y-1700520I0J-1250D01*
G01Y-1723100D01*
G02X751790Y-1724350I-1250J0D01*
G01X729210D01*
G02X727960Y-1723100I0J1250D01*
G01Y-1700520D01*
G02X729210Y-1699270I1250J0D01*
G37*
G36*
G01Y-1635770D02*
X751790D01*
G02X753040Y-1637020I0J-1250D01*
G01Y-1659600D01*
G02X751790Y-1660850I-1250J0D01*
G01X729210D01*
G02X727960Y-1659600I0J1250D01*
G01Y-1637020D01*
G02X729210Y-1635770I1250J0D01*
G37*
G36*
G01Y-1521470D02*
X751790D01*
G02X753040Y-1522720I0J-1250D01*
G01Y-1545300D01*
G02X751790Y-1546550I-1250J0D01*
G01X729210D01*
G02X727960Y-1545300I0J1250D01*
G01Y-1522720D01*
G02X729210Y-1521470I1250J0D01*
G37*
G36*
G01X751790Y-1356050D02*
X729210D01*
G02X727960Y-1354800I0J1250D01*
G01Y-1332220D01*
G02X729210Y-1330970I1250J0D01*
G01X751790D01*
G02X753040Y-1332220I0J-1250D01*
G01Y-1354800D01*
G02X751790Y-1356050I-1250J0D01*
G37*
G36*
G01X841970Y-1318530D02*
X844780Y-1315710D01*
G02X853530Y-1312090I8744J-8752D01*
G01X866980D01*
G03X868120Y-1311370I7J1251D01*
G02Y-1324850I14530J-6740D01*
G03X866980Y-1324130I-1133J-531D01*
G01X853910D01*
G03X853030Y-1324500I7J-1248D01*
G01X848670Y-1328860D01*
G03X848390Y-1330220I878J-890D01*
G01X848540Y-1330570D01*
X849160Y-1330990D01*
X849520D01*
Y-1354780D01*
G02X848270Y-1356030I-1250J0D01*
G01X829730D01*
G02X828480Y-1354780I0J1250D01*
G01Y-1332240D01*
G02X829730Y-1330990I1250J0D01*
G01X831730D01*
G03X832980Y-1329740I0J1250D01*
G01Y-1329510D01*
G02X841490Y-1318740I11070J0D01*
G01X841660Y-1318700D01*
X841970Y-1318530D01*
G37*
G36*
G01X844780Y-1422110D02*
X841970Y-1419290D01*
X841660Y-1419120D01*
X841490Y-1419080D01*
G02X832980Y-1408310I2560J10770D01*
G01Y-1408080D01*
G03X831730Y-1406830I-1250J0D01*
G01X829730D01*
G02X828480Y-1405580I0J1250D01*
G01Y-1383040D01*
G02X829730Y-1381790I1250J0D01*
G01X848270D01*
G02X849520Y-1383040I0J-1250D01*
G01Y-1406100D01*
X848790Y-1406830D01*
X848710D01*
X848390Y-1407600D01*
G03X848670Y-1408960I1158J-470D01*
G01X853030Y-1413320D01*
G03X853910Y-1413690I887J878D01*
G01X866980D01*
G03X868120Y-1412970I7J1251D01*
G02Y-1426450I14530J-6740D01*
G03X866980Y-1425730I-1133J-531D01*
G01X853530D01*
G02X844780Y-1422110I-6J12372D01*
G37*
G36*
G01X729210Y-1445270D02*
X751790D01*
G02X753040Y-1446520I0J-1250D01*
G01Y-1469100D01*
G02X751790Y-1470350I-1250J0D01*
G01X729210D01*
G02X727960Y-1469100I0J1250D01*
G01Y-1446520D01*
G02X729210Y-1445270I1250J0D01*
G37*
G36*
G01Y-1381770D02*
X751790D01*
G02X753040Y-1383020I0J-1250D01*
G01Y-1405600D01*
G02X751790Y-1406850I-1250J0D01*
G01X729210D01*
G02X727960Y-1405600I0J1250D01*
G01Y-1383020D01*
G02X729210Y-1381770I1250J0D01*
G37*
G36*
G01Y-1267470D02*
X751790D01*
G02X753040Y-1268720I0J-1250D01*
G01Y-1291300D01*
G02X751790Y-1292550I-1250J0D01*
G01X729210D01*
G02X727960Y-1291300I0J1250D01*
G01Y-1268720D01*
G02X729210Y-1267470I1250J0D01*
G37*
G54D36*
X203200Y-1524000D03*
G54D37*
X882650Y-1876910D03*
Y-1622910D03*
Y-1368910D03*
%LPD*%
G75*
G54D10*
X0Y-889000D03*
Y0D03*
G54D11*
G01X76200Y-508000D02*
X83820D01*
G02X88310Y-509860I0J-6350D01*
G01X105500Y-527050D01*
G01X76200Y-177800D02*
X92620D01*
G02X97110Y-179660I0J-6350D01*
G01X106090Y-188640D01*
G03X110580Y-190500I4490J4490D01*
G01X111850D01*
G01X635400Y-1047510D02*
X610180D01*
G03X605690Y-1049370I0J-6350D01*
G01X603650Y-1051410D01*
G01X635400Y-863360D02*
X610180D01*
G03X605690Y-865220I0J-6350D01*
G01X603650Y-867260D01*
G01X635000Y-691910D02*
X609780D01*
G03X605290Y-693770I0J-6350D01*
G01X603250Y-695810D01*
G01X685800Y-194160D02*
Y-172120D01*
G02X687660Y-167630I6350J0D01*
G01X691020Y-164270D01*
G02X695510Y-162410I4490J-4490D01*
G01X756770D01*
G02X761260Y-164270I0J-6350D01*
G01X793190Y-196200D01*
G03X797680Y-198060I4490J4490D01*
G01X812800D01*
G01X711200Y-498960D02*
Y-518010D01*
G03X717550Y-524360I6350J0D01*
G01X765720D01*
G02X770210Y-526220I0J-6350D01*
G01X787990Y-544000D01*
G03X792480Y-545860I4490J4490D01*
G01X812800D01*
G01X736600Y-498960D02*
X791150D01*
X795050Y-502860D01*
X812800D01*
G01X736600Y-397360D02*
X791150D01*
X795050Y-401260D01*
X812800D01*
G01X711200Y-397360D02*
Y-416410D01*
G03X717550Y-422760I6350J0D01*
G01X765720D01*
G02X770210Y-424620I0J-6350D01*
G01X787990Y-442400D01*
G03X792480Y-444260I4490J4490D01*
G01X812800D01*
G01X736600Y-295760D02*
X791150D01*
X795050Y-299660D01*
X812800D01*
G01X711200Y-295760D02*
Y-314810D01*
G03X717550Y-321160I6350J0D01*
G01X765720D01*
G02X770210Y-323020I0J-6350D01*
G01X787990Y-340800D01*
G03X792480Y-342660I4490J4490D01*
G01X812800D01*
G01X711200Y-194160D02*
Y-210580D01*
G03X713060Y-215070I6350J0D01*
G01X716420Y-218430D01*
G03X720910Y-220290I4490J4490D01*
G01X766450D01*
G02X770940Y-222150I0J-6350D01*
G01X787990Y-239200D01*
G03X792480Y-241060I4490J4490D01*
G01X812800D01*
G01X806450Y-1098550D02*
X880790Y-1024210D01*
G03X882650Y-1019720I-4490J4490D01*
G01Y-956160D01*
G01X806450Y-908050D02*
X858080Y-856420D01*
G02X862570Y-854560I4490J-4490D01*
G01X882650D01*
G01X806450Y-742950D02*
X835570D01*
G02X840060Y-744810I0J-6350D01*
G01X846350Y-751100D01*
G03X850840Y-752960I4490J4490D01*
G01X882650D01*
G01Y-549760D02*
X837080D01*
G02X832590Y-547900I0J6350D01*
G01X832410Y-547720D01*
G03X827920Y-545860I-4490J-4490D01*
G01X812800D01*
G01X882650Y-448160D02*
X837080D01*
G02X832590Y-446300I0J6350D01*
G01X832410Y-446120D01*
G03X827920Y-444260I-4490J-4490D01*
G01X812800D01*
G01X882650Y-498960D02*
X837080D01*
G03X832590Y-500820I0J-6350D01*
G01X832410Y-501000D01*
G02X827920Y-502860I-4490J4490D01*
G01X812800D01*
G01X882650Y-397360D02*
X837080D01*
G03X832590Y-399220I0J-6350D01*
G01X832410Y-399400D01*
G02X827920Y-401260I-4490J4490D01*
G01X812800D01*
G01X882650Y-295760D02*
X837080D01*
G03X832590Y-297620I0J-6350D01*
G01X832410Y-297800D01*
G02X827920Y-299660I-4490J4490D01*
G01X812800D01*
G01X882650Y-346560D02*
X837080D01*
G02X832590Y-344700I0J6350D01*
G01X832410Y-344520D01*
G03X827920Y-342660I-4490J-4490D01*
G01X812800D01*
G01X882650Y-244960D02*
X837080D01*
G02X832590Y-243100I0J6350D01*
G01X832410Y-242920D01*
G03X827920Y-241060I-4490J-4490D01*
G01X812800D01*
G01X882650Y-194160D02*
X837080D01*
G03X832590Y-196020I0J-6350D01*
G01X832410Y-196200D01*
G02X827920Y-198060I-4490J4490D01*
G01X812800D01*
X65400Y-2231550D03*
Y8450D03*
X146050Y-1587500D03*
X120200Y-1610200D03*
X146050Y-1485900D03*
Y-1377950D03*
X116200Y-702200D03*
X137700Y-598700D03*
X139200Y-655200D03*
X139700Y-546100D03*
X90200Y-393200D03*
X139700Y-368300D03*
Y-393700D03*
Y-317500D03*
Y-292100D03*
Y-342900D03*
Y-215900D03*
Y-266700D03*
Y-241300D03*
X154850Y-209070D03*
X222250Y-1663700D03*
X180200Y-1670200D03*
X203200Y-1435100D03*
X228600Y-1413360D03*
X171450Y-1358900D03*
X209550Y-1295400D03*
X171450Y-1231900D03*
Y-1149350D03*
X196850Y-1117600D03*
X191200Y-592200D03*
X215900Y-196850D03*
X244200Y-1954200D03*
X260350Y-1927710D03*
X273050Y-1895960D03*
X241300Y-1873250D03*
X279400Y-1813410D03*
X260350Y-1873250D03*
X298200Y-1750200D03*
X241300Y-1797050D03*
X279400Y-1794360D03*
X284200Y-1726200D03*
X241300Y-1733550D03*
X260350Y-1673710D03*
Y-1619250D03*
X273050Y-1641960D03*
X241300Y-1574800D03*
X279400Y-1559410D03*
Y-1540360D03*
X285750Y-1470510D03*
X298450Y-1495910D03*
X247650Y-1485900D03*
X260350Y-1419710D03*
X273050Y-1387960D03*
X260350Y-1365250D03*
X279400Y-1305410D03*
Y-1286360D03*
Y-1216510D03*
X298450Y-1241910D03*
X247650Y-1231900D03*
X254000Y-1174750D03*
X298450Y-1009650D03*
Y-971550D03*
X285750Y-368300D03*
X279400Y-393700D03*
X298450Y-317500D03*
X292100Y-342900D03*
X298450Y-196850D03*
X330200Y-1955800D03*
X323850Y-1921360D03*
Y-1908660D03*
X342900Y-1940410D03*
X323850Y-1832460D03*
X322200Y-1882200D03*
X323850Y-1752600D03*
Y-1807060D03*
X342900Y-1788010D03*
X323850Y-1701800D03*
Y-1667360D03*
X342900Y-1686410D03*
X323850Y-1654660D03*
X322200Y-1628200D03*
X323850Y-1578460D03*
Y-1553060D03*
X342900Y-1534010D03*
X323850Y-1447800D03*
Y-1498600D03*
X342900Y-1432410D03*
X323850Y-1413360D03*
Y-1400660D03*
X322200Y-1374200D03*
X323850Y-1324460D03*
Y-1299060D03*
X342900Y-1280010D03*
X323850Y-1244600D03*
X381000Y-1057760D03*
X355600Y-1060450D03*
X361950Y-994260D03*
X355600Y-1022350D03*
X361950Y-939800D03*
X317500Y-946150D03*
X381000Y-870160D03*
X355600Y-838200D03*
X361950Y-810110D03*
Y-749300D03*
X317500Y-806450D03*
X381000Y-700160D03*
X361950Y-638660D03*
X355600Y-666750D03*
X336550Y-654050D03*
X361950Y-558800D03*
X387350Y-533400D03*
X355600Y-450850D03*
Y-368300D03*
X381000Y-292100D03*
X374650Y-317500D03*
X387350Y-266700D03*
X432650Y-1970160D03*
X464650Y-1936160D03*
X431800Y-1946760D03*
X463550Y-1953110D03*
X457200Y-1883260D03*
Y-1857860D03*
X446650Y-1796160D03*
X432650Y-1770160D03*
X463550Y-1699110D03*
X464650Y-1682160D03*
X432650Y-1716160D03*
X431800Y-1692760D03*
X457200Y-1629260D03*
Y-1603860D03*
X448650Y-1542160D03*
X432650Y-1516160D03*
X463550Y-1445110D03*
X432650Y-1462160D03*
X431800Y-1438760D03*
X464650Y-1428160D03*
X457200Y-1375260D03*
X448650Y-1288160D03*
X457200Y-1349860D03*
X432650Y-1262160D03*
X463550Y-533400D03*
X425450Y-311150D03*
Y-349250D03*
X400050Y-215900D03*
X425450Y-234950D03*
X393700Y-241300D03*
X425450Y-260350D03*
Y-285750D03*
Y-196850D03*
X539430Y-1978940D03*
X494980Y-1972590D03*
X495300Y-1927710D03*
X527050Y-1908660D03*
X501650Y-1883260D03*
X527050Y-1832460D03*
X490650Y-1822160D03*
X527050Y-1857860D03*
X492650Y-1770160D03*
X482600Y-1781660D03*
X495300Y-1673710D03*
X539430Y-1724940D03*
X494980Y-1718590D03*
X527050Y-1654660D03*
X501650Y-1629260D03*
X527050Y-1603860D03*
X482600Y-1527660D03*
X527050Y-1578460D03*
X490650Y-1568160D03*
X492650Y-1516160D03*
X539750Y-1470510D03*
X495300Y-1464160D03*
X501650Y-1375260D03*
X527050Y-1400660D03*
X495300Y-1419710D03*
X490650Y-1314160D03*
X527050Y-1324460D03*
Y-1349860D03*
X482600Y-1273660D03*
X492650Y-1261160D03*
X483000Y-994260D03*
Y-810110D03*
X482600Y-638660D03*
X508000Y-533400D03*
X527050Y-501650D03*
Y-450850D03*
Y-368300D03*
X520700Y-298450D03*
X527050Y-228600D03*
X508000Y-196850D03*
X565150Y-1965810D03*
X615950Y-1978510D03*
X565150Y-1915010D03*
Y-1889610D03*
X615950Y-1915010D03*
Y-1940410D03*
Y-1832460D03*
X565150Y-1813410D03*
X584200Y-1845160D03*
X565150Y-1775310D03*
X615950D03*
X565150Y-1711810D03*
Y-1661010D03*
X615950Y-1724510D03*
Y-1661010D03*
Y-1686410D03*
X565150Y-1635610D03*
X584200Y-1591160D03*
X615950Y-1578460D03*
X565150Y-1559410D03*
Y-1521310D03*
X615950D03*
X565150Y-1457810D03*
X615950Y-1432410D03*
Y-1470510D03*
X565150Y-1381610D03*
Y-1407010D03*
X615950D03*
X565150Y-1305410D03*
X615950Y-1324460D03*
X584200Y-1337160D03*
X565150Y-1267310D03*
X615950D03*
X603650Y-1051410D03*
Y-867260D03*
X603250Y-695810D03*
X553670Y-527050D03*
X565150Y-349250D03*
X553670Y-203200D03*
X685800Y-1978510D03*
Y-1953110D03*
Y-1915010D03*
X622300Y-1883260D03*
X685800Y-1857860D03*
X622300D03*
X685800Y-1775310D03*
Y-1724510D03*
Y-1699110D03*
Y-1661010D03*
X622300Y-1629260D03*
X685800Y-1603860D03*
X622300D03*
X685800Y-1521310D03*
Y-1445110D03*
Y-1470510D03*
Y-1407010D03*
X622300Y-1375260D03*
X685800Y-1349860D03*
X622300D03*
X685800Y-1267310D03*
X762000Y-1972160D03*
Y-1959460D03*
Y-1895960D03*
Y-1908660D03*
X711200Y-1826110D03*
X762000Y-1845160D03*
Y-1857860D03*
Y-1794360D03*
Y-1781660D03*
Y-1718160D03*
Y-1705460D03*
Y-1641960D03*
Y-1654660D03*
Y-1591160D03*
Y-1603860D03*
X711200Y-1572110D03*
X762000Y-1540360D03*
Y-1527660D03*
Y-1464160D03*
Y-1451460D03*
Y-1387960D03*
Y-1400660D03*
X711200Y-1318110D03*
X762000Y-1286360D03*
Y-1337160D03*
Y-1349860D03*
Y-1273660D03*
X800100Y-1934060D03*
Y-1876910D03*
Y-1819760D03*
Y-1680060D03*
Y-1622910D03*
Y-1565760D03*
Y-1368910D03*
Y-1426060D03*
Y-1311760D03*
X885400Y-2231550D03*
X857250Y-1953110D03*
Y-1902310D03*
Y-1851510D03*
Y-1800710D03*
Y-1699110D03*
Y-1648310D03*
Y-1597510D03*
Y-1546710D03*
Y-1445110D03*
Y-1394310D03*
Y-1292710D03*
Y-1343510D03*
X885400Y8450D03*
G54D20*
X305100Y-1848360D03*
Y-1867360D03*
X279100D03*
Y-1857860D03*
Y-1848360D03*
X305100Y-1594360D03*
Y-1613360D03*
X279100D03*
Y-1603860D03*
Y-1594360D03*
X305100Y-1359360D03*
X279100D03*
X305100Y-1340360D03*
X279100Y-1349860D03*
Y-1340360D03*
G54D12*
X76200Y-838200D03*
X25400D03*
X76200Y-609600D03*
X25400D03*
X76200Y-355600D03*
X25400D03*
X76200Y-101600D03*
X25400D03*
X177800Y-1524000D03*
X431800Y-438150D03*
X635000Y-549760D03*
Y-448160D03*
Y-346560D03*
Y-244960D03*
G54D30*
X882650Y-2029310D03*
Y-1978510D03*
Y-1927710D03*
Y-1826110D03*
Y-1876910D03*
Y-1775310D03*
Y-1673710D03*
Y-1724510D03*
Y-1622910D03*
Y-1521310D03*
Y-1572110D03*
Y-1470510D03*
Y-1368910D03*
Y-1419710D03*
Y-1318110D03*
Y-956160D03*
Y-905360D03*
Y-854560D03*
Y-752960D03*
Y-803760D03*
Y-702160D03*
Y-600560D03*
Y-651360D03*
Y-549760D03*
Y-448160D03*
Y-498960D03*
Y-397360D03*
Y-295760D03*
Y-346560D03*
Y-244960D03*
G54D21*
X342900Y-1921360D03*
Y-1908660D03*
Y-1895960D03*
Y-1883260D03*
Y-1870560D03*
Y-1857860D03*
Y-1845160D03*
Y-1832460D03*
Y-1819760D03*
Y-1807060D03*
Y-1667360D03*
Y-1654660D03*
Y-1641960D03*
Y-1629260D03*
Y-1616560D03*
Y-1603860D03*
Y-1591160D03*
Y-1578460D03*
Y-1565760D03*
Y-1553060D03*
Y-1413360D03*
Y-1400660D03*
Y-1387960D03*
Y-1375260D03*
Y-1362560D03*
Y-1349860D03*
Y-1337160D03*
Y-1324460D03*
Y-1311760D03*
Y-1299060D03*
X434900Y-1921360D03*
Y-1908660D03*
Y-1895960D03*
Y-1883260D03*
Y-1870560D03*
Y-1857860D03*
Y-1845160D03*
Y-1832460D03*
Y-1819760D03*
Y-1807060D03*
Y-1667360D03*
Y-1654660D03*
Y-1641960D03*
Y-1629260D03*
Y-1616560D03*
Y-1603860D03*
Y-1591160D03*
Y-1578460D03*
Y-1565760D03*
Y-1553060D03*
Y-1413360D03*
Y-1400660D03*
Y-1387960D03*
Y-1375260D03*
Y-1362560D03*
Y-1349860D03*
Y-1337160D03*
Y-1324460D03*
Y-1311760D03*
Y-1299060D03*
G54D31*
X882650Y-1267310D03*
Y-194160D03*
G54D22*
X380150Y-994260D03*
Y-1006960D03*
Y-1019660D03*
Y-822810D03*
Y-835510D03*
Y-810110D03*
X379750Y-638660D03*
Y-651360D03*
Y-664060D03*
X446150Y-994260D03*
Y-1019660D03*
Y-835510D03*
Y-810110D03*
X445750Y-638660D03*
Y-664060D03*
G54D13*
X76200Y-762000D03*
Y-787400D03*
Y-812800D03*
X25400Y-762000D03*
Y-787400D03*
Y-812800D03*
X76200Y-685800D03*
Y-711200D03*
Y-736600D03*
X25400Y-685800D03*
Y-711200D03*
Y-736600D03*
X76200Y-635000D03*
Y-660400D03*
X25400Y-635000D03*
Y-660400D03*
X76200Y-533400D03*
Y-558800D03*
Y-584200D03*
X25400Y-533400D03*
Y-558800D03*
Y-584200D03*
X76200Y-457200D03*
Y-482600D03*
Y-508000D03*
X25400Y-457200D03*
Y-482600D03*
Y-508000D03*
X76200Y-381000D03*
Y-406400D03*
Y-431800D03*
X25400Y-381000D03*
Y-406400D03*
Y-431800D03*
X76200Y-304800D03*
Y-330200D03*
X25400Y-304800D03*
Y-330200D03*
X76200Y-228600D03*
Y-254000D03*
Y-279400D03*
X25400Y-228600D03*
Y-254000D03*
Y-279400D03*
X76200Y-152400D03*
Y-177800D03*
Y-203200D03*
X25400Y-152400D03*
Y-177800D03*
Y-203200D03*
X76200Y-76200D03*
Y-127000D03*
X25400Y-76200D03*
Y-127000D03*
X76200Y-50800D03*
X25400D03*
X685800Y-549760D03*
X635000Y-498960D03*
X685800D03*
Y-448160D03*
X635000Y-397360D03*
X685800D03*
X635000Y-295760D03*
X685800D03*
Y-346560D03*
Y-244960D03*
X635000Y-194160D03*
X685800D03*
X736600Y-549760D03*
X711200D03*
Y-498960D03*
X736600D03*
Y-448160D03*
X711200D03*
Y-397360D03*
X736600D03*
X711200Y-295760D03*
X736600D03*
Y-346560D03*
X711200D03*
X736600Y-244960D03*
X711200D03*
Y-194160D03*
X736600D03*
G54D32*
X965400Y-2222500D03*
Y0D03*
G54D14*
X123800Y-685800D03*
X104800D03*
X123800Y-635000D03*
X104800D03*
X123800Y-609600D03*
X104800D03*
X123800Y-660400D03*
X104800D03*
X123800Y-584200D03*
X104800D03*
X123800Y-558800D03*
X104800D03*
X123800Y-381000D03*
X104800D03*
X123800Y-304800D03*
X104800D03*
X123800Y-330200D03*
X104800D03*
X123800Y-355600D03*
X104800D03*
X123800Y-228600D03*
X104800D03*
X123800Y-254000D03*
X104800D03*
X123800Y-279400D03*
X104800D03*
X282550Y-1743560D03*
X263550D03*
X282550Y-1768960D03*
X263550D03*
X282550Y-1514960D03*
X263550D03*
X282550Y-1489560D03*
X263550D03*
X282550Y-1235560D03*
X263550D03*
X282550Y-1260960D03*
X263550D03*
X600050Y-1978510D03*
X581050D03*
X600050Y-1927710D03*
X581050D03*
X600050Y-1902310D03*
X581050D03*
X600050Y-1953110D03*
X581050D03*
X600050Y-1826110D03*
X581050D03*
X600050Y-1800710D03*
X581050D03*
X600050Y-1673710D03*
X581050D03*
X600050Y-1724510D03*
X581050D03*
X600050Y-1699110D03*
X581050D03*
X600050Y-1648310D03*
X581050D03*
X600050Y-1572110D03*
X581050D03*
X600050Y-1546710D03*
X581050D03*
X600050Y-1470510D03*
X581050D03*
X600050Y-1445110D03*
X581050D03*
X600050Y-1419710D03*
X581050D03*
X600050Y-1394310D03*
X581050D03*
X600050Y-1318110D03*
X581050D03*
X600050Y-1292710D03*
X581050D03*
G54D23*
X448800Y-349250D03*
Y-336550D03*
Y-323850D03*
Y-311150D03*
Y-298450D03*
Y-285750D03*
Y-273050D03*
Y-260350D03*
Y-247650D03*
X541800Y-298450D03*
Y-311150D03*
Y-323850D03*
Y-336550D03*
Y-349250D03*
Y-247650D03*
Y-260350D03*
Y-273050D03*
Y-285750D03*
G54D33*
G01X342900Y-1895960D02*
X306950D01*
G01D02*
Y-1907960D01*
X307600Y-1908610D01*
Y-1927710D01*
G01D02*
X308520D01*
G02X313010Y-1929570I0J-6350D01*
G01X321990Y-1938550D01*
G03X326480Y-1940410I4490J4490D01*
G01X342900D01*
G01X305100Y-1848360D02*
Y-1842590D01*
G02X306960Y-1838100I6350J0D01*
G01X311440Y-1833620D01*
G03X313300Y-1829130I-4490J4490D01*
G01Y-1819760D01*
G01X309000Y-1768960D02*
X282550D01*
G01D02*
Y-1743560D01*
G01X306950Y-1641960D02*
Y-1653960D01*
X307600Y-1654610D01*
Y-1673710D01*
G01D02*
X308520D01*
G02X313010Y-1675570I0J-6350D01*
G01X321990Y-1684550D01*
G03X326480Y-1686410I4490J4490D01*
G01X342900D01*
G01Y-1641960D02*
X306950D01*
G01X305100Y-1594360D02*
Y-1588590D01*
G02X306960Y-1584100I6350J0D01*
G01X311440Y-1579620D01*
G03X313300Y-1575130I-4490J4490D01*
G01Y-1565760D01*
G01X282550Y-1489560D02*
Y-1514960D01*
G01D02*
X309000D01*
G01X342900Y-1387960D02*
X306950D01*
G01D02*
Y-1399960D01*
X307600Y-1400610D01*
Y-1419710D01*
G01D02*
X308520D01*
G02X313010Y-1421570I0J-6350D01*
G01X321990Y-1430550D01*
G03X326480Y-1432410I4490J4490D01*
G01X342900D01*
G01X305100Y-1340360D02*
Y-1334590D01*
G02X306960Y-1330100I6350J0D01*
G01X311440Y-1325620D01*
G03X313300Y-1321130I-4490J4490D01*
G01Y-1311760D01*
G01X309000Y-1260960D02*
X282550D01*
G01D02*
Y-1235560D01*
G01X342900Y-1921360D02*
X323850D01*
G01X342900Y-1908660D02*
X323850D01*
G01X342900Y-1832460D02*
X323850D01*
G01X342900Y-1819760D02*
X313300D01*
G01Y-1794360D02*
Y-1819760D01*
G01X342900Y-1807060D02*
X323850D01*
G01X313300Y-1794360D02*
X333920D01*
G03X338410Y-1792500I0J6350D01*
G01X342900Y-1788010D01*
G01X309000Y-1768960D02*
Y-1776880D01*
G03X310860Y-1781370I6350J0D01*
G01X311440Y-1781950D01*
G02X313300Y-1786440I-4490J-4490D01*
G01Y-1794360D01*
G01X342900Y-1667360D02*
X323850D01*
G01X342900Y-1654660D02*
X323850D01*
G01X342900Y-1578460D02*
X323850D01*
G01X342900Y-1553060D02*
X323850D01*
G01X342900Y-1565760D02*
X313300D01*
G01D02*
Y-1540360D01*
G01D02*
X333920D01*
G03X338410Y-1538500I0J6350D01*
G01X342900Y-1534010D01*
G01X313300Y-1540360D02*
Y-1532440D01*
G03X311440Y-1527950I-6350J0D01*
G01X310860Y-1527370D01*
G02X309000Y-1522880I4490J4490D01*
G01Y-1514960D01*
G01X342900Y-1413360D02*
X323850D01*
G01X342900Y-1400660D02*
X323850D01*
G01X342900Y-1324460D02*
X323850D01*
G01X342900Y-1299060D02*
X323850D01*
G01X342900Y-1311760D02*
X313300D01*
G01D02*
Y-1286360D01*
G01D02*
X333920D01*
G03X338410Y-1284500I0J6350D01*
G01X342900Y-1280010D01*
G01X309000Y-1260960D02*
Y-1268880D01*
G03X310860Y-1273370I6350J0D01*
G01X311440Y-1273950D01*
G02X313300Y-1278440I-4490J-4490D01*
G01Y-1286360D01*
G01X381000Y-1057760D02*
Y-1038710D01*
G01X380150Y-1019660D02*
Y-1037860D01*
X381000Y-1038710D01*
G01Y-870160D02*
Y-854560D01*
G01X380150Y-835510D02*
Y-853710D01*
X381000Y-854560D01*
G01Y-700160D02*
Y-683110D01*
G01X379750Y-664060D02*
Y-680100D01*
G03X380990Y-683100I4240J-4D01*
G01X381000Y-683110D01*
G01X478400Y-1921360D02*
Y-1910810D01*
G03X476250Y-1908660I-2150J0D01*
G01X434900D01*
G01X478400Y-1807060D02*
Y-1817610D01*
G02X476250Y-1819760I-2150J0D01*
G01X434900D01*
G01X478400Y-1667360D02*
Y-1656810D01*
G03X476250Y-1654660I-2150J0D01*
G01X434900D01*
G01Y-1565760D02*
X476250D01*
G03X478400Y-1563610I0J2150D01*
G01Y-1553060D01*
G01X434900Y-1400660D02*
X464910D01*
X464900Y-1400650D01*
X476240D01*
G02X478400Y-1402810I0J-2160D01*
G01Y-1413360D01*
G01Y-1299060D02*
Y-1309610D01*
G02X476250Y-1311760I-2150J0D01*
G01X434900D01*
G01X448800Y-349250D02*
X425450D01*
G01X463550Y-1953110D02*
X479050D01*
G01D02*
Y-1934610D01*
X478400Y-1933960D01*
Y-1921360D01*
G01X482600Y-1781660D02*
Y-1785380D01*
G02X480740Y-1789870I-6350J0D01*
G01X480260Y-1790350D01*
G03X478400Y-1794840I4490J-4490D01*
G01Y-1807060D01*
G01X465700Y-1781660D02*
X482600D01*
G01X479050Y-1699110D02*
Y-1680610D01*
X478400Y-1679960D01*
Y-1667360D01*
G01X463550Y-1699110D02*
X479050D01*
G01X465700Y-1527660D02*
X482600D01*
G01X478400Y-1553060D02*
Y-1540840D01*
G02X480260Y-1536350I6350J0D01*
G01X480740Y-1535870D01*
G03X482600Y-1531380I-4490J4490D01*
G01Y-1527660D01*
G01X463550Y-1445110D02*
X479050D01*
G01D02*
Y-1426010D01*
X478400Y-1425360D01*
Y-1413360D01*
G01X482600Y-1273660D02*
Y-1277380D01*
G02X480740Y-1281870I-6350J0D01*
G01X480260Y-1282350D01*
G03X478400Y-1286840I4490J-4490D01*
G01Y-1299060D01*
G01X465700Y-1273660D02*
X482600D01*
G01X551450Y-1064110D02*
G02X552450Y-1066520I-2400J-2408D01*
G01Y-1095860D01*
G01X551450Y-879960D02*
G02X552450Y-882370I-2400J-2408D01*
G01Y-911710D01*
G01X551050Y-708510D02*
G02X552050Y-710920I-2400J-2408D01*
G01Y-740260D01*
G01X541900Y-527050D02*
X553670D01*
G01X541800Y-349250D02*
X565150D01*
G01X541900Y-203200D02*
X553670D01*
G01X839000Y-1902310D02*
Y-1916310D01*
G03X844050Y-1921360I5050J0D01*
G01X844550D01*
X849040Y-1925850D01*
G03X853530Y-1927710I4490J4490D01*
G01X882650D01*
G01X839000Y-1965810D02*
X851000D01*
G02X857250Y-1972060I0J-6250D01*
G01Y-1972160D01*
G03X863600Y-1978510I6350J0D01*
G01X882650D01*
G01X812000Y-1965810D02*
X783500D01*
G01X812000Y-1902310D02*
X783500D01*
G01X839000Y-1851510D02*
Y-1837510D01*
G02X844050Y-1832460I5050J0D01*
G01X844550D01*
X849040Y-1827970D01*
G02X853530Y-1826110I4490J-4490D01*
G01X882650D01*
G01X812000Y-1851510D02*
X783500D01*
G01X839000Y-1788010D02*
X849820D01*
G03X854310Y-1786150I0J6350D01*
G01X863290Y-1777170D01*
G02X867780Y-1775310I4490J-4490D01*
G01X882650D01*
G01X812000Y-1788010D02*
X783500D01*
G01X839000Y-1648310D02*
Y-1662310D01*
G03X844050Y-1667360I5050J0D01*
G01X844550D01*
X849040Y-1671850D01*
G03X853530Y-1673710I4490J4490D01*
G01X882650D01*
G01X839000Y-1711810D02*
X851000D01*
G02X857250Y-1718060I0J-6250D01*
G01Y-1718160D01*
G03X863600Y-1724510I6350J0D01*
G01X882650D01*
G01X812000Y-1711810D02*
X783500D01*
G01X839000Y-1597510D02*
Y-1583510D01*
G02X844050Y-1578460I5050J0D01*
G01X844550D01*
X849040Y-1573970D01*
G02X853530Y-1572110I4490J-4490D01*
G01X882650D01*
G01X812000Y-1648310D02*
X783500D01*
G01X812000Y-1597510D02*
X783500D01*
G01X839000Y-1534010D02*
X849820D01*
G03X854310Y-1532150I0J6350D01*
G01X863290Y-1523170D01*
G02X867780Y-1521310I4490J-4490D01*
G01X882650D01*
G01X812000Y-1534010D02*
X783500D01*
G01X812000Y-1457810D02*
X783500D01*
G01X839000D02*
X851000D01*
G02X857250Y-1464060I0J-6250D01*
G01Y-1464160D01*
G03X863600Y-1470510I6350J0D01*
G01X882650D01*
G01X812000Y-1394310D02*
X783500D01*
G01X839000D02*
Y-1408310D01*
G03X844050Y-1413360I5050J0D01*
G01X844550D01*
X849040Y-1417850D01*
G03X853530Y-1419710I4490J4490D01*
G01X882650D01*
G01X812000Y-1343510D02*
X783500D01*
G01X839000D02*
Y-1329510D01*
G02X844050Y-1324460I5050J0D01*
G01X844550D01*
X849040Y-1319970D01*
G02X853530Y-1318110I4490J-4490D01*
G01X882650D01*
G01X812000Y-1280010D02*
X783500D01*
G01X839000D02*
X849820D01*
G03X854310Y-1278150I0J6350D01*
G01X863290Y-1269170D01*
G02X867780Y-1267310I4490J-4490D01*
G01X882650D01*
G54D24*
X539750Y-1897010D03*
X514350D03*
Y-1806010D03*
X539750D03*
Y-1643010D03*
X514350D03*
Y-1552010D03*
X539750D03*
Y-1389010D03*
X514350D03*
Y-1298010D03*
X539750D03*
X666750Y-1897010D03*
X641350D03*
Y-1806010D03*
X666750D03*
Y-1643010D03*
X641350D03*
Y-1552010D03*
X666750D03*
Y-1389010D03*
X641350D03*
Y-1298010D03*
X666750D03*
G54D15*
X148500Y-527050D03*
X105500D03*
X154850Y-190500D03*
X111850D03*
X505550Y-1006960D03*
Y-822810D03*
Y-651360D03*
X548550Y-1006960D03*
Y-822810D03*
Y-651360D03*
X635400Y-1047510D03*
Y-1004510D03*
Y-863360D03*
Y-820360D03*
X635000Y-691910D03*
Y-648910D03*
X740500Y-1965810D03*
Y-1902310D03*
Y-1851510D03*
Y-1788010D03*
Y-1711810D03*
Y-1648310D03*
Y-1597510D03*
Y-1534010D03*
Y-1457810D03*
Y-1394310D03*
Y-1343510D03*
Y-1280010D03*
X783500Y-1965810D03*
Y-1902310D03*
Y-1851510D03*
Y-1788010D03*
Y-1711810D03*
Y-1648310D03*
Y-1597510D03*
Y-1534010D03*
Y-1457810D03*
Y-1394310D03*
Y-1343510D03*
Y-1280010D03*
X812800Y-545860D03*
Y-444260D03*
Y-502860D03*
Y-401260D03*
Y-299660D03*
Y-342660D03*
Y-241060D03*
Y-198060D03*
G54D34*
G01X76200Y-685800D02*
X104800D01*
G01X25400D02*
X76200D01*
G01Y-609600D02*
X104800D01*
G01X25400D02*
X76200D01*
G01Y-635000D02*
X104800D01*
G01X25400D02*
X76200D01*
G01Y-660400D02*
X104800D01*
G01X25400D02*
X76200D01*
G01Y-558800D02*
X104800D01*
G01X25400D02*
X76200D01*
G01Y-584200D02*
X104800D01*
G01X25400D02*
X76200D01*
G01Y-381000D02*
X104800D01*
G01X25400D02*
X76200D01*
G01Y-304800D02*
X104800D01*
G01X25400D02*
X76200D01*
G01Y-330200D02*
X104800D01*
G01X25400D02*
X76200D01*
G01Y-355600D02*
X104800D01*
G01X25400D02*
X76200D01*
G01Y-228600D02*
X104800D01*
G01X25400D02*
X76200D01*
G01Y-254000D02*
X104800D01*
G01X25400D02*
X76200D01*
G01Y-279400D02*
X104800D01*
G01X25400D02*
X76200D01*
G01X263550Y-1743560D02*
Y-1739380D01*
G03X261690Y-1734890I-6350J0D01*
G01X128860Y-1602060D01*
G02X127000Y-1597570I4490J4490D01*
G01Y-691630D01*
G03X125140Y-687140I-6350J0D01*
G01X123800Y-685800D01*
G01Y-660400D02*
G03X125390Y-664240I5430J-1D01*
G01X131490Y-670340D01*
G02X133350Y-674830I-4490J-4490D01*
G01Y-1591220D01*
G03X135210Y-1595710I6350J0D01*
G01X273050Y-1733550D01*
G01X263550Y-1489560D02*
Y-1479600D01*
G03X261690Y-1475110I-6350J0D01*
G01X154260Y-1367680D01*
G02X152400Y-1363190I4490J4490D01*
G01Y-652160D01*
G03X150540Y-647670I-6350J0D01*
G01X139730Y-636860D01*
G03X135240Y-635000I-4490J-4490D01*
G01X123800D01*
G01Y-609600D02*
X131510D01*
G02X136000Y-611460I0J-6350D01*
G01X156890Y-632350D01*
G02X158750Y-636840I-4490J-4490D01*
G01Y-1360790D01*
G03X160610Y-1365280I6350J0D01*
G01X271760Y-1476430D01*
G02X273050Y-1479550I-3120J-3117D01*
G01X123800Y-584200D02*
X139530D01*
G02X144020Y-586060I0J-6350D01*
G01X175940Y-617980D01*
G02X177800Y-622470I-4490J-4490D01*
G01Y-1136420D01*
G03X179660Y-1140910I6350J0D01*
G01X261690Y-1222940D01*
G02X263550Y-1227430I-4490J-4490D01*
G01Y-1235560D01*
G01X123800Y-558800D02*
X130720D01*
G02X135210Y-560660I0J-6350D01*
G01X182290Y-607740D01*
G02X184150Y-612230I-4490J-4490D01*
G01Y-1134020D01*
G03X186010Y-1138510I6350J0D01*
G01X273050Y-1225550D01*
G01X380150Y-1006960D02*
X357040D01*
G02X352550Y-1005100I0J6350D01*
G01X306300Y-958850D01*
X304800D01*
Y-399990D01*
G03X302940Y-395500I-6350J0D01*
G01X290300Y-382860D01*
G03X285810Y-381000I-4490J-4490D01*
G01X123800D01*
G01X380150Y-822810D02*
X355130D01*
G02X350640Y-820950I0J6350D01*
G01X325710Y-796020D01*
G02X323850Y-791530I4490J4490D01*
G01Y-389980D01*
G03X321990Y-385490I-6350J0D01*
G01X293960Y-357460D01*
G03X289470Y-355600I-4490J-4490D01*
G01X123800D01*
G01Y-304800D02*
X378370D01*
G02X382860Y-306660I0J-6350D01*
G01X398190Y-321990D01*
G03X402680Y-323850I4490J4490D01*
G01X448800D01*
G01X379750Y-651360D02*
X355540D01*
G02X351050Y-649500I0J6350D01*
G01X344760Y-643210D01*
G02X342900Y-638720I4490J4490D01*
G01Y-377280D01*
G03X341040Y-372790I-6350J0D01*
G01X300310Y-332060D01*
G03X295820Y-330200I-4490J-4490D01*
G01X123800D01*
G01Y-228600D02*
X397420D01*
G02X401910Y-230460I0J-6350D01*
G01X417240Y-245790D01*
G03X421730Y-247650I4490J4490D01*
G01X448800D01*
G01X123800Y-279400D02*
X384720D01*
G02X389210Y-281260I0J-6350D01*
G01X404540Y-296590D01*
G03X409030Y-298450I4490J4490D01*
G01X448800D01*
G01X123800Y-254000D02*
X391070D01*
G02X395560Y-255860I0J-6350D01*
G01X410890Y-271190D01*
G03X415380Y-273050I4490J4490D01*
G01X448800D01*
G01X279100Y-1857860D02*
X269330D01*
G02X264840Y-1856000I0J6350D01*
G01X255860Y-1847020D01*
G02X254000Y-1842530I4490J4490D01*
G01Y-1757990D01*
G02X255860Y-1753500I6350J0D01*
G01X261960Y-1747400D01*
G03X263550Y-1743560I-3840J3839D01*
G01X342900Y-1845160D02*
X330770D01*
G03X326280Y-1847020I0J-6350D01*
G01X317300Y-1856000D01*
G02X312810Y-1857860I-4490J4490D01*
G01X298450D01*
G02X292100Y-1851510I0J6350D01*
G01Y-1838810D01*
G03X285750Y-1832460I-6350J0D01*
G01X269900D01*
G02X263550Y-1826110I0J6350D01*
G01Y-1768960D01*
G01X305100Y-1867360D02*
X318390D01*
G02X322250Y-1868960I3J-5450D01*
G03X326110Y-1870560I3857J3850D01*
G01X342900D01*
G01X263550Y-1768960D02*
Y-1768390D01*
G02X265410Y-1763900I6350J0D01*
G01X271190Y-1758120D01*
G03X273050Y-1753630I-4490J4490D01*
G01Y-1733550D01*
G01X279100Y-1603860D02*
X269330D01*
G02X264840Y-1602000I0J6350D01*
G01X255860Y-1593020D01*
G02X254000Y-1588530I4490J4490D01*
G01Y-1503990D01*
G02X255860Y-1499500I6350J0D01*
G01X261960Y-1493400D01*
G03X263550Y-1489560I-3840J3839D01*
G01X342900Y-1591160D02*
X330770D01*
G03X326280Y-1593020I0J-6350D01*
G01X317300Y-1602000D01*
G02X312810Y-1603860I-4490J4490D01*
G01X298450D01*
G02X292100Y-1597510I0J6350D01*
G01Y-1584810D01*
G03X285750Y-1578460I-6350J0D01*
G01X269900D01*
G02X263550Y-1572110I0J6350D01*
G01Y-1514960D01*
G01X305100Y-1613360D02*
X318390D01*
G02X322250Y-1614960I3J-5450D01*
G03X326110Y-1616560I3857J3850D01*
G01X342900D01*
G01X263550Y-1514960D02*
Y-1514390D01*
G02X265410Y-1509900I6350J0D01*
G01X271190Y-1504120D01*
G03X273050Y-1499630I-4490J4490D01*
G01Y-1479550D01*
G01X305100Y-1359360D02*
X318390D01*
G02X322250Y-1360960I3J-5450D01*
G03X326110Y-1362560I3857J3850D01*
G01X342900D01*
G01X279100Y-1349860D02*
X269330D01*
G02X264840Y-1348000I0J6350D01*
G01X255860Y-1339020D01*
G02X254000Y-1334530I4490J4490D01*
G01Y-1249990D01*
G02X255860Y-1245500I6350J0D01*
G01X261960Y-1239400D01*
G03X263550Y-1235560I-3840J3839D01*
G01X342900Y-1337160D02*
X330770D01*
G03X326280Y-1339020I0J-6350D01*
G01X317300Y-1348000D01*
G02X312810Y-1349860I-4490J4490D01*
G01X298450D01*
G02X292100Y-1343510I0J6350D01*
G01Y-1330810D01*
G03X285750Y-1324460I-6350J0D01*
G01X269900D01*
G02X263550Y-1318110I0J6350D01*
G01Y-1276860D01*
G01Y-1260960D02*
Y-1276860D01*
G01Y-1258710D02*
Y-1260960D01*
G01X273050Y-1248260D02*
Y-1249210D01*
X263550Y-1258710D01*
G01X273050Y-1225550D02*
Y-1248260D01*
G01X342900Y-1870560D02*
Y-1857860D01*
G01Y-1616560D02*
Y-1603860D01*
G01Y-1362560D02*
Y-1349860D01*
G01X434900Y-1895960D02*
X479970D01*
G02X484460Y-1897820I0J-6350D01*
G01X506140Y-1919500D01*
G03X510630Y-1921360I4490J4490D01*
G01X526280D01*
G03X530770Y-1919500I0J6350D01*
G01X537890Y-1912380D01*
G03X539750Y-1907890I-4490J4490D01*
G01Y-1897010D01*
G01X434900Y-1870560D02*
X520700D01*
G01X434900Y-1832460D02*
X495300D01*
G03X501650Y-1826110I0J6350D01*
G01Y-1794360D01*
G02X508000Y-1788010I6350J0D01*
G01X523870D01*
G02X528360Y-1789870I0J-6350D01*
G01X537890Y-1799400D01*
G02X539750Y-1803890I-4490J-4490D01*
G01Y-1806010D01*
G01X434900Y-1845160D02*
X495300D01*
G01X434900Y-1591160D02*
X495300D01*
G01X434900Y-1616560D02*
X520700D01*
G01X434900Y-1641960D02*
X479970D01*
G02X484460Y-1643820I0J-6350D01*
G01X506140Y-1665500D01*
G03X510630Y-1667360I4490J4490D01*
G01X526280D01*
G03X530770Y-1665500I0J6350D01*
G01X537890Y-1658380D01*
G03X539750Y-1653890I-4490J4490D01*
G01Y-1643010D01*
G01X434900Y-1578460D02*
X495300D01*
G03X501650Y-1572110I0J6350D01*
G01Y-1540360D01*
G02X508000Y-1534010I6350J0D01*
G01X523870D01*
G02X528360Y-1535870I0J-6350D01*
G01X537890Y-1545400D01*
G02X539750Y-1549890I-4490J-4490D01*
G01Y-1552010D01*
G01X434900Y-1387960D02*
X479970D01*
G02X484460Y-1389820I0J-6350D01*
G01X506140Y-1411500D01*
G03X510630Y-1413360I4490J4490D01*
G01X526280D01*
G03X530770Y-1411500I0J6350D01*
G01X537890Y-1404380D01*
G03X539750Y-1399890I-4490J4490D01*
G01Y-1389010D01*
G01X434900Y-1362560D02*
X520700D01*
G01X434900Y-1324460D02*
X495300D01*
G03X501650Y-1318110I0J6350D01*
G01Y-1286360D01*
G02X508000Y-1280010I6350J0D01*
G01X523870D01*
G02X528360Y-1281870I0J-6350D01*
G01X537890Y-1291400D01*
G02X539750Y-1295890I-4490J-4490D01*
G01Y-1298010D01*
G01X495300Y-1337160D02*
X434900D01*
G01X446150Y-994260D02*
X463740D01*
X464040Y-993960D01*
X470300D01*
G01X446150Y-1019660D02*
X463740D01*
X464040Y-1019960D01*
X470300D01*
G01X446150Y-835510D02*
X463740D01*
X464040Y-835810D01*
X470300D01*
G01X446150Y-810110D02*
X463740D01*
X464040Y-809810D01*
X470300D01*
G01X445750Y-638660D02*
X463340D01*
X463640Y-638360D01*
X469900D01*
G01X445750Y-664060D02*
X463340D01*
X463640Y-664360D01*
X469900D01*
G01X514350Y-1897010D02*
Y-1879540D01*
G02X516210Y-1875050I6350J0D01*
G01X520700Y-1870560D01*
G01X479050Y-1953110D02*
X530770D01*
G02X535260Y-1954970I0J-6350D01*
G01X556940Y-1976650D01*
G03X561430Y-1978510I4490J4490D01*
G01X581050D01*
G01Y-1953110D02*
G02X582640Y-1949270I5430J1D01*
G01X588690Y-1943220D01*
G03X590550Y-1938730I-4490J4490D01*
G01Y-1892240D01*
G03X588690Y-1887750I-6350J0D01*
G01X573360Y-1872420D01*
G03X568870Y-1870560I-4490J-4490D01*
G01X520700D01*
G01X514350Y-1806010D02*
Y-1823480D01*
G02X512490Y-1827970I-6350J0D01*
G01X495300Y-1845160D01*
G01X581050Y-1826110D02*
X574130D01*
G03X569640Y-1827970I0J-6350D01*
G01X554310Y-1843300D01*
G02X549820Y-1845160I-4490J4490D01*
G01X495300D01*
G01X479050Y-1699110D02*
X530770D01*
G02X535260Y-1700970I0J-6350D01*
G01X556940Y-1722650D01*
G03X561430Y-1724510I4490J4490D01*
G01X581050D01*
G01Y-1572110D02*
X574130D01*
G03X569640Y-1573970I0J-6350D01*
G01X554310Y-1589300D01*
G02X549820Y-1591160I-4490J4490D01*
G01X495300D01*
G01X514350Y-1552010D02*
Y-1569480D01*
G02X512490Y-1573970I-6350J0D01*
G01X495300Y-1591160D01*
G01X581050Y-1699110D02*
G02X582640Y-1695270I5430J1D01*
G01X588690Y-1689220D01*
G03X590550Y-1684730I-4490J4490D01*
G01Y-1638240D01*
G03X588690Y-1633750I-6350J0D01*
G01X573360Y-1618420D01*
G03X568870Y-1616560I-4490J-4490D01*
G01X520700D01*
G01X514350Y-1643010D02*
Y-1625540D01*
G02X516210Y-1621050I6350J0D01*
G01X520700Y-1616560D01*
G01X479050Y-1445110D02*
X530770D01*
G02X535260Y-1446970I0J-6350D01*
G01X556940Y-1468650D01*
G03X561430Y-1470510I4490J4490D01*
G01X581050D01*
G01Y-1445110D02*
G02X582640Y-1441270I5430J1D01*
G01X588690Y-1435220D01*
G03X590550Y-1430730I-4490J4490D01*
G01Y-1384240D01*
G03X588690Y-1379750I-6350J0D01*
G01X573360Y-1364420D01*
G03X568870Y-1362560I-4490J-4490D01*
G01X520700D01*
G01X514350Y-1389010D02*
Y-1371540D01*
G02X516210Y-1367050I6350J0D01*
G01X520700Y-1362560D01*
G01X514350Y-1298010D02*
Y-1315480D01*
G02X512490Y-1319970I-6350J0D01*
G01X495300Y-1337160D01*
G01X581050Y-1318110D02*
X574130D01*
G03X569640Y-1319970I0J-6350D01*
G01X554310Y-1335300D01*
G02X549820Y-1337160I-4490J4490D01*
G01X495300D01*
G01X470300Y-993960D02*
X476810Y-994250D01*
G03X477090Y-994260I367J6337D01*
G01X483000D01*
G01X470300Y-1019960D02*
X489920D01*
G03X494410Y-1018100I0J6350D01*
G01X505550Y-1006960D01*
G01X470300Y-835810D02*
X490260D01*
G03X494820Y-833880I1J6350D01*
G01X505550Y-822810D01*
G01X470300Y-809810D02*
X476810Y-810100D01*
G03X477090Y-810110I367J6337D01*
G01X483000D01*
G01X469900Y-638360D02*
X476410Y-638650D01*
G03X476690Y-638660I367J6337D01*
G01X482600D01*
G01X469900Y-664360D02*
X489920D01*
G03X494410Y-662500I0J6350D01*
G01X505550Y-651360D01*
G01X600050Y-1978510D02*
Y-1953110D01*
G01X581050Y-1902310D02*
X561430D01*
G02X556940Y-1900450I0J6350D01*
G01X555360Y-1898870D01*
G03X550870Y-1897010I-4490J-4490D01*
G01X539750D01*
G01X600050Y-1953110D02*
X632370D01*
G03X636860Y-1951250I0J6350D01*
G01X645840Y-1942270D01*
G02X650330Y-1940410I4490J-4490D01*
G01X772070D01*
G02X776560Y-1942270I0J-6350D01*
G01X781640Y-1947350D01*
G02X783500Y-1951840I-4490J-4490D01*
G01Y-1965810D01*
G01X600050Y-1902310D02*
Y-1927710D01*
G01D02*
X772070D01*
G03X776560Y-1925850I0J6350D01*
G01X781640Y-1920770D01*
G03X783500Y-1916280I-4490J4490D01*
G01Y-1902310D01*
G01X603250Y-1848360D02*
X704850D01*
G01X603250D02*
Y-1838810D01*
X601990D01*
G02X600050Y-1836870I0J1940D01*
G01Y-1826110D01*
G01X603250Y-1867360D02*
X622820D01*
G02X627310Y-1869220I0J-6350D01*
G01X639490Y-1881400D01*
G02X641350Y-1885890I-4490J-4490D01*
G01Y-1897010D01*
G01X581050Y-1800710D02*
X547680D01*
G03X543190Y-1802570I0J-6350D01*
G01X539750Y-1806010D01*
G01X600050Y-1800710D02*
X606970D01*
G02X611460Y-1802570I0J-6350D01*
G01X613040Y-1804150D01*
G03X617530Y-1806010I4490J4490D01*
G01X641350D01*
G01X600050Y-1724510D02*
Y-1699110D01*
G01D02*
X632370D01*
G03X636860Y-1697250I0J6350D01*
G01X645840Y-1688270D01*
G02X650330Y-1686410I4490J-4490D01*
G01X772070D01*
G02X776560Y-1688270I0J-6350D01*
G01X781640Y-1693350D01*
G02X783500Y-1697840I-4490J-4490D01*
G01Y-1711810D01*
G01X600050Y-1648310D02*
Y-1673710D01*
G01D02*
X772070D01*
G03X776560Y-1671850I0J6350D01*
G01X781640Y-1666770D01*
G03X783500Y-1662280I-4490J4490D01*
G01Y-1648310D01*
G01X603250Y-1594360D02*
X704850D01*
G01X603250D02*
Y-1584810D01*
X601990D01*
G02X600050Y-1582870I0J1940D01*
G01Y-1572110D01*
G01X581050Y-1648310D02*
X561430D01*
G02X556940Y-1646450I0J6350D01*
G01X555360Y-1644870D01*
G03X550870Y-1643010I-4490J-4490D01*
G01X539750D01*
G01X603250Y-1613360D02*
X622820D01*
G02X627310Y-1615220I0J-6350D01*
G01X639490Y-1627400D01*
G02X641350Y-1631890I-4490J-4490D01*
G01Y-1643010D01*
G01X600050Y-1546710D02*
X606970D01*
G02X611460Y-1548570I0J-6350D01*
G01X613040Y-1550150D01*
G03X617530Y-1552010I4490J4490D01*
G01X641350D01*
G01X581050Y-1546710D02*
X547680D01*
G03X543190Y-1548570I0J-6350D01*
G01X539750Y-1552010D01*
G01X600050Y-1470510D02*
Y-1445110D01*
G01D02*
X632370D01*
G03X636860Y-1443250I0J6350D01*
G01X645840Y-1434270D01*
G02X650330Y-1432410I4490J-4490D01*
G01X772070D01*
G02X776560Y-1434270I0J-6350D01*
G01X781640Y-1439350D01*
G02X783500Y-1443840I-4490J-4490D01*
G01Y-1457810D01*
G01X581050Y-1394310D02*
X561430D01*
G02X556940Y-1392450I0J6350D01*
G01X555360Y-1390870D01*
G03X550870Y-1389010I-4490J-4490D01*
G01X539750D01*
G01X600050Y-1394310D02*
Y-1419710D01*
G01D02*
X772070D01*
G03X776560Y-1417850I0J6350D01*
G01X781640Y-1412770D01*
G03X783500Y-1408280I-4490J4490D01*
G01Y-1394310D01*
G01X603250Y-1359360D02*
X622820D01*
G02X627310Y-1361220I0J-6350D01*
G01X639490Y-1373400D01*
G02X641350Y-1377890I-4490J-4490D01*
G01Y-1389010D01*
G01X581050Y-1292710D02*
X547680D01*
G03X543190Y-1294570I0J-6350D01*
G01X539750Y-1298010D01*
G01X600050Y-1292710D02*
X606970D01*
G02X611460Y-1294570I0J-6350D01*
G01X613040Y-1296150D01*
G03X617530Y-1298010I4490J4490D01*
G01X641350D01*
G01X603250Y-1340360D02*
X704850D01*
G01X603250D02*
Y-1330810D01*
X601990D01*
G02X600050Y-1328870I0J1940D01*
G01Y-1318110D01*
G01X541800Y-323850D02*
X558860D01*
G02X563350Y-325710I0J-6350D01*
G01X582340Y-344700D01*
G02X584200Y-349190I-4490J-4490D01*
G01Y-445530D01*
G03X586060Y-450020I6350J0D01*
G01X635000Y-498960D01*
G01X541800Y-298450D02*
X565210D01*
G02X569700Y-300310I0J-6350D01*
G01X601390Y-332000D01*
G02X603250Y-336490I-4490J-4490D01*
G01Y-362980D01*
G03X605110Y-367470I6350J0D01*
G01X635000Y-397360D01*
G01X541800Y-273050D02*
X584260D01*
G02X588750Y-274910I0J-6350D01*
G01X607740Y-293900D01*
G03X612230Y-295760I4490J4490D01*
G01X635000D01*
G01X541800Y-247650D02*
X566180D01*
G03X570670Y-245790I0J6350D01*
G01X620440Y-196020D01*
G02X624930Y-194160I4490J-4490D01*
G01X635000D01*
G01X704850Y-1867360D02*
X685280D01*
G03X680790Y-1869220I0J-6350D01*
G01X668610Y-1881400D01*
G03X666750Y-1885890I4490J-4490D01*
G01Y-1897010D01*
G01X641350Y-1806010D02*
X666750D01*
G01D02*
X688470D01*
G02X692960Y-1807870I0J-6350D01*
G01X696640Y-1811550D01*
G03X701130Y-1813410I4490J4490D01*
G01X772070D01*
G03X776560Y-1811550I0J6350D01*
G01X781640Y-1806470D01*
G03X783500Y-1801980I-4490J4490D01*
G01Y-1788010D01*
G01X704850Y-1613360D02*
X685280D01*
G03X680790Y-1615220I0J-6350D01*
G01X668610Y-1627400D01*
G03X666750Y-1631890I4490J-4490D01*
G01Y-1643010D01*
G01X641350Y-1552010D02*
X666750D01*
G01D02*
X688470D01*
G02X692960Y-1553870I0J-6350D01*
G01X696640Y-1557550D01*
G03X701130Y-1559410I4490J4490D01*
G01X772070D01*
G03X776560Y-1557550I0J6350D01*
G01X781640Y-1552470D01*
G03X783500Y-1547980I-4490J4490D01*
G01Y-1534010D01*
G01X704850Y-1359360D02*
X685280D01*
G03X680790Y-1361220I0J-6350D01*
G01X668610Y-1373400D01*
G03X666750Y-1377890I4490J-4490D01*
G01Y-1389010D01*
G01X641350Y-1298010D02*
X666750D01*
G01D02*
X688470D01*
G02X692960Y-1299870I0J-6350D01*
G01X696640Y-1303550D01*
G03X701130Y-1305410I4490J4490D01*
G01X772070D01*
G03X776560Y-1303550I0J6350D01*
G01X781640Y-1298470D01*
G03X783500Y-1293980I-4490J4490D01*
G01Y-1280010D01*
G01X704850Y-1848360D02*
G03X708690Y-1846770I1J5430D01*
G01X727490Y-1827970D01*
G02X731980Y-1826110I4490J-4490D01*
G01X772070D01*
G02X776560Y-1827970I0J-6350D01*
G01X781640Y-1833050D01*
G02X783500Y-1837540I-4490J-4490D01*
G01Y-1851510D01*
G01X704850Y-1594360D02*
G03X708690Y-1592770I1J5430D01*
G01X727490Y-1573970D01*
G02X731980Y-1572110I4490J-4490D01*
G01X772070D01*
G02X776560Y-1573970I0J-6350D01*
G01X781640Y-1579050D01*
G02X783500Y-1583540I-4490J-4490D01*
G01Y-1597510D01*
G01X704850Y-1340360D02*
G03X708690Y-1338770I1J5430D01*
G01X727490Y-1319970D01*
G02X731980Y-1318110I4490J-4490D01*
G01X772070D01*
G02X776560Y-1319970I0J-6350D01*
G01X781640Y-1325050D01*
G02X783500Y-1329540I-4490J-4490D01*
G01Y-1343510D01*
G54D25*
X502450Y-1095860D03*
Y-911710D03*
X502050Y-740260D03*
X718350Y-1038710D03*
Y-854560D03*
X717950Y-683110D03*
G54D16*
X139700Y-482600D03*
Y-146050D03*
G54D35*
G01X63910Y-533400D02*
X76200D01*
G01D02*
X88490D01*
G01X25400D02*
X37690D01*
G01X25400D02*
X35340Y-523460D01*
G01X64130Y-215270D02*
X76200Y-203200D01*
G01X25400D02*
X37470Y-215270D01*
G01X62660Y-203200D02*
X76200D01*
G01D02*
X89740D01*
G01X25400D02*
X38940D01*
G01X25400D02*
X37470Y-191130D01*
G01X148500Y-541840D02*
Y-527050D01*
G01X133710D02*
X148500D01*
G01X154850Y-206540D02*
Y-190500D01*
G01D02*
Y-174460D01*
G01X138810Y-190500D02*
X154850D01*
G01D02*
X170890D01*
G01X203200Y-1536540D02*
Y-1524000D01*
G01D02*
Y-1511460D01*
G01X190660Y-1524000D02*
X203200D01*
G01D02*
X215740D01*
G01X177800Y-1536290D02*
Y-1524000D01*
G01D02*
Y-1511710D01*
G01X165510Y-1524000D02*
X177800D01*
G01D02*
X190090D01*
G01X289950Y-1907500D02*
Y-1895960D01*
G01D02*
Y-1884420D01*
G01X279910Y-1895960D02*
X289950D01*
G01X276600Y-1945750D02*
Y-1927710D01*
G01D02*
Y-1909670D01*
G01X266560Y-1927710D02*
X276600D01*
G01D02*
X286640D01*
G01X296300Y-1819760D02*
Y-1808220D01*
G01X286260Y-1819760D02*
X296300D01*
G01X279100Y-1874900D02*
Y-1867360D01*
G01X269060D02*
X279100D01*
G01D02*
X289140D01*
G01X296300Y-1805900D02*
Y-1794360D01*
G01D02*
Y-1782820D01*
G01X286260Y-1794360D02*
X296300D01*
G01X276600Y-1691750D02*
Y-1673710D01*
G01D02*
Y-1655670D01*
G01X266560Y-1673710D02*
X276600D01*
G01D02*
X286640D01*
G01X289950Y-1653500D02*
Y-1641960D01*
G01D02*
Y-1630420D01*
G01X279910Y-1641960D02*
X289950D01*
G01X279100Y-1620900D02*
Y-1613360D01*
G01X269060D02*
X279100D01*
G01D02*
X289140D01*
G01X296300Y-1565760D02*
Y-1554220D01*
G01X286260Y-1565760D02*
X296300D01*
G01Y-1551900D02*
Y-1540360D01*
G01D02*
Y-1528820D01*
G01X286260Y-1540360D02*
X296300D01*
G01X276600Y-1437750D02*
Y-1419710D01*
G01X289950Y-1399500D02*
Y-1387960D01*
G01D02*
Y-1376420D01*
G01X279910Y-1387960D02*
X289950D01*
G01X276600Y-1419710D02*
Y-1401670D01*
G01X266560Y-1419710D02*
X276600D01*
G01D02*
X286640D01*
G01X279100Y-1366900D02*
Y-1359360D01*
G01X269060D02*
X279100D01*
G01D02*
X289140D01*
G01X296300Y-1311760D02*
Y-1300220D01*
G01X286260Y-1311760D02*
X296300D01*
G01Y-1297900D02*
Y-1286360D01*
G01D02*
Y-1274820D01*
G01X286260Y-1286360D02*
X296300D01*
G01X327360Y-1883260D02*
X342900D01*
G01X326000Y-1768960D02*
Y-1757420D01*
G01Y-1768960D02*
X336040D01*
G01X327360Y-1629260D02*
X342900D01*
G01X326000Y-1514960D02*
Y-1503420D01*
G01Y-1514960D02*
X336040D01*
G01X327360Y-1375260D02*
X342900D01*
G01X326000Y-1260960D02*
Y-1249420D01*
G01Y-1260960D02*
X336040D01*
G01X364000Y-1051500D02*
Y-1038710D01*
G01D02*
Y-1025920D01*
G01X352710Y-1038710D02*
X364000D01*
G01X380150Y-994260D02*
Y-985220D01*
G01X366610Y-994260D02*
X380150D01*
G01X364000Y-867350D02*
Y-854560D01*
G01D02*
Y-841770D01*
G01X352710Y-854560D02*
X364000D01*
G01X380150Y-810110D02*
Y-801070D01*
G01X366610Y-810110D02*
X380150D01*
G01X364000Y-695900D02*
Y-683110D01*
G01D02*
Y-670320D01*
G01X352710Y-683110D02*
X364000D01*
G01X379750Y-638660D02*
Y-629620D01*
G01X366210Y-638660D02*
X379750D01*
G01X448050Y-1970150D02*
Y-1953110D01*
G01X434900Y-1927900D02*
Y-1921360D01*
G01D02*
X449440D01*
G01X452360D02*
X461400D01*
G01X448050Y-1953110D02*
Y-1936070D01*
G01X439010Y-1953110D02*
X448050D01*
G01X434900Y-1883260D02*
X449440D01*
G01X434900Y-1857860D02*
X449440D01*
G01X434900Y-1807060D02*
Y-1800520D01*
G01Y-1807060D02*
X449440D01*
G01X448700Y-1792200D02*
Y-1781660D01*
G01D02*
Y-1771120D01*
G01X439660Y-1781660D02*
X448700D01*
G01X452360Y-1807060D02*
X461400D01*
G01X434900Y-1673900D02*
Y-1667360D01*
G01D02*
X449440D01*
G01X452360D02*
X461400D01*
G01X448050Y-1716150D02*
Y-1699110D01*
G01D02*
Y-1682070D01*
G01X439010Y-1699110D02*
X448050D01*
G01X434900Y-1629260D02*
X449440D01*
G01X434900Y-1603860D02*
X449440D01*
G01X434900Y-1553060D02*
Y-1546520D01*
G01Y-1553060D02*
X449440D01*
G01X452360D02*
X461400D01*
G01X448700Y-1538200D02*
Y-1527660D01*
G01D02*
Y-1517120D01*
G01X439660Y-1527660D02*
X448700D01*
G01X448050Y-1462150D02*
Y-1445110D01*
G01D02*
Y-1428070D01*
G01X439010Y-1445110D02*
X448050D01*
G01X434900Y-1419900D02*
Y-1413360D01*
G01D02*
X449440D01*
G01X434900Y-1375260D02*
X449440D01*
G01X452360Y-1413360D02*
X461400D01*
G01X448700Y-1284200D02*
Y-1273660D01*
G01X434900Y-1349860D02*
X449440D01*
G01X434900Y-1299060D02*
Y-1292520D01*
G01Y-1299060D02*
X449440D01*
G01X452360D02*
X461400D01*
G01X448700Y-1273660D02*
Y-1263120D01*
G01X439660Y-1273660D02*
X448700D01*
G01X457200Y-451940D02*
Y-438150D01*
G01X431800Y-451690D02*
Y-438150D01*
G01X457200D02*
Y-424360D01*
G01Y-438150D02*
X470990D01*
G01X431800D02*
Y-424610D01*
G01X418260Y-438150D02*
X431800D01*
G01X448800Y-358040D02*
Y-349250D01*
G01D02*
X464590D01*
G01X433010Y-336550D02*
X448800D01*
G01D02*
X464590D01*
G01X433010Y-311150D02*
X448800D01*
G01D02*
X464590D01*
G01X433010Y-285750D02*
X448800D01*
G01D02*
X464590D01*
G01X433010Y-260350D02*
X448800D01*
G01D02*
X464590D01*
G01X461400Y-1931900D02*
Y-1921360D01*
G01Y-1807060D02*
Y-1796520D01*
G01Y-1677900D02*
Y-1667360D01*
G01Y-1553060D02*
Y-1542520D01*
G01Y-1423900D02*
Y-1413360D01*
G01Y-1299060D02*
Y-1288520D01*
G01X503450Y-1082150D02*
Y-1064110D01*
G01X493410D02*
X503450D01*
G01D02*
X513490D01*
G01X503450Y-898000D02*
Y-879960D01*
G01X493410D02*
X503450D01*
G01D02*
X513490D01*
G01X503050Y-726550D02*
Y-708510D01*
G01X493010D02*
X503050D01*
G01D02*
X513090D01*
G01X524900Y-539840D02*
Y-527050D01*
G01D02*
Y-514260D01*
G01X513610Y-527050D02*
X524900D01*
G01Y-215990D02*
Y-203200D01*
G01D02*
Y-190410D01*
G01X513610Y-203200D02*
X524900D01*
G01X581050Y-1938250D02*
Y-1927710D01*
G01D02*
Y-1917170D01*
G01X572760Y-1927710D02*
X581050D01*
G01Y-1684250D02*
Y-1673710D01*
G01D02*
Y-1663170D01*
G01X572760Y-1673710D02*
X581050D01*
G01Y-1430250D02*
Y-1419710D01*
G01D02*
Y-1409170D01*
G01X572760Y-1419710D02*
X581050D01*
G01X541410Y-1064110D02*
X551450D01*
G01D02*
X561490D01*
G01X548550Y-1006960D02*
Y-992170D01*
G01Y-1006960D02*
X563340D01*
G01X541410Y-879960D02*
X551450D01*
G01D02*
X561490D01*
G01X548550Y-822810D02*
Y-808020D01*
G01Y-822810D02*
X563340D01*
G01X541010Y-708510D02*
X551050D01*
G01D02*
X561090D01*
G01X548550Y-651360D02*
Y-636570D01*
G01Y-651360D02*
X563340D01*
G01X635400Y-1004510D02*
Y-989720D01*
G01X620610Y-1004510D02*
X635400D01*
G01D02*
X650190D01*
G01X635400Y-820360D02*
Y-805570D01*
G01X620610Y-820360D02*
X635400D01*
G01D02*
X650190D01*
G01X635000Y-648910D02*
Y-634120D01*
G01X620210Y-648910D02*
X635000D01*
G01D02*
X649790D01*
G01X740500Y-1979600D02*
Y-1965810D01*
G01Y-1916100D02*
Y-1902310D01*
G01D02*
Y-1888520D01*
G01X726710Y-1902310D02*
X740500D01*
G01D02*
X754290D01*
G01X740500Y-1965810D02*
Y-1952020D01*
G01X726710Y-1965810D02*
X740500D01*
G01D02*
X754290D01*
G01X740500Y-1865300D02*
Y-1851510D01*
G01D02*
Y-1837720D01*
G01X726710Y-1851510D02*
X740500D01*
G01D02*
X754290D01*
G01X740500Y-1801800D02*
Y-1788010D01*
G01D02*
Y-1774220D01*
G01X726710Y-1788010D02*
X740500D01*
G01D02*
X754290D01*
G01X740500Y-1725600D02*
Y-1711810D01*
G01D02*
Y-1698020D01*
G01X726710Y-1711810D02*
X740500D01*
G01D02*
X754290D01*
G01X740500Y-1662100D02*
Y-1648310D01*
G01D02*
Y-1634520D01*
G01X726710Y-1648310D02*
X740500D01*
G01D02*
X754290D01*
G01X740500Y-1611300D02*
Y-1597510D01*
G01D02*
Y-1583720D01*
G01X726710Y-1597510D02*
X740500D01*
G01D02*
X754290D01*
G01X740500Y-1547800D02*
Y-1534010D01*
G01D02*
Y-1520220D01*
G01X726710Y-1534010D02*
X740500D01*
G01D02*
X754290D01*
G01X740500Y-1471600D02*
Y-1457810D01*
G01D02*
Y-1444020D01*
G01X726710Y-1457810D02*
X740500D01*
G01D02*
X754290D01*
G01X740500Y-1408100D02*
Y-1394310D01*
G01D02*
Y-1380520D01*
G01X726710Y-1394310D02*
X740500D01*
G01D02*
X754290D01*
G01X740500Y-1357300D02*
Y-1343510D01*
G01D02*
Y-1329720D01*
G01X726710Y-1343510D02*
X740500D01*
G01D02*
X754290D01*
G01X740500Y-1293800D02*
Y-1280010D01*
G01D02*
Y-1266220D01*
G01X726710Y-1280010D02*
X740500D01*
G01D02*
X754290D01*
G01X757310Y-1006960D02*
X767350D01*
G01X719350Y-1025000D02*
Y-1006960D01*
G01X709310D02*
X719350D01*
G01D02*
X729390D01*
G01X719350Y-840850D02*
Y-822810D01*
G01X757310D02*
X767350D01*
G01X709310D02*
X719350D01*
G01D02*
X729390D01*
G01X756910Y-651360D02*
X766950D01*
G01X718950Y-669400D02*
Y-651360D01*
G01X708910D02*
X718950D01*
G01D02*
X728990D01*
G01X767350Y-1025000D02*
Y-1006960D01*
G01D02*
X777390D01*
G01X767350Y-840850D02*
Y-822810D01*
G01D02*
X777390D01*
G01X766950Y-669400D02*
Y-651360D01*
G01D02*
X776990D01*
G01X882650Y-1892950D02*
Y-1876910D01*
G01D02*
Y-1860870D01*
G01X866610Y-1876910D02*
X882650D01*
G01D02*
X898690D01*
G01X882650Y-1638950D02*
Y-1622910D01*
G01D02*
Y-1606870D01*
G01X866610Y-1622910D02*
X882650D01*
G01D02*
X898690D01*
G01X882650Y-1384950D02*
Y-1368910D01*
G01D02*
Y-1352870D01*
G01X866610Y-1368910D02*
X882650D01*
G01D02*
X898690D01*
G54D26*
X470300Y-993960D03*
Y-1019960D03*
Y-835810D03*
Y-809810D03*
X469900Y-638360D03*
Y-664360D03*
G54D17*
X203200Y-1524000D03*
X457200Y-438150D03*
G54D18*
X289950Y-1895960D03*
X306950D03*
X296300Y-1819760D03*
Y-1794360D03*
X309000Y-1768960D03*
X289950Y-1641960D03*
X306950D03*
X296300Y-1565760D03*
X309000Y-1514960D03*
X296300Y-1540360D03*
X289950Y-1387960D03*
X306950D03*
X296300Y-1311760D03*
Y-1286360D03*
X309000Y-1260960D03*
X313300Y-1819760D03*
Y-1794360D03*
X326000Y-1768960D03*
X313300Y-1565760D03*
X326000Y-1514960D03*
X313300Y-1540360D03*
Y-1311760D03*
Y-1286360D03*
X326000Y-1260960D03*
X364000Y-1038710D03*
X381000D03*
X364000Y-854560D03*
X381000D03*
X364000Y-683110D03*
X381000D03*
X461400Y-1921360D03*
X448700Y-1781660D03*
X461400Y-1807060D03*
Y-1667360D03*
Y-1553060D03*
X448700Y-1527660D03*
X461400Y-1413360D03*
Y-1299060D03*
X448700Y-1273660D03*
X478400Y-1921360D03*
X465700Y-1781660D03*
X478400Y-1807060D03*
Y-1667360D03*
Y-1553060D03*
X465700Y-1527660D03*
X478400Y-1413360D03*
Y-1299060D03*
X465700Y-1273660D03*
X524900Y-527050D03*
Y-203200D03*
X541900Y-527050D03*
Y-203200D03*
G54D27*
X603250Y-1867360D03*
Y-1848360D03*
Y-1613360D03*
Y-1594360D03*
Y-1359360D03*
Y-1340360D03*
X704850Y-1867360D03*
Y-1848360D03*
Y-1613360D03*
Y-1594360D03*
Y-1359360D03*
Y-1340360D03*
G54D19*
X276600Y-1927710D03*
X307600D03*
X276600Y-1673710D03*
X307600D03*
X276600Y-1419710D03*
X307600D03*
X448050Y-1953110D03*
Y-1699110D03*
Y-1445110D03*
X479050Y-1953110D03*
Y-1699110D03*
Y-1445110D03*
X503450Y-1064110D03*
Y-879960D03*
X503050Y-708510D03*
X551450Y-1064110D03*
Y-879960D03*
X551050Y-708510D03*
X767350Y-1006960D03*
X719350D03*
X767350Y-822810D03*
X719350D03*
X766950Y-651360D03*
X718950D03*
G54D28*
X552450Y-1095860D03*
Y-911710D03*
X552050Y-740260D03*
X768350Y-1038710D03*
Y-854560D03*
X767950Y-683110D03*
G54D29*
X839000Y-1965810D03*
X812000D03*
X839000Y-1902310D03*
X812000D03*
X839000Y-1851510D03*
X812000D03*
X839000Y-1788010D03*
X812000D03*
X839000Y-1711810D03*
X812000D03*
X839000Y-1648310D03*
X812000D03*
X839000Y-1597510D03*
X812000D03*
X839000Y-1534010D03*
X812000D03*
X839000Y-1457810D03*
X812000D03*
X839000Y-1394310D03*
X812000D03*
X839000Y-1343510D03*
X812000D03*
X839000Y-1280010D03*
X812000D03*
M02*
